<?xml version="1.0" standalone="no"?>
<!DOCTYPE svg PUBLIC "-//W3C//DTD SVG 1.1//EN" "http://www.w3.org/Graphics/SVG/1.1/DTD/svg11.dtd" >
<svg xmlns="http://www.w3.org/2000/svg">
<metadata></metadata>
<defs>
<font id="advert_blackregular" horiz-adv-x="1273" >
<font-face units-per-em="2048" ascent="1638" descent="-410" />
<missing-glyph horiz-adv-x="440" />
<glyph horiz-adv-x="2048" />
<glyph horiz-adv-x="2048" />
<glyph unicode="&#xd;" horiz-adv-x="2048" />
<glyph unicode=" "  horiz-adv-x="440" />
<glyph unicode="&#x09;" horiz-adv-x="440" />
<glyph unicode="&#xa0;" horiz-adv-x="440" />
<glyph unicode="!" horiz-adv-x="620" d="M39 1483l539 49q-34 -239 -56 -507.5t-22 -467.5h-357q-49 612 -104 926zM61 195q0 96 68 160.5t184 64.5q113 0 179.5 -64.5t66.5 -160.5q0 -91 -66.5 -154.5t-179.5 -63.5q-115 0 -183.5 63.5t-68.5 154.5z" />
<glyph unicode="&#x22;" horiz-adv-x="946" d="M59 1505h402q-63 -280 -96 -620h-277q0 340 -29 620zM510 1505h405q-29 -121 -55.5 -295.5t-38.5 -324.5h-280q0 125 -9 309.5t-22 310.5z" />
<glyph unicode="#" d="M14 360l39 250h180l35 277h-180l31 250h182q25 176 39 368h313q-43 -208 -63 -368h217q19 130 39 368h311q-9 -45 -61 -368h164l-33 -250h-168l-39 -277h166l-35 -250h-164q-25 -197 -39 -360h-313q9 51 22.5 126t23 130.5t17.5 103.5h-217q-24 -188 -41 -360h-311 q28 146 59 360h-174zM512 610h227l37 277h-225z" />
<glyph unicode="$" horiz-adv-x="1236" d="M78 96l106 291q201 -80 361 -80q104 0 159.5 33.5t55.5 83.5q0 48 -46.5 86.5t-174.5 89.5l-129 51q-151 58 -220 154.5t-69 247.5q0 160 131 281.5t344 150.5v170h168v-164q192 -5 377 -53l-111 -293q-135 55 -303 55q-95 0 -149 -33t-54 -77t47.5 -82t167.5 -82 l103 -37q169 -63 244 -162.5t75 -257.5q0 -171 -112.5 -289t-307.5 -155v-189h-166v178q-273 0 -497 82z" />
<glyph unicode="%" horiz-adv-x="2103" d="M39 1055q0 110 35 201.5t93.5 151t134 92t157.5 32.5q87 0 161 -28.5t131.5 -83.5t90 -143.5t32.5 -201.5q0 -110 -34 -201t-92 -150.5t-132.5 -92.5t-156.5 -33q-87 0 -162 28.5t-133 83.5t-91.5 144t-33.5 201zM367 1065q0 -260 92 -260q90 0 90 260q0 126 -23 194 t-67 68q-92 0 -92 -262zM385 0q546 787 971 1505h364q-468 -672 -966 -1505h-369zM1231 430q0 111 34 203t92 151.5t133.5 92t158.5 32.5q179 0 296 -117.5t117 -338.5q0 -109 -34 -200t-91.5 -150.5t-132 -92.5t-155.5 -33q-185 0 -301.5 115t-116.5 338zM1559 440 q0 -129 21 -194.5t69 -65.5q88 0 88 260q0 126 -23 195.5t-65 69.5q-49 0 -69.5 -67t-20.5 -198z" />
<glyph unicode="&#x26;" horiz-adv-x="1804" d="M27 383q0 133 102 251t256 177q-152 143 -152 319q0 108 71.5 200t199 147t282.5 55q93 0 180 -14t136 -37l-90 -269q-87 37 -205 37q-81 0 -121.5 -31t-40.5 -73t13 -70.5t53 -70.5q86 -91 245 -224t285 -225q49 73 68.5 168t19.5 264h379q0 -167 -59.5 -308.5 t-190.5 -285.5q238 -179 404 -260l-383 -215q-152 100 -314 232q-213 -173 -549 -173q-281 0 -435 111.5t-154 294.5zM418 461q0 -93 71 -150t181 -57q186 0 278 65q-210 161 -407 340q-123 -76 -123 -198z" />
<glyph unicode="'" horiz-adv-x="501" d="M57 1505h404q-63 -280 -96 -620h-277q0 350 -31 620z" />
<glyph unicode="(" horiz-adv-x="884" d="M31 567q0 219 58.5 405t162.5 318.5t245 218.5t308 117l33 -260q-178 -51 -268.5 -242t-90.5 -557q0 -693 359 -800l-33 -261q-167 30 -308.5 116.5t-245 220t-162 320t-58.5 404.5z" />
<glyph unicode=")" horiz-adv-x="884" d="M49 -233q359 109 359 800q0 364 -92 555.5t-267 243.5l31 260q166 -31 306.5 -117t244.5 -218.5t162.5 -318.5t58.5 -405q0 -218 -58.5 -404.5t-162.5 -319.5t-244.5 -220t-306.5 -117z" />
<glyph unicode="*" horiz-adv-x="870" d="M8 1221l131 231l195 -143l-37 223h270l-41 -225l199 141l123 -236l-221 -71l235 -99l-155 -215l-181 150l39 -238l-266 -2l35 240l-180 -154l-136 230l222 90z" />
<glyph unicode="+" horiz-adv-x="1337" d="M51 528v299h471v471h299v-471h475v-299h-475v-475h-299v475h-471z" />
<glyph unicode="," horiz-adv-x="575" d="M35 195q0 95 68 160t182 65q116 0 184 -80.5t68 -196.5q0 -150 -91.5 -264.5t-287.5 -218.5l-107 133q160 81 187 191q-91 7 -147 68.5t-56 142.5z" />
<glyph unicode="-" horiz-adv-x="909" d="M78 395v353q363 -5 375 -5q15 0 378 5v-353q-39 1 -164.5 3.5t-209.5 2.5q-85 0 -211 -2.5t-168 -3.5z" />
<glyph unicode="." horiz-adv-x="575" d="M35 195q0 95 68 160t182 65q116 0 184 -64.5t68 -160.5q0 -91 -68.5 -154.5t-183.5 -63.5q-113 0 -181.5 64t-68.5 154z" />
<glyph unicode="/" horiz-adv-x="1019" d="M-27 0q399 779 701 1505h366q-344 -657 -702 -1505h-365z" />
<glyph unicode="0" d="M39 731q0 386 159.5 593.5t440.5 207.5q283 0 438.5 -194.5t155.5 -567.5q0 -380 -159 -586.5t-435 -206.5q-287 0 -443.5 192t-156.5 562zM477 754q0 -500 162 -500q158 0 158 500q0 499 -158 499q-162 0 -162 -499z" />
<glyph unicode="1" horiz-adv-x="954" d="M-12 1210l510 322l329 -27q-20 -374 -20 -778q0 -328 20 -727h-460q22 384 22 727q0 273 -4 412l-235 -195z" />
<glyph unicode="2" d="M57 1368q270 164 602 164q250 0 387.5 -117.5t137.5 -312.5q0 -373 -621 -748q415 0 703 23l-172 -377h-1022v274q206 147 339.5 258.5t205.5 199.5t99 153.5t27 136.5q0 99 -54.5 153t-153.5 54q-189 0 -388 -125z" />
<glyph unicode="3" d="M31 113l112 278q88 -56 207 -91.5t217 -35.5q102 0 161.5 48.5t59.5 119.5q0 96 -92.5 146.5t-312.5 50.5v237q178 18 266 73.5t88 135.5q0 74 -48 118t-138 44q-208 0 -391 -127l-94 258q275 164 608 164q222 0 362 -104t140 -267q0 -117 -80.5 -200.5t-225.5 -118.5 q175 -39 271 -142t96 -262q0 -211 -171.5 -336t-453.5 -125q-171 0 -322.5 35t-258.5 101z" />
<glyph unicode="4" d="M31 285v340q323 442 635 909l419 -35q-20 -374 -20 -930h197v-284h-195q0 -158 12 -285h-415q6 106 6 285h-639zM326 569h348q0 430 -6 531q-139 -239 -342 -531z" />
<glyph unicode="5" d="M70 68l96 274q156 -78 344 -78q128 0 194 52.5t66 136.5q0 57 -32 100t-105 76.5t-202 51t-312 17.5q53 366 53 807h977v-303q-266 23 -598 23l-8 -287q341 0 505 -118t164 -337q0 -97 -47 -189t-128 -162t-198.5 -112.5t-248.5 -42.5q-178 0 -295 20.5t-225 70.5z" />
<glyph unicode="6" d="M33 690q0 191 60.5 349.5t167.5 266t254.5 167t318.5 59.5q172 0 258 -27l-37 -291q-106 29 -248 29q-136 0 -231 -81.5t-115 -231.5q101 53 246 53q152 0 267 -48.5t184 -155t69 -261.5q0 -242 -162 -391.5t-412 -149.5q-136 0 -246.5 41t-195.5 125t-131.5 223 t-46.5 324zM444 686q0 -221 59 -335.5t152 -114.5q65 0 106.5 54.5t41.5 151.5q0 141 -58 212t-145 71q-94 0 -156 -39z" />
<glyph unicode="7" d="M57 1194l101 311h1052v-297q-256 -553 -487 -1208h-465q225 615 524 1212q-479 0 -725 -18z" />
<glyph unicode="8" d="M33 352q0 218 293 346q-151 90 -207 177.5t-56 211.5q0 193 158.5 319t403.5 126q263 0 402.5 -99t139.5 -278q0 -91 -64 -171.5t-188 -141.5q170 -99 239 -192.5t69 -221.5q0 -137 -81 -240.5t-218.5 -157t-311.5 -53.5q-282 0 -430.5 102.5t-148.5 272.5zM403 410 q0 -60 47 -103t136 -43q102 0 152 35t50 96q0 107 -249 205q-136 -93 -136 -190zM477 1141q0 -57 48 -103t177 -94q111 71 111 176q0 50 -42.5 86.5t-115.5 36.5q-178 0 -178 -102z" />
<glyph unicode="9" d="M35 987q0 160 74.5 285t205 192.5t295.5 67.5q136 0 246.5 -41.5t195 -126.5t131 -224.5t46.5 -324.5q0 -190 -60.5 -348t-167 -265t-253.5 -166t-318 -59q-176 0 -297 21l39 293q103 -27 287 -27q136 0 230 81.5t114 232.5q-106 -56 -246 -56q-152 0 -267.5 49 t-185 155.5t-69.5 260.5zM461 1063q0 -139 58.5 -210t144.5 -71q98 0 153 39q0 221 -58.5 337t-150.5 116q-65 0 -106 -55.5t-41 -155.5z" />
<glyph unicode=":" horiz-adv-x="575" d="M35 195q0 95 68 160t182 65q116 0 184 -64.5t68 -160.5q0 -91 -68.5 -154.5t-183.5 -63.5q-113 0 -181.5 64t-68.5 154zM35 870q0 92 68.5 157t181.5 65q115 0 183.5 -65t68.5 -157t-68.5 -156.5t-183.5 -64.5q-113 0 -181.5 64.5t-68.5 156.5z" />
<glyph unicode=";" horiz-adv-x="575" d="M35 195q0 95 68 160t182 65q116 0 184 -80.5t68 -196.5q0 -150 -91.5 -264.5t-287.5 -218.5l-107 133q160 81 187 191q-91 7 -147 68.5t-56 142.5zM35 870q0 92 68.5 157t181.5 65q115 0 183.5 -65t68.5 -157t-68.5 -156.5t-183.5 -64.5q-113 0 -181.5 64.5t-68.5 156.5z " />
<glyph unicode="&#x3c;" horiz-adv-x="1007" d="M25 678l751 641l205 -186l-508 -451l508 -451l-207 -196z" />
<glyph unicode="=" horiz-adv-x="1394" d="M74 260v299q365 -6 598 -6l649 6v-299q-387 10 -631 10q-108 0 -262 -2.5t-254 -5.5zM74 791v299q356 -7 585 -7l662 7v-299q-395 14 -649 14q-104 0 -253.5 -3.5t-246.5 -7.5z" />
<glyph unicode="&#x3e;" horiz-adv-x="1007" d="M25 225l510 449l-510 452l208 193l748 -641l-750 -643z" />
<glyph unicode="?" horiz-adv-x="724" d="M16 1278l220 264q235 -42 353 -135.5t118 -222.5q0 -159 -158 -277l-57 -41q-95 -69 -95 -139q0 -39 18 -70.5t62 -70.5l-289 -49q-71 65 -98 115t-27 116q0 54 17 93.5t59 88.5l41 47q33 32 44.5 60t11.5 67q0 47 -56.5 89.5t-163.5 64.5zM72 195q0 96 67 160.5 t183 64.5q115 0 181 -64.5t66 -160.5q0 -91 -66.5 -154.5t-180.5 -63.5q-115 0 -182.5 63.5t-67.5 154.5z" />
<glyph unicode="@" horiz-adv-x="2275" d="M49 524q0 170 56.5 326t160.5 279t242.5 214t310 140t355.5 49q482 0 762 -242t280 -655q0 -134 -42 -242.5t-113.5 -176t-160.5 -103t-188 -35.5q-179 0 -282.5 37.5t-157.5 122.5q-60 -86 -149.5 -123t-221.5 -37q-143 0 -237.5 98t-94.5 283q0 122 51 229.5t136 181 t195 116t227 42.5q172 0 270 -33l219 52q-68 -357 -68 -564q0 -99 28.5 -134.5t105.5 -35.5q39 0 73.5 14.5t67.5 48t52.5 98t19.5 153.5q0 312 -204 484.5t-585 172.5q-239 0 -426.5 -92t-292 -259.5t-104.5 -383.5q0 -219 112 -387.5t309 -259t447 -90.5q419 0 662 114 l88 -233q-280 -131 -762 -131q-332 0 -590 115.5t-404.5 335t-146.5 511.5zM961 545q0 -201 137 -201q38 0 67 14t58 52q31 200 34 399q-36 16 -102 16q-88 0 -141 -74.5t-53 -205.5z" />
<glyph unicode="A" horiz-adv-x="1671" d="M0 0q123 269 310.5 718t326.5 800h405q104 -313 276.5 -747t323.5 -771h-520q-63 200 -88 307h-522q-24 -98 -96 -307h-416zM608 594h340q-114 356 -162 524q-75 -248 -178 -524z" />
<glyph unicode="B" horiz-adv-x="1402" d="M102 0q19 442 19 727q0 372 -19 778h570q287 0 450.5 -91.5t163.5 -274.5q0 -111 -101 -206t-235 -120q191 -40 294.5 -135.5t103.5 -231.5q0 -446 -693 -446h-553zM537 625q0 -154 8 -342q29 -2 63 -2q119 0 188 21.5t95.5 60.5t26.5 102q0 85 -74 124.5t-244 39.5 q-36 0 -63 -4zM537 911q20 -2 57 -2q149 0 210.5 35t61.5 123q0 75 -59.5 116.5t-208.5 41.5q-35 0 -55 -2q-6 -115 -6 -312z" />
<glyph unicode="C" horiz-adv-x="1382" d="M57 700q0 244 113 435t305 294t428 103q240 0 457 -88l-92 -289q-179 86 -340 86q-198 0 -308 -128.5t-110 -358.5q0 -118 33 -213t89 -154t126.5 -90t148.5 -31q175 0 357 105l108 -275q-227 -119 -514 -119q-231 0 -413.5 90.5t-285 255.5t-102.5 377z" />
<glyph unicode="D" horiz-adv-x="1652" d="M102 0q19 442 19 727q0 372 -19 778h633q415 0 639.5 -175.5t224.5 -522.5q0 -371 -247 -589t-670 -218h-580zM541 770q0 -325 8 -481q33 -4 117 -4q221 0 353 129t132 342q0 237 -123.5 351t-335.5 114q-90 0 -143 -4q-8 -123 -8 -447z" />
<glyph unicode="E" horiz-adv-x="1165" d="M102 0q19 442 19 727q0 372 -19 778h961v-295q-153 11 -514 11q-8 -133 -8 -306q260 0 499 13v-312q-258 17 -499 17q0 -189 8 -348q350 0 571 16l-100 -301h-918z" />
<glyph unicode="F" horiz-adv-x="1107" d="M102 0q19 442 19 727q0 372 -19 778h961v-295q-153 11 -514 11q-8 -128 -8 -326q293 0 499 14v-317q-182 12 -499 12q0 -263 22 -604h-461z" />
<glyph unicode="G" horiz-adv-x="1609" d="M57 700q0 184 69.5 340t191 263.5t291 168t364.5 60.5q280 0 508 -88l-97 -289q-86 37 -193.5 61.5t-201.5 24.5q-226 0 -352.5 -127.5t-126.5 -359.5q0 -233 113 -362.5t295 -129.5q78 0 129 10q1 28 4.5 106.5t3.5 125.5q0 145 -8 233h456q-12 -193 -12 -325 q0 -194 12 -351q-136 -42 -280.5 -63t-345.5 -21q-165 0 -313.5 50t-261.5 141t-179 229t-66 303z" />
<glyph unicode="H" horiz-adv-x="1603" d="M102 0q19 442 19 727q0 372 -19 778h461q-20 -367 -22 -585h520q-2 241 -21 585h457q-18 -384 -18 -778q0 -309 18 -727h-457q19 377 21 629h-520q2 -228 22 -629h-461z" />
<glyph unicode="I" horiz-adv-x="665" d="M102 0q19 442 19 727q0 372 -19 778h461q-22 -365 -22 -778q0 -289 22 -727h-461z" />
<glyph unicode="J" horiz-adv-x="665" d="M-113 -274q83 41 128.5 77.5t70.5 83.5q29 54 38 148t9 287q0 489 -31 1183h461q-14 -236 -18 -351.5t-4 -336.5q0 -102 11 -305t11 -313q0 -286 -136.5 -451t-446.5 -266z" />
<glyph unicode="K" horiz-adv-x="1538" d="M102 0q19 442 19 727q0 372 -19 778h461q-19 -344 -22 -651q357 382 561 651h442q-300 -351 -614 -669q145 -184 321 -380t328 -345l-410 -209q-267 301 -628 800q0 -284 22 -702h-461z" />
<glyph unicode="L" horiz-adv-x="1142" d="M102 0q19 442 19 727q0 372 -19 778h461q-22 -365 -22 -778q0 -240 8 -436q331 0 592 22l-99 -313h-940z" />
<glyph unicode="M" horiz-adv-x="2048" d="M35 0q114 834 135 1505h573q204 -593 312 -1052q136 521 327 1052h553q0 -680 80 -1505h-440q-4 702 -23 1087q-225 -627 -346 -1087h-393q-127 528 -328 1087q-55 -534 -75 -1087h-375z" />
<glyph unicode="N" horiz-adv-x="1603" d="M102 0q19 442 19 727q0 372 -19 778h490q128 -200 281.5 -465t254.5 -458q0 556 -18 923h387q-18 -384 -18 -778q0 -309 18 -727h-430q-304 576 -594 1032q0 -525 23 -1032h-394z" />
<glyph unicode="O" horiz-adv-x="1812" d="M57 731q0 129 37.5 248.5t111 219.5t175 174.5t237 116.5t289.5 42q196 0 357.5 -58.5t268 -160.5t164.5 -241.5t58 -301.5q0 -160 -60.5 -304.5t-168.5 -252.5t-269 -172t-350 -64q-199 0 -361 58t-268.5 159.5t-163.5 239t-57 297.5zM541 754q0 -95 22.5 -181 t66 -155.5t115.5 -110.5t162 -41q74 0 135 26.5t102 72t69.5 108t41.5 133t13 148.5q0 97 -22.5 183.5t-66 155t-113.5 108.5t-159 40q-95 0 -167 -40t-114.5 -109t-63.5 -154t-21 -184z" />
<glyph unicode="P" horiz-adv-x="1304" d="M102 0q19 442 19 727q0 375 -19 778h574q286 0 451 -122t165 -361q0 -145 -79.5 -255.5t-209 -167t-284.5 -56.5q-110 0 -178 12q2 -252 22 -555h-461zM541 827q23 -2 57 -2q140 0 202 50t62 153q0 94 -64 145.5t-196 51.5q-35 0 -53 -2q-8 -167 -8 -396z" />
<glyph unicode="Q" horiz-adv-x="1802" d="M57 731q0 131 37 251.5t109.5 220t173.5 173.5t235.5 115t288.5 41q197 0 358 -58.5t267 -161t163.5 -241.5t57.5 -301q0 -205 -103.5 -382.5t-295.5 -293.5q34 -4 83 -14t122 -28.5t112 -28.5t130 -35t99 -27l-342 -291q-460 229 -807 307q-688 153 -688 754zM530 754 q0 -95 23.5 -181.5t68.5 -155.5t117 -110t162 -41q93 0 165 40t115 109t65 155t22 184q0 97 -23 183.5t-67.5 155t-116 108.5t-160.5 40q-94 0 -167 -40t-116.5 -109t-65.5 -154.5t-22 -183.5z" />
<glyph unicode="R" horiz-adv-x="1402" d="M102 0q19 442 19 727q0 372 -19 778h574q141 0 253.5 -26t196.5 -79t129 -139.5t45 -201.5q0 -122 -69 -218t-189 -153q60 -110 179 -298t198 -298l-469 -170q-149 271 -297 631h-112q2 -250 22 -553h-461zM541 829q23 -2 57 -2q272 0 272 193q0 96 -67 150.5t-201 54.5 q-35 0 -53 -2q-8 -167 -8 -394z" />
<glyph unicode="S" horiz-adv-x="1241" d="M49 66l96 280q87 -35 198 -59.5t200 -24.5q103 0 155 36t52 97q0 56 -43.5 97t-169.5 90l-134 51q-309 116 -309 434q0 93 46.5 178t126.5 148.5t196 101t248 37.5q257 0 458 -59l-100 -289q-148 61 -338 61q-93 0 -143.5 -34.5t-50.5 -88.5q0 -57 42 -94t164 -80 l105 -39q348 -123 348 -456q0 -140 -82 -249t-224 -168t-317 -59q-323 0 -524 89z" />
<glyph unicode="T" horiz-adv-x="1400" d="M14 1196l95 309h1273v-299q-131 8 -462 8q-7 -276 -7 -434q0 -385 21 -780h-457q21 395 21 780q0 214 -6 434q-235 0 -478 -18z" />
<glyph unicode="U" horiz-adv-x="1568" d="M102 1505h461q-22 -365 -22 -778q0 -172 31.5 -268t93 -133t168.5 -37q54 0 92.5 11t72 39t53.5 77t31 126.5t11 184.5q0 386 -21 778h391q-20 -360 -20 -620q0 -61 3 -179t3 -171q0 -277 -172 -417.5t-492 -140.5q-328 0 -498.5 138t-170.5 415q0 60 2 176t2 179 q0 231 -19 620z" />
<glyph unicode="V" horiz-adv-x="1648" d="M0 1505h518q70 -198 181 -541t171 -542q206 731 326 1083h453q-118 -253 -306 -715t-309 -798h-430q-122 338 -301 786.5t-303 726.5z" />
<glyph unicode="W" horiz-adv-x="2359" d="M0 1505h512q66 -204 154 -514t139 -514q107 372 190 615q-67 216 -139 413h483q135 -417 308 -1028q118 460 286 1028h426q-112 -287 -260.5 -712.5t-265.5 -800.5h-453q-96 290 -231 706q-148 -463 -217 -706h-410q-123 391 -270.5 819.5t-251.5 693.5z" />
<glyph unicode="X" horiz-adv-x="1607" d="M-16 0q313 380 589 756q-114 164 -277 384t-280 365h570q131 -191 258 -403q118 238 213 403h545q-245 -290 -558 -714q369 -530 570 -791h-567q-41 64 -267 440q-115 -207 -256 -440h-540z" />
<glyph unicode="Y" horiz-adv-x="1583" d="M0 1505h535q164 -332 282 -606q144 340 277 606h489q-129 -179 -301 -437.5t-297 -459.5q1 -135 21 -608h-457q18 436 18 608q-96 176 -256 427.5t-311 469.5z" />
<glyph unicode="Z" horiz-adv-x="1501" d="M96 0v250q122 137 271.5 320.5t225.5 281t253 328.5q-454 0 -729 -21v346h1288v-248q-340 -386 -754 -931h119.5h133t117.5 0.5t133 2t116 3.5t131 5.5t117 8.5l-175 -346h-1247z" />
<glyph unicode="[" horiz-adv-x="698" d="M49 -467q19 599 19 1061q0 527 -19 1010h608v-283h-186q-10 -219 -10 -719q0 -540 10 -784h186v-285h-608z" />
<glyph unicode="\" horiz-adv-x="1019" d="M-18 1505h364q306 -734 703 -1505h-367q-372 874 -700 1505z" />
<glyph unicode="]" horiz-adv-x="698" d="M39 -182h190q9 275 9 784q0 473 -9 719h-190v283h614q-20 -436 -20 -1010q0 -536 20 -1061h-614v285z" />
<glyph unicode="^" horiz-adv-x="835" d="M-27 1354l455 311l457 -311l-142 -205l-325 184l-307 -184z" />
<glyph unicode="_" d="M0 0h1274v-291h-1274v291z" />
<glyph unicode="`" horiz-adv-x="835" d="M12 1395l295 270l508 -311l-229 -205z" />
<glyph unicode="a" horiz-adv-x="1296" d="M51 492q0 170 86 309t228 215t307 76q180 0 301 -37l239 61q-28 -293 -28 -553q0 -251 22 -563h-403l-21 170q-59 -96 -148 -144.5t-190 -48.5q-165 0 -279 135.5t-114 379.5zM475 588q0 -299 174 -299q82 0 131 71q6 102 6 220q0 178 -6 254q-47 20 -114 20 q-83 0 -137 -67t-54 -199z" />
<glyph unicode="b" horiz-adv-x="1288" d="M84 66q18 443 18 708q0 420 -18 830h434q-12 -153 -12 -365q0 -221 2 -342q60 97 148.5 146t193.5 49q172 0 280.5 -126.5t108.5 -363.5q0 -131 -46 -245t-129.5 -198.5t-209 -133t-276.5 -48.5q-335 0 -494 89zM504 492q0 -186 6 -256q46 -21 113 -21q83 0 137.5 74 t54.5 217q0 132 -45 203t-121 71q-94 0 -139 -75q-6 -99 -6 -213z" />
<glyph unicode="c" horiz-adv-x="1009" d="M51 526q0 160 80.5 290t220 203t307.5 73q112 0 184.5 -13t155.5 -45l-86 -260q-106 47 -194 47q-123 0 -180.5 -62.5t-57.5 -205.5q0 -148 64.5 -216.5t191.5 -68.5q128 0 201 37l61 -246q-146 -82 -389 -82q-112 0 -212 35t-178 102t-123.5 173t-45.5 239z" />
<glyph unicode="d" horiz-adv-x="1290" d="M49 492q0 170 86.5 309t228.5 215t308 76q48 0 119 -11q0 124 -21 523h436q-22 -439 -22 -830q0 -304 22 -774h-403l-21 170q-59 -96 -148 -144.5t-190 -48.5q-79 0 -149.5 33t-125.5 95.5t-87.5 162.5t-32.5 224zM473 588q0 -157 47.5 -228t128.5 -71q82 0 131 71 q6 102 6 220q0 178 -6 254q-47 20 -114 20q-83 0 -138 -67t-55 -199z" />
<glyph unicode="e" horiz-adv-x="1214" d="M51 537q0 157 76 284t211.5 199t304.5 72q236 0 380 -144.5t144 -404.5q0 -51 -2 -86h-708q18 -96 83 -142.5t191 -46.5q217 0 371 97l59 -252q-105 -73 -224 -104.5t-282 -31.5q-179 0 -314.5 64t-212.5 192t-77 304zM455 678h315q-6 87 -45.5 136.5t-108.5 49.5 q-144 0 -161 -186z" />
<glyph unicode="f" horiz-adv-x="804" d="M0 791v276h156q-6 67 -6 143q0 190 127 303t325 113q172 0 248 -35l-62 -248q-54 13 -88 13q-66 0 -102 -47q-23 -34 -33 -87.5t-10 -154.5h250v-276h-254q0 -364 20 -791h-432q19 473 19 791h-158z" />
<glyph unicode="g" horiz-adv-x="1296" d="M51 502q0 170 86 306.5t227.5 210t307.5 73.5q180 0 301 -37l239 61q-28 -273 -28 -475q0 -103 10 -264t10 -238q0 -293 -177.5 -463t-477.5 -170q-287 0 -471 72l76 293q172 -72 374 -72q123 0 194 64t71 170q0 67 -11 157q-61 -92 -150.5 -142t-187.5 -50 q-79 0 -149 31.5t-125 91.5t-87 158.5t-32 222.5zM475 598q0 -285 174 -285q83 0 131 72q6 95 6 205q0 168 -6 244q-47 20 -114 20q-84 0 -137.5 -62t-53.5 -194z" />
<glyph unicode="h" horiz-adv-x="1257" d="M84 0q18 448 18 774q0 420 -18 830h434q-12 -153 -12 -365q0 -221 2 -342q60 97 148.5 146t193.5 49q143 0 237.5 -106t94.5 -267q0 -65 -6.5 -177.5t-6.5 -185.5q0 -203 13 -356h-434q14 186 14 344q0 224 -8 293q-7 72 -39.5 107.5t-79.5 35.5q-75 0 -125 -75 q-6 -126 -6 -314q0 -125 14 -391h-434z" />
<glyph unicode="i" horiz-adv-x="602" d="M59 1395q0 92 65.5 154.5t180.5 62.5q111 0 175.5 -62.5t64.5 -154.5q0 -93 -64.5 -156t-175.5 -63q-115 0 -180.5 62.5t-65.5 156.5zM84 0q18 296 18 516q0 277 -18 551h434q-18 -274 -18 -551q0 -220 18 -516h-434z" />
<glyph unicode="j" horiz-adv-x="602" d="M-139 -274q153 75 207 168q18 31 27 79.5t10 82t1 104.5q0 559 -22 907h434q-18 -274 -18 -485q0 -74 9 -251t9 -255q0 -424 -557 -586zM57 1395q0 92 66 154.5t182 62.5q111 0 175.5 -62.5t64.5 -154.5q0 -93 -64.5 -156t-175.5 -63q-116 0 -182 63t-66 156z" />
<glyph unicode="k" horiz-adv-x="1284" d="M84 0q18 448 18 774q0 420 -18 830h434q-18 -410 -18 -986q230 303 362 449h422q-207 -194 -426 -444q82 -114 211 -267t229 -256l-403 -172q-195 255 -393 566q0 -114 16 -494h-434z" />
<glyph unicode="l" horiz-adv-x="602" d="M84 0q18 448 18 774q0 420 -18 830h434q-18 -410 -18 -830q0 -326 18 -774h-434z" />
<glyph unicode="m" horiz-adv-x="1900" d="M84 0q18 296 18 516q0 277 -18 551h408l18 -170q122 195 332 195q106 0 181.5 -58.5t115.5 -167.5q138 226 356 226q144 0 237 -105.5t93 -267.5q0 -65 -7.5 -177.5t-7.5 -185.5q0 -205 15 -356h-430q12 200 12 344q0 207 -8 293q-7 72 -35.5 107.5t-69.5 35.5t-69 -17 t-56 -58q-12 -103 -12 -314q0 -209 12 -391h-430q13 216 13 344q0 216 -9 293q-7 72 -35 107.5t-69 35.5q-39 0 -68 -17.5t-57 -57.5q-10 -108 -10 -314q0 -201 10 -391h-430z" />
<glyph unicode="n" horiz-adv-x="1257" d="M84 0q18 296 18 516q0 277 -18 551h412l18 -170q122 195 336 195q143 0 237.5 -106t94.5 -267q0 -65 -6.5 -177.5t-6.5 -185.5q0 -203 13 -356h-434q14 186 14 344q0 224 -8 293q-9 71 -39.5 107t-71.5 36q-39 0 -68 -17.5t-57 -57.5q-10 -108 -10 -314q0 -201 10 -391 h-434z" />
<glyph unicode="o" horiz-adv-x="1318" d="M51 518q0 116 43 220t120 183t193.5 125t254.5 46q141 0 256.5 -42t192.5 -115.5t119 -173.5t42 -216q0 -114 -43.5 -217.5t-121 -181t-193.5 -123.5t-252 -46q-143 0 -259 41t-192.5 113.5t-118 171.5t-41.5 215zM492 530q0 -309 167 -309q49 0 83 23.5t52 67.5 t25.5 96.5t7.5 121.5q0 316 -168 316q-49 0 -83 -24t-51.5 -69.5t-25 -99t-7.5 -123.5z" />
<glyph unicode="p" horiz-adv-x="1288" d="M84 -467q18 408 18 795q0 290 -18 739h405l19 -170q60 96 149.5 145.5t192.5 49.5q172 0 280.5 -126.5t108.5 -363.5q0 -173 -80.5 -316t-223.5 -226t-317 -83q-50 0 -118 11q0 -171 18 -455h-434zM504 492q0 -186 6 -256q46 -21 113 -21q83 0 137.5 74t54.5 217 q0 132 -45 203t-121 71q-94 0 -139 -75q-6 -99 -6 -213z" />
<glyph unicode="q" horiz-adv-x="1296" d="M49 492q0 170 86.5 309t228.5 215t308 76q180 0 301 -37l239 61q-28 -421 -28 -788q0 -359 22 -795h-436q14 143 14 315q0 205 -2 322q-59 -96 -148 -144.5t-190 -48.5q-79 0 -149.5 33t-125.5 95.5t-87.5 162.5t-32.5 224zM473 588q0 -157 47.5 -228t128.5 -71 q82 0 131 71q6 102 6 220q0 178 -6 254q-47 20 -114 20q-83 0 -138 -67t-55 -199z" />
<glyph unicode="r" horiz-adv-x="948" d="M84 0q18 296 18 516q0 277 -18 551h397l27 -264q92 289 295 289q94 0 145 -25l-135 -442q-70 28 -147 28q-97 0 -148 -73q-10 -123 -10 -226q0 -188 10 -354h-434z" />
<glyph unicode="s" horiz-adv-x="983" d="M27 59l67 248q68 -35 157.5 -54.5t170.5 -19.5q87 0 124.5 15.5t37.5 48.5q0 25 -27 42t-115 44l-110 33q-134 40 -201.5 116t-67.5 209q0 146 133 248.5t345 102.5q227 0 391 -54l-70 -252q-111 45 -278 45q-146 0 -146 -57q0 -23 24 -38.5t103 -37.5l111 -32 q144 -40 214.5 -122t70.5 -216q0 -161 -132.5 -256t-336.5 -95q-155 0 -261.5 19t-203.5 63z" />
<glyph unicode="t" horiz-adv-x="907" d="M0 791v276h154q0 168 -4 262l425 78q-20 -226 -20 -340h295v-276h-305q0 -277 8 -381q6 -70 43.5 -106t91.5 -36q98 0 166 47l53 -223q-62 -53 -170 -84t-229 -31q-162 0 -263.5 100t-101.5 271q0 77 5.5 212.5t5.5 230.5h-154z" />
<glyph unicode="u" horiz-adv-x="1257" d="M76 348q0 67 5 179t5 182q0 244 -10 358h434q-12 -196 -12 -344q0 -207 8 -293q7 -71 35.5 -108t68.5 -37q70 0 129 75q9 97 9 318q0 220 -9 389h435q-21 -299 -21 -516q0 -271 21 -551h-410l-21 170q-119 -193 -333 -193q-142 0 -238 106.5t-96 264.5z" />
<glyph unicode="v" horiz-adv-x="1234" d="M0 1067h455q136 -451 194 -729q33 150 94 377t103 352h389q-80 -183 -205.5 -514.5t-200.5 -564.5h-426q-194 567 -403 1079z" />
<glyph unicode="w" horiz-adv-x="1878" d="M0 1067h432q121 -446 176 -729q68 291 199 729h332q133 -503 180 -729q63 283 192 729h367q-97 -242 -207 -550t-180 -529h-404q-101 385 -165 604q-106 -334 -160 -604h-381q-135 410 -381 1079z" />
<glyph unicode="x" horiz-adv-x="1288" d="M-10 0q242 282 428 541q-186 276 -408 526h494q91 -143 166 -283q72 147 157 283h461q-85 -95 -204.5 -246t-206.5 -270q194 -287 413 -551h-493q-53 92 -174 330q-96 -201 -177 -330h-456z" />
<glyph unicode="y" horiz-adv-x="1236" d="M0 1067h457q46 -146 101.5 -374t82.5 -386q25 155 76 378.5t96 381.5h424q-83 -187 -192.5 -494t-196.5 -585q-61 -201 -186.5 -314.5t-344.5 -183.5l-98 244q125 57 184 119.5t82 150.5h-82q-69 253 -177.5 537.5t-225.5 525.5z" />
<glyph unicode="z" horiz-adv-x="1107" d="M37 0v250q227 222 483 541q-250 0 -452 -25v301h970v-250q-232 -229 -481 -541q359 0 563 29l-172 -305h-911z" />
<glyph unicode="{" horiz-adv-x="833" d="M12 426v283q123 0 172 37t49 133q0 76 -13 219t-13 211q0 133 95.5 219t252.5 86q146 0 246 -10v-285q-41 8 -109 8q-80 0 -80 -113q0 -64 6.5 -197t6.5 -204q0 -103 -62.5 -166.5t-171.5 -77.5q108 -14 171 -79t63 -166q0 -71 -6.5 -204t-6.5 -200q0 -110 80 -110 q66 0 109 8v-285q-96 -12 -246 -12q-157 0 -252.5 87t-95.5 220q0 69 13 210.5t13 217.5q0 96 -48.5 132t-172.5 38z" />
<glyph unicode="|" horiz-adv-x="499" d="M92 -467q19 613 19 1002q0 507 -19 1069h316q-23 -595 -23 -1069q0 -366 23 -1002h-316z" />
<glyph unicode="}" horiz-adv-x="833" d="M31 -182q47 -8 112 -8q78 0 78 110q0 67 -7 200t-7 204q0 101 63.5 166t171.5 79q-109 14 -172 77.5t-63 166.5q0 71 7 204t7 197q0 113 -78 113q-67 0 -112 -8v285q100 10 245 10q160 0 254.5 -86t94.5 -219q0 -68 -11.5 -211t-11.5 -219q0 -96 48.5 -133t170.5 -37 v-283q-124 -2 -171.5 -38t-47.5 -132q0 -76 11.5 -217.5t11.5 -210.5q0 -134 -95 -220.5t-254 -86.5q-149 0 -245 12v285z" />
<glyph unicode="~" horiz-adv-x="839" d="M53 1366q85 133 226 133q70 0 170.5 -30.5t142.5 -30.5q51 0 82.5 15t68.5 50l66 -192q-87 -135 -227 -135q-73 0 -172.5 31.5t-141.5 31.5q-50 0 -80 -15.5t-71 -52.5z" />
<glyph unicode="&#xa1;" horiz-adv-x="620" d="M39 -465q34 232 56 502t22 473h362q29 -528 99 -926zM59 870q0 92 68 157t182 65t181 -65t67 -157q0 -93 -67 -157t-181 -64t-182 64t-68 157z" />
<glyph unicode="&#xa2;" horiz-adv-x="1009" d="M51 739q0 221 149.5 376t381.5 181v207h172v-205q136 -9 245 -55l-86 -258q-104 43 -194 43q-122 0 -180 -62t-58 -204q0 -145 64.5 -213t191.5 -68q119 0 201 31l61 -246q-131 -65 -270 -78v-188h-170v186q-106 8 -197.5 47.5t-161 107t-109.5 170t-40 228.5z" />
<glyph unicode="&#xa3;" horiz-adv-x="1243" d="M33 625v290h155q0 299 155.5 458t438.5 159q226 0 387 -70l-88 -266q-111 49 -243 49q-116 0 -172 -76.5t-56 -253.5h439v-290h-441q0 -219 8 -334q344 0 605 22l-109 -313h-979q34 156 45.5 273.5t11.5 351.5h-157z" />
<glyph unicode="&#xa7;" horiz-adv-x="1009" d="M27 59l67 248q68 -35 157.5 -54.5t170.5 -19.5q87 0 123.5 15.5t36.5 48.5q0 26 -30.5 44.5t-113.5 43.5l-92 27q-148 44 -228.5 118t-80.5 175q0 157 209 227q-176 81 -176 248q0 148 133 250t346 102q228 0 389 -53l-70 -252q-115 45 -278 45q-146 0 -146 -58 q0 -25 23.5 -38.5t101.5 -36.5l119 -35q148 -40 224.5 -118.5t76.5 -178.5q0 -81 -52 -142.5t-144 -84.5q78 -35 123 -100t45 -152q0 -161 -132.5 -256t-336.5 -95q-155 0 -261.5 19t-203.5 63zM397 780q0 -27 33 -52t94 -42l49 -12q54 16 54 51q0 31 -30 60t-95 46l-47 13 q-58 -22 -58 -64z" />
<glyph unicode="&#xa8;" horiz-adv-x="1067" d="M66 1346q0 83 60 140.5t159 57.5q105 0 166 -57.5t61 -140.5t-61 -141t-166 -58q-99 0 -159 58t-60 141zM582 1346q0 83 60 140.5t163 57.5t164 -57.5t61 -140.5t-61 -141t-164 -58t-163 58t-60 141z" />
<glyph unicode="&#xa9;" horiz-adv-x="1812" d="M57 754q0 158 67 302t180 248t271 166t332 62q173 0 330 -62t270.5 -166t180.5 -248t67 -302t-67 -301.5t-180.5 -248t-270.5 -166t-330 -61.5q-232 0 -428 104.5t-309 283t-113 389.5zM223 754q0 -169 91 -311.5t248.5 -226t344.5 -83.5q185 0 342.5 83.5t248.5 226.5 t91 311q0 126 -54 241t-145 198.5t-217.5 133t-265.5 49.5q-187 0 -344.5 -83.5t-248.5 -226.5t-91 -312zM367 723q0 78 21 152t67 142t111 119t160 81t208 30q170 0 323 -61l-71 -211q-41 21 -109.5 36t-124.5 15q-247 0 -247 -272q0 -128 66 -200.5t165 -72.5 q155 0 254 62l78 -195q-170 -90 -359 -90q-239 0 -390.5 128.5t-151.5 336.5z" />
<glyph unicode="&#xaa;" horiz-adv-x="1175" d="M51 317q0 164 141.5 255.5t391.5 91.5q51 0 116 -7q0 7 -1 21.5t-1 21.5q-9 66 -49.5 93.5t-130.5 27.5q-190 0 -328 -82l-92 234q97 55 228 87t264 32q510 0 510 -408q0 -51 -6.5 -164t-6.5 -178q0 -176 9 -342h-379l-23 170q-119 -193 -321 -193q-147 0 -234.5 90 t-87.5 250zM418 371q0 -45 38 -72t109 -27q78 0 129 54q4 31 4 135q-52 10 -114 10q-81 0 -123.5 -27t-42.5 -73z" />
<glyph unicode="&#xab;" horiz-adv-x="1267" d="M4 545l469 514l227 -150l-262 -360l262 -365l-229 -153zM569 545l467 514l228 -150l-260 -360l260 -365l-230 -153z" />
<glyph unicode="&#xad;" horiz-adv-x="909" d="M78 395v353q363 -5 375 -5q15 0 378 5v-353q-39 1 -164.5 3.5t-209.5 2.5q-85 0 -211 -2.5t-168 -3.5z" />
<glyph unicode="&#xae;" horiz-adv-x="1812" d="M57 754q0 158 67 302t180 248t271 166t332 62q173 0 330 -62t270.5 -166t180.5 -248t67 -302t-67 -301.5t-180.5 -248t-270.5 -166t-330 -61.5q-232 0 -428 104.5t-309 283t-113 389.5zM223 754q0 -169 91 -311.5t248.5 -226t344.5 -83.5q185 0 342.5 83.5t248.5 226.5 t91 311q0 126 -54 241t-145 198.5t-217.5 133t-265.5 49.5q-187 0 -344.5 -83.5t-248.5 -226.5t-91 -312zM506 293q12 209 12 450q0 294 -12 480h383q191 0 306.5 -69t115.5 -208q0 -75 -46.5 -134.5t-123.5 -94.5q47 -79 123 -193t127 -174l-322 -102q-109 184 -195 385 h-71q0 -142 10 -340h-307zM803 805q10 -2 37 -2q176 0 176 121q0 123 -174 123h-35q-4 -76 -4 -242z" />
<glyph unicode="&#xaf;" horiz-adv-x="839" d="M68 1212v244h718v-244h-718z" />
<glyph unicode="&#xb0;" horiz-adv-x="577" d="M-10 1423q0 107 79.5 180.5t215.5 73.5q141 0 222 -73t81 -181q0 -107 -81.5 -182.5t-221.5 -75.5q-135 0 -215 75.5t-80 182.5zM168 1423q0 -45 31 -75.5t86 -30.5q57 0 91 31t34 75t-34 74.5t-91 30.5q-55 0 -86 -30t-31 -75z" />
<glyph unicode="&#xb4;" horiz-adv-x="835" d="M18 1354l508 311l295 -270l-571 -246z" />
<glyph unicode="&#xb6;" horiz-adv-x="1284" d="M37 1022q0 120 43 213.5t118 151.5t173 88t213 30h282q-3 -55 -5 -108t-3.5 -93t-2.5 -96t-2 -85.5t-1 -94v-89.5v-104v-108q0 -448 14 -727h-245q17 266 20 551q-63 -14 -139 -14q-124 0 -229 58t-170.5 170t-65.5 257zM938 0q14 279 14 727v107v104v89t-1 94t-2 85.5 t-2.5 96t-3.5 94t-5 108.5h244q-13 -278 -13 -778q0 -425 13 -727h-244z" />
<glyph unicode="&#xb7;" horiz-adv-x="698" d="M82 774q0 100 71.5 169t194.5 69t195.5 -69t72.5 -169q0 -97 -73 -167t-195 -70t-194 70t-72 167z" />
<glyph unicode="&#xb8;" horiz-adv-x="679" d="M115 -453l39 140q65 -21 139 -21q38 0 53.5 9.5t15.5 33.5q0 66 -219 66q15 140 17 245h164v-104q113 -11 182 -59t69 -133q0 -88 -70 -147.5t-177 -59.5q-118 0 -213 30z" />
<glyph unicode="&#xbb;" horiz-adv-x="1267" d="M4 184l260 365l-260 360l229 150l467 -514l-464 -514zM569 184l260 365l-260 360l226 150l469 -514l-467 -514z" />
<glyph unicode="&#xbf;" horiz-adv-x="724" d="M18 -115q0 82 39.5 154t118.5 123l60 37q94 62 94 141q0 40 -18 71t-62 72l285 45q72 -66 100.5 -115t28.5 -114q0 -57 -17 -100t-59 -84l-45 -43q-31 -35 -41 -62.5t-10 -68.5q0 -45 55.5 -87t159.5 -63l-215 -268q-236 43 -355 138t-119 224zM158 870q0 92 67 157 t181 65q115 0 182 -65t67 -157q0 -93 -66.5 -157t-182.5 -64q-114 0 -181 64t-67 157z" />
<glyph unicode="&#xc0;" horiz-adv-x="1671" d="M0 0q123 269 310.5 718t326.5 800h405q104 -313 276.5 -747t323.5 -771h-520q-63 200 -88 307h-522q-24 -98 -96 -307h-416zM383 1817l293 270l508 -311l-228 -205zM608 594h340q-114 356 -162 524q-75 -248 -178 -524z" />
<glyph unicode="&#xc1;" horiz-adv-x="1671" d="M0 0q123 269 310.5 718t326.5 800h405q104 -313 276.5 -747t323.5 -771h-520q-63 200 -88 307h-522q-24 -98 -96 -307h-416zM504 1776l508 311l295 -270l-572 -246zM608 594h340q-114 356 -162 524q-75 -248 -178 -524z" />
<glyph unicode="&#xc2;" horiz-adv-x="1671" d="M0 0q123 269 310.5 718t326.5 800h405q104 -313 276.5 -747t323.5 -771h-520q-63 200 -88 307h-522q-24 -98 -96 -307h-416zM375 1776l454 311l457 -311l-141 -205l-326 184l-307 -184zM608 594h340q-114 356 -162 524q-75 -248 -178 -524z" />
<glyph unicode="&#xc3;" horiz-adv-x="1671" d="M0 0q153 311 346.5 750.5t321.5 767.5h405q103 -310 274.5 -743.5t323.5 -774.5h-518q-53 169 -80 266h-506q-54 -167 -88 -266h-479zM469 1778q82 133 223 133q70 0 171 -31t143 -31q51 0 82.5 15t68.5 51l66 -195q-87 -133 -228 -133q-71 0 -171 32t-142 32 q-50 0 -81 -15.5t-71 -52.5zM672 594h307q-101 321 -145 500q-46 -175 -162 -500z" />
<glyph unicode="&#xc4;" horiz-adv-x="1671" d="M0 0q123 269 310.5 718t326.5 800h405q104 -313 276.5 -747t323.5 -771h-520q-63 200 -88 307h-522q-24 -98 -96 -307h-416zM385 1776q0 81 60 138.5t159 57.5q105 0 166 -57t61 -139q0 -85 -61 -143t-166 -58q-100 0 -159.5 58t-59.5 143zM608 594h340 q-114 356 -162 524q-75 -248 -178 -524zM901 1776q0 82 60 139t163 57q102 0 163 -57t61 -139q0 -85 -61 -143t-163 -58q-103 0 -163 58t-60 143z" />
<glyph unicode="&#xc5;" horiz-adv-x="1671" d="M0 0q118 256 297 686t321 791q-77 74 -77 180t80.5 180t216.5 74q139 0 221 -74t82 -180q0 -109 -82 -182q106 -314 271.5 -732t311.5 -743h-520q-63 200 -88 307h-522q-24 -98 -96 -307h-416zM608 594h340q-114 356 -162 524q-75 -248 -178 -524zM721 1657 q0 -46 30.5 -77.5t86.5 -31.5t89.5 32t33.5 77q0 43 -33 72.5t-90 29.5q-56 0 -86.5 -29t-30.5 -73z" />
<glyph unicode="&#xc6;" horiz-adv-x="2084" d="M0 0q178 279 445.5 726t455.5 779h1084v-295q-153 11 -517 11q-6 -150 -6 -306q261 0 500 13v-312q-198 13 -500 13q0 -165 6 -344q353 0 574 16l-98 -301h-914q1 40 6 147t6 160h-456q-72 -169 -152 -307h-434zM735 594h314q3 1 1.5 66t-1.5 67q0 294 -7 449 q-72 -146 -307 -582z" />
<glyph unicode="&#xc7;" horiz-adv-x="1382" d="M57 700q0 246 107.5 435.5t300 293t438.5 103.5q240 0 457 -88l-92 -289q-179 86 -340 86q-198 0 -308 -128.5t-110 -358.5q0 -118 33 -213t89 -154t126.5 -90t148.5 -31q175 0 357 105l108 -275q-229 -119 -516 -119v-61q115 -11 185.5 -59t70.5 -133 q0 -88 -71.5 -147.5t-178.5 -59.5q-121 0 -209 30l33 140q72 -21 143 -21q37 0 54.5 9.5t17.5 33.5q0 66 -225 66q12 121 14 215q-130 24 -243.5 83.5t-201 148t-138 212.5t-50.5 266z" />
<glyph unicode="&#xc8;" horiz-adv-x="1165" d="M102 0q19 442 19 727q0 372 -19 778h961v-295q-153 11 -514 11q-8 -133 -8 -306q260 0 499 13v-312q-258 17 -499 17q0 -189 8 -348q350 0 571 16l-100 -301h-918zM160 1817l295 270l508 -311l-230 -205z" />
<glyph unicode="&#xc9;" horiz-adv-x="1165" d="M102 0q19 442 19 727q0 372 -19 778h961v-295q-153 11 -514 11q-8 -133 -8 -306q260 0 499 13v-312q-258 17 -499 17q0 -189 8 -348q350 0 571 16l-100 -301h-918zM199 1776l510 311l292 -270l-571 -246z" />
<glyph unicode="&#xca;" horiz-adv-x="1165" d="M102 0q19 442 19 727q0 372 -19 778h961v-295q-153 11 -514 11q-8 -133 -8 -306q260 0 499 13v-312q-258 17 -499 17q0 -189 8 -348q350 0 571 16l-100 -301h-918zM135 1776l455 311l457 -311l-142 -205l-325 184l-308 -184z" />
<glyph unicode="&#xcb;" horiz-adv-x="1165" d="M102 0q19 442 19 727q0 372 -19 778h961v-295q-153 11 -514 11q-8 -133 -8 -306q260 0 499 13v-312q-258 17 -499 17q0 -189 8 -348q350 0 571 16l-100 -301h-918zM119 1776q0 82 60 139t161 57q105 0 166 -57t61 -139q0 -85 -61 -143t-166 -58q-101 0 -161 58t-60 143z M637 1776q0 82 59.5 139t161.5 57q103 0 164 -57t61 -139q0 -85 -60.5 -143t-164.5 -58q-102 0 -161.5 58t-59.5 143z" />
<glyph unicode="&#xcc;" horiz-adv-x="665" d="M-94 1817l293 270l510 -311l-230 -205zM102 0q19 442 19 727q0 372 -19 778h461q-22 -365 -22 -778q0 -289 22 -727h-461z" />
<glyph unicode="&#xcd;" horiz-adv-x="665" d="M-43 1776l510 311l293 -270l-572 -246zM102 0q19 442 19 727q0 372 -19 778h461q-22 -365 -22 -778q0 -289 22 -727h-461z" />
<glyph unicode="&#xce;" horiz-adv-x="665" d="M-117 1776l455 311l457 -311l-142 -205l-325 184l-308 -184zM102 0q19 442 19 727q0 372 -19 778h461q-22 -365 -22 -778q0 -289 22 -727h-461z" />
<glyph unicode="&#xcf;" horiz-adv-x="665" d="M-147 1776q0 82 60 139t161 57q105 0 166 -57t61 -139q0 -85 -61 -143t-166 -58q-101 0 -161 58t-60 143zM102 0q19 442 19 727q0 372 -19 778h461q-22 -365 -22 -778q0 -289 22 -727h-461zM371 1776q0 82 59 139t162 57t164 -57t61 -139q0 -85 -60.5 -143t-164.5 -58 q-103 0 -162 57.5t-59 143.5z" />
<glyph unicode="&#xd1;" horiz-adv-x="1603" d="M102 0q19 442 19 727q0 372 -19 778h490q128 -200 281.5 -465t254.5 -458q0 556 -18 923h387q-18 -384 -18 -778q0 -309 18 -727h-430q-304 576 -594 1032q0 -525 23 -1032h-394zM446 1778q87 133 228 133q70 0 170.5 -31t142.5 -31q50 0 81.5 15t70.5 51l63 -195 q-85 -133 -225 -133q-73 0 -172 32t-141 32q-50 0 -81 -15.5t-71 -52.5z" />
<glyph unicode="&#xd2;" horiz-adv-x="1812" d="M57 731q0 129 37.5 248.5t111 219.5t175 174.5t237 116.5t289.5 42q196 0 357.5 -58.5t268 -160.5t164.5 -241.5t58 -301.5q0 -160 -60.5 -304.5t-168.5 -252.5t-269 -172t-350 -64q-199 0 -361 58t-268.5 159.5t-163.5 239t-57 297.5zM449 1817l294 270l508 -311 l-229 -205zM541 754q0 -95 22.5 -181t66 -155.5t115.5 -110.5t162 -41q74 0 135 26.5t102 72t69.5 108t41.5 133t13 148.5q0 97 -22.5 183.5t-66 155t-113.5 108.5t-159 40q-95 0 -167 -40t-114.5 -109t-63.5 -154t-21 -184z" />
<glyph unicode="&#xd3;" horiz-adv-x="1812" d="M57 731q0 129 37.5 248.5t111 219.5t175 174.5t237 116.5t289.5 42q196 0 357.5 -58.5t268 -160.5t164.5 -241.5t58 -301.5q0 -160 -60.5 -304.5t-168.5 -252.5t-269 -172t-350 -64q-199 0 -361 58t-268.5 159.5t-163.5 239t-57 297.5zM541 754q0 -95 22.5 -181 t66 -155.5t115.5 -110.5t162 -41q74 0 135 26.5t102 72t69.5 108t41.5 133t13 148.5q0 97 -22.5 183.5t-66 155t-113.5 108.5t-159 40q-95 0 -167 -40t-114.5 -109t-63.5 -154t-21 -184zM573 1776l508 311l295 -270l-571 -246z" />
<glyph unicode="&#xd4;" horiz-adv-x="1812" d="M57 731q0 129 37.5 248.5t111 219.5t175 174.5t237 116.5t289.5 42q196 0 357.5 -58.5t268 -160.5t164.5 -241.5t58 -301.5q0 -160 -60.5 -304.5t-168.5 -252.5t-269 -172t-350 -64q-199 0 -361 58t-268.5 159.5t-163.5 239t-57 297.5zM473 1776l455 311l456 -311 l-141 -205l-325 184l-308 -184zM541 754q0 -95 22.5 -181t66 -155.5t115.5 -110.5t162 -41q74 0 135 26.5t102 72t69.5 108t41.5 133t13 148.5q0 97 -22.5 183.5t-66 155t-113.5 108.5t-159 40q-95 0 -167 -40t-114.5 -109t-63.5 -154t-21 -184z" />
<glyph unicode="&#xd5;" horiz-adv-x="1812" d="M55 731q0 161 60.5 306.5t168.5 255.5t270 174.5t353 64.5q196 0 357.5 -58.5t268 -160.5t164.5 -241.5t58 -301.5q0 -160 -60.5 -304.5t-168.5 -252.5t-269 -172t-350 -64q-199 0 -361.5 58t-269 159.5t-164 239t-57.5 297.5zM508 1778q87 133 227 133q69 0 169 -31 t143 -31q51 0 82.5 15t68.5 51l64 -195q-85 -133 -226 -133q-71 0 -170 32t-141 32q-50 0 -82 -16t-70 -52zM539 754q0 -91 23 -173t67 -147.5t115.5 -104t162.5 -38.5q92 0 163 37.5t113.5 103t63.5 147t21 175.5q0 93 -22.5 175.5t-66 147.5t-113.5 102.5t-159 37.5 q-95 0 -167.5 -37.5t-115.5 -103t-64 -146.5t-21 -176z" />
<glyph unicode="&#xd6;" horiz-adv-x="1812" d="M57 731q0 129 37.5 248.5t111 219.5t175 174.5t237 116.5t289.5 42q196 0 357.5 -58.5t268 -160.5t164.5 -241.5t58 -301.5q0 -160 -60.5 -304.5t-168.5 -252.5t-269 -172t-350 -64q-199 0 -361 58t-268.5 159.5t-163.5 239t-57 297.5zM430 1776q0 82 60 139t161 57 q105 0 166.5 -57t61.5 -139q0 -85 -61.5 -143t-166.5 -58q-101 0 -161 58t-60 143zM541 754q0 -95 22.5 -181t66 -155.5t115.5 -110.5t162 -41q74 0 135 26.5t102 72t69.5 108t41.5 133t13 148.5q0 97 -22.5 183.5t-66 155t-113.5 108.5t-159 40q-95 0 -167 -40t-114.5 -109 t-63.5 -154t-21 -184zM948 1776q0 82 59.5 139t161.5 57q103 0 164.5 -57t61.5 -139q0 -85 -61 -143t-165 -58q-102 0 -161.5 58t-59.5 143z" />
<glyph unicode="&#xd8;" horiz-adv-x="1812" d="M57 731q0 129 37.5 248.5t111 219.5t175 174.5t237 116.5t289.5 42q195 0 379 -68l113 162l139 -94l-98 -143q153 -102 234 -262.5t81 -356.5q0 -160 -60.5 -304.5t-168.5 -252.5t-269 -172t-350 -64q-235 0 -407 76l-113 -172l-137 94l102 160q-142 98 -218.5 253.5 t-76.5 342.5zM530 754q0 -151 62 -281l498 713q-77 53 -183 53q-78 0 -141.5 -26t-106.5 -71.5t-72.5 -107.5t-43 -132t-13.5 -148zM700 336q82 -70 207 -70q94 0 167 40t116.5 109t65.5 155t22 184q0 173 -72 305z" />
<glyph unicode="&#xd9;" horiz-adv-x="1568" d="M102 1505h461q-22 -365 -22 -778q0 -172 31.5 -268t93 -133t168.5 -37q54 0 92.5 11t72 39t53.5 77t31 126.5t11 184.5q0 386 -21 778h391q-20 -360 -20 -620q0 -61 3 -179t3 -171q0 -277 -172 -417.5t-492 -140.5q-328 0 -498.5 138t-170.5 415q0 60 2 176t2 179 q0 231 -19 620zM383 1817l293 270l508 -311l-228 -205z" />
<glyph unicode="&#xda;" horiz-adv-x="1568" d="M102 1505h461q-22 -365 -22 -778q0 -172 31.5 -268t93 -133t168.5 -37q54 0 92.5 11t72 39t53.5 77t31 126.5t11 184.5q0 386 -21 778h391q-20 -360 -20 -620q0 -61 3 -179t3 -171q0 -277 -172 -417.5t-492 -140.5q-328 0 -498.5 138t-170.5 415q0 60 2 176t2 179 q0 231 -19 620zM455 1776l508 311l292 -270l-571 -246z" />
<glyph unicode="&#xdb;" horiz-adv-x="1568" d="M102 1505h461q-22 -365 -22 -778q0 -172 31.5 -268t93 -133t168.5 -37q54 0 92.5 11t72 39t53.5 77t31 126.5t11 184.5q0 386 -21 778h391q-20 -360 -20 -620q0 -61 3 -179t3 -171q0 -277 -172 -417.5t-492 -140.5q-328 0 -498.5 138t-170.5 415q0 60 2 176t2 179 q0 231 -19 620zM373 1776l454 311l457 -311l-141 -205l-326 184l-307 -184z" />
<glyph unicode="&#xdc;" horiz-adv-x="1568" d="M102 1505h461q-22 -365 -22 -778q0 -172 31.5 -268t93 -133t168.5 -37q54 0 92.5 11t72 39t53.5 77t31 126.5t11 184.5q0 386 -21 778h391q-20 -360 -20 -620q0 -61 3 -179t3 -171q0 -277 -172 -417.5t-492 -140.5q-328 0 -498.5 138t-170.5 415q0 60 2 176t2 179 q0 231 -19 620zM330 1776q0 82 60 139t161 57q103 0 164 -57t61 -139q0 -85 -60.5 -143t-164.5 -58q-101 0 -161 58t-60 143zM846 1776q0 82 60 139t163 57t164 -57t61 -139q0 -85 -60.5 -143t-164.5 -58q-103 0 -163 58t-60 143z" />
<glyph unicode="&#xdf;" horiz-adv-x="1325" d="M84 0q18 448 18 700q0 67 -4 194t-4 202q0 262 139 396t435 134q248 0 390 -88t142 -242q0 -89 -41.5 -154t-144.5 -145q-43 -34 -61.5 -57.5t-18.5 -50.5q0 -26 19.5 -48.5t64.5 -52.5q124 -82 188.5 -153.5t86.5 -139.5t22 -167q0 -160 -111.5 -255.5t-277.5 -95.5 q-218 0 -330 35l55 260q82 -24 221 -24q93 0 93 67q0 24 -24.5 46.5t-88.5 60.5q-166 101 -222.5 176.5t-56.5 189.5q0 88 41 159t148 155q47 38 63.5 65.5t16.5 67.5q0 44 -37.5 71t-110.5 27q-106 0 -147.5 -57.5t-44.5 -208.5q-2 -102 -2 -299q0 -320 18 -768h-434z" />
<glyph unicode="&#xe0;" horiz-adv-x="1296" d="M51 492q0 170 86 309t228 215t307 76q180 0 301 -37l239 61q-28 -293 -28 -553q0 -251 22 -563h-403l-21 170q-59 -96 -148 -144.5t-190 -48.5q-165 0 -279 135.5t-114 379.5zM217 1395l293 270l508 -311l-227 -205zM475 588q0 -299 174 -299q82 0 131 71q6 102 6 220 q0 178 -6 254q-47 20 -114 20q-83 0 -137 -67t-54 -199z" />
<glyph unicode="&#xe1;" horiz-adv-x="1296" d="M51 492q0 170 86 309t228 215t307 76q180 0 301 -37l239 61q-28 -293 -28 -553q0 -251 22 -563h-403l-21 170q-59 -96 -148 -144.5t-190 -48.5q-165 0 -279 135.5t-114 379.5zM381 1354l508 311l293 -270l-572 -246zM475 588q0 -299 174 -299q82 0 131 71q6 102 6 220 q0 178 -6 254q-47 20 -114 20q-83 0 -137 -67t-54 -199z" />
<glyph unicode="&#xe2;" horiz-adv-x="1296" d="M51 492q0 170 86 309t228 215t307 76q180 0 301 -37l239 61q-28 -293 -28 -553q0 -251 22 -563h-403l-21 170q-59 -96 -148 -144.5t-190 -48.5q-165 0 -279 135.5t-114 379.5zM211 1354l455 311l456 -311l-141 -205l-326 184l-307 -184zM475 588q0 -299 174 -299 q82 0 131 71q6 102 6 220q0 178 -6 254q-47 20 -114 20q-83 0 -137 -67t-54 -199z" />
<glyph unicode="&#xe3;" horiz-adv-x="1296" d="M49 492q0 170 86.5 309t228.5 215t308 76q194 0 301 -37l239 61q-28 -293 -28 -553q0 -251 22 -563h-403l-21 170q-59 -96 -148 -144.5t-190 -48.5q-79 0 -149.5 33t-125.5 95.5t-87.5 162.5t-32.5 224zM307 1366q82 133 223 133q70 0 171 -30.5t143 -30.5q51 0 82.5 15 t68.5 50l66 -192q-87 -135 -227 -135q-71 0 -171 31.5t-143 31.5q-50 0 -80 -15.5t-69 -52.5zM473 588q0 -157 47.5 -228t128.5 -71q82 0 131 71q6 102 6 220q0 178 -6 254q-47 20 -114 20q-83 0 -138 -67t-55 -199z" />
<glyph unicode="&#xe4;" horiz-adv-x="1296" d="M51 492q0 170 86 309t228 215t307 76q180 0 301 -37l239 61q-28 -293 -28 -553q0 -251 22 -563h-403l-21 170q-59 -96 -148 -144.5t-190 -48.5q-165 0 -279 135.5t-114 379.5zM172 1346q0 83 60 140.5t161 57.5q105 0 166.5 -57.5t61.5 -140.5t-61.5 -141t-166.5 -58 q-101 0 -161 58t-60 141zM475 588q0 -299 174 -299q82 0 131 71q6 102 6 220q0 178 -6 254q-47 20 -114 20q-83 0 -137 -67t-54 -199zM688 1346q0 83 60 140.5t163 57.5t164.5 -57.5t61.5 -140.5t-61.5 -141t-164.5 -58t-163 58t-60 141z" />
<glyph unicode="&#xe5;" horiz-adv-x="1296" d="M51 492q0 170 86 309t228 215t307 76q180 0 301 -37l239 61q-28 -293 -28 -553q0 -251 22 -563h-403l-21 170q-59 -96 -148 -144.5t-190 -48.5q-165 0 -279 135.5t-114 379.5zM362 1423q0 107 80.5 180.5t216.5 73.5q140 0 222 -73.5t82 -180.5t-82.5 -182.5 t-221.5 -75.5q-135 0 -216 76t-81 182zM475 588q0 -299 174 -299q82 0 131 71q6 102 6 220q0 178 -6 254q-47 20 -114 20q-83 0 -137 -67t-54 -199zM543 1423q0 -45 30 -75.5t86 -30.5q57 0 91 31t34 75t-34 74.5t-91 30.5q-56 0 -86 -30t-30 -75z" />
<glyph unicode="&#xe6;" horiz-adv-x="1863" d="M51 317q0 164 141.5 255.5t391.5 91.5q51 0 116 -7q0 7 -1 21.5t-1 21.5q-9 66 -49.5 93.5t-130.5 27.5q-190 0 -328 -82l-92 234q97 55 228 87t264 32q241 0 364 -91q152 91 336 91q237 0 381 -144.5t144 -404.5q0 -33 -3 -86h-708q15 -95 81 -142t193 -47q217 0 371 97 l61 -252q-107 -73 -226 -104.5t-284 -31.5q-155 0 -281 52.5t-208 150.5q-144 -203 -438 -203q-147 0 -234.5 90t-87.5 250zM414 371q0 -45 40 -72t111 -27q36 0 83.5 17t74.5 41q-19 55 -29 131q-39 8 -110 8q-82 0 -126 -26.5t-44 -71.5zM1102 678h315q-6 88 -44.5 137 t-108.5 49q-75 0 -114.5 -49.5t-47.5 -136.5z" />
<glyph unicode="&#xe7;" horiz-adv-x="1009" d="M51 526q0 160 80.5 290t220 203t307.5 73q112 0 184.5 -13t155.5 -45l-86 -260q-106 47 -194 47q-123 0 -180.5 -62.5t-57.5 -205.5q0 -148 64.5 -216.5t191.5 -68.5q128 0 201 37l61 -246q-78 -44 -165 -61.5t-216 -20.5v-61q115 -11 184.5 -59t69.5 -133 q0 -88 -70.5 -147.5t-178.5 -59.5q-119 0 -207 30l30 140q75 -21 146 -21q37 0 53.5 9.5t16.5 33.5q0 66 -226 66q13 133 17 215q-173 37 -287.5 179t-114.5 357z" />
<glyph unicode="&#xe8;" horiz-adv-x="1214" d="M51 537q0 157 76 284t211.5 199t304.5 72q236 0 380 -144.5t144 -404.5q0 -51 -2 -86h-708q18 -96 83 -142.5t191 -46.5q217 0 371 97l59 -252q-105 -73 -224 -104.5t-282 -31.5q-179 0 -314.5 64t-212.5 192t-77 304zM190 1395l295 270l508 -311l-229 -205zM455 678h315 q-6 87 -45.5 136.5t-108.5 49.5q-144 0 -161 -186z" />
<glyph unicode="&#xe9;" horiz-adv-x="1214" d="M51 537q0 157 76 284t211.5 199t304.5 72q236 0 380 -144.5t144 -404.5q0 -51 -2 -86h-708q18 -96 83 -142.5t191 -46.5q217 0 371 97l59 -252q-105 -73 -224 -104.5t-282 -31.5q-179 0 -314.5 64t-212.5 192t-77 304zM246 1354l508 311l295 -270l-572 -246zM455 678h315 q-6 87 -45.5 136.5t-108.5 49.5q-144 0 -161 -186z" />
<glyph unicode="&#xea;" horiz-adv-x="1214" d="M51 537q0 157 76 284t211.5 199t304.5 72q236 0 380 -144.5t144 -404.5q0 -51 -2 -86h-708q18 -96 83 -142.5t191 -46.5q217 0 371 97l59 -252q-105 -73 -224 -104.5t-282 -31.5q-179 0 -314.5 64t-212.5 192t-77 304zM170 1354l457 311l454 -311l-141 -205l-324 184 l-307 -184zM455 678h315q-6 87 -45.5 136.5t-108.5 49.5q-144 0 -161 -186z" />
<glyph unicode="&#xeb;" horiz-adv-x="1214" d="M51 537q0 157 76 284t211.5 199t304.5 72q236 0 380 -144.5t144 -404.5q0 -51 -2 -86h-708q18 -96 83 -142.5t191 -46.5q217 0 371 97l59 -252q-105 -73 -224 -104.5t-282 -31.5q-179 0 -314.5 64t-212.5 192t-77 304zM135 1346q0 83 60 140.5t159 57.5 q105 0 166.5 -57.5t61.5 -140.5t-61.5 -141t-166.5 -58q-99 0 -159 58t-60 141zM455 678h315q-6 87 -45.5 136.5t-108.5 49.5q-144 0 -161 -186zM651 1346q0 83 60 140.5t163 57.5q102 0 163 -57.5t61 -140.5t-61 -141t-163 -58q-103 0 -163 58t-60 141z" />
<glyph unicode="&#xec;" horiz-adv-x="602" d="M-129 1395l295 270l508 -311l-230 -205zM84 0q18 296 18 516q0 277 -18 551h434q-18 -274 -18 -551q0 -220 18 -516h-434z" />
<glyph unicode="&#xed;" horiz-adv-x="602" d="M-61 1354l507 311l295 -270l-571 -246zM84 0q18 296 18 516q0 277 -18 551h434q-18 -274 -18 -551q0 -220 18 -516h-434z" />
<glyph unicode="&#xee;" horiz-adv-x="602" d="M-150 1354l457 311l455 -311l-139 -205l-326 184l-307 -184zM84 0q18 296 18 516q0 277 -18 551h434q-18 -274 -18 -551q0 -220 18 -516h-434z" />
<glyph unicode="&#xef;" horiz-adv-x="602" d="M-178 1346q0 83 60 140.5t161 57.5q103 0 164 -57.5t61 -140.5t-61 -141t-164 -58q-101 0 -161 58t-60 141zM84 0q18 296 18 516q0 277 -18 551h434q-18 -274 -18 -551q0 -220 18 -516h-434zM338 1346q0 83 60 140.5t163 57.5t164 -57.5t61 -140.5t-61 -141t-164 -58 t-163 58t-60 141z" />
<glyph unicode="&#xf1;" horiz-adv-x="1257" d="M84 0q18 296 18 516q0 277 -18 551h412l18 -170q122 195 336 195q143 0 237.5 -106t94.5 -267q0 -65 -6.5 -177.5t-6.5 -185.5q0 -203 13 -356h-434q14 186 14 344q0 224 -8 293q-7 71 -38.5 107t-72.5 36q-39 0 -68 -17.5t-57 -57.5q-10 -108 -10 -314q0 -201 10 -391 h-434zM248 1366q87 133 227 133q67 0 167 -30.5t144 -30.5q50 0 83 15.5t67 49.5l65 -192q-87 -135 -227 -135q-70 0 -168.5 31.5t-140.5 31.5q-51 0 -83.5 -16t-68.5 -52z" />
<glyph unicode="&#xf2;" horiz-adv-x="1318" d="M51 518q0 116 43 220t120 183t193.5 125t254.5 46q141 0 256.5 -42t192.5 -115.5t119 -173.5t42 -216q0 -114 -43.5 -217.5t-121 -181t-193.5 -123.5t-252 -46q-143 0 -259 41t-192.5 113.5t-118 171.5t-41.5 215zM217 1395l293 270l508 -311l-227 -205zM492 530 q0 -309 167 -309q49 0 83 23.5t52 67.5t25.5 96.5t7.5 121.5q0 316 -168 316q-49 0 -83 -24t-51.5 -69.5t-25 -99t-7.5 -123.5z" />
<glyph unicode="&#xf3;" horiz-adv-x="1318" d="M51 518q0 116 43 220t120 183t193.5 125t254.5 46q141 0 256.5 -42t192.5 -115.5t119 -173.5t42 -216q0 -114 -43.5 -217.5t-121 -181t-193.5 -123.5t-252 -46q-143 0 -259 41t-192.5 113.5t-118 171.5t-41.5 215zM264 1354l508 311l295 -270l-571 -246zM492 530 q0 -309 167 -309q49 0 83 23.5t52 67.5t25.5 96.5t7.5 121.5q0 316 -168 316q-49 0 -83 -24t-51.5 -69.5t-25 -99t-7.5 -123.5z" />
<glyph unicode="&#xf4;" horiz-adv-x="1318" d="M51 518q0 116 43 220t120 183t193.5 125t254.5 46q141 0 256.5 -42t192.5 -115.5t119 -173.5t42 -216q0 -114 -43.5 -217.5t-121 -181t-193.5 -123.5t-252 -46q-143 0 -259 41t-192.5 113.5t-118 171.5t-41.5 215zM211 1354l455 311l456 -311l-141 -205l-326 184 l-307 -184zM492 530q0 -309 167 -309q49 0 83 23.5t52 67.5t25.5 96.5t7.5 121.5q0 316 -168 316q-49 0 -83 -24t-51.5 -69.5t-25 -99t-7.5 -123.5z" />
<glyph unicode="&#xf5;" horiz-adv-x="1318" d="M45 518q0 116 42.5 220t119.5 183t193.5 125t254.5 46q280 0 444.5 -154.5t164.5 -392.5q0 -114 -43.5 -217.5t-120.5 -181t-193 -123.5t-252 -46q-143 0 -259 41t-192.5 113.5t-117.5 171.5t-41 215zM256 1364q87 133 227 133q68 0 168.5 -30.5t143.5 -30.5 q51 0 82.5 15t68.5 50l64 -192q-84 -135 -226 -135q-71 0 -170 31.5t-141 31.5q-50 0 -82.5 -16t-68.5 -52zM483 530q0 -309 168 -309q49 0 83 23.5t52 67.5t25.5 96.5t7.5 121.5q0 316 -168 316q-49 0 -83 -24t-52 -69.5t-25.5 -99t-7.5 -123.5z" />
<glyph unicode="&#xf6;" horiz-adv-x="1318" d="M51 518q0 116 43 220t120 183t193.5 125t254.5 46q141 0 256.5 -42t192.5 -115.5t119 -173.5t42 -216q0 -114 -43.5 -217.5t-121 -181t-193.5 -123.5t-252 -46q-143 0 -259 41t-192.5 113.5t-118 171.5t-41.5 215zM172 1346q0 83 60 140.5t161 57.5q105 0 166.5 -57.5 t61.5 -140.5t-61.5 -141t-166.5 -58q-101 0 -161 58t-60 141zM492 530q0 -309 167 -309q49 0 83 23.5t52 67.5t25.5 96.5t7.5 121.5q0 316 -168 316q-49 0 -83 -24t-51.5 -69.5t-25 -99t-7.5 -123.5zM688 1346q0 83 60 140.5t163 57.5t164.5 -57.5t61.5 -140.5t-61.5 -141 t-164.5 -58t-163 58t-60 141z" />
<glyph unicode="&#xf8;" horiz-adv-x="1318" d="M51 518q0 116 43 220t120 183t193.5 125t254.5 46q139 0 253 -43l95 135l133 -88l-84 -119q103 -75 158 -186t55 -246q0 -114 -43.5 -217.5t-121 -181t-193.5 -123.5t-252 -46q-175 0 -271 43l-100 -133l-129 88l88 121q-98 71 -148.5 180t-50.5 242zM483 530 q0 -26 4 -96l267 383q-38 35 -97 35q-174 0 -174 -322zM553 256q46 -43 104 -43q174 0 174 317q0 58 -6 113z" />
<glyph unicode="&#xf9;" horiz-adv-x="1257" d="M76 348q0 67 5 179t5 182q0 244 -10 358h434q-12 -196 -12 -344q0 -207 8 -293q7 -71 35.5 -108t68.5 -37q70 0 129 75q9 97 9 318q0 220 -9 389h435q-21 -299 -21 -516q0 -271 21 -551h-410l-21 170q-119 -193 -333 -193q-142 0 -238 106.5t-96 264.5zM188 1395l295 270 l508 -311l-229 -205z" />
<glyph unicode="&#xfa;" horiz-adv-x="1257" d="M76 348q0 67 5 179t5 182q0 244 -10 358h434q-12 -196 -12 -344q0 -207 8 -293q7 -71 35.5 -108t68.5 -37q70 0 129 75q9 97 9 318q0 220 -9 389h435q-21 -299 -21 -516q0 -271 21 -551h-410l-21 170q-119 -193 -333 -193q-142 0 -238 106.5t-96 264.5zM264 1354l508 311 l295 -270l-571 -246z" />
<glyph unicode="&#xfb;" horiz-adv-x="1257" d="M76 348q0 67 5 179t5 182q0 244 -10 358h434q-12 -196 -12 -344q0 -207 8 -293q7 -71 35.5 -108t68.5 -37q70 0 129 75q9 97 9 318q0 220 -9 389h435q-21 -299 -21 -516q0 -271 21 -551h-410l-21 170q-119 -193 -333 -193q-142 0 -238 106.5t-96 264.5zM170 1354l457 311 l454 -311l-141 -205l-324 184l-307 -184z" />
<glyph unicode="&#xfc;" horiz-adv-x="1257" d="M76 348q0 67 5 179t5 182q0 244 -10 358h434q-12 -196 -12 -344q0 -207 8 -293q7 -71 35.5 -108t68.5 -37q70 0 129 75q9 97 9 318q0 220 -9 389h435q-21 -299 -21 -516q0 -271 21 -551h-410l-21 170q-119 -193 -333 -193q-142 0 -238 106.5t-96 264.5zM154 1346 q0 83 60 140.5t161 57.5q103 0 164 -57.5t61 -140.5t-61 -141t-164 -58q-101 0 -161 58t-60 141zM670 1346q0 83 60 140.5t163 57.5t164 -57.5t61 -140.5t-61 -141t-164 -58t-163 58t-60 141z" />
<glyph unicode="&#xff;" horiz-adv-x="1236" d="M0 1067h457q46 -146 101.5 -374t82.5 -386q25 155 76 378.5t96 381.5h424q-83 -187 -192.5 -494t-196.5 -585q-61 -201 -186.5 -314.5t-344.5 -183.5l-98 244q125 57 184 119.5t82 150.5h-82q-69 253 -177.5 537.5t-225.5 525.5zM166 1346q0 83 60 140.5t161 57.5 q103 0 164 -57.5t61 -140.5t-61 -141t-164 -58q-101 0 -161 58t-60 141zM682 1346q0 83 60 140.5t163 57.5t164 -57.5t61 -140.5t-61 -141t-164 -58t-163 58t-60 141z" />
<glyph unicode="&#x152;" horiz-adv-x="2152" d="M55 731q0 161 60.5 306.5t168.5 255.5t270 174.5t353 64.5q128 0 242 -27h901v-295q-153 11 -514 11q-6 -150 -6 -306q256 0 500 13v-312q-262 17 -500 17q0 -171 6 -344q407 0 571 12l-98 -301h-883q-112 -23 -219 -23q-199 0 -361.5 58t-269 159.5t-164 239 t-57.5 297.5zM539 754q0 -95 23 -181t67 -155.5t116 -110.5t162 -41q117 0 197 64q4 41 6 94t2.5 85.5t0 110.5t-0.5 107q0 310 -8 447q-81 65 -197 65q-95 0 -167.5 -39.5t-115.5 -108.5t-64 -154t-21 -183z" />
<glyph unicode="&#x153;" horiz-adv-x="2000" d="M51 518q0 116 43 220t120 183t193.5 125t254.5 46q237 0 391 -119q171 119 377 119q236 0 380 -144.5t144 -404.5q0 -51 -2 -86h-709q15 -95 82 -142t195 -47q214 0 368 97l62 -252q-105 -73 -225 -104.5t-283 -31.5q-260 0 -406 117q-152 -117 -374 -117q-143 0 -259 41 t-192.5 113.5t-118 171.5t-41.5 215zM489 530q0 -309 168 -309q49 0 83 23.5t52 67.5t25.5 96.5t7.5 121.5q0 316 -168 316q-49 0 -83 -24t-52 -69.5t-25.5 -99t-7.5 -123.5zM1241 678h318q-8 87 -47.5 136.5t-108.5 49.5q-75 0 -114.5 -49.5t-47.5 -136.5z" />
<glyph unicode="&#x178;" horiz-adv-x="1583" d="M0 1505h535q164 -332 282 -606q144 340 277 606h489q-129 -179 -301 -437.5t-297 -459.5q1 -135 21 -608h-457q18 436 18 608q-96 176 -256 427.5t-311 469.5zM330 1776q0 82 60 139t161 57q103 0 164 -57t61 -139q0 -85 -60.5 -143t-164.5 -58q-101 0 -161 58t-60 143z M846 1776q0 82 60 139t163 57t164 -57t61 -139q0 -85 -60.5 -143t-164.5 -58q-103 0 -163 58t-60 143z" />
<glyph unicode="&#x2c6;" horiz-adv-x="835" d="M-27 1354l455 311l457 -311l-142 -205l-325 184l-307 -184z" />
<glyph unicode="&#x2dc;" horiz-adv-x="839" d="M55 1366q82 133 224 133q70 0 170.5 -30.5t142.5 -30.5q51 0 82.5 15t68.5 50l66 -192q-87 -135 -227 -135q-73 0 -172.5 31.5t-141.5 31.5q-50 0 -80 -15.5t-71 -52.5z" />
<glyph unicode="&#x2000;" horiz-adv-x="1043" />
<glyph unicode="&#x2001;" horiz-adv-x="2087" />
<glyph unicode="&#x2002;" horiz-adv-x="1043" />
<glyph unicode="&#x2003;" horiz-adv-x="2087" />
<glyph unicode="&#x2004;" horiz-adv-x="695" />
<glyph unicode="&#x2005;" horiz-adv-x="521" />
<glyph unicode="&#x2006;" horiz-adv-x="347" />
<glyph unicode="&#x2007;" horiz-adv-x="347" />
<glyph unicode="&#x2008;" horiz-adv-x="260" />
<glyph unicode="&#x2009;" horiz-adv-x="417" />
<glyph unicode="&#x200a;" horiz-adv-x="115" />
<glyph unicode="&#x2010;" horiz-adv-x="909" d="M78 395v353q363 -5 375 -5q15 0 378 5v-353q-39 1 -164.5 3.5t-209.5 2.5q-85 0 -211 -2.5t-168 -3.5z" />
<glyph unicode="&#x2011;" horiz-adv-x="909" d="M78 395v353q363 -5 375 -5q15 0 378 5v-353q-39 1 -164.5 3.5t-209.5 2.5q-85 0 -211 -2.5t-168 -3.5z" />
<glyph unicode="&#x2012;" horiz-adv-x="909" d="M78 395v353q363 -5 375 -5q15 0 378 5v-353q-39 1 -164.5 3.5t-209.5 2.5q-85 0 -211 -2.5t-168 -3.5z" />
<glyph unicode="&#x2013;" horiz-adv-x="1654" d="M78 422v299q445 -10 729 -10q134 0 326.5 2.5t318.5 4.5l125 3v-299q-470 8 -770 8z" />
<glyph unicode="&#x2014;" horiz-adv-x="2390" d="M78 422v299q677 -10 1104 -10q196 0 479 2.5t468 4.5l185 3v-299q-699 8 -1140 8z" />
<glyph unicode="&#x2018;" horiz-adv-x="575" d="M35 1069q0 146 94.5 262t290.5 219l106 -133q-163 -85 -186 -188q88 -9 142.5 -71t54.5 -146q0 -92 -68.5 -156.5t-183.5 -64.5q-114 0 -182 80t-68 198z" />
<glyph unicode="&#x2019;" horiz-adv-x="575" d="M35 1311q0 92 68.5 156.5t181.5 64.5q116 0 184 -80t68 -199q0 -147 -92 -263t-287 -218l-107 131q159 86 187 191q-91 10 -147 72.5t-56 144.5z" />
<glyph unicode="&#x201a;" horiz-adv-x="575" d="M35 195q0 95 68 160t182 65q116 0 184 -80.5t68 -196.5q0 -150 -91.5 -264.5t-287.5 -218.5l-107 133q160 81 187 191q-91 7 -147 68.5t-56 142.5z" />
<glyph unicode="&#x201c;" horiz-adv-x="1122" d="M35 1069q0 146 94.5 262t290.5 219l106 -133q-163 -85 -186 -188q88 -9 142.5 -71t54.5 -146q0 -92 -68.5 -156.5t-183.5 -64.5q-114 0 -182 80t-68 198zM588 1069q0 147 92.5 263t288.5 218l106 -133q-163 -84 -186 -188q87 -9 141.5 -71t54.5 -146q0 -92 -67 -156.5 t-182 -64.5t-181.5 79.5t-66.5 198.5z" />
<glyph unicode="&#x201d;" horiz-adv-x="1122" d="M35 1311q0 92 68.5 156.5t181.5 64.5q116 0 184 -80t68 -199q0 -147 -92 -263t-287 -218l-107 131q159 86 187 191q-91 10 -147 72.5t-56 144.5zM588 1311q0 92 67 156.5t181 64.5q116 0 182.5 -80t66.5 -199q0 -147 -92.5 -263t-287.5 -218l-109 131q160 85 188 191 q-87 10 -141.5 72.5t-54.5 144.5z" />
<glyph unicode="&#x201e;" horiz-adv-x="1122" d="M35 195q0 95 68 160t182 65q116 0 184 -80.5t68 -196.5q0 -150 -91.5 -264.5t-287.5 -218.5l-107 133q160 81 187 191q-91 7 -147 68.5t-56 142.5zM588 195q0 96 66.5 160.5t181.5 64.5t182 -80.5t67 -196.5q0 -150 -91.5 -264.5t-288.5 -218.5l-109 133q161 80 188 191 q-87 7 -141.5 68.5t-54.5 142.5z" />
<glyph unicode="&#x2022;" horiz-adv-x="1224" d="M78 774q0 96 36 181t102 150.5t168 103.5t226 38q125 0 227.5 -38t169.5 -103t103.5 -150.5t36.5 -181.5q0 -95 -36.5 -180.5t-103 -151.5t-169.5 -104.5t-228 -38.5q-124 0 -226 38.5t-168 104.5t-102 151.5t-36 180.5z" />
<glyph unicode="&#x2026;" horiz-adv-x="1724" d="M35 195q0 95 68 160t182 65q116 0 184 -64.5t68 -160.5q0 -91 -68.5 -154.5t-183.5 -63.5q-113 0 -181.5 64t-68.5 154zM610 195q0 96 68 160.5t184 64.5q115 0 182.5 -64.5t67.5 -160.5q0 -90 -68 -154t-182 -64q-115 0 -183.5 63.5t-68.5 154.5zM1186 195 q0 96 68 160.5t184 64.5q115 0 182.5 -64.5t67.5 -160.5q0 -90 -68 -154t-182 -64q-115 0 -183.5 63.5t-68.5 154.5z" />
<glyph unicode="&#x202f;" horiz-adv-x="417" />
<glyph unicode="&#x2039;" horiz-adv-x="704" d="M4 545l469 514l227 -150l-262 -360l262 -365l-229 -153z" />
<glyph unicode="&#x203a;" horiz-adv-x="704" d="M4 184l260 365l-260 360l229 150l467 -514l-464 -514z" />
<glyph unicode="&#x205f;" horiz-adv-x="521" />
<glyph unicode="&#x2122;" horiz-adv-x="2295" d="M47 1319l57 186h828v-180q-86 6 -299 6q-6 -141 -6 -260q0 -259 14 -469h-299q14 252 14 469q0 84 -4 260q-149 0 -305 -12zM928 602q73 489 86 903h370q132 -348 203 -631q99 345 215 631h359q0 -394 53 -903h-287q0 352 -14 653q-141 -344 -223 -653h-258 q-91 349 -215 653q-38 -403 -48 -653h-241z" />
<glyph unicode="&#xe000;" horiz-adv-x="1064" d="M0 0v1065h1065v-1065h-1065z" />
<glyph unicode="&#xfb01;" horiz-adv-x="1406" d="M0 791v276h156q-9 101 -9 143q0 186 127 301t318 115q156 0 231 -35l-63 -245q-30 10 -70 10q-56 0 -92 -47q-45 -67 -45 -242h252v-276h-254q0 -364 20 -791h-432q19 473 19 791h-158zM862 1395q0 92 65.5 154.5t180.5 62.5q113 0 177.5 -62.5t64.5 -154.5 q0 -93 -64.5 -156t-177.5 -63q-115 0 -180.5 62.5t-65.5 156.5zM889 0q18 296 18 516q0 277 -18 551h434q-18 -274 -18 -551q0 -220 18 -516h-434z" />
<glyph unicode="&#xfb02;" horiz-adv-x="1406" d="M0 791v276h156q-6 67 -6 143q0 186 125.5 301t316.5 115q156 0 231 -35l-63 -245q-30 10 -70 10q-56 0 -92 -47q-23 -34 -33 -87.5t-10 -154.5h250v-276h-254q0 -364 20 -791h-432q19 473 19 791h-158zM889 0q18 448 18 774q0 420 -18 830h434q-18 -410 -18 -830 q0 -326 18 -774h-434z" />
</font>
</defs>
</svg>
