<?xml version="1.0" standalone="no"?>
<!DOCTYPE svg PUBLIC "-//W3C//DTD SVG 1.1//EN" "http://www.w3.org/Graphics/SVG/1.1/DTD/svg11.dtd" >
<svg xmlns="http://www.w3.org/2000/svg">
<metadata></metadata>
<defs>
<font id="advert_lightregular" horiz-adv-x="1273" >
<font-face units-per-em="2048" ascent="1638" descent="-410" />
<missing-glyph horiz-adv-x="440" />
<glyph horiz-adv-x="2048" />
<glyph horiz-adv-x="2048" />
<glyph unicode="&#xd;" horiz-adv-x="2048" />
<glyph unicode=" "  horiz-adv-x="440" />
<glyph unicode="&#x09;" horiz-adv-x="440" />
<glyph unicode="&#xa0;" horiz-adv-x="440" />
<glyph unicode="!" horiz-adv-x="587" d="M168 84q0 51 33 82t92 31q60 0 92.5 -31t32.5 -82q0 -47 -32.5 -77t-92.5 -30q-58 0 -91.5 30t-33.5 77zM182 1491l228 41q-50 -533 -50 -1129h-135q0 593 -43 1088z" />
<glyph unicode="&#x22;" horiz-adv-x="823" d="M106 1505h213q-47 -234 -83 -620h-103q0 224 -27 620zM487 1505h207q-39 -236 -84 -620h-102q0 312 -21 620z" />
<glyph unicode="#" d="M25 424l24 143h240l53 381h-244l19 142h243q29 158 54 415h168q-9 -56 -24.5 -142t-26.5 -150.5t-19 -122.5h358q27 192 52 415h168q-42 -232 -70 -415h227l-18 -142h-228l-53 -381h228l-21 -143h-227q-25 -187 -51 -424h-168q35 187 67 424h-356q-43 -358 -53 -424h-168 q43 214 69 424h-243zM438 567h359l53 381h-356z" />
<glyph unicode="$" horiz-adv-x="1136" d="M98 111l62 137q182 -98 383 -98q143 0 229 65.5t86 161.5q0 98 -51.5 162t-181.5 123l-193 86q-147 66 -218 159t-71 221q0 137 110 236.5t284 122.5v168h139v-166q191 -5 325 -80l-57 -129q-141 78 -311 78q-152 0 -231.5 -55.5t-79.5 -149.5q0 -79 52.5 -139 t196.5 -127l164 -78q164 -77 234.5 -168.5t70.5 -232.5q0 -153 -113 -257t-292 -133v-182h-139v178q-193 5 -398 97z" />
<glyph unicode="%" horiz-adv-x="2064" d="M88 1055q0 110 32 201.5t87 151t126 92t150 32.5q168 0 278.5 -118t110.5 -339q0 -109 -32.5 -200.5t-87 -151t-124 -92.5t-145.5 -33q-173 0 -284 117.5t-111 339.5zM260 1065q0 -344 227 -344q114 0 166 86.5t52 257.5q0 166 -55.5 256t-162.5 90q-119 0 -173 -88 t-54 -258zM442 0q534 762 971 1505h207q-480 -685 -967 -1505h-211zM1192 430q0 111 32 203t86.5 151.5t125 92t147.5 32.5q82 0 152.5 -28.5t124.5 -83t85 -143t31 -201.5q0 -109 -32.5 -200t-87 -150.5t-125.5 -92.5t-148 -33q-82 0 -152 27.5t-124 81.5t-84.5 142.5 t-30.5 201.5zM1364 440q0 -344 223 -344q221 0 221 344q0 168 -56 258t-165 90q-118 0 -170.5 -88t-52.5 -260z" />
<glyph unicode="&#x26;" horiz-adv-x="1753" d="M102 381q0 290 381 430q-96 90 -138 174.5t-42 183.5q0 158 132 260.5t351 102.5q177 0 316 -51l-45 -135q-109 45 -250 45q-318 0 -318 -209q0 -70 27 -128t96 -130q95 -96 306.5 -277.5t324.5 -263.5q156 187 156 604h190q0 -196 -73 -371.5t-175 -298.5 q237 -178 394 -256l-187 -108q-159 104 -340 244q-142 -119 -270 -169.5t-287 -50.5q-236 0 -392.5 115.5t-156.5 288.5zM293 403q0 -122 112 -204t265 -82q145 0 244 29t206 114q-103 80 -289 236t-268 233q-147 -65 -208.5 -140.5t-61.5 -185.5z" />
<glyph unicode="'" horiz-adv-x="442" d="M109 1505h215q-52 -272 -84 -620h-107q0 198 -24 620z" />
<glyph unicode="(" horiz-adv-x="790" d="M109 567q0 174 35 331.5t94 277t137.5 214t165 153t176.5 83.5l37 -131q-51 -21 -102.5 -58.5t-105.5 -93t-100 -133.5t-82.5 -171t-57.5 -215t-21 -257q0 -158 28 -298t74.5 -242t108 -183.5t126 -130.5t132.5 -75l-37 -132q-90 24 -176.5 83t-165 154.5t-137.5 215.5 t-94 277.5t-35 330.5z" />
<glyph unicode=")" horiz-adv-x="790" d="M35 -358q63 25 125.5 72.5t125.5 127.5t110.5 181t77.5 243.5t30 304.5q0 195 -42 361t-111 277.5t-149.5 184.5t-166.5 105l41 129q89 -24 174.5 -82.5t163.5 -153.5t137 -214.5t94 -276.5t35 -330q0 -174 -35 -332t-94 -278t-137 -215t-163.5 -154t-174.5 -84z" />
<glyph unicode="*" horiz-adv-x="870" d="M80 1042l268 119l-268 125l72 123l243 -174l-37 297h144l-31 -297l240 174l71 -123l-270 -125l270 -119l-71 -122l-240 172l31 -295h-144l35 295l-241 -172z" />
<glyph unicode="+" horiz-adv-x="1337" d="M51 602v154h545v542h149v-542h551v-154h-551v-549h-149v549h-545z" />
<glyph unicode="," horiz-adv-x="530" d="M78 -233q85 52 120.5 101.5t41.5 113.5q-115 9 -115 106q0 52 34.5 82.5t86.5 30.5q68 0 107.5 -46t39.5 -139q0 -195 -252 -321z" />
<glyph unicode="-" horiz-adv-x="780" d="M84 479v185q115 -2 307 -2q186 0 303 2v-185q-115 2 -299 2q-196 0 -311 -2z" />
<glyph unicode="." horiz-adv-x="530" d="M115 96q0 55 37 91t102 36t102 -36t37 -91q0 -53 -36.5 -86t-102.5 -33t-102.5 33t-36.5 86z" />
<glyph unicode="/" horiz-adv-x="1015" d="M-16 0q411 696 833 1505h217q-440 -747 -837 -1505h-213z" />
<glyph unicode="0" d="M88 731q0 388 144.5 594.5t406.5 206.5q264 0 405.5 -194t141.5 -568q0 -382 -144.5 -587.5t-402.5 -205.5q-268 0 -409.5 191.5t-141.5 562.5zM283 754q0 -323 91.5 -480t264.5 -157q352 0 352 637t-352 637q-356 0 -356 -637z" />
<glyph unicode="1" horiz-adv-x="954" d="M106 1272l463 254l133 -25q-10 -299 -10 -774q0 -448 10 -727h-196q8 279 8 727q0 417 -2 612l-344 -198z" />
<glyph unicode="2" d="M111 1393q225 139 495 139q225 0 356.5 -110t131.5 -298q0 -91 -33.5 -183t-91.5 -180t-155 -190.5t-205.5 -199.5t-260.5 -221q501 0 793 16l-56 -166h-964v133q224 191 363 322t237 248.5t138 209t40 183.5q0 137 -81.5 216t-225.5 79q-223 0 -424 -127z" />
<glyph unicode="3" d="M76 100l67 136q97 -59 221.5 -89t241.5 -30q166 0 254 78t88 208q0 289 -590 289v133q287 27 408 106.5t121 221.5q0 102 -82 170t-225 68q-224 0 -416 -134l-62 132q251 143 494 143q221 0 349 -98.5t128 -262.5q0 -146 -94 -243.5t-250 -132.5q196 -33 304 -137.5 t108 -239.5q0 -196 -141 -318.5t-371 -122.5q-338 0 -553 123z" />
<glyph unicode="4" d="M57 377v127q155 204 375 509.5t361 512.5l159 -25q-5 -105 -7 -233t-2 -219.5t0.5 -265t0.5 -265.5h293v-141h-293q0 -218 6 -377h-188q8 141 8 377h-713zM236 518h534q0 586 -4 744q-253 -378 -530 -744z" />
<glyph unicode="5" d="M117 74l59 129q183 -86 389 -86q176 0 273.5 86t97.5 225q0 67 -20 118t-72 97t-138.5 76t-225 47.5t-324.5 17.5q34 228 34 721h854v-155q-187 14 -686 14l-8 -449q212 0 364 -31.5t242.5 -93.5t132 -146t41.5 -195q0 -217 -152.5 -344.5t-428.5 -127.5q-230 0 -432 97z " />
<glyph unicode="6" d="M86 721q0 184 57.5 338t155.5 256.5t228 159.5t276 57q170 0 268 -43l-39 -141q-100 41 -244 41q-210 0 -355 -167t-157 -434q80 66 180.5 105t202.5 39q120 0 220.5 -38.5t167 -103.5t103 -152t36.5 -185q0 -223 -136.5 -349.5t-357.5 -126.5q-91 0 -176.5 25 t-164.5 82.5t-137 142t-93 211.5t-35 283zM276 664q5 -140 40 -248t92.5 -173t128.5 -97.5t153 -32.5q141 0 223 82.5t82 234.5q0 149 -102.5 251.5t-276.5 102.5q-90 0 -179.5 -31t-160.5 -89z" />
<glyph unicode="7" d="M119 1348l55 157h975v-129q-156 -307 -319.5 -681t-284.5 -695h-207q240 620 625 1362q-658 0 -844 -14z" />
<glyph unicode="8" d="M94 352q0 143 99 249t284 167q-187 92 -260.5 179.5t-73.5 207.5q0 158 140.5 267.5t365.5 109.5q216 0 343.5 -98t127.5 -242q0 -140 -82 -243t-243 -156q215 -103 297 -202.5t82 -232.5q0 -170 -142.5 -275.5t-392.5 -105.5q-272 0 -408.5 98.5t-136.5 276.5zM272 367 q0 -81 55.5 -141t139.5 -87.5t182 -27.5q160 0 250 65.5t90 163.5q0 42 -3.5 68t-19.5 55.5t-39.5 51.5t-72 54t-109 64t-157.5 80q-177 -74 -246.5 -152t-69.5 -194zM328 1174q0 -62 24.5 -103.5t99.5 -93.5t230 -129q141 59 201.5 137t60.5 176q0 102 -81.5 169t-225.5 67 q-153 0 -231 -62t-78 -161z" />
<glyph unicode="9" d="M86 1055q0 139 68 249t181.5 169t250.5 59q124 0 230 -43t190 -130t132 -234t48 -339q0 -184 -57.5 -338t-155 -256t-227.5 -158.5t-275 -56.5q-160 0 -309 50l37 143q164 -51 286 -51q209 0 353.5 166t156.5 434q-79 -67 -180 -106.5t-203 -39.5q-121 0 -221 38.5 t-166 104.5t-102.5 153.5t-36.5 185.5zM276 1075q0 -148 103 -250t278 -102q89 0 178 31.5t160 89.5q-10 275 -120.5 413t-282.5 138q-144 0 -230 -84t-86 -236z" />
<glyph unicode=":" horiz-adv-x="530" d="M115 96q0 55 37 91t102 36t102 -36t37 -91q0 -53 -36.5 -86t-102.5 -33t-102.5 33t-36.5 86zM115 897q0 53 37 88t102 35t102 -35t37 -88q0 -52 -37 -87.5t-102 -35.5t-102 35.5t-37 87.5z" />
<glyph unicode=";" horiz-adv-x="530" d="M78 -233q85 52 120.5 101.5t41.5 113.5q-119 10 -119 106q0 52 36.5 82.5t88.5 30.5q68 0 107.5 -46t39.5 -139q0 -195 -252 -321zM115 897q0 53 37 88t102 35t102 -35t37 -88q0 -52 -37 -87.5t-102 -35.5t-102 35.5t-37 87.5z" />
<glyph unicode="&#x3c;" horiz-adv-x="1007" d="M78 678l751 641l109 -102l-625 -535l627 -537l-113 -110z" />
<glyph unicode="=" horiz-adv-x="1337" d="M49 315v162q370 -8 608 -8l641 8v-162q-391 4 -641 4zM49 872v162q370 -6 608 -6l641 6v-162q-391 7 -641 7z" />
<glyph unicode="&#x3e;" horiz-adv-x="1007" d="M68 1212l112 107l750 -641l-752 -643l-108 106l624 533z" />
<glyph unicode="?" horiz-adv-x="724" d="M47 1417l96 125q139 -21 242 -59.5t159 -88t82.5 -101.5t26.5 -107q0 -95 -36.5 -162t-122.5 -139l-93 -78q-59 -50 -79.5 -82.5t-20.5 -67.5q0 -51 26 -91.5t122 -149.5l-130 -43q-104 101 -138 156.5t-34 115.5q0 64 24 109.5t97 115.5l88 84q62 58 87.5 104.5 t25.5 100.5q0 175 -422 258zM201 84q0 51 34.5 82t94.5 31t91.5 -31t31.5 -82q0 -48 -32 -77.5t-91 -29.5q-60 0 -94.5 30t-34.5 77z" />
<glyph unicode="@" horiz-adv-x="2275" d="M70 524q0 213 85.5 400.5t232.5 320.5t351.5 210t434.5 77q477 0 736 -220.5t259 -629.5q0 -122 -27.5 -223t-73.5 -169.5t-107.5 -115.5t-127 -68.5t-133.5 -21.5q-124 0 -200.5 45t-123.5 145q-66 -91 -164 -140.5t-202 -49.5q-69 0 -133.5 25t-117 72t-84.5 122.5 t-32 167.5q0 173 76.5 302t210 195t305.5 66q102 0 211 -33l160 46q-86 -393 -86 -637q0 -100 59 -156.5t154 -56.5q112 0 191 120t79 347q0 367 -216.5 559t-610.5 192q-157 0 -301.5 -44t-259.5 -124t-201 -186.5t-132 -238.5t-46 -273q0 -197 72.5 -361.5t200.5 -276.5 t306.5 -173.5t386.5 -61.5q483 0 766 218l68 -117q-334 -215 -846 -215q-248 0 -455.5 67.5t-354.5 190.5t-228.5 303.5t-81.5 400.5zM825 498q0 -150 66.5 -217.5t169.5 -67.5q157 0 264 145q13 80 31 252.5t24 276.5q-62 33 -168 33q-173 0 -280 -113.5t-107 -308.5z" />
<glyph unicode="A" horiz-adv-x="1531" d="M18 0q135 273 338.5 719t354.5 799h184q302 -800 618 -1518h-202q-61 144 -199 481h-692q-13 -27 -97.5 -210.5t-125.5 -270.5h-179zM483 623h576q-60 150 -163 420.5t-110 287.5q-46 -113 -303 -708z" />
<glyph unicode="B" horiz-adv-x="1353" d="M176 0q8 279 8 727q0 479 -8 778h406q272 0 420.5 -98t148.5 -270q0 -123 -82 -215t-211 -111q156 -28 259.5 -130t103.5 -237q0 -219 -159 -331.5t-466 -112.5h-420zM362 709q0 -346 5 -566q45 -2 202 -2q247 0 354 72.5t107 214.5q0 137 -118.5 210t-348.5 73 q-146 0 -201 -2zM362 856q49 -2 193 -2q204 0 307 68t103 194q0 128 -98.5 189t-307.5 61h-192q-5 -187 -5 -510z" />
<glyph unicode="C" horiz-adv-x="1452" d="M119 719q0 188 65 343t178 257t263.5 157.5t322.5 55.5q145 0 240.5 -16.5t195.5 -55.5l-59 -143q-159 72 -360 72q-190 0 -334.5 -72t-228 -217t-83.5 -346q0 -183 82 -328.5t226 -226t323 -80.5q112 0 198 23.5t177 76.5l64 -137q-116 -57 -225.5 -81t-256.5 -24 q-219 0 -398.5 92t-284.5 262.5t-105 387.5z" />
<glyph unicode="D" horiz-adv-x="1632" d="M176 0q8 279 8 727q0 479 -8 778h445q204 0 367.5 -43.5t280.5 -129t179.5 -219t62.5 -306.5q0 -380 -230 -593.5t-656 -213.5h-449zM362 768q0 -384 5 -621q35 -2 239 -2q715 0 715 625q0 294 -192 443t-549 149h-213q-5 -190 -5 -594z" />
<glyph unicode="E" horiz-adv-x="1161" d="M176 0q8 279 8 727q0 479 -8 778h838v-147q-127 4 -647 4q-5 -222 -5 -520q438 0 631 8v-158q-184 10 -631 10q0 -330 5 -557q480 0 720 9l-69 -154h-842z" />
<glyph unicode="F" horiz-adv-x="1097" d="M176 0q8 279 8 727q0 479 -8 778h838v-147q-127 4 -647 4q-5 -222 -5 -555q438 0 631 8v-156q-156 9 -631 9q0 -371 11 -668h-197z" />
<glyph unicode="G" horiz-adv-x="1609" d="M119 713q0 180 60 331.5t169.5 259.5t270 168t354.5 60q243 0 459 -88l-56 -139q-207 84 -387 84q-323 0 -496.5 -172t-173.5 -463q0 -144 52.5 -265.5t140 -202t200.5 -125t236 -44.5q183 0 287 37q6 82 6 237q0 168 -6 248h197q-7 -143 -7 -277q0 -177 7 -301 q-209 -84 -525 -84q-120 0 -236.5 34t-215.5 99.5t-174.5 154t-118.5 204.5t-43 244z" />
<glyph unicode="H" horiz-adv-x="1587" d="M176 0q8 279 8 727q0 479 -8 778h197q-11 -357 -11 -659h863q0 302 -11 659h197q-8 -299 -8 -778q0 -448 8 -727h-197q11 297 11 700h-863q0 -403 11 -700h-197z" />
<glyph unicode="I" horiz-adv-x="550" d="M176 0q8 279 8 727q0 479 -8 778h197q-11 -329 -11 -778q0 -420 11 -727h-197z" />
<glyph unicode="J" horiz-adv-x="555" d="M-88 -383q84 31 133.5 68.5t89.5 89.5q33 45 45.5 113t12.5 196q0 762 -17 1421h199q-4 -105 -6 -203t-3 -149v-67.5v-101.5q1 -118 1 -167q0 -103 5 -340.5t5 -343.5q0 -193 -46 -318.5t-134 -196.5t-236 -118z" />
<glyph unicode="K" horiz-adv-x="1376" d="M176 0q8 279 8 727q0 481 -8 778h197q-11 -275 -11 -714q191 164 420 379t338 335h213q-142 -150 -376.5 -372.5t-391.5 -356.5q160 -168 383 -375.5t412 -369.5l-201 -82q-179 169 -407 397.5t-390 403.5q0 -457 11 -750h-197z" />
<glyph unicode="L" horiz-adv-x="1136" d="M176 0q8 279 8 727q0 479 -8 778h197q-11 -329 -11 -778q0 -331 5 -582q486 0 720 9l-69 -154h-842z" />
<glyph unicode="M" horiz-adv-x="2101" d="M121 0q102 777 135 1505h215q353 -752 576 -1315q288 664 604 1315h207q3 -292 24.5 -718.5t52.5 -786.5h-200q-5 512 -52 1237q-105 -208 -281.5 -588.5t-293.5 -648.5h-174q-290 724 -526 1237q-79 -676 -101 -1237h-186z" />
<glyph unicode="N" horiz-adv-x="1599" d="M176 0q8 279 8 727q0 479 -8 778h201q536 -709 876 -1196q0 829 -10 1196h176q-8 -301 -8 -778q0 -448 8 -727h-159q-603 853 -918 1272q0 -776 10 -1272h-176z" />
<glyph unicode="O" horiz-adv-x="1781" d="M119 731q0 185 62.5 338.5t168.5 253.5t245.5 154.5t295.5 54.5q166 0 308 -53.5t243.5 -151t159 -240.5t57.5 -315q0 -185 -61.5 -337.5t-167 -251.5t-244 -152.5t-295.5 -53.5q-224 0 -398.5 90t-274 262.5t-99.5 401.5zM319 754q0 -150 43.5 -271.5t120.5 -201 t181 -122t227 -42.5q255 0 412 170t157 467t-159 467t-410 170q-255 0 -413.5 -171.5t-158.5 -465.5z" />
<glyph unicode="P" horiz-adv-x="1196" d="M176 0q8 279 8 727q0 479 -8 778h344q301 0 466 -113.5t165 -308.5q0 -210 -165.5 -329t-444.5 -119q-87 0 -179 6q0 -344 11 -641h-197zM362 776q43 -2 144 -2q455 0 455 297q0 137 -112.5 214t-338.5 77h-143q-5 -110 -5 -586z" />
<glyph unicode="Q" horiz-adv-x="1769" d="M119 731q0 182 62.5 335t168.5 254t244 156.5t291 55.5q221 0 393.5 -91.5t270.5 -265.5t98 -403q0 -155 -46.5 -288t-128 -227.5t-188 -158t-231.5 -90.5q382 -76 729 -194l-172 -129q-509 207 -869 299q-622 156 -622 747zM319 754q0 -151 42.5 -272.5t118 -201.5 t179 -122.5t226.5 -42.5q253 0 408 170.5t155 468.5q0 149 -42 270t-117 201t-178.5 123t-225.5 43q-254 0 -410 -171t-156 -466z" />
<glyph unicode="R" horiz-adv-x="1337" d="M176 0q8 279 8 727q0 481 -8 778h359q289 0 446.5 -103.5t157.5 -301.5q0 -146 -84.5 -250t-225.5 -152q80 -147 197 -345t201 -324l-195 -60q-211 349 -375 682q-76 -2 -149.5 -1.5t-145.5 1.5q0 -409 11 -651h-197zM362 793q37 -2 166 -1q205 0 312.5 76.5t107.5 223.5 q0 133 -110 201.5t-314 68.5h-157q-5 -169 -5 -569z" />
<glyph unicode="S" horiz-adv-x="1236" d="M115 80l63 143q207 -106 406 -106q149 0 241.5 70t92.5 169q0 104 -55 171.5t-193 129.5l-201 91q-307 136 -307 401q0 159 141 271t363 112q237 0 399 -86l-59 -137q-143 82 -328 82q-160 0 -245 -59.5t-85 -155.5q0 -86 56 -150t206 -133l174 -80q175 -83 249.5 -178.5 t74.5 -243.5q0 -119 -70 -214.5t-188 -147.5t-260 -52q-268 0 -475 103z" />
<glyph unicode="T" horiz-adv-x="1341" d="M16 1356l70 149h1223v-147q-127 4 -539 4q-6 -201 -6 -582q0 -479 8 -780h-197q11 331 11 780q0 379 -8 582q-406 0 -562 -6z" />
<glyph unicode="U" horiz-adv-x="1583" d="M176 1505h197q-11 -329 -11 -952q0 -111 35.5 -195t97.5 -134t140 -74.5t170 -24.5t168 23t137 71.5t95 133.5t34 200q0 653 -8 952h176q-8 -268 -8 -620q0 -61 3 -179t3 -171q0 -174 -80.5 -302t-216.5 -192t-311 -64q-100 0 -190.5 21.5t-168.5 66t-135.5 109t-90 156 t-32.5 200.5q0 60 2 176t2 179q0 292 -8 620z" />
<glyph unicode="V" horiz-adv-x="1505" d="M14 1505h215q277 -677 510 -1327q283 720 557 1327h199q-134 -278 -331 -723t-339 -790h-196q-266 719 -615 1513z" />
<glyph unicode="W" horiz-adv-x="2154" d="M0 1505h209q23 -58 51.5 -137t64 -183.5t64.5 -190t72.5 -219.5t66.5 -204.5t69 -212.5t58 -180q145 415 363 948q-56 163 -146 379h211q220 -623 443 -1327q340 1058 430 1327h198q-151 -406 -544 -1513h-197q-208 644 -319 934q-202 -497 -355 -934h-196 q-323 951 -543 1513z" />
<glyph unicode="X" horiz-adv-x="1439" d="M10 0q431 528 606 758q-206 278 -567 747h223q208 -263 455 -612q311 416 473 612h215q-265 -306 -594 -725q126 -171 305.5 -401.5t303.5 -378.5h-228q-115 141 -495 643q-124 -173 -478 -643h-219z" />
<glyph unicode="Y" horiz-adv-x="1411" d="M20 1505h232q397 -562 461 -657q182 268 463 657h219q-338 -426 -611 -798q0 -437 9 -707h-197q8 242 8 709q-211 300 -584 796z" />
<glyph unicode="Z" horiz-adv-x="1501" d="M94 0v125q409 518 928 1233q-655 0 -893 -8v155h1145v-125q-280 -354 -928 -1230q856 0 1026 8l-67 -158h-1211z" />
<glyph unicode="[" horiz-adv-x="698" d="M166 -467q8 385 8 1002q0 657 -8 1069h496v-144h-314q-6 -266 -6 -923q0 -621 6 -861h314v-143h-496z" />
<glyph unicode="\" horiz-adv-x="1013" d="M-16 1505h211q419 -797 837 -1505h-215q-381 732 -833 1505z" />
<glyph unicode="]" horiz-adv-x="698" d="M35 -324h313q6 240 6 861q0 657 -6 923h-313v144h495q-8 -412 -8 -1069q0 -617 8 -1002h-495v143z" />
<glyph unicode="^" horiz-adv-x="835" d="M49 1233l375 291l377 -291l-72 -88l-305 192l-309 -192z" />
<glyph unicode="_" d="M0 0h1274v-143h-1274v143z" />
<glyph unicode="`" horiz-adv-x="761" d="M117 1401l110 123l424 -291l-78 -88z" />
<glyph unicode="a" horiz-adv-x="1214" d="M88 496q0 165 76 294t206 198t289 69q129 0 244 -39l152 49q-17 -254 -17 -528q0 -284 9 -539h-160l-21 170q-60 -97 -155 -145t-213 -48q-81 0 -154.5 35t-131 99.5t-91 164t-33.5 220.5zM264 524q0 -199 85 -304t220 -105q177 0 295 184q6 95 6 256q0 255 -6 334 q-93 43 -219 43q-159 0 -270 -112.5t-111 -295.5z" />
<glyph unicode="b" horiz-adv-x="1208" d="M162 1604h184q-6 -312 -6 -365q0 -258 2 -377q61 96 156 145.5t200 49.5q85 0 161 -32.5t134.5 -94t92.5 -158t34 -215.5q0 -167 -67 -297.5t-198 -206.5t-306 -76q-226 0 -385 89q6 254 6 708q0 538 -8 830zM338 492q0 -279 6 -349q93 -45 225 -45q170 0 272.5 115 t102.5 309q0 199 -78.5 295t-222.5 96q-180 0 -299 -178q-6 -99 -6 -243z" />
<glyph unicode="c" horiz-adv-x="1007" d="M88 526q0 145 67.5 266t191.5 193t278 72q180 0 321 -58l-49 -127q-109 56 -268 56q-162 0 -263.5 -106.5t-101.5 -268.5q0 -109 28.5 -194t79.5 -137.5t117 -79.5t144 -27q146 0 270 92l58 -111q-157 -119 -377 -119q-222 0 -359 143t-137 406z" />
<glyph unicode="d" horiz-adv-x="1208" d="M88 496q0 165 76 294t206 198t289 69q109 0 211 -27q0 271 -8 574h185q-9 -359 -9 -830q0 -438 9 -774h-160l-21 170q-60 -97 -155 -145t-213 -48q-81 0 -154.5 35t-131 99.5t-91 164t-33.5 220.5zM264 524q0 -199 85 -304t220 -105q177 0 295 184q6 95 6 256 q0 186 -4 334q-93 43 -221 43q-159 0 -270 -112.5t-111 -295.5z" />
<glyph unicode="e" horiz-adv-x="1103" d="M88 537q0 238 133 379t354 141q198 0 318.5 -122t120.5 -345q0 -55 -2 -86h-754q12 -195 118 -292t281 -97q78 0 161.5 31.5t137.5 78.5l60 -123q-152 -125 -398 -125q-112 0 -208.5 37.5t-168 107t-112.5 176.5t-41 239zM256 621h590q-12 165 -82 238t-207 73 q-128 0 -209.5 -83.5t-91.5 -227.5z" />
<glyph unicode="f" horiz-adv-x="745" d="M49 911v121h197q-2 41 -2 178q0 197 96.5 306.5t282.5 109.5q106 0 198 -27l-39 -122q-80 22 -159 22q-123 0 -177 -86q-24 -38 -28 -96.5t-4 -284.5h307v-121h-307q0 -657 8 -911h-184q8 250 8 911h-197z" />
<glyph unicode="g" horiz-adv-x="1214" d="M88 496q0 165 76 294t206 198t289 69q129 0 244 -39l152 49q-17 -179 -17 -489q0 -84 5.5 -226.5t5.5 -212.5q0 -323 -144.5 -478t-408.5 -155q-221 0 -394 64l45 149q150 -69 349 -69q175 0 283 105.5t108 295.5q0 87 -8 144q-64 -97 -162.5 -147t-218.5 -50 q-82 0 -155 32t-130.5 92t-91 156.5t-33.5 217.5zM264 524q0 -204 79 -293.5t226 -89.5q181 0 295 183q6 94 6 231q0 255 -6 334q-93 43 -219 43q-159 0 -270 -112.5t-111 -295.5z" />
<glyph unicode="h" horiz-adv-x="1210" d="M162 0q8 299 8 774q0 513 -8 830h184q-6 -306 -6 -365q0 -258 2 -377q137 195 365 195q161 0 253.5 -98.5t92.5 -282.5q0 -76 -3 -176t-3 -144q0 -215 10 -356h-187q9 200 9 344q0 188 -5 336q-4 116 -63 174.5t-166 58.5q-82 0 -161.5 -45t-137.5 -131q-8 -112 -8 -346 q0 -214 8 -391h-184z" />
<glyph unicode="i" horiz-adv-x="507" d="M135 1391q0 45 32 75.5t89 30.5t89 -30.5t32 -75.5q0 -48 -32 -80.5t-89 -32.5t-89 32.5t-32 80.5zM162 0q8 197 8 516q0 301 -8 516h184q-8 -211 -8 -516q0 -319 8 -516h-184z" />
<glyph unicode="j" horiz-adv-x="507" d="M-92 -410q164 65 213 150q55 91 55 256q0 634 -14 1036h184q-8 -195 -8 -467q0 -73 4 -242t4 -247q0 -100 -7 -172.5t-26 -132t-47 -100t-74 -75t-102.5 -58.5t-138.5 -48zM135 1391q0 45 32 75.5t89 30.5t89 -30.5t32 -75.5q0 -48 -32 -80.5t-89 -32.5t-89 32.5 t-32 80.5z" />
<glyph unicode="k" horiz-adv-x="1101" d="M162 0q8 299 8 774q0 511 -8 830h184q-8 -319 -8 -1024q106 84 259 227t228 225h219q-105 -102 -518 -457q109 -120 271.5 -276t292.5 -266l-191 -60q-120 106 -283 272t-278 298q0 -163 8 -543h-184z" />
<glyph unicode="l" horiz-adv-x="507" d="M162 0q8 299 8 774q0 511 -8 830h184q-8 -319 -8 -830q0 -475 8 -774h-184z" />
<glyph unicode="m" horiz-adv-x="1886" d="M162 0q8 197 8 516q0 299 -8 516h155l21 -170q70 99 154 147t210 48q108 0 191 -57.5t115 -155.5q82 107 174 160t209 53q155 0 246.5 -99t91.5 -282q0 -76 -2.5 -176t-2.5 -144q0 -197 9 -356h-183q13 144 13 344q0 222 -4 336q-6 115 -65 174t-163 59q-80 0 -157 -45 t-136 -131q-8 -115 -8 -346q0 -188 8 -391h-182q10 133 10 344q0 218 -4 336q-4 115 -63 174t-162 59q-83 0 -159.5 -45t-135.5 -131q-8 -115 -8 -346q0 -188 8 -391h-180z" />
<glyph unicode="n" horiz-adv-x="1210" d="M162 0q8 197 8 516q0 299 -8 516h162l18 -170q137 195 365 195q161 0 253.5 -98.5t92.5 -282.5q0 -76 -3 -176t-3 -144q0 -215 10 -356h-187q9 150 9 344q0 188 -5 336q-4 116 -63 175.5t-166 59.5q-81 0 -160.5 -46t-138.5 -132q-8 -115 -8 -346q0 -188 8 -391h-184z " />
<glyph unicode="o" horiz-adv-x="1224" d="M88 502q0 116 39.5 218.5t108 176.5t165.5 117t209 43q237 0 382 -147t145 -384q0 -154 -67.5 -279.5t-188.5 -197.5t-271 -72q-237 0 -379.5 144t-142.5 381zM264 514q0 -187 96 -300.5t250 -113.5q158 0 253 113t95 301t-95 301t-253 113q-154 0 -250 -113.5 t-96 -300.5z" />
<glyph unicode="p" horiz-adv-x="1208" d="M162 -467q8 315 8 795q0 403 -8 704h164l16 -170q61 96 156 145.5t200 49.5q85 0 161 -32.5t134.5 -94t92.5 -158t34 -215.5q0 -167 -66.5 -297.5t-198.5 -206.5t-312 -76q-104 0 -207 21q0 -208 10 -465h-184zM338 492q0 -279 6 -349q53 -26 102.5 -35.5t122.5 -9.5 q170 0 272.5 115t102.5 309q0 199 -78.5 295t-222.5 96q-180 0 -299 -178q-6 -99 -6 -243z" />
<glyph unicode="q" horiz-adv-x="1214" d="M88 496q0 165 76 294t206 198t289 69q129 0 244 -39l152 49q-17 -216 -17 -739q0 -344 11 -795h-185q4 200 4 315q0 205 -2 322q-60 -97 -155 -145t-213 -48q-81 0 -154.5 35t-131 99.5t-91 164t-33.5 220.5zM264 524q0 -199 85 -304t220 -105q177 0 295 184q6 95 6 281 q0 230 -6 309q-93 43 -219 43q-159 0 -270 -112.5t-111 -295.5z" />
<glyph unicode="r" horiz-adv-x="759" d="M162 0q8 195 8 516q0 313 -8 516h155l23 -196q55 103 138 162t159 59q56 0 111 -19l-54 -174q-50 13 -94 13q-147 0 -254 -168q-8 -96 -8 -322q0 -210 8 -387h-184z" />
<glyph unicode="s" horiz-adv-x="931" d="M84 59l49 125q164 -82 322 -82q110 0 166.5 42t56.5 108q0 61 -39.5 101.5t-153.5 86.5l-139 58q-117 48 -175 116.5t-58 165.5q0 121 108 199t301 78q163 0 295 -49l-43 -129q-105 45 -248 45q-245 0 -245 -127q0 -48 34.5 -85t118.5 -71l139 -55q152 -60 212.5 -132.5 t60.5 -181.5q0 -129 -108.5 -212t-278.5 -83q-227 0 -375 82z" />
<glyph unicode="t" horiz-adv-x="813" d="M35 911v121h188q0 170 -4 262l182 47q-18 -145 -18 -309h344v-121h-346q0 -74 -3 -221q-2 -110 -2 -194v-54q1 -100 9 -180q6 -68 53 -107.5t107 -39.5q111 0 186 47l51 -109q-109 -76 -278 -76q-131 0 -213 88.5t-82 253.5q0 77 5 290.5t5 301.5h-184z" />
<glyph unicode="u" horiz-adv-x="1210" d="M156 1032h184q-8 -133 -8 -348q0 -252 4 -334q9 -235 242 -235q75 0 151 46t135 132q8 117 8 352q0 184 -8 387h185q-9 -191 -9 -481q0 -318 9 -551h-160l-21 170q-138 -193 -364 -193q-161 0 -252.5 96.5t-91.5 280.5q0 78 2 177.5t2 142.5q0 233 -8 358z" />
<glyph unicode="v" horiz-adv-x="1093" d="M14 1032h201q76 -171 184.5 -435.5t169.5 -426.5q65 171 174 443.5t172 418.5h166q-129 -274 -469 -1044h-127q-143 338 -471 1044z" />
<glyph unicode="w" horiz-adv-x="1703" d="M14 1032h193q159 -431 299 -846q170 524 295 846h129q161 -439 291 -846q136 404 305 846h166q-151 -339 -435 -1044h-129q-145 461 -272 807q-136 -346 -301 -807h-129q-140 372 -412 1044z" />
<glyph unicode="x" horiz-adv-x="1112" d="M12 0q276 308 445 514q-181 233 -432 518h219q203 -254 319 -405q157 207 322 405h188q-279 -307 -434 -495q151 -185 457 -537h-215q-164 192 -346 424q-13 -17 -95 -125t-135.5 -176t-101.5 -123h-191z" />
<glyph unicode="y" horiz-adv-x="1107" d="M14 1032h195q229 -509 381 -897q38 103 155 429t170 468h166q-64 -148 -210.5 -521.5t-196.5 -496.5q-109 -269 -221.5 -377.5t-323.5 -146.5l-43 113q181 34 281.5 123t171.5 284h-58q-325 734 -467 1022z" />
<glyph unicode="z" horiz-adv-x="1081" d="M70 0v137q131 140 334 373t339 401q-451 0 -651 -14v135h862v-135q-413 -452 -678 -778q532 0 744 18l-76 -137h-874z" />
<glyph unicode="{" horiz-adv-x="833" d="M102 498v143q123 0 172.5 36.5t49.5 133.5q0 75 -10.5 252t-10.5 246q0 148 88 225.5t230 77.5q104 0 180 -8v-144q-61 6 -139 6q-110 0 -146.5 -32.5t-36.5 -114.5q0 -66 5 -251t5 -255q0 -103 -63 -166.5t-174 -77.5q110 -14 173.5 -79t63.5 -166q0 -72 -5 -254.5 t-5 -245.5q0 -87 36 -121.5t128 -34.5q93 0 158 6v-141q-82 -10 -180 -10q-150 0 -234 75t-84 230q0 69 10.5 246.5t10.5 253.5q0 95 -49 131.5t-173 38.5z" />
<glyph unicode="|" horiz-adv-x="505" d="M162 -467q8 516 8 1002q0 517 -8 1069h182q-8 -552 -8 -1069q0 -486 8 -1002h-182z" />
<glyph unicode="}" horiz-adv-x="823" d="M31 -326q65 -6 141 -6q109 0 145.5 34.5t36.5 115.5q0 63 -5 248.5t-5 257.5q0 102 63.5 166t174.5 79q-111 12 -174.5 77t-63.5 167q0 70 5 252t5 248q0 86 -36 119.5t-130 33.5q-90 0 -157 -6v144q68 8 182 8q151 0 234 -74t83 -229q0 -69 -10 -247t-10 -253 q0 -96 48 -132t171 -38v-143q-121 0 -170 -37t-49 -133q0 -76 10 -252.5t10 -245.5q0 -148 -88 -226.5t-229 -78.5q-84 0 -182 10v141z" />
<glyph unicode="~" horiz-adv-x="880" d="M76 1288q83 121 231 121q61 0 144.5 -31.5t121.5 -31.5q49 0 81 15.5t69 51.5l41 -76q-79 -123 -229 -123q-63 0 -148.5 32t-120.5 32q-50 0 -81 -15.5t-70 -52.5z" />
<glyph unicode="&#xa1;" horiz-adv-x="587" d="M166 948q0 47 32 78t91 31t93 -31.5t34 -77.5q0 -49 -34 -81.5t-93 -32.5t-91 32t-32 82zM174 -500q47 541 47 1129h135q0 -609 45 -1088z" />
<glyph unicode="&#xa2;" horiz-adv-x="1054" d="M121 756q0 204 126.5 351t338.5 173v223h139v-221q142 -6 256 -55l-49 -127q-113 55 -266 55q-166 0 -265.5 -107t-99.5 -268q0 -213 103 -325.5t264 -112.5q147 0 270 92l59 -108q-122 -97 -297 -119v-207h-137v203q-200 21 -321 163.5t-121 389.5z" />
<glyph unicode="&#xa3;" horiz-adv-x="1243" d="M70 713v137h219q0 156 24 273.5t68.5 195t113.5 125.5t152 68t191 20q163 0 299 -51l-45 -135q-117 45 -252 45q-100 0 -166 -23.5t-114 -84t-69.5 -166t-21.5 -267.5h506v-137h-506q0 -367 4 -568q485 0 719 9l-70 -154h-868q21 138 28 269t7 444h-219z" />
<glyph unicode="&#xa7;" horiz-adv-x="976" d="M94 53l49 125q156 -76 312 -76q106 0 164.5 41t58.5 109q0 61 -39 100.5t-154 85.5l-139 58q-118 48 -175.5 110.5t-57.5 151.5q0 77 58.5 142t160.5 95q-94 53 -134 116.5t-40 143.5q0 124 95.5 200.5t287.5 76.5q171 0 295 -49l-43 -127q-120 45 -248 45 q-114 0 -166.5 -35t-52.5 -92q0 -52 32 -86.5t121 -69.5l133 -55q154 -62 215.5 -132.5t61.5 -168.5q0 -75 -54 -140.5t-135 -93.5q84 -53 115 -114.5t31 -141.5q0 -129 -108.5 -212t-278.5 -83q-227 0 -365 76zM281 797q0 -48 34 -84t119 -70l170 -68q117 54 117 152 q0 63 -40.5 105.5t-156.5 82.5l-84 31q-73 -18 -116 -57t-43 -92z" />
<glyph unicode="&#xa8;" horiz-adv-x="864" d="M121 1305q0 43 33 72.5t88 29.5q54 0 83 -29t29 -73q0 -47 -28.5 -76t-83.5 -29q-56 0 -88.5 29.5t-32.5 75.5zM518 1305q0 43 31 72.5t86 29.5q53 0 84 -29.5t31 -72.5q0 -46 -30.5 -75.5t-84.5 -29.5q-55 0 -86 29.5t-31 75.5z" />
<glyph unicode="&#xa9;" horiz-adv-x="1812" d="M57 754q0 158 67 302t180 248t271 166t332 62q173 0 330 -62t270.5 -166t180.5 -248t67 -302t-67 -301.5t-180.5 -248t-270.5 -166t-330 -61.5q-232 0 -428 104.5t-309 283t-113 389.5zM174 754q0 -178 98.5 -331.5t267.5 -244t367 -90.5q197 0 365 90.5t266 244 t98 331.5q0 180 -98 333t-266 242.5t-365 89.5q-148 0 -284 -53t-234 -142t-156.5 -212.5t-58.5 -257.5zM367 735q0 160 83 284t217.5 188.5t295.5 64.5q188 0 319 -64l-37 -108q-111 57 -268 57q-197 0 -308.5 -104.5t-111.5 -294.5q0 -185 113 -292.5t295 -107.5 q165 0 274 72l43 -102q-142 -82 -348 -82q-154 0 -282.5 58.5t-206.5 171.5t-78 259z" />
<glyph unicode="&#xaa;" horiz-adv-x="1071" d="M88 276q0 158 133.5 242t382.5 84q74 0 144 -4q2 29 2 94q0 114 -64 171t-170 57q-155 0 -323 -107l-58 119q187 125 418 125q180 0 271 -98t91 -283q0 -76 -3 -176t-3 -142q0 -199 9 -358h-154l-19 145q-55 -76 -138.5 -122t-188.5 -46q-138 0 -234 81.5t-96 217.5z M260 285q0 -78 54 -124t151 -46q176 0 280 145q3 83 3 223q-62 4 -146 4q-175 0 -258.5 -53.5t-83.5 -148.5z" />
<glyph unicode="&#xab;" horiz-adv-x="1140" d="M61 545l465 514l99 -70l-340 -440l340 -447l-101 -71zM522 545l471 514l97 -70l-338 -440l338 -447l-101 -71z" />
<glyph unicode="&#xad;" horiz-adv-x="780" d="M84 479v185q115 -2 307 -2q186 0 303 2v-185q-115 2 -299 2q-196 0 -311 -2z" />
<glyph unicode="&#xae;" horiz-adv-x="1812" d="M57 754q0 158 67 302t180 248t271 166t332 62q173 0 330 -62t270.5 -166t180.5 -248t67 -302t-67 -301.5t-180.5 -248t-270.5 -166t-330 -61.5q-232 0 -428 104.5t-309 283t-113 389.5zM174 754q0 -178 98.5 -331.5t267.5 -244t367 -90.5q197 0 365 90.5t266 244 t98 331.5q0 180 -98 333t-266 242.5t-365 89.5q-148 0 -284 -53t-234 -142t-156.5 -212.5t-58.5 -257.5zM567 260q4 184 4 483q0 315 -4 512h262q223 0 336 -70.5t113 -197.5q0 -194 -221 -278q89 -148 282 -428l-172 -41q-73 112 -270 442q-91 -3 -172 0q0 -305 4 -422 h-162zM725 795q23 -4 117 -4q138 0 200 46.5t62 145.5q0 84 -60.5 123t-203.5 39h-113q-2 -76 -2 -350z" />
<glyph unicode="&#xaf;" horiz-adv-x="839" d="M100 1253v119h643v-119h-643z" />
<glyph unicode="&#xb0;" horiz-adv-x="577" d="M16 1423q0 96 72.5 164t196.5 68q125 0 198.5 -68t73.5 -164q0 -97 -73 -164t-199 -67q-124 0 -196.5 67t-72.5 164zM143 1423q0 -54 38 -90.5t104 -36.5q69 0 108 36.5t39 90.5t-39 90.5t-108 36.5q-66 0 -104 -36.5t-38 -90.5z" />
<glyph unicode="&#xb4;" horiz-adv-x="761" d="M119 1233l426 291l108 -123l-458 -256z" />
<glyph unicode="&#xb6;" horiz-adv-x="1284" d="M90 1069q0 202 143.5 319t370.5 117h240q-10 -369 -10 -778q0 -378 10 -727h-164q8 248 8 621q-79 -15 -153 -15q-86 0 -166 33t-142 91.5t-99.5 146.5t-37.5 192zM975 0q8 372 8 727q0 382 -8 778h164q-11 -411 -11 -778q0 -341 11 -727h-164z" />
<glyph unicode="&#xb7;" horiz-adv-x="581" d="M156 760q0 53 35 87t100 34t100 -34t35 -87q0 -52 -35 -85.5t-100 -33.5t-100 33.5t-35 85.5z" />
<glyph unicode="&#xb8;" horiz-adv-x="679" d="M117 -446l33 102q89 -29 149 -29q115 0 115 82q0 95 -240 101q12 113 14 210h127v-122q125 -13 180.5 -61t55.5 -118q0 -92 -66.5 -145t-175.5 -53q-98 0 -192 33z" />
<glyph unicode="&#xbb;" horiz-adv-x="1140" d="M53 100l338 443l-338 444l99 72l464 -514l-466 -514zM514 100l338 443l-338 444l98 72l469 -514l-471 -514z" />
<glyph unicode="&#xbf;" horiz-adv-x="724" d="M72 -156q0 98 36 164.5t125 141.5l93 77q59 49 78.5 81t19.5 67q0 51 -28 95t-124 146l136 43q105 -105 138.5 -158.5t33.5 -113.5q0 -62 -26 -108.5t-99 -116.5l-90 -84q-61 -59 -85 -105.5t-24 -101.5q0 -174 424 -258l-96 -123q-114 17 -204 46t-146.5 63.5t-94 77 t-52.5 83.5t-15 84zM270 948q0 46 34 77.5t93 31.5t91 -31t32 -78q0 -50 -32 -82t-91 -32t-93 32.5t-34 81.5z" />
<glyph unicode="&#xc0;" horiz-adv-x="1531" d="M18 0q135 273 338.5 719t354.5 799h184q302 -800 618 -1518h-202q-61 144 -199 481h-692q-13 -27 -97.5 -210.5t-125.5 -270.5h-179zM473 1823l109 123l424 -291l-78 -88zM483 623h576q-60 150 -163 420.5t-110 287.5q-46 -113 -303 -708z" />
<glyph unicode="&#xc1;" horiz-adv-x="1531" d="M18 0q135 273 338.5 719t354.5 799h184q302 -800 618 -1518h-202q-61 144 -199 481h-692q-13 -27 -97.5 -210.5t-125.5 -270.5h-179zM483 623h576q-60 150 -163 420.5t-110 287.5q-46 -113 -303 -708zM569 1655l424 291l109 -123l-457 -256z" />
<glyph unicode="&#xc2;" horiz-adv-x="1531" d="M18 0q135 273 338.5 719t354.5 799h184q302 -800 618 -1518h-202q-61 144 -199 481h-692q-13 -27 -97.5 -210.5t-125.5 -270.5h-179zM416 1655l377 291l374 -291l-71 -88l-303 192l-310 -192zM483 623h576q-60 150 -163 420.5t-110 287.5q-46 -113 -303 -708z" />
<glyph unicode="&#xc3;" horiz-adv-x="1531" d="M-12 0q136 272 339 717.5t353 800.5h194q276 -732 619 -1518h-203q-28 68 -95 231t-103 250h-691q-13 -27 -97.5 -210.5t-125.5 -270.5h-190zM428 1696q83 121 231 121q61 0 145 -32t122 -32q49 0 81 16t68 52l43 -76q-79 -123 -229 -123q-64 0 -148.5 33t-119.5 33 q-49 0 -82 -16.5t-68 -53.5zM461 623h577q-59 148 -157 405.5t-115 302.5q-113 -281 -305 -708z" />
<glyph unicode="&#xc4;" horiz-adv-x="1531" d="M18 0q135 273 338.5 719t354.5 799h184q302 -800 618 -1518h-202q-61 144 -199 481h-692q-13 -27 -97.5 -210.5t-125.5 -270.5h-179zM459 1733q0 43 32 72.5t87 29.5q54 0 83 -29t29 -73q0 -47 -28.5 -76t-83.5 -29t-87 29.5t-32 75.5zM483 623h576q-60 150 -163 420.5 t-110 287.5q-46 -113 -303 -708zM854 1733q0 43 31 72.5t86 29.5q53 0 83.5 -29.5t30.5 -72.5q0 -46 -30 -75.5t-84 -29.5q-55 0 -86 29.5t-31 75.5z" />
<glyph unicode="&#xc5;" horiz-adv-x="1531" d="M18 0q126 251 316 666t346 778q-72 29 -113 86.5t-41 126.5q0 95 73.5 162t197.5 67q125 0 197.5 -66.5t72.5 -162.5q0 -67 -39 -124.5t-108 -86.5q286 -742 593 -1446h-202q-61 144 -199 481h-692q-13 -27 -97.5 -210.5t-125.5 -270.5h-179zM483 623h576 q-60 150 -163 420.5t-110 287.5q-46 -113 -303 -708zM653 1657q0 -55 38.5 -91t105.5 -36q68 0 107.5 36t39.5 91q0 53 -39.5 90t-107.5 37q-66 0 -105 -37t-39 -90z" />
<glyph unicode="&#xc6;" horiz-adv-x="2002" d="M16 0q325 499 908 1505h934v-147q-129 6 -648 6q-4 -180 -4 -522q439 0 627 8v-158q-179 10 -627 10q0 -375 4 -557q482 0 719 9l-67 -154h-844q10 232 10 483h-522q-121 -206 -287 -483h-203zM588 623h440v104q0 409 -8 647q-65 -120 -238.5 -417.5t-193.5 -333.5z" />
<glyph unicode="&#xc7;" horiz-adv-x="1452" d="M121 719q0 188 65 343t177.5 257t262.5 157.5t322 55.5q145 0 240.5 -16.5t195.5 -55.5l-59 -141q-159 72 -360 72q-190 0 -334 -72.5t-226.5 -217.5t-82.5 -347q0 -190 84.5 -336.5t227 -223.5t316.5 -77q111 0 196.5 23.5t178.5 74.5l64 -133q-117 -59 -226 -82 t-252 -23v-79q125 -13 180.5 -61t55.5 -118q0 -93 -65 -145.5t-175 -52.5q-101 0 -188 33l26 102q99 -29 152 -29q111 0 111 82q0 96 -236 101q12 88 14 174q-141 17 -263.5 78.5t-211 156t-139.5 224t-51 276.5z" />
<glyph unicode="&#xc8;" horiz-adv-x="1161" d="M176 0q8 279 8 727q0 479 -8 778h838v-147q-127 4 -647 4q-5 -222 -5 -520q438 0 631 8v-158q-184 10 -631 10q0 -330 5 -557q480 0 720 9l-69 -154h-842zM297 1823l109 123l423 -291l-77 -88z" />
<glyph unicode="&#xc9;" horiz-adv-x="1161" d="M176 0q8 279 8 727q0 479 -8 778h838v-147q-127 4 -647 4q-5 -222 -5 -520q438 0 631 8v-158q-184 10 -631 10q0 -330 5 -557q480 0 720 9l-69 -154h-842zM352 1655l424 291l111 -123l-459 -256z" />
<glyph unicode="&#xca;" horiz-adv-x="1161" d="M176 0q8 279 8 727q0 479 -8 778h838v-147q-127 4 -647 4q-5 -222 -5 -520q438 0 631 8v-158q-184 10 -631 10q0 -330 5 -557q480 0 720 9l-69 -154h-842zM211 1655l375 291l377 -291l-72 -88l-305 192l-310 -192z" />
<glyph unicode="&#xcb;" horiz-adv-x="1161" d="M176 0q8 279 8 727q0 479 -8 778h838v-147q-127 4 -647 4q-5 -222 -5 -520q438 0 631 8v-158q-184 10 -631 10q0 -330 5 -557q480 0 720 9l-69 -154h-842zM272 1733q0 43 33 72.5t88 29.5q54 0 83.5 -29t29.5 -73q0 -46 -29 -75.5t-84 -29.5q-56 0 -88.5 29.5t-32.5 75.5 zM670 1733q0 43 30.5 72.5t85.5 29.5q52 0 83.5 -29.5t31.5 -72.5q0 -45 -31 -75t-84 -30q-55 0 -85.5 29.5t-30.5 75.5z" />
<glyph unicode="&#xcc;" horiz-adv-x="550" d="M-63 1823l110 123l424 -291l-78 -88zM176 0q8 279 8 727q0 479 -8 778h197q-11 -329 -11 -778q0 -420 11 -727h-197z" />
<glyph unicode="&#xcd;" horiz-adv-x="550" d="M109 1655l426 291l108 -123l-459 -256zM176 0q8 279 8 727q0 479 -8 778h197q-11 -329 -11 -778q0 -420 11 -727h-197z" />
<glyph unicode="&#xce;" horiz-adv-x="550" d="M-100 1655l374 291l377 -291l-71 -88l-306 192l-307 -192zM176 0q8 279 8 727q0 479 -8 778h197q-11 -329 -11 -778q0 -420 11 -727h-197z" />
<glyph unicode="&#xcf;" horiz-adv-x="550" d="M-39 1733q0 43 32 72.5t87 29.5q54 0 83.5 -29t29.5 -73q0 -46 -29 -75.5t-84 -29.5t-87 29.5t-32 75.5zM176 0q8 279 8 727q0 479 -8 778h197q-11 -329 -11 -778q0 -420 11 -727h-197zM356 1733q0 43 31 72.5t86 29.5q53 0 84 -29.5t31 -72.5q0 -46 -30.5 -75.5 t-84.5 -29.5q-55 0 -86 29.5t-31 75.5z" />
<glyph unicode="&#xd1;" horiz-adv-x="1599" d="M102 0q9 314 9 727q0 442 -9 778h205q661 -885 875 -1222q0 717 -11 1222h177q-9 -339 -9 -778q0 -413 9 -727h-162q-87 122 -321 446.5t-369.5 516t-227.5 329.5q0 -746 11 -1292h-177zM399 1677q81 121 230 121q63 0 146.5 -30.5t121.5 -30.5q48 0 80 15t67 50l43 -73 q-46 -70 -103 -96.5t-128 -26.5q-62 0 -146 31.5t-120 31.5q-51 0 -82.5 -15t-69.5 -52z" />
<glyph unicode="&#xd2;" horiz-adv-x="1781" d="M119 731q0 185 62.5 338.5t168.5 253.5t245.5 154.5t295.5 54.5q166 0 308 -53.5t243.5 -151t159 -240.5t57.5 -315q0 -185 -61.5 -337.5t-167 -251.5t-244 -152.5t-295.5 -53.5q-224 0 -398.5 90t-274 262.5t-99.5 401.5zM319 754q0 -150 43.5 -271.5t120.5 -201 t181 -122t227 -42.5q255 0 412 170t157 467t-159 467t-410 170q-255 0 -413.5 -171.5t-158.5 -465.5zM565 1823l109 123l424 -291l-78 -88z" />
<glyph unicode="&#xd3;" horiz-adv-x="1781" d="M119 731q0 185 62.5 338.5t168.5 253.5t245.5 154.5t295.5 54.5q166 0 308 -53.5t243.5 -151t159 -240.5t57.5 -315q0 -185 -61.5 -337.5t-167 -251.5t-244 -152.5t-295.5 -53.5q-224 0 -398.5 90t-274 262.5t-99.5 401.5zM319 754q0 -150 43.5 -271.5t120.5 -201 t181 -122t227 -42.5q255 0 412 170t157 467t-159 467t-410 170q-255 0 -413.5 -171.5t-158.5 -465.5zM639 1655l424 291l108 -123l-456 -256z" />
<glyph unicode="&#xd4;" horiz-adv-x="1781" d="M119 731q0 185 62.5 338.5t168.5 253.5t245.5 154.5t295.5 54.5q166 0 308 -53.5t243.5 -151t159 -240.5t57.5 -315q0 -185 -61.5 -337.5t-167 -251.5t-244 -152.5t-295.5 -53.5q-224 0 -398.5 90t-274 262.5t-99.5 401.5zM319 754q0 -150 43.5 -271.5t120.5 -201 t181 -122t227 -42.5q255 0 412 170t157 467t-159 467t-410 170q-255 0 -413.5 -171.5t-158.5 -465.5zM512 1655l377 291l375 -291l-70 -88l-305 192l-309 -192z" />
<glyph unicode="&#xd5;" horiz-adv-x="1781" d="M119 731q0 182 63.5 335t170.5 254t246 156.5t292 55.5q166 0 308 -53.5t243.5 -151t159 -240.5t57.5 -315q0 -182 -63 -334t-169 -251.5t-244.5 -154.5t-291.5 -55q-224 0 -398.5 90t-274 262.5t-99.5 401.5zM319 754q0 -150 43.5 -271.5t120.5 -201t181 -122t227 -42.5 q255 0 413 170t158 467t-160 467t-411 170q-255 0 -413.5 -171.5t-158.5 -465.5zM549 1696q77 121 227 121q64 0 147 -32t121 -32q49 0 81.5 16t68.5 52l43 -76q-83 -123 -231 -123q-62 0 -146.5 33t-120.5 33q-50 0 -80.5 -16t-70.5 -54z" />
<glyph unicode="&#xd6;" horiz-adv-x="1781" d="M119 731q0 185 62.5 338.5t168.5 253.5t245.5 154.5t295.5 54.5q166 0 308 -53.5t243.5 -151t159 -240.5t57.5 -315q0 -185 -61.5 -337.5t-167 -251.5t-244 -152.5t-295.5 -53.5q-224 0 -398.5 90t-274 262.5t-99.5 401.5zM319 754q0 -150 43.5 -271.5t120.5 -201 t181 -122t227 -42.5q255 0 412 170t157 467t-159 467t-410 170q-255 0 -413.5 -171.5t-158.5 -465.5zM578 1733q0 43 32.5 72.5t87.5 29.5q53 0 83 -29.5t30 -72.5q0 -46 -29.5 -75.5t-83.5 -29.5q-56 0 -88 29.5t-32 75.5zM975 1733q0 44 30 73t85 29q54 0 85 -29.5 t31 -72.5q0 -46 -31 -75.5t-85 -29.5q-55 0 -85 29.5t-30 75.5z" />
<glyph unicode="&#xd8;" horiz-adv-x="1781" d="M119 731q0 185 62.5 338.5t168.5 253.5t245.5 154.5t295.5 54.5q208 0 389 -88l125 178l123 -80l-127 -178q124 -100 191 -251t67 -341q0 -185 -61.5 -337.5t-167 -251.5t-244 -152.5t-295.5 -53.5q-227 0 -399 93l-127 -174l-117 79l123 177q-118 97 -185 246t-67 333z M317 754q0 -289 154 -463l719 1022q-132 78 -299 78q-256 0 -415 -171t-159 -466zM582 199q142 -84 309 -84q257 0 415 171t158 468q0 293 -164 471z" />
<glyph unicode="&#xd9;" horiz-adv-x="1583" d="M176 1505h197q-11 -329 -11 -952q0 -111 35.5 -195t97.5 -134t140 -74.5t170 -24.5t168 23t137 71.5t95 133.5t34 200q0 653 -8 952h176q-8 -268 -8 -620q0 -61 3 -179t3 -171q0 -174 -80.5 -302t-216.5 -192t-311 -64q-100 0 -190.5 21.5t-168.5 66t-135.5 109t-90 156 t-32.5 200.5q0 60 2 176t2 179q0 292 -8 620zM475 1823l109 123l424 -291l-78 -88z" />
<glyph unicode="&#xda;" horiz-adv-x="1583" d="M176 1505h197q-11 -329 -11 -952q0 -111 35.5 -195t97.5 -134t140 -74.5t170 -24.5t168 23t137 71.5t95 133.5t34 200q0 653 -8 952h176q-8 -268 -8 -620q0 -61 3 -179t3 -171q0 -174 -80.5 -302t-216.5 -192t-311 -64q-100 0 -190.5 21.5t-168.5 66t-135.5 109t-90 156 t-32.5 200.5q0 60 2 176t2 179q0 292 -8 620zM569 1655l424 291l109 -123l-457 -256z" />
<glyph unicode="&#xdb;" horiz-adv-x="1583" d="M176 1505h197q-11 -329 -11 -952q0 -111 35.5 -195t97.5 -134t140 -74.5t170 -24.5t168 23t137 71.5t95 133.5t34 200q0 653 -8 952h176q-8 -268 -8 -620q0 -61 3 -179t3 -171q0 -174 -80.5 -302t-216.5 -192t-311 -64q-100 0 -190.5 21.5t-168.5 66t-135.5 109t-90 156 t-32.5 200.5q0 60 2 176t2 179q0 292 -8 620zM412 1655l376 291l375 -291l-71 -88l-304 192l-309 -192z" />
<glyph unicode="&#xdc;" horiz-adv-x="1583" d="M176 1505h197q-11 -329 -11 -952q0 -111 35.5 -195t97.5 -134t140 -74.5t170 -24.5t168 23t137 71.5t95 133.5t34 200q0 653 -8 952h176q-8 -268 -8 -620q0 -61 3 -179t3 -171q0 -174 -80.5 -302t-216.5 -192t-311 -64q-100 0 -190.5 21.5t-168.5 66t-135.5 109t-90 156 t-32.5 200.5q0 60 2 176t2 179q0 292 -8 620zM492 1733q0 43 32 72.5t86 29.5q55 0 85 -29t30 -73q0 -46 -30 -75.5t-85 -29.5q-54 0 -86 30t-32 75zM889 1733q0 44 30 73t85 29q54 0 85 -29.5t31 -72.5q0 -46 -31 -75.5t-85 -29.5q-55 0 -85 29.5t-30 75.5z" />
<glyph unicode="&#xdf;" horiz-adv-x="1337" d="M152 0q8 336 8 700q0 67 -1 215t-1 226q0 234 123 359.5t368 125.5q221 0 344 -82t123 -213q0 -205 -192 -311q-110 -58 -149.5 -95.5t-39.5 -76.5q0 -58 38 -94t165 -101q127 -64 193 -118.5t90 -108.5t24 -133q0 -140 -99.5 -228t-275.5 -88q-197 0 -335 80l49 125 q160 -80 290 -80q91 0 147 49.5t56 122.5q0 77 -41.5 127.5t-161.5 110.5q-123 61 -186 109.5t-84.5 93.5t-21.5 110q0 83 45 140t180 131q70 40 105.5 92t35.5 127q0 83 -76.5 133.5t-209.5 50.5q-174 0 -253 -79t-79 -279q0 -52 -1 -189.5t-1 -183.5q0 -477 8 -768h-184z " />
<glyph unicode="&#xe0;" horiz-adv-x="1214" d="M88 496q0 165 76 294t206 198t289 69q129 0 244 -39l152 49q-17 -254 -17 -528q0 -284 9 -539h-160l-21 170q-60 -97 -155 -145t-213 -48q-81 0 -154.5 35t-131 99.5t-91 164t-33.5 220.5zM264 524q0 -199 85 -304t220 -105q177 0 295 184q6 95 6 256q0 255 -6 334 q-93 43 -219 43q-159 0 -270 -112.5t-111 -295.5zM322 1401l108 123l424 -291l-78 -88z" />
<glyph unicode="&#xe1;" horiz-adv-x="1214" d="M88 496q0 165 76 294t206 198t289 69q129 0 244 -39l152 49q-17 -254 -17 -528q0 -284 9 -539h-160l-21 170q-60 -97 -155 -145t-213 -48q-81 0 -154.5 35t-131 99.5t-91 164t-33.5 220.5zM264 524q0 -199 85 -304t220 -105q177 0 295 184q6 95 6 256q0 255 -6 334 q-93 43 -219 43q-159 0 -270 -112.5t-111 -295.5zM432 1233l424 291l111 -123l-459 -256z" />
<glyph unicode="&#xe2;" horiz-adv-x="1214" d="M88 496q0 165 76 294t206 198t289 69q129 0 244 -39l152 49q-17 -254 -17 -528q0 -284 9 -539h-160l-21 170q-60 -97 -155 -145t-213 -48q-81 0 -154.5 35t-131 99.5t-91 164t-33.5 220.5zM250 1233l377 291l374 -291l-71 -88l-303 192l-310 -192zM264 524 q0 -199 85 -304t220 -105q177 0 295 184q6 95 6 256q0 255 -6 334q-93 43 -219 43q-159 0 -270 -112.5t-111 -295.5z" />
<glyph unicode="&#xe3;" horiz-adv-x="1214" d="M98 498q0 124 45 229.5t121 177t177 112t212 40.5q162 0 262 -39l150 49q-16 -279 -16 -528q0 -312 10 -539h-162l-20 170q-60 -97 -155.5 -145t-213.5 -48q-80 0 -153.5 35.5t-130.5 100t-91.5 164.5t-34.5 221zM274 537q0 -213 81.5 -317.5t224.5 -104.5q176 0 294 184 q7 110 7 256q0 241 -7 334q-100 43 -235 43q-146 0 -255.5 -111.5t-109.5 -283.5zM279 1288q83 121 231 121q63 0 145.5 -31.5t120.5 -31.5q50 0 83.5 16t66.5 51l45 -76q-83 -123 -232 -123q-63 0 -147 33t-119 33q-51 0 -83.5 -16.5t-67.5 -53.5z" />
<glyph unicode="&#xe4;" horiz-adv-x="1214" d="M88 496q0 165 76 294t206 198t289 69q129 0 244 -39l152 49q-17 -254 -17 -528q0 -284 9 -539h-160l-21 170q-60 -97 -155 -145t-213 -48q-81 0 -154.5 35t-131 99.5t-91 164t-33.5 220.5zM264 524q0 -199 85 -304t220 -105q177 0 295 184q6 95 6 256q0 255 -6 334 q-93 43 -219 43q-159 0 -270 -112.5t-111 -295.5zM309 1305q0 43 32 72.5t87 29.5t85 -29t30 -73q0 -46 -30 -75.5t-85 -29.5t-87 29.5t-32 75.5zM707 1305q0 44 29.5 73t84.5 29q53 0 84 -29.5t31 -72.5q0 -46 -30.5 -75.5t-84.5 -29.5q-55 0 -84.5 29.5t-29.5 75.5z" />
<glyph unicode="&#xe5;" horiz-adv-x="1214" d="M88 496q0 165 76 294t206 198t289 69q129 0 244 -39l152 49q-17 -254 -17 -528q0 -284 9 -539h-160l-21 170q-60 -97 -155 -145t-213 -48q-81 0 -154.5 35t-131 99.5t-91 164t-33.5 220.5zM264 524q0 -199 85 -304t220 -105q177 0 295 184q6 95 6 256q0 255 -6 334 q-93 43 -219 43q-159 0 -270 -112.5t-111 -295.5zM362 1423q0 96 73.5 164t197.5 68t197 -68t73 -164q0 -97 -73 -164t-197 -67t-197.5 67t-73.5 164zM489 1423q0 -53 39 -90t105 -37q68 0 107.5 37t39.5 90t-39.5 90t-107.5 37q-66 0 -105 -37t-39 -90z" />
<glyph unicode="&#xe6;" horiz-adv-x="1863" d="M88 276q0 158 133.5 242t382.5 84q74 0 144 -4q2 29 2 94q0 114 -64 171t-170 57q-155 0 -323 -107l-58 119q187 125 418 125q227 0 309 -160q129 160 361 160q198 0 318 -122t120 -345q0 -55 -2 -86h-752q12 -194 118 -291.5t280 -97.5q78 0 161.5 31.5t139.5 78.5 l57 -123q-152 -125 -397 -125q-135 0 -245.5 53.5t-178.5 153.5q-155 -207 -424 -207q-138 0 -234 81.5t-96 217.5zM260 285q0 -78 54 -124t151 -46q100 0 188 40.5t138 114.5q-36 95 -43 213q-62 4 -146 4q-175 0 -258.5 -53.5t-83.5 -148.5zM903 621h590 q-12 164 -82.5 237.5t-206.5 73.5q-128 0 -208.5 -83t-92.5 -228z" />
<glyph unicode="&#xe7;" horiz-adv-x="1007" d="M88 526q0 147 63 266.5t187 192t287 72.5q180 0 321 -58l-49 -127q-109 56 -268 56q-164 0 -264.5 -107.5t-100.5 -267.5q0 -215 103.5 -327.5t265.5 -112.5q144 0 270 94l58 -111q-137 -109 -343 -119v-79q125 -13 180.5 -61t55.5 -118q0 -93 -65.5 -145.5t-176.5 -52.5 q-92 0 -186 33l27 102q104 -29 151 -29q115 0 115 82q0 95 -236 101q11 116 13 174q-186 24 -297 164t-111 378z" />
<glyph unicode="&#xe8;" horiz-adv-x="1103" d="M88 537q0 238 133 379t354 141q198 0 318.5 -122t120.5 -345q0 -55 -2 -86h-754q12 -195 118 -292t281 -97q78 0 161.5 31.5t137.5 78.5l60 -123q-152 -125 -398 -125q-112 0 -208.5 37.5t-168 107t-112.5 176.5t-41 239zM256 621h590q-12 165 -82 238t-207 73 q-128 0 -209.5 -83.5t-91.5 -227.5zM276 1401l111 123l424 -291l-78 -88z" />
<glyph unicode="&#xe9;" horiz-adv-x="1103" d="M88 537q0 238 133 379t354 141q198 0 318.5 -122t120.5 -345q0 -55 -2 -86h-754q12 -195 118 -292t281 -97q78 0 161.5 31.5t137.5 78.5l60 -123q-152 -125 -398 -125q-112 0 -208.5 37.5t-168 107t-112.5 176.5t-41 239zM256 621h590q-12 165 -82 238t-207 73 q-128 0 -209.5 -83.5t-91.5 -227.5zM358 1233l426 291l109 -123l-459 -256z" />
<glyph unicode="&#xea;" horiz-adv-x="1103" d="M88 537q0 238 133 379t354 141q198 0 318.5 -122t120.5 -345q0 -55 -2 -86h-754q12 -195 118 -292t281 -97q78 0 161.5 31.5t137.5 78.5l60 -123q-152 -125 -398 -125q-112 0 -208.5 37.5t-168 107t-112.5 176.5t-41 239zM211 1233l375 291l377 -291l-72 -88l-305 192 l-310 -192zM256 621h590q-12 165 -82 238t-207 73q-128 0 -209.5 -83.5t-91.5 -227.5z" />
<glyph unicode="&#xeb;" horiz-adv-x="1103" d="M88 537q0 238 133 379t354 141q198 0 318.5 -122t120.5 -345q0 -55 -2 -86h-754q12 -195 118 -292t281 -97q78 0 161.5 31.5t137.5 78.5l60 -123q-152 -125 -398 -125q-112 0 -208.5 37.5t-168 107t-112.5 176.5t-41 239zM256 621h590q-12 165 -82 238t-207 73 q-128 0 -209.5 -83.5t-91.5 -227.5zM272 1305q0 43 33 72.5t88 29.5q54 0 83.5 -29t29.5 -73q0 -46 -29 -75.5t-84 -29.5q-56 0 -88.5 29.5t-32.5 75.5zM670 1305q0 43 30.5 72.5t85.5 29.5q52 0 83.5 -29.5t31.5 -72.5q0 -45 -31 -75t-84 -30q-55 0 -85.5 29.5t-30.5 75.5z " />
<glyph unicode="&#xec;" horiz-adv-x="507" d="M-121 1401l109 123l424 -291l-78 -88zM162 0q8 197 8 516q0 301 -8 516h184q-8 -211 -8 -516q0 -319 8 -516h-184z" />
<glyph unicode="&#xed;" horiz-adv-x="507" d="M92 1233l424 291l111 -123l-459 -256zM162 0q8 197 8 516q0 301 -8 516h184q-8 -211 -8 -516q0 -319 8 -516h-184z" />
<glyph unicode="&#xee;" horiz-adv-x="507" d="M-117 1233l375 291l377 -291l-72 -88l-305 192l-309 -192zM162 0q8 197 8 516q0 301 -8 516h184q-8 -211 -8 -516q0 -319 8 -516h-184z" />
<glyph unicode="&#xef;" horiz-adv-x="507" d="M-59 1305q0 43 32.5 72.5t87.5 29.5q54 0 83.5 -29t29.5 -73q0 -46 -29 -75.5t-84 -29.5q-56 0 -88 29.5t-32 75.5zM162 0q8 197 8 516q0 301 -8 516h184q-8 -211 -8 -516q0 -319 8 -516h-184zM338 1305q0 43 31 72.5t86 29.5q52 0 83 -29.5t31 -72.5q0 -46 -30.5 -75.5 t-83.5 -29.5q-55 0 -86 29.5t-31 75.5z" />
<glyph unicode="&#xf1;" horiz-adv-x="1210" d="M152 0q8 197 8 516q0 299 -8 516h161l19 -170q137 195 362 195q159 0 254.5 -97t95.5 -253q0 -65 -4 -171.5t-4 -179.5q0 -215 8 -356h-186q10 133 10 344q0 139 -4 311q-14 258 -229 258q-84 0 -162 -45t-137 -131q-8 -115 -8 -346q0 -188 8 -391h-184zM254 1288 q83 121 231 121q61 0 145 -31.5t122 -31.5q49 0 80 15.5t69 51.5l43 -76q-83 -123 -231 -123q-63 0 -148.5 33t-120.5 33q-49 0 -80 -16.5t-67 -53.5z" />
<glyph unicode="&#xf2;" horiz-adv-x="1224" d="M88 502q0 116 39.5 218.5t108 176.5t165.5 117t209 43q237 0 382 -147t145 -384q0 -154 -67.5 -279.5t-188.5 -197.5t-271 -72q-237 0 -379.5 144t-142.5 381zM264 514q0 -187 96 -300.5t250 -113.5q158 0 253 113t95 301t-95 301t-253 113q-154 0 -250 -113.5 t-96 -300.5zM322 1401l108 123l424 -291l-78 -88z" />
<glyph unicode="&#xf3;" horiz-adv-x="1224" d="M88 502q0 116 39.5 218.5t108 176.5t165.5 117t209 43q237 0 382 -147t145 -384q0 -154 -67.5 -279.5t-188.5 -197.5t-271 -72q-237 0 -379.5 144t-142.5 381zM264 514q0 -187 96 -300.5t250 -113.5q158 0 253 113t95 301t-95 301t-253 113q-154 0 -250 -113.5 t-96 -300.5zM393 1233l424 291l109 -123l-457 -256z" />
<glyph unicode="&#xf4;" horiz-adv-x="1224" d="M88 502q0 116 39.5 218.5t108 176.5t165.5 117t209 43q237 0 382 -147t145 -384q0 -154 -67.5 -279.5t-188.5 -197.5t-271 -72q-237 0 -379.5 144t-142.5 381zM250 1233l377 291l374 -291l-71 -88l-303 192l-310 -192zM264 514q0 -187 96 -300.5t250 -113.5 q158 0 253 113t95 301t-95 301t-253 113q-154 0 -250 -113.5t-96 -300.5z" />
<glyph unicode="&#xf5;" horiz-adv-x="1224" d="M98 502q0 236 149 395.5t376 159.5q236 0 380 -147t144 -384q0 -234 -149 -391.5t-375 -157.5q-236 0 -380.5 144.5t-144.5 380.5zM272 1288q83 121 232 121q63 0 145.5 -31.5t120.5 -31.5q49 0 82 16t68 51l43 -76q-79 -123 -230 -123q-63 0 -147.5 33t-118.5 33 q-51 0 -84 -16.5t-68 -53.5zM274 514q0 -186 96 -294.5t253 -108.5q158 0 253 108.5t95 294.5t-95 296t-253 110q-157 0 -253 -110t-96 -296z" />
<glyph unicode="&#xf6;" horiz-adv-x="1224" d="M88 502q0 116 39.5 218.5t108 176.5t165.5 117t209 43q237 0 382 -147t145 -384q0 -154 -67.5 -279.5t-188.5 -197.5t-271 -72q-237 0 -379.5 144t-142.5 381zM264 514q0 -187 96 -300.5t250 -113.5q158 0 253 113t95 301t-95 301t-253 113q-154 0 -250 -113.5 t-96 -300.5zM299 1305q0 43 32 72.5t87 29.5q54 0 83 -29t29 -73q0 -47 -28.5 -76t-83.5 -29t-87 29.5t-32 75.5zM694 1305q0 43 31 72.5t86 29.5q53 0 84 -29.5t31 -72.5q0 -46 -30.5 -75.5t-84.5 -29.5q-55 0 -86 29.5t-31 75.5z" />
<glyph unicode="&#xf8;" horiz-adv-x="1224" d="M88 502q0 116 39.5 218.5t108 176.5t165.5 117t209 43q142 0 258 -58l117 168l111 -71l-119 -170q77 -69 118.5 -172.5t41.5 -227.5q0 -154 -67.5 -279.5t-188.5 -197.5t-271 -72q-146 0 -260 54l-100 -144l-107 66l105 151q-76 70 -118 172.5t-42 225.5zM260 514 q0 -168 78 -274l450 645q-76 45 -178 45q-156 0 -253 -114t-97 -302zM432 150q79 -52 178 -52q160 0 256.5 113.5t96.5 302.5q0 168 -78 279z" />
<glyph unicode="&#xf9;" horiz-adv-x="1210" d="M156 1032h184q-8 -133 -8 -348q0 -252 4 -334q9 -235 242 -235q75 0 151 46t135 132q8 117 8 352q0 184 -8 387h185q-9 -191 -9 -481q0 -318 9 -551h-160l-21 170q-138 -193 -364 -193q-161 0 -252.5 96.5t-91.5 280.5q0 78 2 177.5t2 142.5q0 233 -8 358zM268 1401 l111 123l424 -291l-78 -88z" />
<glyph unicode="&#xfa;" horiz-adv-x="1210" d="M156 1032h184q-8 -133 -8 -348q0 -252 4 -334q9 -235 242 -235q75 0 151 46t135 132q8 117 8 352q0 184 -8 387h185q-9 -191 -9 -481q0 -318 9 -551h-160l-21 170q-138 -193 -364 -193q-161 0 -252.5 96.5t-91.5 280.5q0 78 2 177.5t2 142.5q0 233 -8 358zM393 1233 l424 291l109 -123l-457 -256z" />
<glyph unicode="&#xfb;" horiz-adv-x="1210" d="M156 1032h184q-8 -133 -8 -348q0 -252 4 -334q9 -235 242 -235q75 0 151 46t135 132q8 117 8 352q0 184 -8 387h185q-9 -191 -9 -481q0 -318 9 -551h-160l-21 170q-138 -193 -364 -193q-161 0 -252.5 96.5t-91.5 280.5q0 78 2 177.5t2 142.5q0 233 -8 358zM238 1233 l374 291l377 -291l-71 -88l-306 192l-307 -192z" />
<glyph unicode="&#xfc;" horiz-adv-x="1210" d="M156 1032h184q-8 -133 -8 -348q0 -252 4 -334q9 -235 242 -235q75 0 151 46t135 132q8 117 8 352q0 184 -8 387h185q-9 -191 -9 -481q0 -318 9 -551h-160l-21 170q-138 -193 -364 -193q-161 0 -252.5 96.5t-91.5 280.5q0 78 2 177.5t2 142.5q0 233 -8 358zM297 1305 q0 43 32 72.5t87 29.5q54 0 83 -29t29 -73q0 -47 -28.5 -76t-83.5 -29t-87 29.5t-32 75.5zM692 1305q0 43 31 72.5t86 29.5q53 0 84 -29.5t31 -72.5q0 -46 -30.5 -75.5t-84.5 -29.5q-55 0 -86 29.5t-31 75.5z" />
<glyph unicode="&#xff;" horiz-adv-x="1107" d="M14 1032h195q229 -509 381 -897q38 103 155 429t170 468h166q-64 -148 -210.5 -521.5t-196.5 -496.5q-109 -269 -221.5 -377.5t-323.5 -146.5l-43 113q181 34 281.5 123t171.5 284h-58q-325 734 -467 1022zM240 1305q0 43 31.5 72.5t86.5 29.5t85 -29t30 -73 q0 -46 -30 -75.5t-85 -29.5t-86.5 29.5t-31.5 75.5zM637 1305q0 44 30 73t85 29q54 0 85 -29.5t31 -72.5q0 -46 -31 -75.5t-85 -29.5q-55 0 -85 29.5t-30 75.5z" />
<glyph unicode="&#x152;" horiz-adv-x="2213" d="M119 731q0 182 63.5 335t170.5 254t246 156.5t292 55.5q223 0 364 -27h811v-147q-129 4 -647 4q-4 -178 -4 -520q438 0 629 8v-158q-181 10 -629 10q0 -375 4 -557q482 0 719 9l-67 -154h-842q-121 -23 -338 -23q-224 0 -398.5 90t-274 262.5t-99.5 401.5zM319 754 q0 -150 43.5 -271.5t120.5 -201t181 -122t227 -42.5q205 0 344 47q2 164 2 563q0 428 -4 616q-142 48 -342 48q-255 0 -413.5 -171.5t-158.5 -465.5z" />
<glyph unicode="&#x153;" horiz-adv-x="1980" d="M88 502q0 116 39.5 218.5t108 176.5t165.5 117t209 43q146 0 258.5 -59.5t178.5 -166.5q63 107 165 166.5t238 59.5q198 0 318 -122t120 -345q0 -55 -2 -86h-753q13 -195 119 -292t280 -97q79 0 161 31t138 79l61 -123q-155 -125 -399 -125q-149 0 -263.5 64t-180.5 186 q-66 -117 -180 -183.5t-259 -66.5q-237 0 -379.5 144t-142.5 381zM264 514q0 -187 96 -300.5t250 -113.5q158 0 253 113t95 301t-95 301t-253 113q-154 0 -250 -113.5t-96 -300.5zM1130 621h590q-12 165 -81.5 238t-206.5 73q-128 0 -209 -83.5t-93 -227.5z" />
<glyph unicode="&#x178;" horiz-adv-x="1411" d="M20 1505h232q397 -562 461 -657q182 268 463 657h219q-338 -426 -611 -798q0 -437 9 -707h-197q8 242 8 709q-211 300 -584 796zM401 1733q0 43 32 72.5t87 29.5t85 -29t30 -73q0 -46 -30 -75.5t-85 -29.5t-87 29.5t-32 75.5zM799 1733q0 44 29.5 73t84.5 29 q54 0 85.5 -29.5t31.5 -72.5q0 -46 -31.5 -75.5t-85.5 -29.5q-55 0 -84.5 29.5t-29.5 75.5z" />
<glyph unicode="&#x2c6;" horiz-adv-x="835" d="M49 1233l375 291l377 -291l-72 -88l-305 192l-309 -192z" />
<glyph unicode="&#x2dc;" horiz-adv-x="839" d="M76 1288q83 121 231 121q61 0 144.5 -31.5t121.5 -31.5q49 0 81 15.5t69 51.5l41 -76q-79 -123 -229 -123q-63 0 -148.5 33t-120.5 33q-50 0 -80.5 -16t-70.5 -54z" />
<glyph unicode="&#x2000;" horiz-adv-x="973" />
<glyph unicode="&#x2001;" horiz-adv-x="1946" />
<glyph unicode="&#x2002;" horiz-adv-x="973" />
<glyph unicode="&#x2003;" horiz-adv-x="1946" />
<glyph unicode="&#x2004;" horiz-adv-x="648" />
<glyph unicode="&#x2005;" horiz-adv-x="486" />
<glyph unicode="&#x2006;" horiz-adv-x="324" />
<glyph unicode="&#x2007;" horiz-adv-x="324" />
<glyph unicode="&#x2008;" horiz-adv-x="243" />
<glyph unicode="&#x2009;" horiz-adv-x="389" />
<glyph unicode="&#x200a;" horiz-adv-x="108" />
<glyph unicode="&#x2010;" horiz-adv-x="780" d="M84 479v185q115 -2 307 -2q186 0 303 2v-185q-115 2 -299 2q-196 0 -311 -2z" />
<glyph unicode="&#x2011;" horiz-adv-x="780" d="M84 479v185q115 -2 307 -2q186 0 303 2v-185q-115 2 -299 2q-196 0 -311 -2z" />
<glyph unicode="&#x2012;" horiz-adv-x="780" d="M84 479v185q115 -2 307 -2q186 0 303 2v-185q-115 2 -299 2q-196 0 -311 -2z" />
<glyph unicode="&#x2013;" horiz-adv-x="1654" d="M78 492v161q445 -8 729 -8l770 8v-161q-470 4 -770 4z" />
<glyph unicode="&#x2014;" horiz-adv-x="2390" d="M78 492v161q664 -8 1087 -8l1149 8v-161q-704 4 -1149 4z" />
<glyph unicode="&#x2018;" horiz-adv-x="530" d="M125 1245q0 202 252 324l61 -74q-85 -51 -120.5 -98.5t-41.5 -110.5q56 -6 86.5 -34.5t30.5 -75.5q0 -50 -36 -82.5t-87 -32.5q-67 0 -106 47t-39 137z" />
<glyph unicode="&#x2019;" horiz-adv-x="530" d="M78 1096q85 52 120.5 100.5t41.5 112.5q-55 4 -85 32t-30 74q0 53 35 85t86 32q67 0 107 -47t40 -139q0 -197 -252 -320z" />
<glyph unicode="&#x201a;" horiz-adv-x="530" d="M78 -233q85 52 120.5 101.5t41.5 113.5q-115 9 -115 106q0 52 34.5 82.5t86.5 30.5q68 0 107.5 -46t39.5 -139q0 -195 -252 -321z" />
<glyph unicode="&#x201c;" horiz-adv-x="913" d="M121 1245q0 200 256 324l61 -74q-85 -51 -120.5 -98.5t-41.5 -110.5q56 -6 85.5 -34.5t29.5 -75.5q0 -50 -35.5 -82.5t-85.5 -32.5q-67 0 -108 47.5t-41 136.5zM506 1245q0 201 254 324l61 -74q-86 -50 -120 -97t-42 -112q54 -6 83.5 -34.5t29.5 -75.5q0 -50 -35 -82.5 t-84 -32.5q-67 0 -107 47t-40 137z" />
<glyph unicode="&#x201d;" horiz-adv-x="913" d="M78 1096q85 52 120.5 100.5t41.5 112.5q-56 5 -87.5 32.5t-31.5 73.5q0 52 37 84.5t88 32.5q67 0 106 -47t39 -139q0 -198 -250 -320zM457 1096q87 51 120 98.5t41 114.5q-55 4 -83.5 32t-28.5 74q0 52 35.5 84.5t83.5 32.5q67 0 107 -47t40 -139q0 -197 -254 -320z" />
<glyph unicode="&#x201e;" horiz-adv-x="913" d="M78 -233q85 52 120.5 101.5t41.5 113.5q-115 9 -115 106q0 52 34.5 82.5t86.5 30.5q68 0 107.5 -46t39.5 -139q0 -195 -252 -321zM457 -233q87 51 120 99t41 116q-112 9 -112 106q0 52 35.5 82.5t83.5 30.5q68 0 107.5 -46t39.5 -139q0 -195 -254 -321z" />
<glyph unicode="&#x2022;" horiz-adv-x="935" d="M88 760q0 145 102.5 242.5t280.5 97.5q179 0 278 -96.5t99 -243.5q0 -143 -99.5 -239.5t-277.5 -96.5q-90 0 -163.5 27t-121 73.5t-73 107t-25.5 128.5z" />
<glyph unicode="&#x2026;" horiz-adv-x="1599" d="M115 96q0 55 37 91t102 36t102 -36t37 -91q0 -53 -36.5 -86t-102.5 -33t-102.5 33t-36.5 86zM649 96q0 55 35.5 91t101.5 36q65 0 101.5 -36t36.5 -91q0 -53 -36 -86t-102 -33q-67 0 -102 33t-35 86zM1180 96q0 55 37 91t102 36t101 -36t36 -91q0 -53 -36 -86t-101 -33 q-66 0 -102.5 33t-36.5 86z" />
<glyph unicode="&#x202f;" horiz-adv-x="389" />
<glyph unicode="&#x2039;" horiz-adv-x="675" d="M61 545l465 514l99 -70l-340 -440l340 -447l-101 -71z" />
<glyph unicode="&#x203a;" horiz-adv-x="675" d="M51 100l340 443l-340 444l101 72l464 -514l-466 -514z" />
<glyph unicode="&#x205f;" horiz-adv-x="486" />
<glyph unicode="&#x2122;" horiz-adv-x="2295" d="M104 1382l52 123h778v-116q-82 4 -324 4q-4 -113 -4 -322q0 -289 10 -469h-182q10 225 10 469q0 153 -6 322q-199 0 -334 -11zM977 602q64 468 84 903h211q196 -439 305 -737q159 393 324 737h202q3 -410 51 -903h-178q0 308 -26 707q-214 -448 -316 -707h-153 q-114 315 -291 707q-50 -468 -60 -707h-153z" />
<glyph unicode="&#xe000;" horiz-adv-x="1034" d="M0 0v1034h1034v-1034h-1034z" />
<glyph unicode="&#xfb01;" horiz-adv-x="1253" d="M49 899v133h197q-2 41 -2 178q0 197 96.5 306.5t282.5 109.5q106 0 198 -27l-39 -122q-73 20 -159 20q-125 0 -177 -84q-24 -38 -28 -96.5t-4 -284.5h307v-133h-307q0 -645 8 -899h-184q8 250 8 899h-197zM877 1391q0 45 33 75.5t91 30.5q57 0 89 -30.5t32 -75.5 q0 -48 -31.5 -79.5t-89.5 -31.5t-91 31.5t-33 79.5zM907 0q8 197 8 516q0 301 -8 516h185q-9 -237 -9 -516q0 -294 9 -516h-185z" />
<glyph unicode="&#xfb02;" horiz-adv-x="1253" d="M49 899v133h197q-2 41 -2 178q0 197 96.5 306.5t282.5 109.5q106 0 198 -27l-39 -122q-80 22 -159 22q-123 0 -177 -86q-24 -38 -28 -96.5t-4 -284.5h307v-133h-307q0 -645 8 -899h-184q8 250 8 899h-197zM907 0q8 299 8 774q0 511 -8 830h185q-9 -359 -9 -830 q0 -438 9 -774h-185z" />
</font>
</defs>
</svg>
