<?xml version="1.0" standalone="no"?>
<!DOCTYPE svg PUBLIC "-//W3C//DTD SVG 1.1//EN" "http://www.w3.org/Graphics/SVG/1.1/DTD/svg11.dtd" >
<svg xmlns="http://www.w3.org/2000/svg">
<metadata></metadata>
<defs>
<font id="advertbold" horiz-adv-x="1273" >
<font-face units-per-em="2048" ascent="1638" descent="-410" />
<missing-glyph horiz-adv-x="440" />
<glyph horiz-adv-x="2048" />
<glyph horiz-adv-x="2048" />
<glyph unicode="&#xd;" horiz-adv-x="2048" />
<glyph unicode=" "  horiz-adv-x="440" />
<glyph unicode="&#x09;" horiz-adv-x="440" />
<glyph unicode="&#xa0;" horiz-adv-x="440" />
<glyph unicode="!" horiz-adv-x="608" d="M88 1485l432 47q-65 -570 -65 -1026h-285q-21 566 -82 979zM96 160q0 78 56.5 132t154.5 54q94 0 149.5 -54t55.5 -132q0 -75 -56 -129t-149 -54q-97 0 -154 53.5t-57 129.5z" />
<glyph unicode="&#x22;" horiz-adv-x="907" d="M76 1505h340q-64 -297 -92 -620h-224q0 359 -24 620zM502 1505h340q-63 -311 -90 -620h-224q0 337 -26 620z" />
<glyph unicode="#" d="M18 385l33 211h201l41 311h-201l27 213h203q21 156 40 385h265q-38 -208 -62 -385h264q21 177 41 385h267q-33 -169 -66 -385h184l-28 -213h-189l-41 -311h185l-29 -211h-184q-25 -168 -45 -385h-265q10 64 33 191.5t33 193.5h-266q-18 -138 -41 -385h-264q54 327 65 385 h-201zM489 596h269l45 311h-275z" />
<glyph unicode="$" horiz-adv-x="1204" d="M84 100l92 240q198 -86 369 -86q116 0 182 45.5t66 110.5q0 63 -48 110t-176 101l-151 61q-147 61 -216 157.5t-69 239.5q0 153 122.5 266.5t322.5 139.5v170h159v-164q188 -5 357 -64l-93 -237q-134 59 -307 59q-112 0 -173.5 -39t-61.5 -98q0 -57 48 -101t175 -98 l125 -51q168 -71 241.5 -167t73.5 -249q0 -162 -113.5 -275.5t-303.5 -147.5v-187h-156v176q-242 3 -465 88z" />
<glyph unicode="%" horiz-adv-x="2091" d="M59 1055q0 110 33.5 201.5t90.5 151t131 92t155 32.5q84 0 156.5 -28.5t128.5 -83.5t88 -143.5t32 -201.5q0 -109 -33.5 -200.5t-90 -151t-129 -92.5t-152.5 -33q-86 0 -159.5 28.5t-130 83.5t-88.5 143.5t-32 201.5zM334 1065q0 -291 137 -291q68 0 98.5 73t30.5 218 q0 291 -129 291q-137 0 -137 -291zM406 0q530 760 968 1505h316q-480 -685 -967 -1505h-317zM1217 430q0 219 120.5 349t288.5 130q178 0 293 -117t115 -339q0 -109 -33.5 -200t-90.5 -150.5t-130.5 -92.5t-153.5 -33q-86 0 -159 27.5t-129.5 81.5t-88.5 142.5t-32 201.5z M1493 440q0 -286 135 -286q70 0 100.5 71.5t30.5 214.5q0 140 -33 216.5t-98 76.5q-135 0 -135 -293z" />
<glyph unicode="&#x26;" horiz-adv-x="1787" d="M55 383q0 137 98.5 251t264.5 177q-162 155 -162 334q0 162 150.5 274.5t379.5 112.5q194 0 316 -51l-74 -224q-98 37 -221 37q-107 0 -160 -38t-53 -99q0 -52 17 -89.5t67 -90.5q90 -94 268.5 -245.5t294.5 -233.5q59 81 84 194t25 295h319q0 -337 -250 -622 q219 -162 400 -261l-318 -174q-163 107 -321 236q-231 -189 -553 -189q-265 0 -418.5 112.5t-153.5 293.5zM381 440q0 -100 83 -163.5t206 -63.5q110 0 189 18.5t147 67.5q-251 197 -457 383q-89 -46 -128.5 -105t-39.5 -137z" />
<glyph unicode="'" horiz-adv-x="483" d="M76 1505h340q-63 -311 -90 -620h-226q0 359 -24 620z" />
<glyph unicode="(" horiz-adv-x="851" d="M59 567q0 218 56.5 405t154.5 319t227 218t277 117l35 -219q-84 -26 -153.5 -87.5t-124 -161t-85 -250.5t-30.5 -341q0 -362 107.5 -572t285.5 -269l-35 -220q-148 30 -277 117t-227 220t-154.5 320t-56.5 404z" />
<glyph unicode=")" horiz-adv-x="851" d="M47 -272q83 28 151.5 91t123.5 163.5t85.5 250.5t30.5 336q0 188 -30 338t-84 250.5t-123 162.5t-154 89l31 217q149 -30 278 -116t227.5 -218t155 -318.5t56.5 -404.5t-56.5 -405t-155 -320t-227.5 -220t-278 -118z" />
<glyph unicode="*" horiz-adv-x="870" d="M33 1241l110 199l209 -156l-33 248h224l-35 -250l213 154l106 -199l-237 -90l246 -105l-127 -186l-201 158l35 -256l-224 -2l33 258l-198 -160l-117 195l235 100z" />
<glyph unicode="+" horiz-adv-x="1337" d="M51 553v250h494v495h250v-495h501v-250h-501v-500h-250v500h-494z" />
<glyph unicode="," horiz-adv-x="563" d="M59 -219q161 92 179 203q-75 6 -122.5 57t-47.5 121q0 79 56.5 132.5t147.5 53.5q101 0 159 -69t58 -179q0 -131 -81 -234t-256 -194z" />
<glyph unicode="-" horiz-adv-x="866" d="M80 422v297q135 -2 350 -2q223 0 356 2v-297q-262 4 -352 4q-76 0 -354 -4z" />
<glyph unicode="." horiz-adv-x="563" d="M66 164q0 80 56 134t152 54q100 0 157.5 -54t57.5 -134q0 -78 -57.5 -132.5t-157.5 -54.5q-96 0 -152 55t-56 132z" />
<glyph unicode="/" horiz-adv-x="1017" d="M-23 0q434 812 744 1505h317q-403 -741 -747 -1505h-314z" />
<glyph unicode="0" d="M59 731q0 387 153 594t427 207q277 0 427.5 -194t150.5 -568q0 -381 -154 -587t-424 -206q-281 0 -430.5 191.5t-149.5 562.5zM414 754q0 -267 57.5 -404t167.5 -137t166.5 137t56.5 404q0 266 -57 404t-166 138q-225 0 -225 -542z" />
<glyph unicode="1" horiz-adv-x="954" d="M25 1231l495 299l266 -27q-18 -384 -18 -776q0 -368 18 -727h-372q16 372 16 727q0 319 -4 477l-270 -196z" />
<glyph unicode="2" d="M76 1376q256 156 565 156q242 0 377 -115t135 -307q0 -195 -159.5 -394t-501.5 -431q436 0 733 24l-133 -309h-1004v229q211 159 347.5 278.5t216 216t110.5 171t31 152.5q0 112 -62.5 173.5t-175.5 61.5q-201 0 -401 -125z" />
<glyph unicode="3" d="M49 109l94 229q90 -55 210.5 -87t226.5 -32q123 0 192.5 57.5t69.5 145.5q0 231 -467 231v199q411 40 411 250q0 82 -59 133t-168 51q-214 0 -397 -129l-84 217q271 158 571 158q220 0 357 -102.5t137 -264.5q0 -126 -85.5 -215t-232.5 -123q181 -38 280 -141t99 -254 q0 -207 -160.5 -331t-425.5 -124q-360 0 -569 132z" />
<glyph unicode="4" d="M37 315v271q336 447 670 946l333 -33q-14 -349 -14 -946h227v-238h-225q0 -174 8 -315h-342q11 146 11 315h-668zM293 553h414q0 435 -7 600q-225 -355 -407 -600z" />
<glyph unicode="5" d="M86 70l84 229q154 -80 356 -80q146 0 223.5 62t77.5 161q0 53 -19.5 95t-68.5 78.5t-126.5 61t-198 38.5t-279.5 14q43 336 43 776h936v-254q-230 17 -625 17l-8 -338q705 0 705 -459q0 -101 -44.5 -191.5t-123 -157.5t-193 -106t-247.5 -39q-160 0 -273.5 21.5 t-218.5 71.5z" />
<glyph unicode="6" d="M55 700q0 188 59.5 345.5t162.5 263.5t244 164.5t302 58.5q177 0 262 -33l-38 -239q-95 30 -246 30q-161 0 -273 -109t-125 -296q55 35 131.5 57.5t155.5 22.5q236 0 379 -123.5t143 -343.5q0 -236 -152.5 -378.5t-393.5 -142.5q-129 0 -237 41.5t-193 125.5t-133 226 t-48 330zM393 678q3 -240 78.5 -361.5t196.5 -121.5q89 0 143.5 62.5t54.5 180.5q0 144 -72.5 224.5t-189.5 80.5q-134 0 -211 -65z" />
<glyph unicode="7" d="M78 1243l86 262h1028v-241q-283 -586 -526 -1264h-383q234 628 559 1260q-558 0 -764 -17z" />
<glyph unicode="8" d="M53 352q0 120 81 214t239 157q-160 90 -222.5 177.5t-62.5 209.5q0 180 154 301t391 121q247 0 382.5 -99.5t135.5 -265.5q0 -106 -70.5 -195t-206.5 -145q186 -103 259 -197t73 -222q0 -196 -162 -313.5t-421 -117.5q-279 0 -424.5 101t-145.5 274zM358 397 q0 -80 68.5 -130t177.5 -50q123 0 186.5 42.5t63.5 115.5q0 75 -59 129t-240 135q-106 -59 -151.5 -116t-45.5 -126zM426 1151q0 -67 55 -119t213 -119q160 79 160 220q0 69 -53.5 114t-151.5 45q-112 0 -167.5 -38t-55.5 -103z" />
<glyph unicode="9" d="M55 1010q0 231 155 376.5t392 145.5q105 0 196 -26t168 -82.5t131.5 -140t85.5 -205t31 -271.5q0 -189 -59.5 -346t-163 -262.5t-245 -163.5t-304.5 -58q-170 0 -299 31l37 244q121 -33 289 -33q160 0 270 107.5t127 296.5q-131 -82 -288 -82q-237 0 -380 123.5 t-143 345.5zM403 1067q0 -143 71.5 -224t187.5 -81q127 0 212 67q-3 239 -77.5 361.5t-194.5 122.5q-89 0 -144 -64.5t-55 -181.5z" />
<glyph unicode=":" horiz-adv-x="563" d="M66 164q0 80 56 134t152 54q100 0 157.5 -54t57.5 -134q0 -78 -57.5 -132.5t-157.5 -54.5q-96 0 -152 55t-56 132zM66 879q0 80 56 134t152 54q100 0 157.5 -54t57.5 -134q0 -78 -58 -134.5t-157 -56.5q-95 0 -151.5 56.5t-56.5 134.5z" />
<glyph unicode=";" horiz-adv-x="563" d="M59 -219q161 92 179 203q-75 6 -122.5 57t-47.5 121q0 79 56.5 132.5t147.5 53.5q101 0 159 -69t58 -179q0 -131 -81 -234t-256 -194zM66 879q0 80 56 134t152 54q100 0 157.5 -54t57.5 -134q0 -78 -58 -134.5t-157 -56.5q-95 0 -151.5 56.5t-56.5 134.5z" />
<glyph unicode="&#x3c;" horiz-adv-x="1007" d="M45 678l750 641l174 -158l-549 -479l549 -483l-176 -164z" />
<glyph unicode="=" horiz-adv-x="1374" d="M63 276v252q369 -6 605 -6l647 6v-252q-389 9 -635 9q-108 0 -262 -2.5t-254 -4.5zM63 817v254q363 -6 596 -6l656 6v-254q-395 10 -647 10q-105 0 -256 -2.5t-250 -4.5z" />
<glyph unicode="&#x3e;" horiz-adv-x="1007" d="M37 193l551 481l-551 481l178 164l748 -641l-750 -643z" />
<glyph unicode="?" horiz-adv-x="724" d="M25 1323l176 219q249 -41 368 -136.5t119 -221.5q0 -170 -160 -285l-69 -53q-54 -39 -75.5 -73t-21.5 -71q0 -41 22.5 -76.5t82.5 -97.5l-234 -43q-84 75 -113.5 126.5t-29.5 117.5q0 59 18.5 100.5t71.5 94.5l60 59q73 73 73 154q0 58 -68 107.5t-220 78.5zM113 160 q0 78 56.5 132t154.5 54q95 0 149.5 -53.5t54.5 -132.5q0 -76 -55 -129.5t-149 -53.5q-97 0 -154 53.5t-57 129.5z" />
<glyph unicode="@" horiz-adv-x="2275" d="M55 524q0 213 88 401t237.5 320.5t356 209.5t437.5 77q481 0 754.5 -234.5t273.5 -646.5q0 -140 -42 -252t-112.5 -180.5t-157.5 -104.5t-182 -36q-159 0 -254 41.5t-147 130.5q-126 -172 -371 -172q-144 0 -243 101.5t-99 285.5q0 165 83 295.5t220.5 200t300.5 69.5 q147 0 250 -33l199 50q-76 -399 -76 -590q0 -97 39.5 -141t122.5 -44q42 0 81 19.5t73.5 60.5t55.5 115t21 172q0 330 -207.5 509t-591.5 179q-186 0 -346 -58t-273.5 -160.5t-178 -247t-64.5 -312.5q0 -175 67.5 -322t186 -248.5t285 -158t360.5 -56.5q437 0 696 152 l82 -190q-295 -164 -790 -164q-332 0 -588.5 115.5t-401.5 335t-145 511.5zM918 528q0 -118 45 -172.5t122 -54.5q103 0 172 94q13 75 24.5 208t14.5 233q-46 18 -120 18q-118 0 -188 -86t-70 -240z" />
<glyph unicode="A" horiz-adv-x="1626" d="M8 0q137 298 331 746.5t323 771.5h333q111 -321 282 -748t325 -770h-418q-71 194 -123 360h-578q-124 -324 -139 -360h-336zM569 602h414q-164 484 -197 588q-114 -325 -217 -588z" />
<glyph unicode="B" horiz-adv-x="1384" d="M129 0q16 372 16 727q0 436 -16 778h512q282 0 441 -94t159 -272q0 -116 -94.5 -210t-226.5 -116q180 -37 283.5 -134t103.5 -233q0 -446 -672 -446h-506zM481 655q0 -212 8 -415q29 -2 107 -2q101 0 171 13.5t111 42t58.5 67t17.5 92.5q0 102 -88 152t-278 50h-107z M481 893q27 -2 101 -2q167 0 242 45.5t75 146.5q0 92 -71.5 138.5t-241.5 46.5h-99q-6 -125 -6 -375z" />
<glyph unicode="C" horiz-adv-x="1404" d="M78 707q0 184 65.5 340t179 261.5t267.5 164.5t330 59q137 0 240 -21t208 -61l-80 -242q-174 80 -348 80q-229 0 -361.5 -140t-132.5 -394q0 -124 38.5 -226t104 -168.5t151 -102.5t182.5 -36q197 0 362 101l92 -230q-222 -115 -502 -115q-170 0 -317.5 53.5t-253 148.5 t-165.5 231.5t-60 296.5z" />
<glyph unicode="D" horiz-adv-x="1646" d="M129 0q16 372 16 727q0 436 -16 778h565q418 0 646.5 -176t228.5 -522q0 -374 -241 -590.5t-664 -216.5h-535zM485 770q0 -387 4 -526q31 -2 156 -2q265 0 412 136t147 382q0 256 -144 380t-403 124h-168q-4 -111 -4 -494z" />
<glyph unicode="E" horiz-adv-x="1165" d="M129 0q16 372 16 727q0 436 -16 778h918v-245q-135 4 -558 4q-4 -121 -4 -373q291 0 541 10v-258q-152 10 -541 10q0 -276 4 -411q416 0 621 10l-90 -252h-891z" />
<glyph unicode="F" horiz-adv-x="1103" d="M129 0q16 372 16 727q0 436 -16 778h918v-245q-135 4 -558 4q-4 -119 -4 -398q335 0 541 11v-265q-187 15 -541 15q0 -299 15 -627h-371z" />
<glyph unicode="G" horiz-adv-x="1609" d="M78 705q0 146 42.5 275t121.5 229.5t188.5 173t248 111t294.5 38.5q263 0 491 -88l-82 -240q-85 37 -191.5 60.5t-201.5 23.5q-257 0 -400 -141.5t-143 -392.5q0 -125 38 -227.5t104 -169.5t153.5 -103.5t186.5 -36.5q101 0 182 19q1 28 2.5 72.5t2.5 82.5t1 76 q0 133 -6 235h371q-13 -240 -13 -305q0 -136 13 -336q-250 -84 -594 -84q-161 0 -307 51.5t-258 143.5t-178 230.5t-66 302.5z" />
<glyph unicode="H" horiz-adv-x="1599" d="M129 0q16 372 16 727q0 436 -16 778h371q-15 -437 -15 -610h629q0 237 -16 610h370q-14 -349 -14 -778q0 -336 14 -727h-370q16 333 16 651h-629q0 -276 15 -651h-371z" />
<glyph unicode="I" horiz-adv-x="626" d="M129 0q16 372 16 727q0 436 -16 778h371q-15 -374 -15 -778q0 -309 15 -727h-371z" />
<glyph unicode="J" horiz-adv-x="628" d="M-104 -313q84 41 129.5 78t74.5 83q32 52 43 138t11 258q0 675 -25 1261h371q-15 -371 -15 -688q0 -102 8.5 -316.5t8.5 -324.5q0 -194 -57 -326t-170.5 -217t-301.5 -145z" />
<glyph unicode="K" horiz-adv-x="1484" d="M129 0q16 372 16 727q0 436 -16 778h371q-15 -375 -15 -671q428 428 625 671h367q-129 -147 -323.5 -347.5t-344.5 -342.5q161 -188 352.5 -389.5t343.5 -339.5l-338 -168q-139 145 -330.5 371t-351.5 430q0 -320 15 -719h-371z" />
<glyph unicode="L" horiz-adv-x="1140" d="M129 0q16 372 16 727q0 436 -16 778h371q-15 -374 -15 -778q0 -317 4 -483q406 0 633 14l-88 -258h-905z" />
<glyph unicode="M" horiz-adv-x="2066" d="M68 0q103 772 129 1505h456q266 -674 400 -1140q186 592 420 1140h436q3 -664 80 -1505h-361q-7 670 -33 1137q-272 -670 -421 -1137h-322q-82 281 -189.5 589t-205.5 548q-58 -627 -84 -1137h-305z" />
<glyph unicode="N" horiz-adv-x="1601" d="M129 0q16 372 16 727q0 436 -16 778h391q332 -480 651 -1013q0 600 -18 1013h320q-17 -363 -17 -778q0 -332 17 -727h-343q-409 679 -700 1112q0 -658 16 -1112h-317z" />
<glyph unicode="O" horiz-adv-x="1800" d="M78 731q0 170 60.5 318.5t168 254.5t261 167t333.5 61q186 0 340.5 -57t260.5 -157.5t164 -241.5t58 -306q0 -168 -61 -314.5t-168.5 -252t-261.5 -166t-332 -60.5q-249 0 -436.5 96.5t-287 267t-99.5 390.5zM469 754q0 -233 115.5 -383t316.5 -150q137 0 235.5 70 t146.5 189t48 274q0 235 -115.5 384.5t-314.5 149.5q-139 0 -238 -71t-146.5 -190t-47.5 -273z" />
<glyph unicode="P" horiz-adv-x="1267" d="M129 0q16 372 16 727q0 439 -16 778h496q291 0 455.5 -119.5t164.5 -343.5q0 -143 -78.5 -251t-210 -164t-294.5 -56q-58 0 -177 13q0 -256 15 -584h-371zM485 811q25 -2 84 -2q169 0 247.5 57.5t78.5 175.5q0 107 -80 166.5t-242 59.5h-84q-4 -113 -4 -457z" />
<glyph unicode="Q" horiz-adv-x="1792" d="M78 731q0 170 60 318.5t166.5 254.5t259.5 167t331 61q187 0 341 -57t258.5 -157.5t162 -241t57.5 -306.5q0 -239 -124 -422.5t-339 -279.5q316 -64 607 -158l-287 -236q-455 219 -828 306q-665 154 -665 751zM461 754q0 -232 117 -382.5t317 -150.5q138 0 237.5 70 t148 189.5t48.5 273.5q0 153 -50.5 273.5t-150 190.5t-233.5 70q-139 0 -239 -71t-147.5 -190t-47.5 -273z" />
<glyph unicode="R" horiz-adv-x="1380" d="M129 0q16 372 16 727q0 436 -16 778h500q291 0 454.5 -108t163.5 -326q0 -129 -74 -226.5t-200 -154.5q69 -126 186 -314.5t199 -301.5l-381 -137q-140 247 -322 647h-170q0 -243 15 -584h-371zM485 817q23 -2 93 -2q319 0 319 229q0 106 -81.5 165t-237.5 59h-89 q-4 -127 -4 -451z" />
<glyph unicode="S" horiz-adv-x="1239" d="M72 70l84 237q88 -41 195.5 -65.5t205.5 -24.5q120 0 185 45t65 121q0 70 -48 119.5t-177 101.5l-158 66q-307 127 -307 424q0 118 72.5 217.5t205.5 160t299 60.5q256 0 439 -70l-86 -237q-148 67 -334 67q-114 0 -175 -42.5t-61 -108.5q0 -65 45 -109.5t178 -101.5 l127 -53q175 -74 257.5 -181t82.5 -266q0 -131 -78 -235t-211.5 -161t-297.5 -57q-308 0 -508 93z" />
<glyph unicode="T" horiz-adv-x="1380" d="M14 1247l86 258h1260v-250q-153 7 -490 7q-6 -255 -6 -482q0 -414 17 -780h-373q16 344 16 780q0 318 -6 482q-304 0 -504 -15z" />
<glyph unicode="U" horiz-adv-x="1572" d="M129 1505h371q-15 -374 -15 -835q0 -124 22 -208.5t66.5 -134t105.5 -70.5t146 -21q76 0 131 19.5t99.5 67t67 134.5t22.5 213q0 386 -21 835h322q-19 -443 -19 -620q0 -61 4.5 -179t4.5 -171q0 -272 -172 -415t-473 -143q-304 0 -477 140t-173 413q0 60 2 176t2 179 q0 292 -16 620z" />
<glyph unicode="V" horiz-adv-x="1603" d="M6 1505h416q88 -228 208 -575t197 -588q81 255 202 606.5t200 556.5h370q-121 -257 -312 -713t-322 -800h-353q-119 328 -294.5 765.5t-311.5 747.5z" />
<glyph unicode="W" horiz-adv-x="2291" d="M0 1505h414q161 -479 342 -1128q135 425 248 725q-33 104 -142 403h393q173 -511 353 -1128q180 641 334 1128h350q-300 -798 -535 -1513h-364q-164 503 -263 780q-126 -351 -262 -780h-340q-125 390 -274.5 820t-253.5 693z" />
<glyph unicode="X" horiz-adv-x="1550" d="M-8 0q351 424 596 756q-331 461 -563 749h458q206 -286 324 -471q115 194 295 471h438q-257 -300 -569 -719q350 -491 581 -786h-454q-235 342 -342 508q-31 -52 -77.5 -125.5t-82.5 -127.5t-93 -139t-77 -116h-434z" />
<glyph unicode="Y" horiz-adv-x="1527" d="M6 1505h434q204 -357 342 -624q99 198 338 624h404q-292 -391 -604 -862q3 -309 14 -643h-369q15 363 15 643q-196 327 -574 862z" />
<glyph unicode="Z" horiz-adv-x="1501" d="M94 0v209q292 339 809 1030q-512 0 -784 -16v282h1243v-209q-307 -359 -811 -1030q688 0 917 17l-139 -283h-1235z" />
<glyph unicode="[" horiz-adv-x="698" d="M86 -467q14 591 14 1042q0 553 -14 1029h573v-238h-229q-8 -233 -8 -784q0 -569 8 -811h229v-238h-573z" />
<glyph unicode="\" horiz-adv-x="1017" d="M-18 1505h317q313 -706 743 -1505h-315q-371 817 -745 1505z" />
<glyph unicode="]" horiz-adv-x="698" d="M37 -229h229q8 242 8 811q0 551 -8 784h-229v238h573q-14 -476 -14 -1029q0 -451 14 -1042h-573v238z" />
<glyph unicode="^" horiz-adv-x="835" d="M-2 1313l428 307l428 -307l-115 -166l-319 186l-307 -186z" />
<glyph unicode="_" d="M0 0h1274v-244h-1274v244z" />
<glyph unicode="`" horiz-adv-x="811" d="M51 1397l225 223l484 -307l-178 -166z" />
<glyph unicode="a" horiz-adv-x="1271" d="M63 494q0 169 83 304.5t220.5 209t301.5 73.5q157 0 282 -39l209 58q-22 -287 -22 -545q0 -252 16 -555h-322l-20 170q-59 -96 -151 -144.5t-195 -48.5q-81 0 -153 33.5t-128 97t-88.5 163t-32.5 223.5zM406 569q0 -172 58.5 -255t156.5 -83q116 0 188 109q6 102 6 231 q0 205 -6 279q-79 35 -150 35q-109 0 -181 -84t-72 -232z" />
<glyph unicode="b" horiz-adv-x="1261" d="M109 66q16 450 16 708q0 371 -16 830h352q-12 -204 -12 -365q0 -233 4 -352q62 95 153 144.5t195 49.5q173 0 286 -128.5t113 -364.5q0 -129 -44 -240.5t-124 -194t-199.5 -129.5t-263.5 -47q-298 0 -460 89zM446 492q0 -212 9 -291q67 -27 149 -27q113 0 182.5 88 t69.5 250q0 154 -56.5 233.5t-154.5 79.5q-121 0 -190 -112q-9 -92 -9 -221z" />
<glyph unicode="c" horiz-adv-x="1009" d="M63 526q0 236 168 395.5t418 159.5q105 0 180 -13.5t152 -45.5l-72 -213q-109 45 -221 45q-136 0 -207 -76.5t-71 -224.5q0 -168 76 -250t214 -82q130 0 228 49l57 -198q-144 -95 -383 -95q-111 0 -208 35.5t-171 102.5t-117 173t-43 238z" />
<glyph unicode="d" horiz-adv-x="1263" d="M63 494q0 169 83 304.5t220.5 209t301.5 73.5q68 0 149 -18q0 67 -14 541h350q-16 -425 -16 -830q0 -375 16 -774h-322l-20 170q-59 -96 -151 -144.5t-195 -48.5q-81 0 -153 33.5t-128 97t-88.5 163t-32.5 223.5zM406 569q0 -172 58.5 -255t156.5 -83q116 0 188 109 q6 102 6 231q0 193 -6 279q-79 35 -150 35q-109 0 -181 -84t-72 -232z" />
<glyph unicode="e" horiz-adv-x="1179" d="M63 537q0 157 71.5 281.5t199 193.5t287.5 69q224 0 359.5 -137t135.5 -385q0 -53 -2 -84h-721q13 -130 91.5 -192t222.5 -62q207 0 348 101l59 -213q-97 -69 -209.5 -100.5t-261.5 -31.5q-169 0 -299 64t-205.5 192t-75.5 304zM391 659h404q-15 230 -199 230 q-91 0 -144 -62.5t-61 -167.5z" />
<glyph unicode="f" horiz-adv-x="784" d="M14 829v228h170q-6 61 -6 153q0 192 118 304t312 112q147 0 232 -31l-54 -206q-50 12 -112 12q-83 0 -123 -58q-27 -36 -36 -93t-9 -193h268v-228h-268q0 -436 14 -829h-350q14 393 14 829h-170z" />
<glyph unicode="g" horiz-adv-x="1271" d="M63 500q0 169 83 303t220.5 206t301.5 72q157 0 282 -39l209 58q-22 -251 -22 -482q0 -95 8 -249t8 -230q0 -302 -167 -467.5t-458 -165.5q-266 0 -442 70l66 246q160 -72 366 -72q141 0 224 76.5t83 210.5q0 78 -10 156q-62 -94 -155 -144.5t-195 -50.5 q-81 0 -152.5 31.5t-128 92t-89 158t-32.5 220.5zM406 575q0 -321 215 -321q116 0 188 108q6 99 6 218q0 196 -6 270q-79 35 -150 35q-110 0 -181.5 -80t-71.5 -230z" />
<glyph unicode="h" horiz-adv-x="1241" d="M109 0q16 478 16 774q0 405 -16 830h352q-12 -204 -12 -365q0 -233 4 -352q63 95 153 144.5t199 49.5q149 0 242.5 -103.5t93.5 -272.5q0 -68 -6.5 -176.5t-6.5 -172.5q0 -203 13 -356h-355q15 200 15 344q0 205 -8 309q-18 172 -154 172q-110 0 -182 -108 q-11 -115 -11 -326q0 -68 2 -128.5t6.5 -138t6.5 -124.5h-352z" />
<glyph unicode="i" horiz-adv-x="573" d="M82 1393q0 75 55 127.5t148 52.5q97 0 152 -52t55 -128q0 -79 -55 -131t-152 -52q-94 0 -148.5 52.5t-54.5 130.5zM109 0q16 315 16 516q0 254 -16 541h352q-17 -259 -17 -541q0 -237 17 -516h-352z" />
<glyph unicode="j" horiz-adv-x="573" d="M-119 -322q85 44 133 81.5t72 80.5q45 83 45 264q0 556 -22 953h352q-17 -254 -17 -482q0 -73 8.5 -247t8.5 -252q0 -240 -124.5 -375.5t-383.5 -210.5zM82 1393q0 75 55 127.5t148 52.5q97 0 152 -52t55 -128q0 -79 -55 -131t-152 -52q-94 0 -148.5 52.5t-54.5 130.5z " />
<glyph unicode="k" horiz-adv-x="1224" d="M109 0q16 478 16 774q0 405 -16 830h352q-17 -387 -17 -1000q338 374 404 453h356q-348 -336 -454 -451q86 -114 226 -265.5t255 -260.5l-334 -139q-193 222 -451 569q0 -71 2 -149.5t6.5 -190t6.5 -170.5h-352z" />
<glyph unicode="l" horiz-adv-x="573" d="M109 0q16 478 16 774q0 405 -16 830h352q-17 -387 -17 -830q0 -350 17 -774h-352z" />
<glyph unicode="m" horiz-adv-x="1896" d="M109 0q16 315 16 516q0 254 -16 541h323l21 -170q128 194 342 194q107 0 185 -58.5t116 -164.5q148 223 364 223q147 0 239.5 -103.5t92.5 -272.5q0 -68 -5 -176.5t-5 -172.5q0 -215 12 -356h-348q12 160 12 344q0 231 -6 309q-7 84 -45.5 128t-97.5 44q-109 0 -183 -108 q-10 -110 -10 -326q0 -201 10 -391h-350q15 200 15 344q0 192 -9 309q-7 85 -44.5 128.5t-98.5 43.5q-108 0 -182 -108q-11 -121 -11 -326q0 -182 11 -391h-348z" />
<glyph unicode="n" horiz-adv-x="1241" d="M109 0q16 315 16 516q0 254 -16 541h327l21 -170q128 194 348 194q149 0 242.5 -103.5t93.5 -272.5q0 -68 -6.5 -176.5t-6.5 -172.5q0 -203 13 -356h-355q15 200 15 344q0 231 -8 309q-9 85 -47.5 128.5t-102.5 43.5q-108 0 -182 -108q-8 -117 -8 -326q0 -188 8 -391 h-352z" />
<glyph unicode="o" horiz-adv-x="1288" d="M63 512q0 116 41.5 220t116 181.5t184.5 122.5t240 45q133 0 243 -41t184 -113.5t114.5 -172t40.5 -215.5q0 -115 -42 -217.5t-117 -179t-185 -121t-238 -44.5q-270 0 -426 148.5t-156 386.5zM416 524q0 -152 58 -248t169 -96q116 0 171.5 94t55.5 250q0 159 -56.5 254.5 t-170.5 95.5q-113 0 -170 -96t-57 -254z" />
<glyph unicode="p" horiz-adv-x="1261" d="M109 -467q16 423 16 795q0 247 -16 729h325l19 -170q62 95 153 144.5t195 49.5q173 0 286 -128.5t113 -364.5q0 -171 -76 -310t-215 -220t-315 -81q-69 0 -150 15q0 -128 17 -459h-352zM446 492q0 -212 9 -291q67 -27 149 -27q113 0 182.5 88t69.5 250q0 154 -56.5 233.5 t-154.5 79.5q-121 0 -190 -112q-9 -92 -9 -221z" />
<glyph unicode="q" horiz-adv-x="1271" d="M63 494q0 169 83 304.5t220.5 209t301.5 73.5q157 0 282 -39l209 58q-22 -337 -22 -772q0 -416 18 -795h-352q10 170 10 315q0 205 -2 322q-59 -96 -151 -144.5t-195 -48.5q-81 0 -153 33.5t-128 97t-88.5 163t-32.5 223.5zM406 569q0 -172 58.5 -255t156.5 -83 q116 0 188 109q6 102 6 240q0 196 -6 270q-79 35 -150 35q-109 0 -181 -84t-72 -232z" />
<glyph unicode="r" horiz-adv-x="886" d="M109 0q16 315 16 516q0 260 -16 541h317l27 -244q49 134 127 201t168 67q75 0 133 -22l-107 -354q-67 24 -131 24q-111 0 -182 -108q-8 -96 -8 -256q0 -188 8 -365h-352z" />
<glyph unicode="s" horiz-adv-x="964" d="M49 59l55 205q166 -76 328 -76q180 0 180 91q0 40 -30 67t-125 57l-121 37q-128 41 -192 116.5t-64 197.5q0 139 125 233t330 94q203 0 360 -53l-61 -211q-116 45 -267 45q-176 0 -176 -80q0 -33 25.5 -55.5t103.5 -48.5l121 -39q149 -50 216 -126.5t67 -201.5 q0 -151 -124.5 -242.5t-318.5 -91.5q-146 0 -245 19.5t-187 62.5z" />
<glyph unicode="t" horiz-adv-x="874" d="M12 829v228h164q0 121 -6 262l346 65q-18 -200 -18 -327h313v-228h-319q0 -386 6 -471q4 -68 46 -102.5t99 -34.5q97 0 172 41l51 -182q-60 -49 -154.5 -76t-205.5 -27q-151 0 -246.5 96t-95.5 265q0 78 6 239t6 252h-164z" />
<glyph unicode="u" horiz-adv-x="1241" d="M100 1057h355q-15 -200 -15 -348q0 -177 9 -303q14 -175 151 -175q105 0 180 109q8 115 8 328q0 189 -8 389h353q-17 -269 -17 -506q0 -255 17 -551h-328l-21 170q-124 -193 -346 -193q-148 0 -242 103t-94 270q0 71 4.5 178.5t4.5 169.5q0 210 -11 359z" />
<glyph unicode="v" horiz-adv-x="1189" d="M4 1057h371q194 -555 246 -776q45 159 121.5 400.5t125.5 375.5h316q-82 -180 -211 -503.5t-215 -565.5h-330q-168 469 -424 1069z" />
<glyph unicode="w" horiz-adv-x="1820" d="M4 1057h352q132 -440 219 -768q95 369 230 768h264q138 -448 217 -768q74 283 232 768h299q-205 -503 -404 -1069h-313q-103 369 -201 671q-126 -380 -207 -671h-295q-129 380 -393 1069z" />
<glyph unicode="x" horiz-adv-x="1230" d="M-2 0q249 287 432 530q-185 265 -416 527h404q113 -159 217 -322q72 122 211 322h371q-190 -212 -420 -512q184 -252 430 -545h-400q-26 36 -59 85.5t-57 87t-62 98.5t-55 87q-161 -265 -227 -358h-369z" />
<glyph unicode="y" horiz-adv-x="1196" d="M4 1057h371q65 -172 137.5 -406.5t110.5 -402.5q94 408 223 809h340q-126 -286 -395 -1061q-78 -224 -199 -335t-338 -171l-80 199q143 51 217 122.5t111 194.5h-74q-181 557 -424 1051z" />
<glyph unicode="z" horiz-adv-x="1097" d="M51 0v213q262 268 543 616q-328 0 -518 -20v248h934v-213q-259 -268 -545 -615q396 0 622 19l-141 -248h-895z" />
<glyph unicode="{" horiz-adv-x="833" d="M47 449v237q118 0 166.5 37t48.5 133q0 76 -11 230.5t-11 222.5q0 138 93 221.5t245 83.5q130 0 223 -10v-238q-41 6 -119 6q-62 0 -86.5 -27t-24.5 -94q0 -66 5.5 -217t5.5 -221q0 -103 -63 -166.5t-175 -77.5q111 -14 174.5 -79t63.5 -166q0 -72 -5.5 -222t-5.5 -213 q0 -67 24.5 -97t80.5 -30q75 0 125 7v-236q-84 -12 -223 -12q-155 0 -246.5 83.5t-91.5 223.5q0 70 11 224.5t11 226.5q0 97 -46.5 132.5t-168.5 37.5z" />
<glyph unicode="|" horiz-adv-x="501" d="M113 -467q20 645 20 1002q0 551 -20 1069h274q-20 -517 -20 -1069q0 -449 20 -1002h-274z" />
<glyph unicode="}" horiz-adv-x="829" d="M31 -231q52 -7 123 -7q60 0 84 29t24 96q0 63 -5 214t-5 223q0 101 63.5 166t173.5 79q-111 14 -174 77.5t-63 166.5q0 71 5 220t5 214q0 68 -24 96.5t-80 28.5q-82 0 -127 -6v238q88 10 225 10q156 0 247 -82.5t91 -222.5q0 -68 -10.5 -223.5t-10.5 -231.5 q0 -95 46.5 -131.5t168.5 -38.5v-238q-123 0 -169 -35.5t-46 -134.5q0 -72 10.5 -225t10.5 -223q0 -138 -93 -222.5t-245 -84.5q-136 0 -225 12v236z" />
<glyph unicode="~" horiz-adv-x="851" d="M59 1339q80 129 230 129q67 0 161.5 -31.5t135.5 -31.5q50 0 80.5 16t70.5 54l56 -156q-87 -133 -226 -133q-71 0 -165.5 32.5t-133.5 32.5q-51 0 -81.5 -15t-69.5 -52z" />
<glyph unicode="&#xa1;" horiz-adv-x="608" d="M86 -477q68 596 68 1028h282q19 -510 82 -981zM94 897q0 77 56 130.5t151 53.5q96 0 152.5 -53.5t56.5 -130.5q0 -79 -56 -132.5t-153 -53.5q-95 0 -151 53.5t-56 132.5z" />
<glyph unicode="&#xa2;" horiz-adv-x="1026" d="M74 745q0 216 141.5 368t368.5 177v213h161v-211q138 -6 248 -55l-73 -215q-104 49 -220 49q-137 0 -208.5 -77.5t-71.5 -225.5q0 -168 77.5 -251t215.5 -83q139 0 225 53l61 -202q-125 -73 -278 -90v-195h-162v193q-103 9 -190 48.5t-153.5 107t-104 169t-37.5 227.5z " />
<glyph unicode="&#xa3;" horiz-adv-x="1243" d="M49 653v240h176q0 639 576 639q204 0 356 -64l-72 -225q-104 49 -247 49q-95 0 -152.5 -35.5t-88 -124t-30.5 -239.5h459v-240h-461q0 -268 6 -409q409 0 639 14l-94 -258h-946q34 148 45.5 269.5t11.5 383.5h-178z" />
<glyph unicode="&#xa7;" horiz-adv-x="999" d="M53 57l56 205q162 -74 323 -74q180 0 180 91q0 41 -32 66.5t-125 57.5l-109 35q-280 95 -280 285q0 79 52.5 138t153.5 91q-176 89 -176 252q0 140 121.5 234t327.5 94q217 0 358 -51l-59 -213q-119 45 -269 45q-94 0 -130.5 -21t-36.5 -57t26.5 -59.5t102.5 -45.5 l129 -38q148 -43 219 -121t71 -180q0 -79 -52.5 -141t-141.5 -85q162 -87 162 -254q0 -151 -124.5 -242.5t-318.5 -91.5q-146 0 -244.5 19.5t-183.5 60.5zM356 786q0 -33 34 -60t106 -54l88 -31q75 33 75 84q0 93 -149 133l-61 19q-43 -14 -68 -38t-25 -53z" />
<glyph unicode="&#xa8;" horiz-adv-x="1001" d="M84 1331q0 69 51 118.5t135 49.5q90 0 140.5 -49t50.5 -119q0 -71 -50.5 -119.5t-140.5 -48.5q-85 0 -135.5 49t-50.5 119zM563 1331q0 70 49.5 119t137.5 49q86 0 136 -49t50 -119q0 -71 -50 -119.5t-136 -48.5q-88 0 -137.5 48.5t-49.5 119.5z" />
<glyph unicode="&#xa9;" horiz-adv-x="1812" d="M57 754q0 158 67 302t180 248t271 166t332 62q173 0 330 -62t270.5 -166t180.5 -248t67 -302t-67 -301.5t-180.5 -248t-270.5 -166t-330 -61.5q-232 0 -428 104.5t-309 283t-113 389.5zM207 754q0 -128 55 -246t148.5 -203.5t223.5 -136.5t273 -51q142 0 271.5 51 t223 136.5t149 203.5t55.5 246t-55.5 246t-149 203.5t-223 136.5t-271.5 51q-143 0 -273 -51t-223.5 -136.5t-148.5 -203.5t-55 -246zM371 727q0 105 39 200t110 168.5t181 116.5t243 43q174 0 322 -61l-60 -178q-46 23 -116 39t-129 16q-63 0 -115.5 -16t-96 -51t-68 -98 t-24.5 -150q0 -147 81.5 -232.5t207.5 -85.5q155 0 260 68l68 -164q-163 -88 -356 -88q-239 0 -393 130t-154 343z" />
<glyph unicode="&#xaa;" horiz-adv-x="1140" d="M63 305q0 160 139 249t388 89q72 0 127 -6v61q-7 82 -55.5 118t-143.5 36q-188 0 -328 -90l-81 196q203 123 469 123q460 0 460 -399q0 -59 -5 -168.5t-5 -165.5q0 -189 8 -348h-305l-20 162q-55 -91 -138 -138t-182 -47q-148 0 -238 87t-90 241zM367 342q0 -57 41.5 -88 t119.5 -31q119 0 183 82q2 37 2 164q-47 6 -123 6q-112 0 -167.5 -35.5t-55.5 -97.5z" />
<glyph unicode="&#xab;" horiz-adv-x="1226" d="M20 545l472 514l184 -125l-285 -385l285 -389l-187 -129zM553 545l467 514l186 -125l-286 -385l286 -389l-188 -129z" />
<glyph unicode="&#xad;" horiz-adv-x="866" d="M80 422v297q135 -2 350 -2q223 0 356 2v-297q-262 4 -352 4q-76 0 -354 -4z" />
<glyph unicode="&#xae;" horiz-adv-x="1812" d="M57 754q0 158 67 302t180 248t271 166t332 62q173 0 330 -62t270.5 -166t180.5 -248t67 -302t-67 -301.5t-180.5 -248t-270.5 -166t-330 -61.5q-232 0 -428 104.5t-309 283t-113 389.5zM207 754q0 -128 55 -246t148.5 -203.5t223.5 -136.5t273 -51q142 0 271.5 51 t223 136.5t149 203.5t55.5 246t-55.5 246t-149 203.5t-223 136.5t-271.5 51q-143 0 -273 -51t-223.5 -136.5t-148.5 -203.5t-55 -246zM524 281q13 231 13 462q0 284 -13 490h344q201 0 315.5 -70t114.5 -205q0 -83 -49 -145t-137 -100q52 -86 129.5 -201.5t130.5 -181.5 l-270 -84q-108 170 -221 405q-54 -3 -107 0q0 -67 10 -370h-260zM774 803q16 -6 66 -6q107 0 155.5 36t48.5 111q0 66 -48 99.5t-154 33.5h-62q-6 -74 -6 -274z" />
<glyph unicode="&#xaf;" horiz-adv-x="839" d="M78 1227v200h692v-200h-692z" />
<glyph unicode="&#xb0;" horiz-adv-x="577" d="M-2 1423q0 104 77.5 175t209.5 71q135 0 214 -71t79 -175q0 -103 -79.5 -176t-213.5 -73q-131 0 -209 73t-78 176zM160 1423q0 -48 33 -80t92 -32q60 0 96.5 32.5t36.5 79.5t-36.5 79t-96.5 32q-59 0 -92 -31.5t-33 -79.5z" />
<glyph unicode="&#xb4;" horiz-adv-x="811" d="M53 1313l482 307l229 -223l-531 -250z" />
<glyph unicode="&#xb6;" horiz-adv-x="1284" d="M59 1038q0 113 40.5 203t113 147t168.5 87t209 30h268q-12 -297 -12 -778q0 -448 12 -727h-217q16 298 16 575q-73 -12 -145 -12q-91 0 -173 33t-144.5 93t-99 150.5t-36.5 198.5zM950 0q13 363 13 727q0 454 -13 778h217q-12 -299 -12 -778q0 -448 12 -727h-217z" />
<glyph unicode="&#xb7;" horiz-adv-x="661" d="M104 770q0 83 61.5 142t164.5 59t164 -59t61 -142q0 -82 -61 -140.5t-164 -58.5t-164.5 58.5t-61.5 140.5z" />
<glyph unicode="&#xb8;" horiz-adv-x="679" d="M115 -449l37 125q68 -22 145 -22q84 0 84 55q0 75 -227 78q14 127 16 233h152v-110q116 -12 180.5 -60.5t64.5 -128.5q0 -89 -69 -145.5t-176 -56.5q-116 0 -207 32z" />
<glyph unicode="&#xbb;" horiz-adv-x="1226" d="M18 158l289 387l-289 389l185 125l469 -514l-469 -514zM551 158l287 387l-287 389l186 125l467 -514l-467 -514z" />
<glyph unicode="&#xbf;" horiz-adv-x="724" d="M33 -133q0 177 160 291l71 51q94 64 94 141q0 45 -20.5 80t-79.5 94l236 49q82 -78 111.5 -129.5t29.5 -115.5q0 -55 -20 -96t-72 -97l-56 -61q-42 -47 -58.5 -80t-16.5 -76q0 -57 68 -107t218 -77l-178 -221q-246 42 -366.5 137t-120.5 217zM193 897q0 77 56.5 130.5 t153.5 53.5q95 0 150 -53.5t55 -130.5q0 -80 -55 -133t-150 -53q-98 0 -154 53t-56 133z" />
<glyph unicode="&#xc0;" horiz-adv-x="1626" d="M8 0q137 298 331 746.5t323 771.5h333q111 -321 282 -748t325 -770h-418q-71 194 -123 360h-578q-124 -324 -139 -360h-336zM406 1819l227 223l483 -307l-180 -166zM569 602h414q-164 484 -197 588q-114 -325 -217 -588z" />
<glyph unicode="&#xc1;" horiz-adv-x="1626" d="M8 0q137 298 331 746.5t323 771.5h333q111 -321 282 -748t325 -770h-418q-71 194 -123 360h-578q-124 -324 -139 -360h-336zM502 1735l481 307l231 -223l-532 -250zM569 602h414q-164 484 -197 588q-114 -325 -217 -588z" />
<glyph unicode="&#xc2;" horiz-adv-x="1626" d="M8 0q137 298 331 746.5t323 771.5h333q111 -321 282 -748t325 -770h-418q-71 194 -123 360h-578q-124 -324 -139 -360h-336zM365 1735l430 307l428 -307l-115 -166l-320 186l-307 -186zM569 602h414q-164 484 -197 588q-114 -325 -217 -588z" />
<glyph unicode="&#xc3;" horiz-adv-x="1626" d="M-4 0q149 303 346.5 744.5t329.5 773.5h336q112 -323 282.5 -750t323.5 -768h-416q-57 156 -117 338h-571q-68 -190 -133 -338h-381zM414 1747q83 129 229 129q66 0 160 -32t135 -32q50 0 82 16t70 52l57 -154q-88 -131 -227 -131q-70 0 -164 33t-133 33q-49 0 -81.5 -17 t-68.5 -53zM602 602h397q-128 369 -188 572q-45 -139 -209 -572z" />
<glyph unicode="&#xc4;" horiz-adv-x="1626" d="M8 0q137 298 331 746.5t323 771.5h333q111 -321 282 -748t325 -770h-418q-71 194 -123 360h-578q-124 -324 -139 -360h-336zM420 1759q0 71 50.5 120.5t135.5 49.5q90 0 140.5 -49.5t50.5 -120.5t-50.5 -119.5t-140.5 -48.5q-85 0 -135.5 49t-50.5 119zM569 602h414 q-164 484 -197 588q-114 -325 -217 -588zM899 1759q0 72 49 121t137 49q86 0 137.5 -49.5t51.5 -120.5q0 -70 -51.5 -119t-137.5 -49q-88 0 -137 48.5t-49 119.5z" />
<glyph unicode="&#xc5;" horiz-adv-x="1626" d="M8 0q123 263 307 688.5t324 769.5q-52 35 -80.5 87.5t-28.5 111.5q0 102 79.5 174t211.5 72t211.5 -72t79.5 -174q0 -122 -100 -193q113 -320 278 -728.5t312 -735.5h-418q-71 194 -123 360h-578q-124 -324 -139 -360h-336zM569 602h414q-164 484 -197 588 q-114 -325 -217 -588zM692 1657q0 -49 34.5 -82t94.5 -33t95.5 33t35.5 82q0 46 -36 78t-95 32t-94 -32t-35 -78z" />
<glyph unicode="&#xc6;" horiz-adv-x="2060" d="M6 0q173 272 439.5 716.5t463.5 788.5h1035v-245q-135 6 -562 6q-4 -123 -4 -375q303 0 541 10v-258q-176 12 -541 12q0 -278 4 -413q416 0 621 10l-88 -252h-889q10 225 12 360h-479q-113 -221 -199 -360h-354zM684 602h358v125q0 346 -6 514q-37 -72 -96.5 -180 t-141 -253.5t-114.5 -205.5z" />
<glyph unicode="&#xc7;" horiz-adv-x="1404" d="M78 707q0 246 109.5 435t300 289.5t432.5 100.5q137 0 240 -21t208 -61l-80 -242q-174 80 -348 80q-229 0 -361.5 -140t-132.5 -394q0 -125 39 -227.5t105 -168.5t151.5 -101.5t180.5 -35.5q197 0 362 101l92 -230q-115 -60 -233.5 -87.5t-268.5 -27.5v-67 q119 -12 183.5 -60t64.5 -129q0 -89 -69 -145.5t-176 -56.5q-115 0 -203 32l33 125q75 -22 143 -22q45 0 64.5 13t19.5 42q0 75 -225 78q11 82 14 201q-134 22 -251 82.5t-205 151t-138.5 216t-50.5 269.5z" />
<glyph unicode="&#xc8;" horiz-adv-x="1165" d="M129 0q16 372 16 727q0 436 -16 778h918v-245q-135 4 -558 4q-4 -121 -4 -373q291 0 541 10v-258q-152 10 -541 10q0 -276 4 -411q416 0 621 10l-90 -252h-891zM227 1819l228 223l481 -307l-178 -166z" />
<glyph unicode="&#xc9;" horiz-adv-x="1165" d="M129 0q16 372 16 727q0 436 -16 778h918v-245q-135 4 -558 4q-4 -121 -4 -373q291 0 541 10v-258q-152 10 -541 10q0 -276 4 -411q416 0 621 10l-90 -252h-891zM283 1735l481 307l231 -223l-530 -250z" />
<glyph unicode="&#xca;" horiz-adv-x="1165" d="M129 0q16 372 16 727q0 436 -16 778h918v-245q-135 4 -558 4q-4 -121 -4 -373q291 0 541 10v-258q-152 10 -541 10q0 -276 4 -411q416 0 621 10l-90 -252h-891zM160 1735l428 307l428 -307l-115 -166l-319 186l-308 -186z" />
<glyph unicode="&#xcb;" horiz-adv-x="1165" d="M129 0q16 372 16 727q0 436 -16 778h918v-245q-135 4 -558 4q-4 -121 -4 -373q291 0 541 10v-258q-152 10 -541 10q0 -276 4 -411q416 0 621 10l-90 -252h-891zM233 1759q0 70 51 120t136 50q89 0 138.5 -49t49.5 -121t-49 -120t-139 -48q-85 0 -136 49t-51 119z M713 1759q0 72 48.5 121t137.5 49q85 0 135.5 -49.5t50.5 -120.5q0 -70 -50.5 -119t-135.5 -49q-89 0 -137.5 48t-48.5 120z" />
<glyph unicode="&#xcc;" horiz-adv-x="626" d="M-84 1819l227 223l484 -307l-181 -166zM129 0q16 372 16 727q0 436 -16 778h371q-15 -374 -15 -778q0 -309 15 -727h-371z" />
<glyph unicode="&#xcd;" horiz-adv-x="626" d="M20 1735l482 307l231 -223l-532 -250zM129 0q16 372 16 727q0 436 -16 778h371q-15 -374 -15 -778q0 -309 15 -727h-371z" />
<glyph unicode="&#xce;" horiz-adv-x="626" d="M-104 1735l428 307l428 -307l-115 -166l-320 186l-307 -186zM129 0q16 372 16 727q0 436 -16 778h371q-15 -374 -15 -778q0 -309 15 -727h-371z" />
<glyph unicode="&#xcf;" horiz-adv-x="626" d="M-109 1759q0 70 51 120t136 50q88 0 138 -49.5t50 -120.5t-50 -119.5t-138 -48.5q-85 0 -136 49t-51 119zM129 0q16 372 16 727q0 436 -16 778h371q-15 -374 -15 -778q0 -309 15 -727h-371zM371 1759q0 72 48.5 121t137.5 49q85 0 135.5 -49.5t50.5 -120.5 q0 -70 -50.5 -119t-135.5 -49q-89 0 -137.5 48t-48.5 120z" />
<glyph unicode="&#xd1;" horiz-adv-x="1601" d="M102 0q15 418 15 727q0 404 -15 778h396q348 -505 651 -1020q0 635 -21 1020h322q-18 -448 -18 -778q0 -309 18 -727h-342q-342 562 -702 1118q0 -608 18 -1118h-322zM385 1731q79 129 225 129q68 0 163.5 -33t135.5 -33q49 0 80 16t72 54l55 -156q-85 -129 -225 -129 q-71 0 -165.5 33t-133.5 33q-49 0 -80 -16t-72 -54z" />
<glyph unicode="&#xd2;" horiz-adv-x="1800" d="M78 731q0 170 60.5 318.5t168 254.5t261 167t333.5 61q186 0 340.5 -57t260.5 -157.5t164 -241.5t58 -306q0 -168 -61 -314.5t-168.5 -252t-261.5 -166t-332 -60.5q-249 0 -436.5 96.5t-287 267t-99.5 390.5zM469 754q0 -233 115.5 -383t316.5 -150q137 0 235.5 70 t146.5 189t48 274q0 235 -115.5 384.5t-314.5 149.5q-139 0 -238 -71t-146.5 -190t-47.5 -273zM498 1819l227 223l483 -307l-178 -166z" />
<glyph unicode="&#xd3;" horiz-adv-x="1800" d="M78 731q0 170 60.5 318.5t168 254.5t261 167t333.5 61q186 0 340.5 -57t260.5 -157.5t164 -241.5t58 -306q0 -168 -61 -314.5t-168.5 -252t-261.5 -166t-332 -60.5q-249 0 -436.5 96.5t-287 267t-99.5 390.5zM469 754q0 -233 115.5 -383t316.5 -150q137 0 235.5 70 t146.5 189t48 274q0 235 -115.5 384.5t-314.5 149.5q-139 0 -238 -71t-146.5 -190t-47.5 -273zM571 1735l482 307l231 -223l-532 -250z" />
<glyph unicode="&#xd4;" horiz-adv-x="1800" d="M78 731q0 170 60.5 318.5t168 254.5t261 167t333.5 61q186 0 340.5 -57t260.5 -157.5t164 -241.5t58 -306q0 -168 -61 -314.5t-168.5 -252t-261.5 -166t-332 -60.5q-249 0 -436.5 96.5t-287 267t-99.5 390.5zM463 1735l428 307l428 -307l-115 -166l-319 186l-307 -186z M469 754q0 -233 115.5 -383t316.5 -150q137 0 235.5 70t146.5 189t48 274q0 235 -115.5 384.5t-314.5 149.5q-139 0 -238 -71t-146.5 -190t-47.5 -273z" />
<glyph unicode="&#xd5;" horiz-adv-x="1800" d="M78 731q0 168 61 316t168 255t261 168.5t333 61.5q186 0 340.5 -57t260.5 -157.5t164 -241.5t58 -306q0 -166 -61.5 -313t-169 -252.5t-261.5 -166.5t-331 -61q-249 0 -436.5 96.5t-287 267t-99.5 390.5zM469 754q0 -149 49.5 -266t149 -186t233.5 -69q137 0 236 69 t147.5 185.5t48.5 266.5q0 227 -116.5 374.5t-315.5 147.5q-206 0 -319 -146.5t-113 -375.5zM530 1747q83 129 230 129q68 0 163.5 -32t135.5 -32q49 0 80 16t69 52l56 -154q-84 -131 -226 -131q-70 0 -164 33t-133 33q-49 0 -79 -16t-72 -54z" />
<glyph unicode="&#xd6;" horiz-adv-x="1800" d="M78 731q0 170 60.5 318.5t168 254.5t261 167t333.5 61q186 0 340.5 -57t260.5 -157.5t164 -241.5t58 -306q0 -168 -61 -314.5t-168.5 -252t-261.5 -166t-332 -60.5q-249 0 -436.5 96.5t-287 267t-99.5 390.5zM469 754q0 -233 115.5 -383t316.5 -150q137 0 235.5 70 t146.5 189t48 274q0 235 -115.5 384.5t-314.5 149.5q-139 0 -238 -71t-146.5 -190t-47.5 -273zM541 1759q0 71 50 120.5t136 49.5q88 0 138 -49.5t50 -120.5t-50 -119.5t-138 -48.5q-86 0 -136 48.5t-50 119.5zM1018 1759q0 72 49.5 121t138.5 49q85 0 136 -50t51 -120 t-51 -119t-136 -49q-90 0 -139 48t-49 120z" />
<glyph unicode="&#xd8;" horiz-adv-x="1800" d="M78 731q0 170 60.5 318.5t168 254.5t261 167t333.5 61q200 0 383 -74l117 166l133 -88l-109 -158q145 -101 222 -257t77 -351q0 -168 -61 -314.5t-168.5 -252t-261.5 -166t-332 -60.5q-231 0 -403 82l-117 -174l-131 90l108 166q-135 97 -207.5 249.5t-72.5 340.5z M461 754q0 -200 92 -340l569 815q-97 59 -221 59q-141 0 -242 -71t-149.5 -190t-48.5 -273zM662 291q94 -70 239 -70q139 0 239.5 70t149.5 189.5t49 273.5q0 205 -102 360z" />
<glyph unicode="&#xd9;" horiz-adv-x="1572" d="M129 1505h371q-15 -374 -15 -835q0 -124 22 -208.5t66.5 -134t105.5 -70.5t146 -21q76 0 131 19.5t99.5 67t67 134.5t22.5 213q0 386 -21 835h322q-19 -443 -19 -620q0 -61 4.5 -179t4.5 -171q0 -272 -172 -415t-473 -143q-304 0 -477 140t-173 413q0 60 2 176t2 179 q0 292 -16 620zM406 1819l227 223l483 -307l-180 -166z" />
<glyph unicode="&#xda;" horiz-adv-x="1572" d="M129 1505h371q-15 -374 -15 -835q0 -124 22 -208.5t66.5 -134t105.5 -70.5t146 -21q76 0 131 19.5t99.5 67t67 134.5t22.5 213q0 386 -21 835h322q-19 -443 -19 -620q0 -61 4.5 -179t4.5 -171q0 -272 -172 -415t-473 -143q-304 0 -477 140t-173 413q0 60 2 176t2 179 q0 292 -16 620zM498 1735l481 307l231 -223l-532 -250z" />
<glyph unicode="&#xdb;" horiz-adv-x="1572" d="M129 1505h371q-15 -374 -15 -835q0 -124 22 -208.5t66.5 -134t105.5 -70.5t146 -21q76 0 131 19.5t99.5 67t67 134.5t22.5 213q0 386 -21 835h322q-19 -443 -19 -620q0 -61 4.5 -179t4.5 -171q0 -272 -172 -415t-473 -143q-304 0 -477 140t-173 413q0 60 2 176t2 179 q0 292 -16 620zM360 1735l431 307l428 -307l-117 -166l-318 186l-307 -186z" />
<glyph unicode="&#xdc;" horiz-adv-x="1572" d="M129 1505h371q-15 -374 -15 -835q0 -124 22 -208.5t66.5 -134t105.5 -70.5t146 -21q76 0 131 19.5t99.5 67t67 134.5t22.5 213q0 386 -21 835h322q-19 -443 -19 -620q0 -61 4.5 -179t4.5 -171q0 -272 -172 -415t-473 -143q-304 0 -477 140t-173 413q0 60 2 176t2 179 q0 292 -16 620zM453 1759q0 71 50 120.5t136 49.5q88 0 138 -49.5t50 -120.5t-50 -119.5t-138 -48.5q-86 0 -136 48.5t-50 119.5zM930 1759q0 72 49.5 121t138.5 49q85 0 136 -50t51 -120t-51 -119t-136 -49q-90 0 -139 48t-49 120z" />
<glyph unicode="&#xdf;" horiz-adv-x="1329" d="M104 0q15 421 15 700q0 67 -3 200.5t-3 211.5q0 514 549 514q238 0 373.5 -85.5t135.5 -231.5q0 -97 -44 -166.5t-144 -136.5q-64 -42 -89.5 -71t-25.5 -61q0 -34 26 -60t99 -69q94 -55 153 -103.5t91 -101t43.5 -103t11.5 -120.5q0 -154 -108 -247t-275 -93 q-209 0 -331 48l49 219q111 -43 245 -43q63 0 97.5 28t34.5 72q0 41 -31.5 73.5t-114.5 78.5q-116 64 -177.5 118t-83.5 105.5t-22 124.5q0 88 42 153t159 146q57 39 80 74.5t23 87.5q0 56 -51.5 91.5t-143.5 35.5q-129 0 -184 -65.5t-58 -231.5q0 -52 -1 -165t-1 -159 q0 -365 19 -768h-355z" />
<glyph unicode="&#xe0;" horiz-adv-x="1271" d="M63 494q0 169 83 304.5t220.5 209t301.5 73.5q157 0 282 -39l209 58q-22 -287 -22 -545q0 -252 16 -555h-322l-20 170q-59 -96 -151 -144.5t-195 -48.5q-81 0 -153 33.5t-128 97t-88.5 163t-32.5 223.5zM252 1397l227 223l484 -307l-179 -166zM406 569q0 -172 58.5 -255 t156.5 -83q116 0 188 109q6 102 6 231q0 205 -6 279q-79 35 -150 35q-109 0 -181 -84t-72 -232z" />
<glyph unicode="&#xe1;" horiz-adv-x="1271" d="M63 494q0 169 83 304.5t220.5 209t301.5 73.5q157 0 282 -39l209 58q-22 -287 -22 -545q0 -252 16 -555h-322l-20 170q-59 -96 -151 -144.5t-195 -48.5q-81 0 -153 33.5t-128 97t-88.5 163t-32.5 223.5zM362 1313l482 307l231 -223l-530 -250zM406 569q0 -172 58.5 -255 t156.5 -83q116 0 188 109q6 102 6 231q0 205 -6 279q-79 35 -150 35q-109 0 -181 -84t-72 -232z" />
<glyph unicode="&#xe2;" horiz-adv-x="1271" d="M63 494q0 169 83 304.5t220.5 209t301.5 73.5q157 0 282 -39l209 58q-22 -287 -22 -545q0 -252 16 -555h-322l-20 170q-59 -96 -151 -144.5t-195 -48.5q-81 0 -153 33.5t-128 97t-88.5 163t-32.5 223.5zM201 1313l430 307l428 -307l-115 -166l-319 186l-308 -186z M406 569q0 -172 58.5 -255t156.5 -83q116 0 188 109q6 102 6 231q0 205 -6 279q-79 35 -150 35q-109 0 -181 -84t-72 -232z" />
<glyph unicode="&#xe3;" horiz-adv-x="1271" d="M68 494q0 168 83 304t219.5 209.5t295.5 73.5q178 0 286 -39l213 58q-24 -251 -24 -545q0 -296 16 -555h-323l-21 170q-59 -96 -150.5 -144.5t-195.5 -48.5q-80 0 -151.5 34t-127 97t-88 163t-32.5 223zM264 1339q83 129 230 129q67 0 161.5 -31.5t135.5 -31.5 q50 0 81.5 16.5t67.5 53.5l57 -156q-89 -129 -227 -129q-68 0 -162 31.5t-133 31.5q-51 0 -83.5 -16t-67.5 -53zM410 571q0 -175 57 -257.5t158 -82.5q117 0 186 109q6 102 6 231q0 205 -6 279q-72 35 -154 35q-105 0 -176 -84t-71 -230z" />
<glyph unicode="&#xe4;" horiz-adv-x="1271" d="M63 494q0 169 83 304.5t220.5 209t301.5 73.5q157 0 282 -39l209 58q-22 -287 -22 -545q0 -252 16 -555h-322l-20 170q-59 -96 -151 -144.5t-195 -48.5q-81 0 -153 33.5t-128 97t-88.5 163t-32.5 223.5zM268 1331q0 69 51.5 118.5t137.5 49.5q88 0 138 -49t50 -119 q0 -71 -50 -119.5t-138 -48.5q-86 0 -137.5 49t-51.5 119zM406 569q0 -172 58.5 -255t156.5 -83q116 0 188 109q6 102 6 231q0 205 -6 279q-79 35 -150 35q-109 0 -181 -84t-72 -232zM748 1331q0 70 49 119t137 49q86 0 137 -49.5t51 -118.5q0 -70 -51 -119t-137 -49 q-88 0 -137 48.5t-49 119.5z" />
<glyph unicode="&#xe5;" horiz-adv-x="1271" d="M63 494q0 169 83 304.5t220.5 209t301.5 73.5q157 0 282 -39l209 58q-22 -287 -22 -545q0 -252 16 -555h-322l-20 170q-59 -96 -151 -144.5t-195 -48.5q-81 0 -153 33.5t-128 97t-88.5 163t-32.5 223.5zM344 1423q0 104 78 175t211 71t212 -71t79 -175q0 -103 -79 -176 t-212 -73t-211 73t-78 176zM406 569q0 -172 58.5 -255t156.5 -83q116 0 188 109q6 102 6 231q0 205 -6 279q-79 35 -150 35q-109 0 -181 -84t-72 -232zM506 1423q0 -48 34 -80t93 -32q60 0 95.5 32.5t35.5 79.5t-35.5 79t-95.5 32q-59 0 -93 -31.5t-34 -79.5z" />
<glyph unicode="&#xe6;" horiz-adv-x="1863" d="M63 305q0 160 139 249t388 89q72 0 127 -6v61q-7 82 -55.5 118t-143.5 36q-188 0 -328 -90l-81 196q203 123 469 123q236 0 346 -116q142 116 344 116q224 0 359.5 -137t135.5 -385q0 -53 -4 -84h-721q15 -130 94.5 -192t223.5 -62q208 0 346 101l57 -213 q-95 -69 -207.5 -100.5t-261.5 -31.5q-150 0 -271 53t-196 152q-69 -95 -180 -150t-252 -55q-148 0 -238 87t-90 241zM360 342q0 -57 44.5 -88t123.5 -31q61 0 122 23.5t95 64.5q-23 61 -32 158q-31 6 -123 6q-113 0 -171.5 -35.5t-58.5 -97.5zM1036 659h408 q-18 228 -201 228q-92 0 -145.5 -62t-61.5 -166z" />
<glyph unicode="&#xe7;" horiz-adv-x="1009" d="M63 526q0 156 75.5 283t210 199.5t300.5 72.5q105 0 180 -13.5t152 -45.5l-72 -213q-109 45 -221 45q-137 0 -207.5 -76t-70.5 -225q0 -168 76 -250t214 -82q130 0 228 49l57 -198q-136 -89 -367 -95v-67q118 -12 183 -60.5t65 -128.5q0 -89 -68 -145.5t-177 -56.5 q-116 0 -201 32l29 125q79 -22 147 -22q44 0 64 13t20 42q0 75 -227 78q12 120 14 201q-176 32 -290 174.5t-114 363.5z" />
<glyph unicode="&#xe8;" horiz-adv-x="1179" d="M63 537q0 157 71.5 281.5t199 193.5t287.5 69q224 0 359.5 -137t135.5 -385q0 -53 -2 -84h-721q13 -130 91.5 -192t222.5 -62q207 0 348 101l59 -213q-97 -69 -209.5 -100.5t-261.5 -31.5q-169 0 -299 64t-205.5 192t-75.5 304zM211 1397l225 223l484 -307l-179 -166z M391 659h404q-15 230 -199 230q-91 0 -144 -62.5t-61 -167.5z" />
<glyph unicode="&#xe9;" horiz-adv-x="1179" d="M63 537q0 157 71.5 281.5t199 193.5t287.5 69q224 0 359.5 -137t135.5 -385q0 -53 -2 -84h-721q13 -130 91.5 -192t222.5 -62q207 0 348 101l59 -213q-97 -69 -209.5 -100.5t-261.5 -31.5q-169 0 -299 64t-205.5 192t-75.5 304zM293 1313l479 307l232 -223l-531 -250z M391 659h404q-15 230 -199 230q-91 0 -144 -62.5t-61 -167.5z" />
<glyph unicode="&#xea;" horiz-adv-x="1179" d="M63 537q0 157 71.5 281.5t199 193.5t287.5 69q224 0 359.5 -137t135.5 -385q0 -53 -2 -84h-721q13 -130 91.5 -192t222.5 -62q207 0 348 101l59 -213q-97 -69 -209.5 -100.5t-261.5 -31.5q-169 0 -299 64t-205.5 192t-75.5 304zM162 1313l428 307l428 -307l-115 -166 l-319 186l-308 -186zM391 659h404q-15 230 -199 230q-91 0 -144 -62.5t-61 -167.5z" />
<glyph unicode="&#xeb;" horiz-adv-x="1179" d="M63 537q0 157 71.5 281.5t199 193.5t287.5 69q224 0 359.5 -137t135.5 -385q0 -53 -2 -84h-721q13 -130 91.5 -192t222.5 -62q207 0 348 101l59 -213q-97 -69 -209.5 -100.5t-261.5 -31.5q-169 0 -299 64t-205.5 192t-75.5 304zM236 1331q0 69 51 118.5t135 49.5 q89 0 138.5 -49t49.5 -119q0 -72 -49 -120t-139 -48q-85 0 -135.5 49t-50.5 119zM391 659h404q-15 230 -199 230q-91 0 -144 -62.5t-61 -167.5zM715 1331q0 71 48.5 119.5t137.5 48.5q84 0 135 -49.5t51 -118.5q0 -70 -50.5 -119t-135.5 -49q-89 0 -137.5 48t-48.5 120z" />
<glyph unicode="&#xec;" horiz-adv-x="573" d="M-109 1397l226 223l483 -307l-178 -166zM109 0q16 315 16 516q0 254 -16 541h352q-17 -259 -17 -541q0 -237 17 -516h-352z" />
<glyph unicode="&#xed;" horiz-adv-x="573" d="M-27 1313l482 307l229 -223l-530 -250zM109 0q16 315 16 516q0 254 -16 541h352q-17 -259 -17 -541q0 -237 17 -516h-352z" />
<glyph unicode="&#xee;" horiz-adv-x="573" d="M-137 1313l430 307l428 -307l-117 -166l-319 186l-305 -186zM109 0q16 315 16 516q0 254 -16 541h352q-17 -259 -17 -541q0 -237 17 -516h-352z" />
<glyph unicode="&#xef;" horiz-adv-x="573" d="M-141 1331q0 69 51 118.5t137 49.5q88 0 138.5 -49t50.5 -119q0 -71 -50 -119.5t-139 -48.5q-86 0 -137 49t-51 119zM109 0q16 315 16 516q0 254 -16 541h352q-17 -259 -17 -541q0 -237 17 -516h-352zM338 1331q0 70 49 119t137 49q86 0 137.5 -49.5t51.5 -118.5 q0 -70 -51.5 -119t-137.5 -49q-88 0 -137 48.5t-49 119.5z" />
<glyph unicode="&#xf1;" horiz-adv-x="1241" d="M104 0q15 296 15 516q0 272 -15 541h330l21 -170q128 194 346 194q148 0 243 -103.5t95 -264.5q0 -64 -7.5 -174t-7.5 -183q0 -205 15 -356h-355q13 216 13 344q0 170 -9 299q-17 182 -147 182q-110 0 -182 -108q-13 -114 -13 -326q0 -193 13 -391h-355zM240 1339 q83 129 229 129q66 0 160 -31.5t135 -31.5q50 0 81.5 16t69.5 54l58 -156q-89 -129 -228 -129q-69 0 -164 31.5t-135 31.5q-49 0 -80.5 -16t-66.5 -53z" />
<glyph unicode="&#xf2;" horiz-adv-x="1288" d="M63 512q0 116 41.5 220t116 181.5t184.5 122.5t240 45q133 0 243 -41t184 -113.5t114.5 -172t40.5 -215.5q0 -115 -42 -217.5t-117 -179t-185 -121t-238 -44.5q-270 0 -426 148.5t-156 386.5zM252 1397l227 223l484 -307l-179 -166zM416 524q0 -152 58 -248t169 -96 q116 0 171.5 94t55.5 250q0 159 -56.5 254.5t-170.5 95.5q-113 0 -170 -96t-57 -254z" />
<glyph unicode="&#xf3;" horiz-adv-x="1288" d="M63 512q0 116 41.5 220t116 181.5t184.5 122.5t240 45q133 0 243 -41t184 -113.5t114.5 -172t40.5 -215.5q0 -115 -42 -217.5t-117 -179t-185 -121t-238 -44.5q-270 0 -426 148.5t-156 386.5zM324 1313l481 307l231 -223l-532 -250zM416 524q0 -152 58 -248t169 -96 q116 0 171.5 94t55.5 250q0 159 -56.5 254.5t-170.5 95.5q-113 0 -170 -96t-57 -254z" />
<glyph unicode="&#xf4;" horiz-adv-x="1288" d="M63 512q0 116 41.5 220t116 181.5t184.5 122.5t240 45q133 0 243 -41t184 -113.5t114.5 -172t40.5 -215.5q0 -115 -42 -217.5t-117 -179t-185 -121t-238 -44.5q-270 0 -426 148.5t-156 386.5zM201 1313l430 307l428 -307l-115 -166l-319 186l-308 -186zM416 524 q0 -152 58 -248t169 -96q116 0 171.5 94t55.5 250q0 159 -56.5 254.5t-170.5 95.5q-113 0 -170 -96t-57 -254z" />
<glyph unicode="&#xf5;" horiz-adv-x="1288" d="M63 512q0 156 70.5 285t204.5 206.5t305 77.5q133 0 243.5 -41t184.5 -113.5t115 -172t41 -215.5q0 -115 -42.5 -217.5t-117 -179t-185 -121t-239.5 -44.5q-269 0 -424.5 148.5t-155.5 386.5zM258 1339q83 129 229 129q65 0 160 -31.5t137 -31.5q49 0 82 16.5t68 53.5 l57 -156q-89 -129 -227 -129q-68 0 -162 31.5t-133 31.5q-51 0 -84 -16.5t-68 -52.5zM414 524q0 -152 58 -247t169 -95q116 0 171.5 93t55.5 249q0 158 -57 253t-170 95t-170 -95t-57 -253z" />
<glyph unicode="&#xf6;" horiz-adv-x="1288" d="M63 512q0 116 41.5 220t116 181.5t184.5 122.5t240 45q133 0 243 -41t184 -113.5t114.5 -172t40.5 -215.5q0 -115 -42 -217.5t-117 -179t-185 -121t-238 -44.5q-270 0 -426 148.5t-156 386.5zM260 1331q0 69 51 118.5t135 49.5q90 0 140.5 -49t50.5 -119 q0 -71 -50.5 -119.5t-140.5 -48.5q-85 0 -135.5 49t-50.5 119zM416 524q0 -152 58 -248t169 -96q116 0 171.5 94t55.5 250q0 159 -56.5 254.5t-170.5 95.5q-113 0 -170 -96t-57 -254zM739 1331q0 70 49.5 119t137.5 49q86 0 137 -49.5t51 -118.5q0 -70 -51 -119t-137 -49 q-88 0 -137.5 48.5t-49.5 119.5z" />
<glyph unicode="&#xf8;" horiz-adv-x="1288" d="M63 512q0 116 41.5 220t116 181.5t184.5 122.5t240 45q138 0 254 -49l102 146l125 -82l-94 -138q94 -72 144.5 -180.5t50.5 -238.5q0 -115 -42 -217.5t-117 -179t-185 -121t-238 -44.5q-163 0 -270 48l-99 -138l-120 82l94 129q-91 72 -139 179t-48 235zM410 524 q0 -80 26 -153l328 469q-51 39 -123 39q-114 0 -172.5 -98t-58.5 -257zM512 223q55 -49 129 -49q118 0 175.5 96t57.5 254q0 98 -30 166z" />
<glyph unicode="&#xf9;" horiz-adv-x="1241" d="M100 1057h355q-15 -200 -15 -348q0 -177 9 -303q14 -175 151 -175q105 0 180 109q8 115 8 328q0 189 -8 389h353q-17 -269 -17 -506q0 -255 17 -551h-328l-21 170q-124 -193 -346 -193q-148 0 -242 103t-94 270q0 71 4.5 178.5t4.5 169.5q0 210 -11 359zM199 1397 l227 223l483 -307l-178 -166z" />
<glyph unicode="&#xfa;" horiz-adv-x="1241" d="M100 1057h355q-15 -200 -15 -348q0 -177 9 -303q14 -175 151 -175q105 0 180 109q8 115 8 328q0 189 -8 389h353q-17 -269 -17 -506q0 -255 17 -551h-328l-21 170q-124 -193 -346 -193q-148 0 -242 103t-94 270q0 71 4.5 178.5t4.5 169.5q0 210 -11 359zM324 1313 l481 307l231 -223l-532 -250z" />
<glyph unicode="&#xfb;" horiz-adv-x="1241" d="M100 1057h355q-15 -200 -15 -348q0 -177 9 -303q14 -175 151 -175q105 0 180 109q8 115 8 328q0 189 -8 389h353q-17 -269 -17 -506q0 -255 17 -551h-328l-21 170q-124 -193 -346 -193q-148 0 -242 103t-94 270q0 71 4.5 178.5t4.5 169.5q0 210 -11 359zM186 1313 l430 307l428 -307l-116 -166l-320 186l-305 -186z" />
<glyph unicode="&#xfc;" horiz-adv-x="1241" d="M100 1057h355q-15 -200 -15 -348q0 -177 9 -303q14 -175 151 -175q105 0 180 109q8 115 8 328q0 189 -8 389h353q-17 -269 -17 -506q0 -255 17 -551h-328l-21 170q-124 -193 -346 -193q-148 0 -242 103t-94 270q0 71 4.5 178.5t4.5 169.5q0 210 -11 359zM256 1331 q0 69 51 118.5t135 49.5q90 0 140.5 -49t50.5 -119q0 -71 -50.5 -119.5t-140.5 -48.5q-85 0 -135.5 49t-50.5 119zM735 1331q0 70 49.5 119t137.5 49q86 0 137 -49.5t51 -118.5q0 -70 -51 -119t-137 -49q-88 0 -137.5 48.5t-49.5 119.5z" />
<glyph unicode="&#xff;" horiz-adv-x="1196" d="M4 1057h371q65 -172 137.5 -406.5t110.5 -402.5q94 408 223 809h340q-126 -286 -395 -1061q-78 -224 -199 -335t-338 -171l-80 199q143 51 217 122.5t111 194.5h-74q-181 557 -424 1051zM197 1331q0 69 51 118.5t137 49.5q88 0 138 -49t50 -119q0 -71 -50 -119.5 t-138 -48.5q-86 0 -137 49t-51 119zM676 1331q0 70 49.5 119t138.5 49q85 0 136 -49.5t51 -118.5q0 -70 -51 -119t-136 -49q-90 0 -139 48t-49 120z" />
<glyph unicode="&#x152;" horiz-adv-x="2172" d="M78 731q0 168 61 316t168 255t261 168.5t333 61.5q160 0 283 -27h870v-245q-135 4 -557 4q-6 -182 -6 -373q298 0 543 10v-258q-152 10 -543 10q0 -209 6 -411q418 0 623 10l-90 -252h-871q-118 -23 -258 -23q-249 0 -436.5 96.5t-287 267t-99.5 390.5zM469 754 q0 -233 115.5 -383t316.5 -150q154 0 246 51q6 103 6 455q0 348 -6 502q-100 59 -246 59q-139 0 -238 -71t-146.5 -190t-47.5 -273z" />
<glyph unicode="&#x153;" horiz-adv-x="1994" d="M63 512q0 116 41.5 220t116 181.5t184.5 122.5t240 45q256 0 404 -155q165 155 389 155q222 0 357.5 -137t135.5 -385q0 -53 -2 -84h-721q13 -131 91.5 -192.5t224.5 -61.5q208 0 346 101l59 -213q-97 -69 -209 -100.5t-262 -31.5q-278 0 -418 162q-146 -162 -395 -162 q-270 0 -426 148.5t-156 386.5zM416 524q0 -152 57.5 -248t167.5 -96q116 0 171.5 94t55.5 250q0 160 -56 255t-171 95q-112 0 -168.5 -95.5t-56.5 -254.5zM1206 659h406q-15 228 -201 228q-92 0 -145.5 -62t-59.5 -166z" />
<glyph unicode="&#x178;" horiz-adv-x="1527" d="M6 1505h434q204 -357 342 -624q99 198 338 624h404q-292 -391 -604 -862q3 -309 14 -643h-369q15 363 15 643q-196 327 -574 862zM362 1759q0 71 51.5 120.5t137.5 49.5q88 0 138 -49.5t50 -120.5t-50 -119.5t-138 -48.5q-86 0 -137.5 49t-51.5 119zM842 1759 q0 72 49.5 121t138.5 49q85 0 136 -50t51 -120t-51 -119t-136 -49q-90 0 -139 48t-49 120z" />
<glyph unicode="&#x2c6;" horiz-adv-x="835" d="M-2 1313l428 307l428 -307l-115 -166l-319 186l-307 -186z" />
<glyph unicode="&#x2dc;" horiz-adv-x="839" d="M61 1339q78 129 228 129q67 0 161.5 -31.5t135.5 -31.5q50 0 80.5 16t70.5 54l56 -156q-85 -129 -226 -129q-71 0 -165.5 31.5t-133.5 31.5q-50 0 -80.5 -15.5t-70.5 -53.5z" />
<glyph unicode="&#x2000;" horiz-adv-x="1021" />
<glyph unicode="&#x2001;" horiz-adv-x="2042" />
<glyph unicode="&#x2002;" horiz-adv-x="1021" />
<glyph unicode="&#x2003;" horiz-adv-x="2042" />
<glyph unicode="&#x2004;" horiz-adv-x="680" />
<glyph unicode="&#x2005;" horiz-adv-x="510" />
<glyph unicode="&#x2006;" horiz-adv-x="340" />
<glyph unicode="&#x2007;" horiz-adv-x="340" />
<glyph unicode="&#x2008;" horiz-adv-x="255" />
<glyph unicode="&#x2009;" horiz-adv-x="408" />
<glyph unicode="&#x200a;" horiz-adv-x="113" />
<glyph unicode="&#x2010;" horiz-adv-x="866" d="M80 422v297q135 -2 350 -2q223 0 356 2v-297q-262 4 -352 4q-76 0 -354 -4z" />
<glyph unicode="&#x2011;" horiz-adv-x="866" d="M80 422v297q135 -2 350 -2q223 0 356 2v-297q-262 4 -352 4q-76 0 -354 -4z" />
<glyph unicode="&#x2012;" horiz-adv-x="866" d="M80 422v297q135 -2 350 -2q223 0 356 2v-297q-262 4 -352 4q-76 0 -354 -4z" />
<glyph unicode="&#x2013;" horiz-adv-x="1654" d="M78 442v256q445 -10 729 -10q134 0 326.5 2.5t318.5 5.5l125 2v-256q-470 11 -770 11q-127 0 -309 -2.5t-301 -5.5z" />
<glyph unicode="&#x2014;" horiz-adv-x="2390" d="M78 442v256q673 -10 1098 -10q197 0 481.5 2.5t470.5 5.5l186 2v-256q-702 11 -1143 11q-190 0 -463.5 -2.5t-451.5 -5.5z" />
<glyph unicode="&#x2018;" horiz-adv-x="563" d="M68 1126q0 130 82.5 236.5t257.5 196.5l92 -113q-86 -50 -127.5 -97.5t-50.5 -101.5q75 -7 121 -58.5t46 -123.5q0 -78 -56.5 -132t-151.5 -54q-97 0 -155 69.5t-58 177.5z" />
<glyph unicode="&#x2019;" horiz-adv-x="563" d="M59 969q160 88 179 196q-75 7 -122.5 59t-47.5 122q0 79 56.5 132.5t147.5 53.5q101 0 159 -69t58 -179q0 -130 -81.5 -234.5t-255.5 -193.5z" />
<glyph unicode="&#x201a;" horiz-adv-x="563" d="M59 -219q161 92 179 203q-75 6 -122.5 57t-47.5 121q0 79 56.5 132.5t147.5 53.5q101 0 159 -69t58 -179q0 -131 -81 -234t-256 -194z" />
<glyph unicode="&#x201c;" horiz-adv-x="1054" d="M68 1126q0 130 82.5 236.5t257.5 196.5l92 -113q-86 -50 -127.5 -97.5t-50.5 -101.5q75 -7 121 -58.5t46 -123.5q0 -78 -56.5 -132t-151.5 -54q-97 0 -155 69.5t-58 177.5zM561 1126q0 130 82.5 236.5t255.5 196.5l94 -113q-86 -49 -127.5 -96.5t-52.5 -102.5 q76 -7 122 -58.5t46 -123.5q0 -78 -57 -132t-150 -54q-98 0 -155.5 69.5t-57.5 177.5z" />
<glyph unicode="&#x201d;" horiz-adv-x="1054" d="M59 969q160 88 179 196q-75 7 -122.5 59t-47.5 122q0 79 56.5 132.5t147.5 53.5q101 0 159 -69t58 -179q0 -130 -81.5 -234.5t-255.5 -193.5zM551 969q159 86 178 196q-76 7 -122 58.5t-46 122.5q0 79 56.5 132.5t148.5 53.5q99 0 157 -69t58 -179q0 -130 -82 -234.5 t-256 -193.5z" />
<glyph unicode="&#x201e;" horiz-adv-x="1054" d="M59 -219q161 92 179 203q-75 6 -122.5 57t-47.5 121q0 79 56.5 132.5t147.5 53.5q101 0 159 -69t58 -179q0 -131 -81 -234t-256 -194zM551 -219q159 90 178 203q-76 6 -122 56.5t-46 121.5q0 79 56.5 132.5t148.5 53.5q99 0 157 -69t58 -179q0 -131 -81.5 -234 t-256.5 -194z" />
<glyph unicode="&#x2022;" horiz-adv-x="1128" d="M82 770q0 87 32.5 164.5t93 137t153.5 94t206 34.5q148 0 259 -60t166 -156.5t55 -213.5q0 -180 -129.5 -305t-350.5 -125q-113 0 -206.5 35t-153.5 94.5t-92.5 136.5t-32.5 164z" />
<glyph unicode="&#x2026;" horiz-adv-x="1683" d="M66 164q0 80 56 134t152 54q100 0 157.5 -54t57.5 -134q0 -78 -57.5 -132.5t-157.5 -54.5q-96 0 -152 55t-56 132zM623 164q0 80 58 134t157 54t155 -54t56 -134q0 -78 -56.5 -132.5t-154.5 -54.5q-99 0 -157 55t-58 132zM1184 164q0 80 58 134t157 54q98 0 155.5 -54 t57.5 -134q0 -77 -58 -132t-155 -55q-99 0 -157 55t-58 132z" />
<glyph unicode="&#x202f;" horiz-adv-x="408" />
<glyph unicode="&#x2039;" horiz-adv-x="694" d="M20 545l472 514l184 -125l-285 -385l285 -389l-187 -129z" />
<glyph unicode="&#x203a;" horiz-adv-x="694" d="M18 158l289 387l-289 389l185 125l469 -514l-469 -514z" />
<glyph unicode="&#x205f;" horiz-adv-x="510" />
<glyph unicode="&#x2122;" horiz-adv-x="2295" d="M66 1341l53 164h813v-159q-84 4 -307 4q-4 -196 -4 -279q0 -253 12 -469h-260q14 210 14 469q0 91 -4 279q-164 0 -317 -9zM944 602q70 492 86 903h318q157 -387 235 -665q143 417 252 665h305q6 -431 53 -903h-249q0 349 -21 672q-169 -407 -254 -672h-221 q-109 363 -240 672q-36 -338 -53 -672h-211z" />
<glyph unicode="&#xe000;" horiz-adv-x="1054" d="M0 0v1055h1055v-1055h-1055z" />
<glyph unicode="&#xfb01;" horiz-adv-x="1357" d="M14 825v232h170q-6 61 -6 153q0 189 117 302.5t307 113.5q130 0 221 -31l-57 -206q-34 12 -96 12q-79 0 -119 -58q-27 -36 -36 -93t-9 -193h268v-232h-268q0 -432 14 -825h-350q14 393 14 825h-170zM866 1393q0 76 54.5 128t150.5 52t150.5 -52t54.5 -128 q0 -78 -54.5 -130.5t-150.5 -52.5t-150.5 52.5t-54.5 130.5zM895 0q14 230 14 516q0 326 -14 541h350q-14 -249 -14 -541q0 -240 14 -516h-350z" />
<glyph unicode="&#xfb02;" horiz-adv-x="1357" d="M14 825v232h170q-6 61 -6 153q0 189 117 302.5t307 113.5q130 0 221 -31l-57 -206q-34 12 -96 12q-79 0 -119 -58q-27 -36 -36 -93t-9 -193h268v-232h-268q0 -432 14 -825h-350q14 393 14 825h-170zM895 0q14 349 14 774q0 511 -14 830h350q-14 -372 -14 -830 q0 -355 14 -774h-350z" />
</font>
</defs>
</svg>
