<?xml version="1.0" standalone="no"?>
<!DOCTYPE svg PUBLIC "-//W3C//DTD SVG 1.1//EN" "http://www.w3.org/Graphics/SVG/1.1/DTD/svg11.dtd" >
<svg xmlns="http://www.w3.org/2000/svg" xmlns:xlink="http://www.w3.org/1999/xlink" version="1.1">
<metadata></metadata>
<defs>
<font id="seconda_softlight" horiz-adv-x="1078" >
<font-face units-per-em="2048" ascent="1569" descent="-479" />
<missing-glyph horiz-adv-x="522" />
<glyph unicode="&#xfb01;" horiz-adv-x="1131" d="M53 952v7q0 28 10 37.5t38 9.5h128v169q0 165 78.5 255t229.5 90q59 0 110 -24q30 -14 30 -35q0 -1 -5 -24l-2 -7q-8 -28 -27 -28q-3 0 -21 4q-39 12 -75 12q-49 0 -83.5 -15t-53 -43t-26 -61t-7.5 -76v-217h535q32 0 43 -11t11 -43v-898q0 -32 -11 -43t-43 -11h-42 q-32 0 -43 11t-11 43v850h-439v-850q0 -32 -11.5 -43t-42.5 -11h-40q-31 0 -42.5 11t-11.5 43v850h-128q-28 0 -38 10t-10 38zM788 1290q0 43 30 72t73 29t72 -29t29 -72t-29 -72.5t-72 -29.5t-73 29.5t-30 72.5z" />
<glyph unicode="&#xfb02;" horiz-adv-x="1181" d="M52 952v7q0 27 10.5 37t38.5 10h128v169q0 165 78.5 255t229.5 90q65 0 144 -17t134 -39q0 20 7.5 27t26.5 7h60q31 0 42.5 -11t11.5 -43v-1108q0 -40 1 -65.5t5 -57t13 -51t23 -38.5t37 -30.5t54 -17.5q26 -5 35 -14t9 -34v-6q0 -26 -9.5 -35.5t-34.5 -8.5 q-153 9 -217 95.5t-64 281.5v1012q-147 51 -244 51q-58 0 -97.5 -15t-60 -43.5t-28.5 -61t-8 -75.5v-217h178q28 0 38 -9.5t10 -37.5v-7q0 -28 -10 -38t-38 -10h-178v-850q0 -32 -11.5 -43t-42.5 -11h-40q-31 0 -42.5 11t-11.5 43v850h-128q-28 0 -38.5 10t-10.5 38z" />
<glyph unicode="&#xfb03;" horiz-adv-x="1776" d="M52 952v7q0 27 10.5 37t38.5 10h127v169q0 165 78.5 255t229.5 90q60 0 109 -24q29 -14 29 -35q0 -6 -4 -24l-2 -7q-7 -28 -26 -28q-7 0 -22 5q-35 11 -74 11q-49 0 -83.5 -15t-53 -43t-26 -61t-7.5 -76v-217h498v169q0 165 78.5 255t229.5 90q59 0 110 -24 q30 -14 30 -35q0 -1 -5 -24l-1 -7q-7 -28 -27 -28q-3 0 -21 4q-39 12 -76 12q-94 0 -131.5 -52.5t-37.5 -142.5v-217h534q31 0 42.5 -11t11.5 -43v-898q0 -32 -11.5 -43t-42.5 -11h-42q-31 0 -42.5 11t-11.5 43v850h-438v-850q0 -32 -11.5 -43t-42.5 -11h-41q-32 0 -43 11 t-11 43v850h-498v-850q0 -32 -11 -43t-43 -11h-40q-32 0 -43 11t-11 43v850h-127q-28 0 -38.5 10t-10.5 38zM1433 1290q0 43 30 72t73 29t72 -29t29 -72t-29 -72.5t-72 -29.5t-73 29.5t-30 72.5z" />
<glyph unicode="&#xfb04;" horiz-adv-x="1828" d="M53 952v7q0 28 10 37.5t38 9.5h128v169q0 165 78.5 255t229.5 90q59 0 108 -24q30 -14 30 -35q0 -1 -5 -24l-1 -7q-7 -28 -26 -28q-7 0 -22 5q-35 11 -75 11q-94 0 -131.5 -52.5t-37.5 -142.5v-217h498v169q0 165 78.5 255t229.5 90q65 0 144 -17t134 -39q0 20 7.5 27 t26.5 7h60q31 0 42.5 -11t11.5 -43v-1108q0 -40 1 -65.5t5.5 -56.5t13 -51t23 -39t37.5 -30.5t54 -17.5q25 -5 34 -14t9 -34v-6q0 -26 -9 -35.5t-34 -8.5q-153 9 -217.5 95.5t-64.5 281.5v1012q-147 51 -244 51q-58 0 -97.5 -15t-60 -43.5t-28.5 -61t-8 -75.5v-217h178 q28 0 38 -9.5t10 -37.5v-7q0 -28 -10 -38t-38 -10h-178v-850q0 -32 -11.5 -43t-42.5 -11h-40q-31 0 -42.5 11t-11.5 43v850h-498v-850q0 -32 -11.5 -43t-42.5 -11h-40q-31 0 -42.5 11t-11.5 43v850h-128q-28 0 -38 10t-10 38z" />
<glyph horiz-adv-x="0" />
<glyph horiz-adv-x="682" />
<glyph unicode=" "  horiz-adv-x="522" />
<glyph unicode="&#x09;" horiz-adv-x="522" />
<glyph unicode="&#xa0;" horiz-adv-x="522" />
<glyph unicode="!" horiz-adv-x="529" d="M163 91q0 42 29.5 70.5t72.5 28.5t72.5 -28.5t29.5 -70.5q0 -43 -29.5 -72.5t-72.5 -29.5t-72.5 29.5t-29.5 72.5zM183 1392q0 35 12.5 48t47.5 13h44q35 0 48 -13t12 -48l-2 -111q-5 -454 -33 -865q-1 -24 -10.5 -32.5t-33.5 -8.5h-6q-25 0 -34 8t-10 33 q-32 464 -34 865z" />
<glyph unicode="&#x22;" horiz-adv-x="652" d="M97 1440q-5 38 20.5 59t59.5 21t59.5 -21t20.5 -59l-46 -354q-2 -17 -8.5 -22.5t-22.5 -5.5h-6q-16 0 -22.5 5.5t-8.5 22.5zM396 1440q0 39 23.5 59.5t56.5 20.5q34 0 59 -21t20 -59l-45 -354q-2 -17 -8.5 -22.5t-22.5 -5.5h-6q-17 0 -24 6t-8 22l-40 321q-1 5 -2 13 t-2 13t-1 7z" />
<glyph unicode="#" horiz-adv-x="1174" d="M87 468v58q0 19 7.5 26.5t27.5 7.5h187l46 334h-179q-20 0 -27.5 7.5t-7.5 26.5v58q0 20 7.5 27.5t27.5 7.5h195l56 398q3 20 10.5 27t28.5 7h59q20 0 26.5 -7.5t3.5 -26.5l-56 -398h274l55 398q3 20 11 27t29 7h59q20 0 26 -7.5t3 -26.5l-55 -398h152q19 0 27 -7.5 t8 -27.5v-58q0 -19 -7.5 -26.5t-27.5 -7.5h-168l-46 -334h156q19 0 26.5 -7t7.5 -27v-58q0 -20 -7.5 -27t-26.5 -7h-175l-55 -400q-3 -20 -10.5 -27t-28.5 -7h-59q-20 0 -26.5 7.5t-3.5 26.5l55 400h-273l-56 -400q-3 -20 -10.5 -27t-28.5 -7h-60q-19 0 -25.5 7.5t-3.5 26.5 l56 400h-169q-20 0 -27.5 7.5t-7.5 26.5zM437 560h273l46 334h-272z" />
<glyph unicode="$" horiz-adv-x="1141" d="M84 289q0 21 33 37l5 3q18 9 28 9q18 0 34 -30q118 -216 365 -216q67 0 126 14t109 43t79 80.5t29 120.5q0 51 -14 89.5t-42.5 70.5t-81 59t-121 51t-170.5 51q-343 93 -343 379q0 87 32 156t89 114.5t129 72t157 33.5v144q0 31 11.5 42t42.5 11h6q31 0 42.5 -11 t11.5 -42v-144q122 -12 218 -79.5t144 -173.5q8 -18 8 -28q0 -19 -31 -37l-5 -3q-17 -9 -28 -9q-17 0 -33 28q-49 86 -130 138.5t-186 52.5q-51 0 -96 -8t-86 -26t-70.5 -45.5t-47 -69t-17.5 -93.5q0 -45 14.5 -82t36.5 -62.5t56 -47t66.5 -35t74.5 -26.5q24 -7 71.5 -21 t74.5 -22t71.5 -23t71 -27.5t63 -33t59 -41.5t47.5 -50t38.5 -61.5t22.5 -74t9 -89.5q0 -178 -118.5 -280t-309.5 -120v-145q0 -31 -11.5 -42.5t-43.5 -11.5h-6q-32 0 -43.5 11.5t-11.5 42.5v142q-158 9 -262.5 88t-158.5 199q-8 16 -8 28z" />
<glyph unicode="%" horiz-adv-x="1659" d="M79 1037q0 64 9 121.5t31.5 114.5t57 98.5t90 67t126.5 25.5q82 0 143.5 -36.5t96 -98.5t51 -134t16.5 -154q0 -85 -15 -157.5t-48 -137t-96 -101.5t-150 -37q-72 0 -127.5 25.5t-89.5 66.5t-56 98.5t-30.5 115.5t-8.5 123zM205 1038q0 -345 187 -345q50 0 86 25.5 t54 60.5t28.5 88t12.5 90t2 85q0 336 -184 336q-186 0 -186 -340zM333 -41q0 7 6 18l846 1498q11 19 20 24.5t31 5.5h62q24 0 24 -12q0 -7 -6 -18l-847 -1498q-11 -19 -20 -24.5t-31 -5.5h-61q-24 0 -24 12zM960 417q0 64 9 122t32 115t57.5 98t90 66.5t125.5 25.5 q66 0 119 -24t87.5 -64.5t58 -96t33.5 -114.5t10 -124q0 -67 -9 -126.5t-31 -116.5t-56.5 -98t-89.5 -66t-125 -25q-88 0 -151.5 37.5t-97 101.5t-48 135t-14.5 154zM1086 418q0 -344 187 -344q36 0 65 13.5t48 34t32.5 52t20.5 60t11 66.5t5 63.5t1 58.5q0 337 -183 337 q-187 0 -187 -341z" />
<glyph unicode="&#x26;" horiz-adv-x="1396" d="M87 394q0 82 28.5 151t80.5 119.5t110.5 87t132.5 67.5q-147 178 -147 330q0 149 105 237.5t257 88.5q137 0 233 -77.5t96 -218.5q0 -49 -13.5 -92.5t-40 -78.5t-56 -63.5t-72 -55.5t-76 -44.5t-79.5 -39.5q148 -183 370 -419q69 132 97 231q8 29 20 38t41 9h6 q40 0 40 -26q0 -9 -3 -21q-47 -175 -127 -314q106 -118 253 -261q18 -18 18 -28q0 -14 -35 -14h-94q-40 0 -58 7t-46 35q-63 61 -129 135q-83 -96 -194 -148t-237 -52q-92 0 -177 27.5t-153.5 78t-109.5 131.5t-41 180zM243 416q0 -139 99 -233t240 -94q57 0 109 15 t95.5 43.5t72.5 53t63 58.5q-236 244 -416 477q-263 -119 -263 -320zM449 1180q0 -58 36 -141.5t94 -153.5q45 20 74.5 35t69 42.5t63 55.5t40.5 70t17 91q0 84 -53 139t-138 55q-81 0 -142 -52t-61 -141z" />
<glyph unicode="'" horiz-adv-x="353" d="M97 1440q0 39 24 59.5t57 20.5q34 0 59 -21t20 -59l-46 -354q-2 -17 -8.5 -22.5t-22.5 -5.5h-6q-16 0 -22.5 5.5t-8.5 22.5l-41 321q-1 5 -2 13t-2 13t-1 7z" />
<glyph unicode="(" horiz-adv-x="591" d="M106 581q0 238 79 482.5t215 418.5q21 25 37 25q13 0 29 -8l5 -2q27 -12 27 -27q0 -10 -9 -25q-102 -182 -158.5 -403.5t-56.5 -460.5q0 -217 56 -456t158 -415q9 -15 9 -25q0 -14 -26 -25l-6 -2q-24 -8 -28 -8q-17 0 -36 25q-133 171 -214 423t-81 483z" />
<glyph unicode=")" horiz-adv-x="591" d="M93 1471q0 16 26 26l6 2q19 8 29 8q18 0 36 -24q137 -174 216 -419t79 -483q0 -233 -81 -484.5t-215 -422.5q-17 -22 -35 -22q-11 0 -29 6l-5 2q-26 9 -26 24q0 10 9 25q102 175 157.5 414.5t55.5 457.5q0 239 -56.5 460.5t-157.5 403.5q-9 15 -9 26z" />
<glyph unicode="*" horiz-adv-x="948" d="M90 1088v45q0 17 6 23t23 6h266l-134 230q-7 12 -7 18q0 10 17 20l41 23q12 7 18 7q10 0 20 -17l134 -230l132 230q10 17 20 17q7 0 19 -7l41 -23q17 -10 17 -20q0 -7 -7 -19l-133 -229h266q17 0 23 -6t6 -23v-45q0 -17 -6 -23t-23 -6h-266l133 -230q7 -12 7 -19 q0 -10 -17 -20l-41 -24q-12 -7 -19 -7q-10 0 -20 18l-132 231l-134 -231q-11 -18 -20 -18q-6 0 -18 7l-41 24q-17 10 -17 20q0 6 7 18l134 231h-266q-17 0 -23 6t-6 23z" />
<glyph unicode="+" horiz-adv-x="1192" d="M80 576v69q0 23 8.5 31.5t31.5 8.5h399v400q0 23 8.5 31.5t31.5 8.5h73q23 0 31.5 -8.5t8.5 -31.5v-400h400q23 0 31.5 -8.5t8.5 -31.5v-69q0 -23 -8.5 -31.5t-31.5 -8.5h-400v-402q0 -23 -8.5 -31.5t-31.5 -8.5h-73q-23 0 -31.5 8.5t-8.5 31.5v402h-399q-23 0 -31.5 8.5 t-8.5 31.5z" />
<glyph unicode="," horiz-adv-x="457" d="M100 -270q0 8 6 21q65 140 83 245q-28 12 -45.5 37.5t-17.5 56.5q0 42 30 71t73 29q44 0 72.5 -32t28.5 -86q0 -45 -28.5 -115t-111.5 -218q-11 -20 -21.5 -25t-35.5 -3h-6q-27 3 -27 19z" />
<glyph unicode="-" horiz-adv-x="797" d="M144 516v72q0 19 7.5 26.5t27.5 7.5h440q19 0 26.5 -7t7.5 -27v-72q0 -20 -7.5 -27t-26.5 -7h-440q-20 0 -27.5 7.5t-7.5 26.5z" />
<glyph unicode="." horiz-adv-x="456" d="M126 91q0 42 30 71t73 29t72 -29t29 -71q0 -43 -29 -72.5t-72 -29.5t-73 29.5t-30 72.5z" />
<glyph unicode="/" horiz-adv-x="876" d="M69 -148l5 18l562 1595q8 23 18 30.5t35 7.5h70q31 0 31 -19q0 -5 -4 -19l-562 -1595q-8 -23 -18 -30t-35 -7h-71q-31 0 -31 19z" />
<glyph unicode="0" horiz-adv-x="1278" d="M123 702q0 109 14.5 207t52 195t95 167t150 113.5t209.5 43.5q110 0 198.5 -41.5t146 -110t96 -163t55 -195t16.5 -210.5q0 -115 -14.5 -215.5t-51 -198t-93.5 -166.5t-148.5 -111.5t-208.5 -42.5q-119 0 -211 43t-148.5 113t-93 167t-50.5 195.5t-14 209.5zM287 704 q0 -625 355 -625q69 0 124 24t91 61t62 94t39.5 109.5t21.5 121.5t9.5 115.5t1.5 105.5q0 55 -2.5 103.5t-11 113t-23.5 117t-41.5 106t-62 90t-89 59.5t-119.5 23q-355 0 -355 -618z" />
<glyph unicode="1" horiz-adv-x="735" d="M39 1097q0 14 25 32l359 252q20 14 30.5 17.5t34.5 3.5h7q21 0 28.5 -8t7.5 -29v-1305q0 -35 -12.5 -47.5t-47.5 -12.5h-41q-35 0 -47.5 12.5t-12.5 47.5v1141l-254 -154q-19 -11 -29 -11q-17 0 -33 26l-3 5q-12 21 -12 30z" />
<glyph unicode="2" horiz-adv-x="1144" d="M95 55v6q0 36 6 51.5t31 41.5l517 542q91 94 117 129q70 95 70 207q0 125 -81.5 206.5t-205.5 81.5q-111 0 -199 -69t-128 -173q-9 -25 -20.5 -32t-37.5 -4l-6 1q-38 4 -38 30q0 11 2 18q41 169 158.5 253t287.5 84q121 0 219 -44t158 -133.5t60 -209.5q0 -55 -13 -105 t-30.5 -86t-51 -78t-58.5 -66.5t-71 -69t-70 -69.5l-429 -444h710q34 0 46.5 -12t12.5 -46v-7q0 -34 -12.5 -46t-46.5 -12h-843q-31 0 -42.5 11.5t-11.5 43.5z" />
<glyph unicode="3" horiz-adv-x="1185" d="M98 304q0 22 37 32l6 2q18 4 23 4q22 0 39 -34q52 -104 146.5 -164t216.5 -60q145 0 241 70t96 207q0 150 -106.5 237t-279.5 87q-31 0 -42.5 11.5t-11.5 42.5v6q0 31 11.5 42t42.5 11h5q145 0 237.5 66.5t92.5 197.5q0 113 -78.5 185.5t-191.5 72.5q-121 0 -207 -57 t-134 -156q-18 -34 -38 -34q-9 0 -24 5l-5 2q-36 10 -36 32q0 7 5 22q46 138 159 216t285 78q84 0 160 -22.5t136 -65.5t95.5 -111.5t35.5 -153.5q0 -123 -79 -210t-207 -121v-1q155 -16 248.5 -125t93.5 -259q0 -82 -28 -148t-75 -109.5t-112 -73t-135 -42t-147 -12.5 q-172 0 -297 82.5t-173 223.5q-5 15 -5 24z" />
<glyph unicode="4" horiz-adv-x="1153" d="M42 399v6q0 32 4 45.5t22 39.5l593 862q22 32 39 41t56 9h58q35 0 47.5 -13t12.5 -48v-872h155q32 0 43.5 -11.5t11.5 -43.5v-6q0 -33 -11.5 -44.5t-43.5 -11.5h-155v-277q0 -43 -16 -59t-59 -16h-6q-43 0 -59 16t-16 59v277h-630q-27 0 -36.5 10t-9.5 37zM209 469h510 l2 757z" />
<glyph unicode="5" horiz-adv-x="1138" d="M97 288q0 21 36 33l5 2q13 4 25 4q22 0 39 -33q49 -93 137 -153t198 -60q148 0 241 93.5t93 239.5q0 161 -101.5 263t-274.5 102q-83 0 -148 -42l-18 -12t-16 -10.5t-12.5 -7t-13.5 -6t-13.5 -3.5t-17.5 -2.5t-21 -0.5h-6q-37 0 -49.5 13t-9.5 50l45 583q3 35 16.5 48 t48.5 13h629q33 0 44 -12t11 -46v-6q0 -33 -13.5 -45.5t-47.5 -12.5h-557l-34 -448q98 54 238 54q138 0 248.5 -56.5t174.5 -164t64 -247.5q0 -108 -40.5 -194t-110.5 -140t-160.5 -82t-195.5 -28q-155 0 -265.5 76t-161.5 214q-6 15 -6 24z" />
<glyph unicode="6" horiz-adv-x="1248" d="M125 630q0 798 553 798q143 0 252.5 -70t157.5 -198q6 -13 6 -23q0 -21 -35 -31l-6 -2q-18 -4 -24 -4q-20 0 -37 32q-44 84 -125 136t-182 52q-80 0 -145 -26.5t-107.5 -74.5t-72.5 -107t-46 -131.5t-23 -139t-7 -139.5q30 33 58 57.5t74 53.5t109 45t138 16 q134 0 243 -54.5t173.5 -157t64.5 -234.5q0 -205 -143 -329.5t-358 -124.5q-57 0 -107 6.5t-104 25.5t-97.5 49.5t-83.5 81t-67 118t-43 163t-16 212.5zM308 425q0 -144 94 -243.5t243 -99.5q152 0 241.5 96t89.5 244q0 146 -91 244.5t-240 98.5q-146 0 -241.5 -96 t-95.5 -244z" />
<glyph unicode="7" horiz-adv-x="1018" d="M47 1338v6q2 34 14 46t46 12h851q22 0 30 -8.5t8 -30.5v-6q0 -27 -2.5 -37.5t-14.5 -34.5q-337 -670 -565 -1229q-14 -35 -29.5 -45.5t-53.5 -10.5h-54q-45 0 -45 26q0 10 8 29q190 443 593 1226h-732q-33 0 -43.5 11.5t-10.5 45.5z" />
<glyph unicode="8" horiz-adv-x="1219" d="M113 377q0 129 79 232t231 142v2q-111 35 -179.5 117t-68.5 197q0 92 38.5 163.5t103 113.5t140 63t157.5 21q84 0 160 -22t137.5 -64.5t98.5 -113t37 -159.5q0 -110 -68.5 -195.5t-182.5 -120.5v-2q151 -35 230 -139.5t79 -233.5q0 -100 -40.5 -178.5t-110 -127 t-157 -73.5t-186.5 -25q-78 0 -149.5 15t-135.5 47t-111 78.5t-74.5 114t-27.5 148.5zM279 383q0 -141 92.5 -222.5t239.5 -81.5q148 0 237.5 81.5t89.5 226.5q0 142 -92 226.5t-238 84.5q-144 0 -236.5 -87t-92.5 -228zM331 1063q0 -116 78.5 -188t202.5 -72t201 72t77 192 q0 118 -77.5 187.5t-199.5 69.5q-125 0 -203.5 -71.5t-78.5 -189.5z" />
<glyph unicode="9" horiz-adv-x="1248" d="M105 973q0 137 67 241.5t180 159t253 54.5q57 0 107 -7t104 -25.5t97.5 -49.5t83.5 -82t67 -118t43 -163t16 -213q0 -796 -552 -796q-144 0 -253 69.5t-157 196.5q-6 15 -6 24q0 20 35 31l6 2q18 4 23 4q21 0 38 -33q45 -84 125.5 -135.5t181.5 -51.5q80 0 145 26.5 t107.5 74.5t72.5 107t46 131.5t23 139t7 139.5q-30 -33 -58 -57.5t-74 -53.5t-109 -45t-138 -16q-134 0 -243 54.5t-173.5 157t-64.5 234.5zM273 979q0 -146 90.5 -244.5t239.5 -98.5q146 0 242 96t96 244q0 143 -95 243t-243 100q-152 0 -241 -95.5t-89 -244.5z" />
<glyph unicode=":" horiz-adv-x="494" d="M144 91q0 42 30.5 70.5t73.5 28.5t72 -28.5t29 -70.5q0 -43 -29 -72.5t-72 -29.5t-73.5 29.5t-30.5 72.5zM144 863q0 42 30.5 71.5t73.5 29.5t72 -29t29 -72t-29 -71.5t-72 -28.5t-73.5 29t-30.5 71z" />
<glyph unicode=";" horiz-adv-x="545" d="M152 -270q0 5 7 21q62 129 83 245q-28 12 -45.5 37.5t-17.5 56.5q0 42 30.5 71t73.5 29q44 0 72 -32t28 -86q0 -46 -28.5 -116t-111.5 -217q-11 -20 -21.5 -25t-35.5 -3h-6q-28 3 -28 19zM179 863q0 42 30.5 71t73.5 29t71.5 -28.5t28.5 -71.5t-28.5 -71.5t-71.5 -28.5 t-73.5 29t-30.5 71z" />
<glyph unicode="&#x3c;" horiz-adv-x="1246" d="M75 572v76q0 25 6.5 35t29.5 21l945 434q12 6 19 6q17 0 17 -29v-83q0 -25 -6.5 -35t-29.5 -21l-807 -366l807 -366q22 -10 29 -21t7 -36v-83q0 -28 -17 -28q-9 0 -19 5l-945 435q-23 11 -29.5 21t-6.5 35z" />
<glyph unicode="=" horiz-adv-x="1340" d="M155 357v69q0 23 8.5 31.5t31.5 8.5h951q23 0 31.5 -8.5t8.5 -31.5v-69q0 -23 -8.5 -31.5t-31.5 -8.5h-951q-23 0 -31.5 8.5t-8.5 31.5zM155 794v69q0 23 8.5 31.5t31.5 8.5h951q23 0 31.5 -8.5t8.5 -31.5v-69q0 -23 -8.5 -31.5t-31.5 -8.5h-951q-23 0 -31.5 8.5 t-8.5 31.5z" />
<glyph unicode="&#x3e;" horiz-adv-x="1246" d="M154 104v83q0 25 7 36t29 21l807 366l-807 366q-23 11 -29.5 21t-6.5 35v83q0 29 17 29q7 0 19 -6l945 -434q23 -11 29.5 -21t6.5 -35v-76q0 -25 -6.5 -35t-29.5 -21l-945 -435q-10 -5 -19 -5q-17 0 -17 28z" />
<glyph unicode="?" horiz-adv-x="983" d="M74 1154q0 6 4 24q38 142 145.5 221.5t272.5 79.5q80 0 152 -22t129 -64.5t90.5 -110.5t33.5 -154q0 -62 -15 -112t-50 -95.5t-64.5 -74.5t-85.5 -77q-70 -61 -98.5 -97t-46.5 -91t-32 -166q-3 -24 -12 -32t-34 -8h-6q-25 0 -34.5 8t-10.5 33q-6 72 -6 123q0 45 9.5 84 t21.5 66t40 61.5t46.5 53t59.5 58.5q35 33 46 44t37.5 41.5t36.5 51t19.5 53.5t9.5 68q0 107 -71.5 173.5t-178.5 66.5q-204 0 -293 -213q-16 -40 -41 -40q-11 0 -26 6l-6 2q-23 7 -32.5 15.5t-9.5 23.5zM356 90q0 42 30.5 71t73.5 29t71.5 -28.5t28.5 -71.5 q0 -42 -29 -71.5t-71 -29.5q-43 0 -73.5 29.5t-30.5 71.5z" />
<glyph unicode="@" horiz-adv-x="1681" d="M103 651q0 166 52.5 315.5t146.5 263.5t236.5 181.5t312.5 67.5q220 0 391.5 -90.5t266 -255.5t94.5 -377q0 -94 -23.5 -185t-69 -169t-121 -126t-169.5 -48q-108 0 -161.5 64t-53.5 176h-1q-53 -123 -121 -181.5t-158 -58.5q-58 0 -102.5 29t-68.5 77.5t-36 103 t-12 113.5q0 91 26.5 180.5t75 163.5t126.5 120t173 46q64 0 104.5 -21t66.5 -72l12 41q5 17 12.5 22.5t24.5 5.5h33q17 0 22 -6.5t2 -23.5q-61 -351 -61 -430q0 -48 2 -78.5t10.5 -67t24 -57t44.5 -34.5t71 -14q55 0 97 43.5t64 110t32 130t10 119.5q0 186 -73 329 t-215 224.5t-335 81.5q-143 0 -264 -60t-200 -160t-123 -229t-44 -269q0 -142 43.5 -267.5t123 -220.5t199.5 -150t265 -55q120 0 199 16q17 3 23.5 -1.5t9.5 -20.5l7 -42q3 -17 -2.5 -24.5t-21.5 -10.5q-85 -17 -219 -17q-170 0 -312 62.5t-237 170t-147 253.5t-52 312z M626 559q0 -58 12.5 -105.5t46.5 -83.5t87 -36q66 0 121.5 60.5t88.5 150.5t51 184.5t18 172.5q-42 54 -136 54q-70 0 -127 -37.5t-91 -97t-52.5 -127.5t-18.5 -135z" />
<glyph unicode="A" horiz-adv-x="1390" d="M20 29q0 15 9 36l612 1353q10 22 20.5 28.5t34.5 6.5h6q24 0 33.5 -6.5t19.5 -28.5l604 -1363q9 -18 9 -30q0 -25 -44 -25h-61q-38 0 -53.5 10.5t-30.5 44.5l-157 367h-694l-152 -357q-17 -40 -36 -52.5t-63 -12.5h-6q-51 0 -51 29zM376 530h600l-293 703z" />
<glyph unicode="B" horiz-adv-x="1291" d="M201 60v1332q0 35 12.5 48t47.5 13h418q76 0 150.5 -21t137.5 -60.5t102 -105.5t39 -149q0 -113 -97.5 -219.5t-210.5 -125.5v-1q102 0 191 -43t145.5 -127t56.5 -191q0 -99 -41 -178.5t-110.5 -129t-157 -76t-184.5 -26.5h-439q-35 0 -47.5 12.5t-12.5 47.5zM361 106 h288q70 0 134.5 17.5t119 52t87 94t32.5 136.5q0 64 -18.5 114t-53.5 82t-76 54.5t-95 33.5t-102 16t-104 6l-212 3v-609zM361 802l212 7q55 2 104 10.5t99 29t85.5 51.5t57.5 81t22 114q0 251 -345 251h-235v-544z" />
<glyph unicode="C" horiz-adv-x="1449" d="M108 723q0 157 49.5 294.5t139.5 240t226.5 162t300.5 59.5q172 0 301 -74t198 -206q10 -20 10 -30q0 -20 -32 -35l-6 -2q-19 -9 -31 -9q-18 0 -38 27q-70 98 -173.5 155.5t-224.5 57.5q-108 0 -198.5 -34.5t-154 -94.5t-108 -141t-65.5 -173.5t-21 -193.5 q0 -100 22 -193t67 -174t109 -141t154 -94.5t196 -34.5q130 0 240 61t186 167q17 26 36 26q10 0 28 -9l6 -3q29 -15 29 -34q0 -9 -10 -27q-77 -142 -210 -219t-317 -77q-163 0 -297.5 58.5t-224 160t-138.5 238t-49 292.5z" />
<glyph unicode="D" horiz-adv-x="1555" d="M201 60v1332q0 35 12.5 48t47.5 13h447q175 0 316 -55.5t232.5 -153.5t140 -229.5t48.5 -285.5q0 -157 -51.5 -290.5t-146 -231t-237 -152.5t-316.5 -55h-433q-35 0 -47.5 12.5t-12.5 47.5zM362 106h312q279 0 439 167t160 447q0 98 -18.5 185t-64 169t-114.5 141 t-177.5 95t-246.5 36h-290v-1240z" />
<glyph unicode="E" horiz-adv-x="1203" d="M201 60v1332q0 35 12.5 48t47.5 13h768q29 0 40 -11t11 -40v-7q0 -30 -11 -40.5t-40 -10.5h-668v-534h601q29 0 39 -10.5t10 -39.5v-6q0 -29 -10 -39.5t-39 -10.5h-601v-596h680q29 0 39.5 -11t10.5 -40v-6q0 -29 -10.5 -40t-39.5 -11h-780q-35 0 -47.5 12.5t-12.5 47.5z " />
<glyph unicode="F" horiz-adv-x="1139" d="M201 60v1332q0 35 12.5 48t47.5 13h764q30 0 41 -11t11 -41v-6q0 -30 -11 -41t-41 -11h-661v-547h587q30 0 41 -10.5t11 -40.5v-6q0 -30 -11 -41t-41 -11h-587v-627q0 -35 -12.5 -47.5t-47.5 -12.5h-43q-35 0 -47.5 12.5t-12.5 47.5z" />
<glyph unicode="G" horiz-adv-x="1524" d="M105 715q0 150 50 287t141 243.5t233 170t313 63.5q164 0 297.5 -66.5t204.5 -189.5q10 -17 10 -28q0 -16 -27 -34l-5 -3q-21 -12 -30 -12q-14 0 -34 23q-74 90 -177.5 142t-223.5 52q-173 0 -305 -82t-201.5 -226.5t-69.5 -329.5q0 -101 23 -194.5t70.5 -176t115 -143.5 t162.5 -96t208 -35q183 0 378 86v424h-256q-32 0 -43 11t-11 43v6q0 31 11.5 42.5t42.5 11.5h352q35 0 47.5 -13t12.5 -48v-473q0 -39 -10 -55t-44 -32q-242 -109 -498 -109q-217 0 -385 92.5t-260 261t-92 387.5z" />
<glyph unicode="H" horiz-adv-x="1540" d="M201 60v1332q0 35 12.5 48t47.5 13h40q35 0 47.5 -13t12.5 -48v-581h817v581q0 35 12.5 48t47.5 13h41q35 0 47.5 -13t12.5 -48v-1332q0 -35 -12.5 -47.5t-47.5 -12.5h-41q-35 0 -47.5 12.5t-12.5 47.5v642h-817v-642q0 -35 -12.5 -47.5t-47.5 -12.5h-40 q-35 0 -47.5 12.5t-12.5 47.5z" />
<glyph unicode="I" horiz-adv-x="561" d="M201 60v1332q0 35 12.5 48t47.5 13h39q35 0 48 -13t13 -48v-1332q0 -35 -13 -47.5t-48 -12.5h-39q-35 0 -47.5 12.5t-12.5 47.5z" />
<glyph unicode="J" horiz-adv-x="948" d="M36 213q0 20 27 34l6 3q12 8 23 8q16 0 29 -25q31 -55 91.5 -92t148.5 -37q48 0 87.5 17t65 46t44.5 64t28.5 75.5t14 75.5t4.5 68v942q0 35 12.5 48t47.5 13h38q35 0 47.5 -13t12.5 -48v-958q0 -107 -26.5 -190t-68 -133t-98 -82t-109.5 -43.5t-110 -11.5 q-111 0 -190.5 57t-118.5 156q-6 15 -6 26z" />
<glyph unicode="K" horiz-adv-x="1300" d="M201 60v1332q0 35 12.5 48t47.5 13h39q35 0 48 -13t13 -48v-593l659 612q29 28 46.5 35t57.5 7h70q34 0 34 -15q0 -9 -18 -27l-668 -621l743 -748q17 -17 17 -27q0 -15 -35 -15h-108q-40 0 -57 7t-46 35l-695 692v-674q0 -35 -13 -47.5t-48 -12.5h-39q-35 0 -47.5 12.5 t-12.5 47.5z" />
<glyph unicode="L" horiz-adv-x="1094" d="M201 60v1332q0 35 12.5 48t47.5 13h41q35 0 48 -13t13 -48v-1283h648q29 0 40 -11t11 -40v-6q0 -30 -11 -41t-40 -11h-750q-35 0 -47.5 12.5t-12.5 47.5z" />
<glyph unicode="M" horiz-adv-x="1864" d="M155 61l103 1331q3 35 16.5 48t48.5 13h37q37 0 53 -10.5t31 -45.5l491 -1145l482 1134q18 42 37 54.5t65 12.5h6q43 0 59 -15t20 -59l108 -1319q3 -34 -8.5 -47t-46.5 -13h-41q-35 0 -48.5 12.5t-15.5 47.5l-80 1155l-497 -1179q-9 -22 -19 -29t-34 -7h-6q-24 0 -34 7 t-19 29l-501 1179l-79 -1154q-2 -36 -15.5 -48.5t-49.5 -12.5h-7q-35 0 -47 13t-9 48z" />
<glyph unicode="N" horiz-adv-x="1604" d="M201 63v1329q0 35 12.5 48t47.5 13h53q39 0 55.5 -8.5t40.5 -39.5l861 -1130v1115q0 37 13.5 50t50.5 13h6q37 0 49.5 -13t12.5 -50v-1337q0 -31 -10.5 -42t-41.5 -11h-7q-34 0 -48.5 7.5t-35.5 34.5l-926 1205v-1184q0 -37 -13.5 -50t-50.5 -13h-6q-37 0 -50 13t-13 50z " />
<glyph unicode="O" horiz-adv-x="1652" d="M107 724q0 221 90 393t255 267t378 95q156 0 290 -56t227 -155t146 -238t53 -301q0 -218 -87 -389t-250.5 -268.5t-378.5 -97.5t-380 96t-254 266.5t-89 387.5zM280 728q0 -178 62 -323t188.5 -235t298.5 -90q105 0 194 34.5t152.5 95.5t108.5 143t67 177.5t22 199.5 q0 176 -62.5 320t-188.5 232.5t-294 88.5q-165 0 -291 -86.5t-191.5 -231.5t-65.5 -325z" />
<glyph unicode="P" horiz-adv-x="1204" d="M201 60v1332q0 35 12.5 48t47.5 13h415q209 0 338.5 -102t129.5 -292q0 -104 -43.5 -190t-115.5 -139q-73 -54 -161 -83q-86 -28 -175 -28h-6l-282 3v-562q0 -35 -12.5 -47.5t-47.5 -12.5h-40q-35 0 -47.5 12.5t-12.5 47.5zM361 709h135q74 0 141 11t129 36t107 63.5 t72 97t27 131.5q0 131 -93 214.5t-244 83.5h-274v-637z" />
<glyph unicode="Q" horiz-adv-x="1655" d="M110 724q0 221 90 393t254.5 267t377.5 95q156 0 290 -56t227 -155t146 -238t53 -301q0 -288 -149.5 -488.5t-405.5 -253.5q99 -139 208.5 -192t302.5 -60q22 -1 29 -8.5t7 -29.5v-6q0 -21 -7.5 -29t-28.5 -8h-29q-251 0 -404.5 67.5t-283.5 252.5q-203 11 -357.5 109.5 t-237 264.5t-82.5 376zM282 728q0 -178 62 -323t188.5 -235t298.5 -90q131 0 236 53t171.5 143.5t102 207t35.5 246.5q0 131 -37 247t-105 204t-172.5 139t-231.5 51q-165 0 -291 -86.5t-191.5 -231.5t-65.5 -325z" />
<glyph unicode="R" horiz-adv-x="1265" d="M201 60v1332q0 35 12.5 48t47.5 13h398q78 0 146 -12t128.5 -40.5t104 -70.5t68.5 -105.5t25 -143.5q0 -143 -94.5 -249.5t-244.5 -138.5q60 -57 110 -119.5t84 -116t69.5 -129t56.5 -128t56 -144.5q7 -21 7 -28q0 -28 -46 -28h-52q-38 0 -53.5 11t-28.5 46 q-69 184 -150.5 329t-203.5 284q-111 -5 -133 -5l-147 3v-608q0 -35 -13 -47.5t-48 -12.5h-39q-35 0 -47.5 12.5t-12.5 47.5zM361 755q63 0 114 2t115.5 10t114.5 21t100 37.5t83 57t53.5 81.5t20.5 110q0 124 -100 198t-240 74h-261v-591z" />
<glyph unicode="S" horiz-adv-x="1172" d="M98 288q0 22 33 36l6 2q18 9 29 9q18 0 34 -30q53 -99 143.5 -157t220.5 -58q88 0 164.5 31t127.5 98.5t51 158.5q0 63 -20.5 107.5t-73 81.5t-130.5 66.5t-206 63.5q-73 20 -130 48t-107.5 71.5t-78 108.5t-27.5 148q0 95 39 173t105 128.5t150.5 77.5t178.5 27 q137 0 248 -69t163 -185q8 -18 8 -26q0 -18 -32 -38l-5 -3q-18 -9 -28 -9q-18 0 -33 28q-48 85 -129 137.5t-186 52.5q-84 0 -154.5 -29.5t-116.5 -92.5t-46 -148q0 -55 20.5 -98t58 -72.5t77.5 -48t92 -34.5q25 -8 71.5 -21t74.5 -21.5t71.5 -23.5t70.5 -27.5t63.5 -32.5 t59 -40.5t47.5 -49.5t38.5 -61.5t22.5 -74t9 -88.5q0 -133 -70 -232t-184 -148.5t-255 -49.5q-174 0 -287 79t-170 205q-8 19 -8 30z" />
<glyph unicode="T" horiz-adv-x="1185" d="M33 1394v6q0 31 10.5 42t41.5 11h1015q31 0 42 -11t11 -42v-6q0 -31 -11 -41.5t-42 -10.5h-425v-1282q0 -35 -12.5 -47.5t-47.5 -12.5h-42q-35 0 -48 12.5t-13 47.5v1282h-427q-31 0 -41.5 10.5t-10.5 41.5z" />
<glyph unicode="U" horiz-adv-x="1497" d="M184 490v902q0 35 13 48t48 13h39q35 0 47.5 -13t12.5 -48v-854q0 -217 100.5 -336.5t310.5 -119.5q207 0 313 118.5t106 329.5v857q0 38 14 52t53 14h6q38 0 51.5 -14t13.5 -52v-887q0 -261 -148.5 -393.5t-412.5 -132.5q-263 0 -415 133t-152 383z" />
<glyph unicode="V" horiz-adv-x="1329" d="M18 1427q0 26 45 26h60q38 0 53.5 -10.5t29.5 -45.5l475 -1151l477 1142q17 40 35.5 52.5t61.5 12.5h6q51 0 51 -31q0 -13 -9 -34l-577 -1348q-10 -25 -22 -32.5t-39 -7.5h-6q-27 0 -39 7.5t-22 32.5l-572 1357q-8 19 -8 30z" />
<glyph unicode="W" horiz-adv-x="1957" d="M46 1422q0 31 47 31h57q37 0 51.5 -11.5t25.5 -46.5l323 -1130l385 1146q8 26 19 34t38 8h6q26 0 37.5 -8.5t19.5 -33.5l377 -1147l340 1127q11 38 27.5 50t56.5 12h6q51 0 51 -32q0 -15 -5 -30l-420 -1346q-9 -28 -20.5 -36.5t-40.5 -8.5h-6q-29 0 -41 8.5t-21 36.5 l-380 1143l-385 -1144q-9 -27 -21 -35.5t-40 -8.5h-6q-29 0 -41 8.5t-20 35.5l-415 1351q-5 18 -5 27z" />
<glyph unicode="X" horiz-adv-x="1292" d="M43 19q0 11 14 30l494 695l-465 659q-13 17 -13 31q0 19 39 19h78q39 0 55.5 -9t38.5 -41l375 -534l373 534q22 32 39 41t56 9h42q39 0 39 -19q0 -14 -13 -31l-454 -634l503 -720q13 -17 13 -30q0 -19 -39 -19h-81q-39 0 -56 9t-39 41l-408 592l-418 -593 q-22 -32 -38.5 -40.5t-55.5 -8.5h-40q-39 0 -39 19z" />
<glyph unicode="Y" horiz-adv-x="1225" d="M12 1432q0 21 40 21h67q39 0 55 -9t36 -42l416 -675l433 665q25 39 44.5 50t65.5 11h6q48 0 48 -24q0 -15 -15 -37l-517 -801v-531q0 -35 -12.5 -47.5t-47.5 -12.5h-41q-35 0 -47.5 12.5t-12.5 47.5v530l-506 812q-12 20 -12 30z" />
<glyph unicode="Z" horiz-adv-x="1269" d="M60 37v6q0 25 3 35.5t18 30.5l884 1233h-793q-31 0 -41.5 10.5t-10.5 41.5v6q0 31 10.5 42t41.5 11h972q20 0 27.5 -7.5t7.5 -27.5v-7q0 -24 -3.5 -34t-17.5 -30l-883 -1236h864q31 0 41.5 -11t10.5 -42v-6q0 -31 -10.5 -41.5t-41.5 -10.5h-1043q-22 0 -29 7.5t-7 29.5z " />
<glyph unicode="[" horiz-adv-x="580" d="M177 -283v1724q0 35 12.5 47.5t47.5 12.5h237q26 0 35.5 -9.5t9.5 -35.5v-6q0 -27 -9.5 -36t-35.5 -9h-153v-1651h153q26 0 35.5 -9.5t9.5 -36.5v-6q0 -26 -9.5 -35.5t-35.5 -9.5h-237q-35 0 -47.5 12.5t-12.5 47.5z" />
<glyph unicode="\" horiz-adv-x="875" d="M85 1484q0 19 31 19h70q25 0 35.5 -7.5t18.5 -30.5l562 -1595q4 -14 4 -18q0 -19 -31 -19h-70q-25 0 -35.5 7t-18.5 30l-561 1595q-5 17 -5 19z" />
<glyph unicode="]" horiz-adv-x="579" d="M61 -292q0 27 9 36.5t36 9.5h153v1651h-153q-27 0 -36 9t-9 36v6q0 26 9 35.5t36 9.5h236q35 0 47.5 -12.5t12.5 -47.5v-1724q0 -35 -12.5 -47.5t-47.5 -12.5h-236q-27 0 -36 9.5t-9 35.5v6z" />
<glyph unicode="^" horiz-adv-x="998" d="M77 680q0 8 4 17l325 724q9 20 18 26t30 6h91q21 0 30.5 -6t18.5 -26l323 -724q5 -12 5 -17q0 -14 -25 -14h-82q-22 0 -30.5 5.5t-17.5 25.5l-267 606l-268 -606q-9 -20 -17.5 -25.5t-30.5 -5.5h-83q-24 0 -24 14z" />
<glyph unicode="_" horiz-adv-x="1094" d="M28 -189h1039v-102h-1039v102z" />
<glyph unicode="`" horiz-adv-x="478" d="M40 1486q0 9 21 9h132q22 0 31.5 -5t20.5 -24l161 -259q7 -10 7 -17q0 -12 -23 -12h-55q-23 0 -32.5 4.5t-24.5 21.5l-229 265q-9 11 -9 17z" />
<glyph unicode="a" horiz-adv-x="1077" d="M87 279q0 76 29 135.5t76.5 97t113.5 61.5t133 33.5t142 9.5q90 0 193 -14v44q0 118 -64.5 190.5t-193.5 72.5q-76 0 -150 -36t-128 -96q-18 -21 -33 -21q-12 0 -26 10l-4 3q-26 15 -26 30q0 11 8 24q55 95 155.5 150.5t220.5 55.5q109 0 185.5 -28t121 -83.5 t64.5 -130.5t20 -177v-556q0 -31 -11.5 -42.5t-43.5 -11.5h-41q-32 0 -43 11t-11 43v115h-1q-129 -192 -329 -192q-154 0 -255.5 80.5t-101.5 221.5zM248 292q0 -98 68 -152t169 -54q45 0 94.5 20t93.5 55.5t72.5 93t28.5 125.5v118q-103 16 -204 16q-60 0 -113 -10.5 t-102 -34.5t-78 -69t-29 -108z" />
<glyph unicode="b" horiz-adv-x="1224" d="M165 54v1390q0 32 11.5 43t42.5 11h38q32 0 43.5 -11.5t11.5 -42.5v-596q146 181 354 181q143 0 249 -74t157.5 -190t51.5 -255q0 -103 -30.5 -198t-86.5 -170t-145 -120t-197 -45q-110 0 -200.5 50.5t-151.5 147.5l-1 -1v-120q0 -31 -11.5 -42.5t-43.5 -11.5h-38 q-31 0 -42.5 11t-11.5 43zM312 383q0 -68 29 -125t75 -93t100.5 -55.5t107.5 -19.5q83 0 149 34.5t106 92.5t61 130t21 152q0 85 -19 158t-57 132.5t-103 94t-150 34.5q-131 0 -225.5 -85.5t-94.5 -203.5v-246z" />
<glyph unicode="c" horiz-adv-x="1075" d="M101 495q0 152 59 272.5t173 191t265 70.5q131 0 225 -57t147 -162q9 -16 9 -28q0 -18 -30 -34l-6 -3q-17 -9 -27 -9q-18 0 -34 27q-92 153 -271 153q-155 0 -251.5 -110t-96.5 -300q0 -111 38 -202.5t118 -149.5t190 -58q183 0 285 154q15 22 28 22q10 0 25 -9l5 -3 q26 -15 26 -31q0 -9 -8 -25q-51 -109 -148.5 -168t-233.5 -59q-223 0 -355 144t-132 374z" />
<glyph unicode="d" horiz-adv-x="1224" d="M101 510q0 139 51.5 255t157.5 190t249 74q211 0 353 -181v596q0 32 11 43t43 11h39q31 0 42.5 -11t11.5 -43v-1390q0 -32 -11.5 -43t-42.5 -11h-39q-32 0 -43 11t-11 43v120l-1 1q-61 -97 -151.5 -147.5t-200.5 -50.5q-108 0 -197 45t-145 120t-86 170t-30 198zM262 499 q0 -80 21 -152t61 -130t106 -92.5t149 -34.5q54 0 108.5 19.5t100.5 55.5t75 93t29 125v246q0 118 -94.5 203.5t-225.5 85.5q-85 0 -150 -34.5t-103.5 -94t-57.5 -132.5t-19 -158z" />
<glyph unicode="e" horiz-adv-x="1150" d="M101 501q0 233 137.5 380.5t359.5 147.5q33 0 65 -3.5t77.5 -15.5t85 -32t81 -57t72 -86.5t52 -123.5t26.5 -165q2 -31 -9.5 -42.5t-42.5 -11.5h-743q0 -46 11 -96.5t38 -104.5t66.5 -96t103 -69.5t140.5 -27.5q190 0 312 163q17 23 33 23q10 0 27 -9l5 -3q26 -14 26 -31 q0 -12 -8 -25q-130 -239 -417 -239q-227 0 -362.5 147t-135.5 377zM262 593h642q0 39 -8.5 80t-31 85.5t-56.5 79t-89.5 57t-124.5 22.5q-77 0 -139 -29t-96.5 -69.5t-57.5 -89t-31 -82.5t-8 -54z" />
<glyph unicode="f" horiz-adv-x="649" d="M53 952v7q0 28 10 37.5t38 9.5h128v169q0 165 78.5 255t229.5 90q58 0 109 -24q30 -14 30 -35q0 -7 -5 -24l-2 -7q-8 -28 -26 -28q-10 0 -22 4q-38 12 -74 12q-49 0 -83.5 -15t-53 -43t-26 -61t-7.5 -76v-217h178q28 0 38 -9.5t10 -37.5v-7q0 -28 -10 -38t-38 -10h-178 v-850q0 -32 -11.5 -43t-42.5 -11h-40q-31 0 -42.5 11t-11.5 43v850h-128q-28 0 -38 10t-10 38z" />
<glyph unicode="g" horiz-adv-x="1205" d="M104 504q0 104 28.5 197.5t82.5 167t141.5 117t195.5 43.5q216 0 341 -197l1 1v119q0 32 11 43t43 11h38q32 0 43 -11t11 -43v-889q0 -265 -114 -404t-369 -139q-57 0 -111 10.5t-111 34t-106.5 70t-81.5 111.5q-9 18 -9 30q0 20 29 36l6 3q17 10 28 10q14 0 32 -25 q53 -77 140 -122t183 -45q84 0 145.5 24.5t98 63t58.5 97t29 116.5t7 131v125q-30 -38 -59.5 -66.5t-71 -56.5t-95.5 -43t-116 -15q-143 0 -246.5 68t-152.5 178t-49 249zM265 525q0 -85 17.5 -155.5t53.5 -127t99.5 -88t149.5 -31.5q130 0 219.5 85t89.5 205v211 q0 68 -27.5 125t-71.5 93t-96.5 55.5t-106.5 19.5q-83 0 -147.5 -32t-103 -87t-57.5 -124t-19 -149z" />
<glyph unicode="h" horiz-adv-x="1153" d="M165 54v1390q0 32 11.5 43t42.5 11h40q31 0 42.5 -11t11.5 -43v-613h2q59 93 151.5 145.5t202.5 52.5q82 0 142.5 -24.5t96.5 -64t57 -100.5t28 -123t7 -142v-521q0 -32 -11 -43t-43 -11h-40q-32 0 -43 11t-11 43v575q0 139 -52.5 207t-183.5 68q-119 0 -211 -88 t-92 -206v-556q0 -32 -11.5 -43t-42.5 -11h-40q-31 0 -42.5 11t-11.5 43z" />
<glyph unicode="i" horiz-adv-x="481" d="M138 1291q0 42 30 71t73 29t72 -28.5t29 -71.5t-29 -73t-72 -30t-73 30t-30 73zM165 54v898q0 32 11.5 43t42.5 11h43q32 0 43 -11t11 -43v-898q0 -32 -11 -43t-43 -11h-43q-31 0 -42.5 11t-11.5 43z" />
<glyph unicode="j" horiz-adv-x="483" d="M-12 -430q0 25 9 34t34 14q37 6 62.5 22t39.5 35.5t21.5 54t9 63.5t1.5 77v1082q0 32 11.5 43t42.5 11h45q32 0 43 -11t11 -43v-1055q0 -201 -64.5 -284.5t-222.5 -91.5q-25 -1 -34 8t-9 35v6zM138 1291q0 42 30.5 71t73.5 29t72 -28.5t29 -71.5t-29 -73t-72 -30 t-73.5 30t-30.5 73z" />
<glyph unicode="k" horiz-adv-x="1040" d="M165 54v1390q0 32 11.5 43t42.5 11h40q31 0 42.5 -11t11.5 -43v-871l451 398q27 24 42 29.5t52 5.5h69q30 0 30 -11q0 -9 -17 -24l-458 -406l512 -526q15 -15 15 -25q0 -14 -31 -14h-102q-36 0 -51 6.5t-41 32.5l-471 483v-468q0 -32 -11.5 -43t-42.5 -11h-40 q-31 0 -42.5 11t-11.5 43z" />
<glyph unicode="l" horiz-adv-x="533" d="M167 355v1089q0 32 11.5 43t42.5 11h40q31 0 42.5 -11t11.5 -43v-1108q0 -48 1.5 -78t9 -65t21.5 -56t39.5 -38t62.5 -23q26 -5 35 -14t9 -34v-6q0 -26 -9.5 -35.5t-34.5 -8.5q-155 8 -218.5 92.5t-63.5 284.5z" />
<glyph unicode="m" horiz-adv-x="1776" d="M165 54v898q0 32 11.5 43t42.5 11h43q32 0 43 -11t11 -43v-121l1 -1q60 94 147 146.5t190 52.5q129 0 198 -56.5t96 -160.5q50 97 145 157t218 60q80 0 137.5 -25t90.5 -64t52 -101.5t25 -123t6 -142.5v-519q0 -32 -11 -43t-43 -11h-43q-31 0 -42.5 11t-11.5 43v572 q0 143 -45 209.5t-168 66.5q-117 0 -203 -79.5t-86 -201.5v-567q0 -32 -11.5 -43t-42.5 -11h-42q-32 0 -43.5 11.5t-11.5 42.5v572q0 143 -45 209.5t-168 66.5q-112 0 -200.5 -88.5t-88.5 -205.5v-554q0 -32 -11 -43t-43 -11h-43q-31 0 -42.5 11t-11.5 43z" />
<glyph unicode="n" horiz-adv-x="1159" d="M165 54v898q0 32 11.5 43t42.5 11h43q32 0 43 -11t11 -43v-121l1 -1q59 93 152.5 146t203.5 53q70 0 123.5 -16t89.5 -48t60 -71.5t36.5 -93.5t17.5 -107t5 -120v-519q0 -32 -11.5 -43t-42.5 -11h-42q-31 0 -42.5 11t-11.5 43v572q0 140 -51.5 208t-181.5 68 q-118 0 -212 -88.5t-94 -205.5v-554q0 -32 -11 -43t-43 -11h-43q-31 0 -42.5 11t-11.5 43z" />
<glyph unicode="o" horiz-adv-x="1200" d="M101 495q0 239 133.5 386.5t371.5 147.5q226 0 359.5 -146t133.5 -371q0 -240 -133.5 -387.5t-370.5 -147.5q-230 0 -362 143t-132 375zM264 506q0 -86 19.5 -160.5t58 -134.5t105 -94.5t153.5 -34.5q151 0 243.5 107t92.5 315q0 114 -34 206.5t-111.5 153t-189.5 60.5 q-86 0 -152.5 -34.5t-106 -94t-59 -132.5t-19.5 -157z" />
<glyph unicode="p" horiz-adv-x="1225" d="M165 -403v1355q0 32 11.5 43t42.5 11h39q32 0 43 -11t11 -43v-119l1 -1q61 96 151.5 146.5t200.5 50.5q108 0 197 -45t145 -120t86.5 -170t30.5 -198q0 -139 -51.5 -255t-157.5 -190t-249 -74q-209 0 -354 182v-562q0 -31 -11 -42.5t-43 -11.5h-39q-31 0 -42.5 11.5 t-11.5 42.5zM312 379q0 -119 94.5 -205t225.5 -86q85 0 150 34.5t103.5 94t57.5 133t19 158.5q0 80 -21 151.5t-61.5 129.5t-106.5 92.5t-149 34.5q-53 0 -107.5 -19.5t-100.5 -55t-75 -92.5t-29 -125v-245z" />
<glyph unicode="q" horiz-adv-x="1224" d="M101 496q0 103 30 198t86 170t145 120t197 45q110 0 200.5 -50.5t151.5 -146.5l1 1v119q0 32 11 43t43 11h39q31 0 42.5 -11t11.5 -43v-1355q0 -31 -11.5 -42.5t-42.5 -11.5h-39q-32 0 -43 11.5t-11 42.5v562q-143 -182 -353 -182q-143 0 -249 74t-157.5 190t-51.5 255z M262 508q0 -85 19 -158.5t57.5 -133t103.5 -94t150 -34.5q131 0 225.5 86t94.5 205v245q0 90 -49.5 158.5t-119.5 101t-144 32.5q-83 0 -149 -34.5t-106 -92.5t-61 -129.5t-21 -151.5z" />
<glyph unicode="r" horiz-adv-x="742" d="M165 54v898q0 32 11.5 43t42.5 11h45q32 0 43 -11t11 -43v-109h1q45 85 121.5 135.5t169.5 50.5q12 0 32 -2q33 -4 43.5 -18.5t10.5 -48.5v-46q0 -41 -26 -41q-9 0 -26 5q-46 13 -81 13q-99 0 -172 -76t-73 -190v-571q0 -32 -11 -43t-43 -11h-45q-31 0 -42.5 11t-11.5 43 z" />
<glyph unicode="s" horiz-adv-x="960" d="M88 224q0 19 29 32l6 2q18 9 28 9q15 0 35 -27q50 -71 118 -109t172 -38q43 0 83 9.5t75.5 29t56.5 54t21 78.5q0 82 -81 126q-46 25 -189 67q-64 18 -106.5 33.5t-85.5 39t-67.5 51t-40 67t-15.5 89.5q0 93 54 161.5t134 99.5t173 31q233 0 334 -202q7 -14 7 -25 q0 -16 -30 -30l-5 -2q-18 -7 -26 -7q-16 0 -34 27q-82 127 -241 127q-52 0 -100.5 -16.5t-83.5 -54.5t-35 -91q0 -35 16.5 -60.5t52 -44t78.5 -33t107 -32.5q5 -1 8 -2t7 -2l8 -2q81 -23 134.5 -46.5t96.5 -57t63 -80t20 -108.5q0 -79 -34 -140.5t-91 -97.5t-125 -54 t-142 -18q-137 0 -231 61.5t-145 158.5q-9 17 -9 27z" />
<glyph unicode="t" horiz-adv-x="709" d="M46 952v7q0 27 10.5 37t38.5 10h124v209q0 31 11.5 42.5t42.5 11.5h40q31 0 42.5 -11.5t11.5 -42.5v-209h206q28 0 38 -9.5t10 -37.5v-7q0 -28 -10 -38t-38 -10h-206v-653q0 -172 152 -172q38 0 89 22q18 7 24 7q17 0 23 -28l1 -6q4 -18 4 -23q0 -21 -29 -36 q-73 -38 -163 -38q-120 0 -184.5 65.5t-64.5 200.5v661h-124q-28 0 -38.5 10t-10.5 38z" />
<glyph unicode="u" horiz-adv-x="1158" d="M154 434v518q0 32 11 43t43 11h42q32 0 43 -11t11 -43v-572q0 -141 50.5 -208t180.5 -67q119 0 213 88t94 205v554q0 32 11 43t43 11h44q32 0 43 -11t11 -43v-898q0 -32 -11 -43t-43 -11h-44q-32 0 -43 11t-11 43v122h-1q-59 -93 -152.5 -146t-203.5 -53 q-83 0 -143.5 24.5t-96 63.5t-56.5 100.5t-28 124t-7 144.5z" />
<glyph unicode="v" horiz-adv-x="991" d="M41 983q0 23 39 23h64q34 0 47.5 -9.5t26.5 -40.5l296 -739l296 732q15 36 31 46.5t55 10.5h6q46 0 46 -26q0 -12 -8 -31l-379 -907q-11 -26 -22.5 -34t-39.5 -8h-6q-28 0 -40 8t-23 34l-383 915q-6 15 -6 26z" />
<glyph unicode="w" horiz-adv-x="1541" d="M49 981q0 25 42 25h55q33 0 47.5 -10t24.5 -41l237 -713l273 728q9 23 18.5 29.5t34.5 6.5h6q25 0 35 -6.5t19 -29.5l276 -729l238 707q13 37 28 47.5t54 10.5h6q48 0 48 -29q0 -11 -6 -29l-319 -909q-9 -25 -19 -32t-35 -7h-7q-25 0 -36 7.5t-21 31.5l-286 727 l-271 -728q-9 -23 -19.5 -30.5t-35.5 -7.5h-6q-25 0 -35.5 7.5t-18.5 30.5l-321 917q-6 15 -6 26z" />
<glyph unicode="x" horiz-adv-x="1047" d="M54 16q0 11 13 27l368 479l-327 441q-12 15 -12 27q0 16 34 16h85q35 0 50 -7.5t36 -35.5l238 -326l242 326q21 28 36 35.5t50 7.5h37q35 0 35 -15q0 -12 -13 -28l-313 -413l373 -506q12 -16 12 -27q0 -17 -35 -17h-86q-35 0 -50 8t-36 36l-283 390l-292 -390 q-21 -29 -36 -36.5t-50 -7.5h-42q-34 0 -34 16z" />
<glyph unicode="y" horiz-adv-x="987" d="M42 983q0 23 40 23h64q34 0 48 -9.5t27 -40.5l282 -711l293 711q13 31 27 40.5t48 9.5h35q40 0 40 -23q0 -11 -6 -26l-419 -1004q-22 -52 -34.5 -81.5t-33 -73t-35 -67.5t-36 -56.5t-41 -50.5t-46 -39t-55 -32.5t-63 -20t-74.5 -11.5q-25 -1 -34 8t-9 35v6q0 25 8.5 33.5 t34.5 13.5q78 13 147.5 87t133.5 245l38 101l-373 906q-7 19 -7 27z" />
<glyph unicode="z" horiz-adv-x="978" d="M69 31v6q0 21 3 29.5t15 25.5l596 818h-524q-27 0 -36 9t-9 36v7q0 26 9 35t36 9h694q18 0 24.5 -6t6.5 -24v-6q0 -22 -3 -31t-15 -26l-594 -816h575q26 0 35.5 -9.5t9.5 -35.5v-7q0 -26 -9.5 -35.5t-35.5 -9.5h-747q-18 0 -24.5 6.5t-6.5 24.5z" />
<glyph unicode="{" horiz-adv-x="623" d="M60 577v6q0 21 8 29t30 13q41 9 68 37t39.5 74.5t16.5 93.5t4 114v193q0 114 17 185.5t58.5 110t95.5 52t143 15.5q23 1 31 -7.5t8 -31.5v-6q0 -23 -8 -31t-31 -10q-102 -8 -137 -68.5t-35 -205.5v-242q0 -145 -33 -216.5t-133 -102.5v-1q79 -19 122 -84t43 -159v-312 q0 -134 36.5 -201t136.5 -78q24 -2 31.5 -10t7.5 -31v-6q0 -23 -8 -31.5t-31 -7.5q-170 5 -241.5 74.5t-71.5 245.5v242q0 59 -4.5 104t-17 93t-39.5 78.5t-68 39.5q-22 6 -30 13.5t-8 28.5z" />
<glyph unicode="|" horiz-adv-x="487" d="M176 -417v1875q0 23 8.5 31.5t31.5 8.5h56q23 0 31.5 -8.5t8.5 -31.5v-1875q0 -23 -8.5 -31.5t-31.5 -8.5h-56q-23 0 -31.5 8.5t-8.5 31.5z" />
<glyph unicode="}" horiz-adv-x="624" d="M44 -297q0 23 8 31t32 10q100 11 136.5 78t36.5 201v312q0 94 43 159t122 84v1q-100 31 -133 102.5t-33 216.5v242q0 145 -35 205.5t-137 68.5q-24 2 -32 10t-8 31v6q0 23 8.5 31.5t31.5 7.5q89 -2 143 -15.5t95.5 -52t58.5 -110t17 -185.5v-193q0 -68 4 -114t16.5 -93 t39 -75t67.5 -37q22 -5 30 -13t8 -29v-6q0 -21 -7.5 -29t-30.5 -13q-41 -10 -68 -40.5t-39 -78t-16.5 -92.5t-4.5 -104v-242q0 -176 -71.5 -245.5t-241.5 -74.5q-23 -1 -31.5 7.5t-8.5 31.5v6z" />
<glyph unicode="~" horiz-adv-x="1294" d="M133 535q19 143 92.5 219t176.5 76q69 0 130.5 -19.5t105 -48t82.5 -56.5t79 -47.5t77 -19.5q56 0 90.5 36t52.5 113q5 20 13 27t29 7h81q20 0 26.5 -8t3.5 -27q-20 -143 -93.5 -218.5t-175.5 -75.5q-69 0 -130.5 19.5t-105 47.5t-82.5 56t-78.5 47.5t-76.5 19.5 q-57 0 -92 -36.5t-52 -112.5q-5 -20 -12.5 -26.5t-27.5 -6.5h-82q-19 0 -26 7.5t-5 26.5z" />
<glyph unicode="&#xa1;" horiz-adv-x="503" d="M151 1007q0 43 29 73t71 30q43 0 73.5 -30t30.5 -73q0 -42 -30.5 -70.5t-73.5 -28.5t-71.5 28.5t-28.5 70.5zM171 -294l1 111q5 453 33 865q1 25 10 33t34 8h7q25 0 33 -8t10 -33q28 -412 33 -865l2 -111q1 -35 -12 -47.5t-48 -12.5h-44q-35 0 -47.5 12.5t-11.5 47.5z " />
<glyph unicode="&#xa2;" horiz-adv-x="1070" d="M85 692q0 216 117 363.5t318 168.5v132q0 31 11.5 42.5t43.5 11.5h6q31 0 42.5 -11t11.5 -43v-131q220 -22 319 -219q9 -16 9 -27q0 -17 -30 -33l-6 -3q-20 -10 -27 -10q-17 0 -34 28q-93 152 -272 152q-155 0 -251 -110t-96 -300q0 -111 38 -202.5t118 -149.5t189 -58 q91 0 163.5 40.5t121.5 113.5q15 22 29 22q10 0 25 -9l5 -3q25 -15 25 -31q0 -12 -7 -26q-94 -195 -319 -222v-131q0 -31 -11.5 -42.5t-42.5 -11.5h-6q-32 0 -43.5 11.5t-11.5 42.5v129q-202 18 -318.5 158.5t-116.5 357.5z" />
<glyph unicode="&#xa3;" horiz-adv-x="1165" d="M88 702v6q0 26 10 35.5t36 9.5h143q-26 128 -26 215q0 206 122.5 333t322.5 127q268 0 365 -251q6 -15 6 -24q0 -18 -29 -34l-6 -3q-16 -9 -27 -9q-16 0 -30 26q-50 89 -109.5 138t-157.5 49q-134 0 -214 -84t-80 -268q0 -89 21 -215h286q26 0 36 -9.5t10 -35.5v-6 q0 -26 -10 -36t-36 -10h-268q15 -112 15 -198q0 -100 -31 -177.5t-100 -161.5h654q33 0 43 -11t10 -45v-6q-1 -33 -14 -45t-46 -12h-846q-19 0 -25.5 7t-6.5 26v6q0 20 5.5 28t23.5 18q177 94 177 387q0 87 -17 184h-161q-26 0 -36 10t-10 36z" />
<glyph unicode="&#xa4;" horiz-adv-x="1310" d="M154 282q0 11 17 28l123 120q-87 119 -87 264q0 150 88 270l-124 122q-17 17 -17 29q0 11 16 27l38 37q17 17 28 17t28 -17l122 -123q121 91 269 91q151 0 269 -88l120 120q17 17 28 17q9 0 28 -17l39 -37q16 -16 16 -28q0 -13 -16 -28l-123 -119q91 -119 91 -273 q0 -146 -91 -266l123 -118q17 -17 17 -28t-17 -28l-39 -38q-17 -17 -28 -17t-28 17l-120 121q-122 -89 -269 -89q-150 0 -272 90l-119 -122q-17 -17 -29 -17t-27 17l-38 38q-16 16 -16 28zM341 695q0 -126 91 -217.5t223 -91.5q126 0 220.5 90t94.5 219t-91.5 221.5 t-223.5 92.5q-129 0 -221.5 -91t-92.5 -223z" />
<glyph unicode="&#xa5;" horiz-adv-x="1236" d="M85 1379q0 23 42 23h53q38 0 54 -9.5t35 -43.5l353 -647l370 639q22 38 41 49.5t64 11.5h7q47 0 47 -25q0 -14 -13 -36l-378 -650h198q26 0 35 -9.5t9 -34.5v-6q0 -25 -9 -34.5t-35 -9.5h-252l-18 -32v-126h271q25 0 34 -9t9 -34v-6q0 -25 -9 -34t-34 -9h-271v-287 q0 -35 -13 -47.5t-48 -12.5h-42q-35 0 -47.5 12.5t-12.5 47.5v287h-253q-26 0 -34.5 8.5t-8.5 34.5v6q0 25 9 34t34 9h253v125l-18 33h-234q-25 0 -34.5 9.5t-9.5 34.5v6q0 25 9.5 34.5t34.5 9.5h184l-361 658q-11 20 -11 30z" />
<glyph unicode="&#xa6;" horiz-adv-x="446" d="M155 291q0 23 8.5 31.5t31.5 8.5h56q23 0 31.5 -8.5t8.5 -31.5v-596q0 -23 -8.5 -31.5t-31.5 -8.5h-56q-23 0 -31.5 8.5t-8.5 31.5v596zM155 750v596q0 23 8.5 31.5t31.5 8.5h56q23 0 31.5 -8.5t8.5 -31.5v-596q0 -23 -8.5 -31.5t-31.5 -8.5h-56q-23 0 -31.5 8.5 t-8.5 31.5z" />
<glyph unicode="&#xa7;" horiz-adv-x="1026" d="M98 584q0 59 18 106.5t52 82t71.5 58.5t88.5 47q-181 98 -181 270q0 86 33 153.5t89 108t125.5 61t147.5 20.5q108 0 194 -59t127 -143q8 -15 8 -28q0 -11 -8.5 -18.5t-28.5 -16.5l-5 -3q-17 -7 -28 -7q-20 0 -40 32q-82 129 -215 129q-95 0 -165 -53t-70 -149 q0 -22 4 -41.5t10 -35t17.5 -30.5t21.5 -26t27.5 -23t29 -19.5t33.5 -18t34 -16t36.5 -16t35.5 -15.5q43 -19 68 -30.5t62.5 -29.5t59.5 -31.5t51 -33t45.5 -36.5t35 -40t28 -47t16 -52.5t6.5 -60.5q0 -98 -60 -173.5t-157 -121.5q83 -42 126 -117.5t43 -161.5 q0 -163 -117 -259.5t-285 -96.5q-125 0 -220.5 62.5t-137.5 163.5q-7 15 -7 28q0 23 37 38l6 2q18 8 27 8q20 0 38 -34q36 -69 99 -110t149 -41q103 0 172.5 57.5t69.5 157.5q0 26 -5.5 49t-18 42.5t-25 35.5t-34.5 32.5t-37 27t-43 24t-42 20.5t-44 20t-40 17 q-139 64 -194 102q-134 95 -134 239zM248 638q0 -74 35.5 -123.5t138.5 -96.5l207 -94q150 85 150 198q0 140 -169 217l-198 90q-83 -49 -109 -73q-55 -52 -55 -118z" />
<glyph unicode="&#xa8;" horiz-adv-x="863" d="M139 1322q0 42 30 70.5t72 28.5t68 -28t26 -71t-26 -70.5t-68 -27.5t-72 28.5t-30 69.5zM525 1322q0 42 29 70.5t71 28.5t69.5 -28.5t27.5 -70.5t-27.5 -70t-69.5 -28t-71 28t-29 70z" />
<glyph unicode="&#xa9;" horiz-adv-x="1699" d="M97 728q0 205 101 378t274 273t378 100t378 -100t274 -273t101 -378q0 -153 -59.5 -292.5t-160.5 -240.5t-240.5 -161t-292.5 -60t-292.5 60t-240.5 161t-160.5 240.5t-59.5 292.5zM206 728q0 -137 50 -258.5t135.5 -208t205 -137t253.5 -50.5q179 0 326.5 85.5 t232.5 235.5t85 333q0 181 -85 330t-233 234.5t-326 85.5q-134 0 -253.5 -50.5t-205 -136.5t-135.5 -207t-50 -256zM463 728q0 89 26 171t74.5 147t125.5 103.5t172 38.5q123 0 226.5 -60.5t132.5 -173.5q4 -19 -2.5 -26.5t-26.5 -7.5h-66q-20 0 -27.5 6.5t-14.5 26.5 q-22 63 -80.5 97.5t-141.5 34.5q-113 0 -182 -95.5t-69 -261.5t66 -259t185 -93q79 0 138.5 39.5t82.5 108.5q7 21 15 27.5t28 6.5h66q20 0 27 -7.5t3 -26.5q-24 -118 -125 -188.5t-235 -70.5q-130 0 -221 62t-134 164.5t-43 236.5z" />
<glyph unicode="&#xaa;" horiz-adv-x="785" d="M98 942q0 62 28.5 107t77.5 69t103.5 35t117.5 11q65 0 121 -8v25q0 75 -41.5 121.5t-122.5 46.5q-47 0 -94 -23.5t-82 -62.5q-14 -15 -24 -15q-6 0 -20 7l-5 3q-19 10 -19 21q0 9 6 19q37 63 103.5 99.5t145.5 36.5q142 0 201.5 -69t59.5 -207v-367q0 -19 -7.5 -26.5 t-27.5 -7.5h-39q-20 0 -27 7.5t-7 26.5v62q-84 -111 -210 -111q-103 0 -170.5 53t-67.5 147zM214 951q0 -63 42.5 -97.5t106.5 -34.5t123.5 52.5t59.5 136.5v73q-62 10 -128 10q-52 0 -95 -11t-76 -44t-33 -85z" />
<glyph unicode="&#xab;" horiz-adv-x="1007" d="M67 524q0 15 16 37l243 343q17 24 29.5 30.5t42.5 6.5h62q30 0 30 -15q0 -8 -9 -23l-245 -379l245 -380q9 -15 9 -24q0 -15 -30 -15h-62q-29 0 -42 6.5t-30 31.5l-243 343q-16 22 -16 38zM465 524q0 15 16 37l244 343q17 24 29.5 30.5t42.5 6.5h63q30 0 30 -15 q0 -8 -9 -23l-245 -379l245 -380q9 -15 9 -24q0 -15 -30 -15h-63q-29 0 -42 6.5t-30 31.5l-244 343q-16 22 -16 38z" />
<glyph unicode="&#xac;" horiz-adv-x="1336" d="M140 705v69q0 23 8.5 31.5t31.5 8.5h951q23 0 31.5 -8.5t8.5 -31.5v-531q0 -23 -8.5 -31.5t-31.5 -8.5h-81q-23 0 -31.5 8.5t-8.5 31.5v422h-830q-23 0 -31.5 8.5t-8.5 31.5z" />
<glyph unicode="&#xad;" horiz-adv-x="797" d="M144 516v72q0 19 7.5 26.5t27.5 7.5h440q19 0 26.5 -7t7.5 -27v-72q0 -20 -7.5 -27t-26.5 -7h-440q-20 0 -27.5 7.5t-7.5 26.5z" />
<glyph unicode="&#xae;" horiz-adv-x="1114" d="M95 1018q0 192 135.5 326.5t327.5 134.5t327 -134.5t135 -326.5t-135 -328t-327 -136t-327.5 136t-135.5 328zM176 1018q0 -165 110 -276.5t272 -111.5q161 0 271.5 111.5t110.5 276.5q0 163 -110.5 274t-271.5 111t-271.5 -111t-110.5 -274zM378 790v470q0 20 7.5 27.5 t26.5 7.5h156q210 0 210 -155q0 -120 -113 -147l101 -206q5 -9 5 -18q0 -13 -24 -13h-35q-22 0 -31.5 6t-18.5 25l-93 194h-96v-191q0 -19 -7.5 -26.5t-27.5 -7.5h-26q-20 0 -27 7t-7 27zM473 1053h79q70 0 101.5 21.5t31.5 65.5t-32 63t-103 19h-77v-169z" />
<glyph unicode="&#xaf;" horiz-adv-x="902" d="M158 1293v48q0 20 7.5 27.5t26.5 7.5h516q20 0 27.5 -8t7.5 -27v-48q0 -19 -7.5 -26.5t-27.5 -7.5h-516q-20 0 -27 7.5t-7 26.5z" />
<glyph unicode="&#xb0;" horiz-adv-x="772" d="M88 1178q0 123 87.5 210t210.5 87t210.5 -87t87.5 -210t-87.5 -210.5t-210.5 -87.5t-210.5 87.5t-87.5 210.5zM192 1178q0 -82 56.5 -138t137.5 -56t138 56.5t57 137.5t-57 137.5t-138 56.5t-137.5 -56.5t-56.5 -137.5z" />
<glyph unicode="&#xb1;" horiz-adv-x="1311" d="M139 53v69q0 23 8.5 31.5t31.5 8.5h952q23 0 31.5 -8.5t8.5 -31.5v-69q0 -23 -8.5 -31.5t-31.5 -8.5h-952q-23 0 -31.5 8.5t-8.5 31.5zM139 719v67q0 23 8.5 31.5t31.5 8.5h397v341q0 23 8.5 31.5t31.5 8.5h79q23 0 31.5 -8.5t8.5 -31.5v-341h396q23 0 31.5 -8.5 t8.5 -31.5v-67q0 -23 -8.5 -31.5t-31.5 -8.5h-396v-347q0 -23 -8.5 -31.5t-31.5 -8.5h-79q-23 0 -31.5 8.5t-8.5 31.5v347h-397q-23 0 -31.5 8.5t-8.5 31.5z" />
<glyph unicode="&#xb2;" horiz-adv-x="733" d="M78 895v6q0 25 4.5 35.5t21.5 28.5l307 322q31 33 46 51.5t29.5 51.5t14.5 68q0 65 -41.5 108.5t-105.5 43.5q-56 0 -101 -36t-69 -91q-9 -22 -19 -28.5t-33 -3.5h-5q-34 4 -34 26q0 7 3 17q28 101 98 151.5t171 50.5q113 0 188.5 -62.5t75.5 -170.5q0 -49 -18.5 -92.5 t-39.5 -68.5t-60 -65q-4 -3 -6.5 -5.5t-4.5 -5.5l-267 -274h388q19 0 27 -8t8 -27v-26q0 -19 -7.5 -26.5t-27.5 -7.5h-505q-22 0 -30 8t-8 30z" />
<glyph unicode="&#xb3;" horiz-adv-x="750" d="M79 1048q0 18 32 27l6 2q16 4 19 4q19 0 35 -31q63 -117 190 -117q76 0 127 36t51 109q0 79 -56.5 125.5t-148.5 46.5h-5q-25 0 -33.5 8.5t-8.5 33.5v6q0 24 8.5 32.5t33.5 8.5h6q77 0 126 35t49 103q0 60 -40.5 97.5t-98.5 37.5q-120 0 -179 -113q-14 -29 -33 -29 q-4 0 -20 4l-6 2q-31 9 -31 27q0 9 4 20q30 83 98.5 129t169.5 46q107 0 183.5 -56t76.5 -156q0 -64 -36 -112.5t-98 -74.5q76 -23 120.5 -84t44.5 -139q0 -61 -25.5 -107t-68.5 -72.5t-95 -39.5t-110 -13q-100 0 -175 49t-107 134q-5 13 -5 21z" />
<glyph unicode="&#xb4;" horiz-adv-x="478" d="M66 1190q0 7 7 17l161 259q11 18 21 23.5t32 5.5h131q21 0 21 -9q0 -6 -9 -17l-229 -265q-15 -17 -24.5 -21.5t-32.5 -4.5h-55q-23 0 -23 12z" />
<glyph unicode="&#xb5;" horiz-adv-x="1265" d="M200 -417v1384q0 23 8.5 31t31.5 8h49q23 0 31.5 -8t8.5 -31v-570q0 -129 65 -207t188 -78q151 0 236.5 131t85.5 345v379q0 23 8.5 31t31.5 8h51q23 0 31.5 -8t8.5 -31v-581q0 -65 1 -96.5t7 -74t20 -68t37 -42.5q27 -21 31 -30q5 -10 5 -28v-30q0 -24 -8.5 -32 t-31.5 -5q-49 7 -85 31.5t-57 63t-32.5 79t-18.5 92.5h-2q-43 -128 -126.5 -198.5t-190.5 -70.5q-79 0 -138.5 30t-116.5 96v-520q0 -23 -8.5 -31.5t-31.5 -8.5h-49q-23 0 -31.5 8.5t-8.5 31.5z" />
<glyph unicode="&#xb6;" horiz-adv-x="1322" d="M69 1026q0 211 134.5 319t375.5 108h499q20 0 27.5 -7.5t7.5 -27.5v-1703q0 -19 -7.5 -27t-27.5 -8h-75q-19 0 -27 8t-8 27v1621h-279v-1621q0 -19 -7.5 -27t-27.5 -8h-74q-19 0 -26.5 7.5t-7.5 27.5v897q-207 -2 -342 118.5t-135 295.5z" />
<glyph unicode="&#xb7;" horiz-adv-x="494" d="M144 596q0 42 30.5 71.5t73.5 29.5t71.5 -29t28.5 -72t-28.5 -72.5t-71.5 -29.5t-73.5 29.5t-30.5 72.5z" />
<glyph unicode="&#xb8;" horiz-adv-x="523" d="M65 -386q0 4 4 18l10 29q5 15 13 18t23 -3q44 -16 95 -16q42 0 71 16t29 52q0 43 -45.5 66.5t-102.5 29.5q-15 1 -18 6.5t5 18.5l89 151h104l-75 -117q65 2 117 -37.5t52 -105.5q0 -89 -63.5 -131t-160.5 -42q-70 0 -128 25q-19 8 -19 22z" />
<glyph unicode="&#xb9;" horiz-adv-x="496" d="M43 1497q0 13 20 27l202 142q16 11 24.5 13.5t29.5 2.5h6q17 0 23.5 -6t6.5 -23v-760q0 -19 -7.5 -26.5t-27.5 -7.5h-54q-20 0 -27 7.5t-7 26.5v637l-125 -75q-15 -9 -25 -9q-13 0 -26 21l-3 5q-10 17 -10 25z" />
<glyph unicode="&#xba;" horiz-adv-x="846" d="M93 1082q0 157 88.5 254.5t246.5 97.5q150 0 238 -95.5t88 -244.5q0 -158 -88 -255t-245 -97q-153 0 -240.5 93.5t-87.5 246.5zM211 1090q0 -118 52.5 -195.5t159.5 -77.5q96 0 155 69t59 203q0 114 -54 192t-159 78q-106 0 -159.5 -78t-53.5 -191z" />
<glyph unicode="&#xbb;" horiz-adv-x="1007" d="M117 120q0 7 10 24l244 380l-244 379q-10 17 -10 23q0 15 30 15h63q30 0 42.5 -6.5t29.5 -30.5l243 -343q16 -24 16 -37q0 -14 -16 -38l-243 -343q-17 -25 -30 -31.5t-42 -6.5h-63q-30 0 -30 15zM516 120q0 9 9 24l246 380l-246 379q-9 15 -9 23q0 15 30 15h64 q30 0 42 -6t29 -31l244 -343q16 -24 16 -37q0 -14 -16 -38l-244 -343q-17 -25 -29.5 -31.5t-41.5 -6.5h-64q-30 0 -30 15z" />
<glyph unicode="&#xbc;" horiz-adv-x="1488" d="M76 1263q0 13 21 28l201 139q18 12 26 15t29 3h6q17 0 23 -6.5t6 -23.5v-760q0 -20 -7 -27t-27 -7h-54q-20 0 -27.5 7.5t-7.5 26.5v637l-124 -75q-15 -9 -24 -9q-11 0 -27 22l-4 5q-10 17 -10 25zM215 -41q0 7 6 18l846 1498q11 19 20 24.5t31 5.5h61q24 0 24 -12 q0 -7 -6 -18l-846 -1498q-11 -19 -20 -24.5t-31 -5.5h-61q-24 0 -24 12zM782 238v7q0 21 3 30.5t16 28.5l340 496q12 18 22 23t32 5h58q19 0 26.5 -7t7.5 -27v-498h86q19 0 26.5 -7t7.5 -27v-22q0 -20 -7.5 -27.5t-26.5 -7.5h-86v-166q0 -20 -7.5 -27.5t-26.5 -7.5h-50 q-19 0 -27 8t-8 27v166h-353q-19 0 -26 6.5t-7 26.5zM918 296h250l1 370z" />
<glyph unicode="&#xbd;" horiz-adv-x="1576" d="M76 1263q0 12 21 27l202 141q17 12 25 14.5t28 2.5h6q17 0 23.5 -6.5t6.5 -23.5v-760q0 -19 -7.5 -26.5t-27.5 -7.5h-54q-19 0 -26.5 7t-7.5 27v637l-124 -75q-17 -10 -25 -10q-13 0 -27 23l-3 5q-10 17 -10 25zM214 -41q0 6 7 18l845 1498q11 19 20 24.5t31 5.5h61 q24 0 24 -12q0 -7 -6 -18l-846 -1498q-11 -19 -20 -24.5t-31 -5.5h-61q-24 0 -24 12zM912 39v6q0 25 4.5 36t21.5 29l306 323q30 32 46 51t30.5 51.5t14.5 67.5q0 66 -42 109t-106 43q-56 0 -101 -35.5t-69 -91.5q-9 -22 -18.5 -28t-32.5 -4l-6 1q-34 4 -34 25q0 8 3 18 q28 101 98 151t171 50q113 0 188 -62.5t75 -170.5q0 -50 -18.5 -93t-39 -68t-59.5 -65l-11 -11l-268 -275h388q20 0 27.5 -7.5t7.5 -26.5v-26q0 -19 -7.5 -26.5t-27.5 -7.5h-504q-22 0 -29.5 7.5t-7.5 29.5z" />
<glyph unicode="&#xbe;" horiz-adv-x="1654" d="M83 812q0 18 31 27l6 2q16 4 20 4q18 0 35 -30q64 -119 190 -119q76 0 126.5 36.5t50.5 109.5q0 80 -56.5 126t-148.5 46h-13q-19 0 -26.5 7.5t-7.5 27.5v21q0 20 7 27t27 7h15q77 0 125.5 34.5t48.5 103.5q0 60 -40.5 97.5t-98.5 37.5q-120 0 -179 -112q-14 -28 -33 -28 q-12 0 -20 2l-6 2q-31 8 -31 26q0 11 4 20q30 83 98.5 130t169.5 47q108 0 184 -56.5t76 -158.5q0 -63 -36 -110.5t-98 -74.5q77 -22 121.5 -83.5t44.5 -139.5q0 -81 -45 -135t-110 -76t-145 -22q-100 0 -174 49.5t-107 133.5q-5 13 -5 21zM390 -41q0 7 6 18l845 1498 q11 19 20 24.5t31 5.5h62q24 0 24 -12q0 -7 -6 -18l-846 -1498q-11 -19 -20 -24.5t-31 -5.5h-61q-24 0 -24 12zM957 238v7q0 22 2.5 31.5t15.5 27.5l341 496q12 18 22 23t32 5h57q20 0 27.5 -7.5t7.5 -26.5v-498h85q20 0 27.5 -7.5t7.5 -26.5v-22q0 -20 -8 -27.5t-27 -7.5 h-85v-166q0 -19 -8 -27t-27 -8h-50q-19 0 -26.5 7.5t-7.5 27.5v166h-353q-20 0 -26.5 6.5t-6.5 26.5zM1093 296h250v370z" />
<glyph unicode="&#xbf;" horiz-adv-x="978" d="M95 -30q0 62 15 112t50 95.5t64.5 74.5t85.5 77q54 46 78.5 71.5t46 66t31 85.5t20.5 130q3 25 12.5 33t34.5 8h6q25 0 34 -8t10 -33q6 -72 6 -123q0 -45 -9.5 -84t-21.5 -66.5t-39.5 -61t-47 -53t-59.5 -58.5q-41 -39 -57.5 -56t-43 -52t-37 -70.5t-10.5 -79.5 q0 -108 71 -174t178 -66q205 0 294 213q9 22 17.5 31t22.5 9q12 0 27 -6l5 -2q23 -7 32.5 -15.5t9.5 -23.5q0 -6 -4 -24q-38 -142 -145 -221.5t-272 -79.5q-109 0 -199 37.5t-148 119t-58 194.5zM436 1008q0 42 29 71.5t72 29.5t73 -29.5t30 -71.5t-30 -71t-73 -29t-72 28.5 t-29 71.5z" />
<glyph unicode="&#xc0;" horiz-adv-x="1391" d="M20 29q0 13 10 36l612 1353q10 22 20 28.5t34 6.5h6q24 0 34 -6.5t20 -28.5l604 -1363q8 -16 8 -30q0 -25 -44 -25h-60q-38 0 -53.5 10.5t-30.5 44.5l-157 367h-694l-153 -357q-17 -41 -35.5 -53t-62.5 -12h-6q-52 0 -52 29zM351 1815q0 13 34 13h94q39 0 55.5 -8 t42.5 -39l133 -161q16 -21 16 -32q0 -17 -38 -17h-7q-42 0 -60 7t-50 35l-201 176q-19 16 -19 26zM377 530h599l-292 703z" />
<glyph unicode="&#xc1;" horiz-adv-x="1391" d="M20 29q0 13 10 36l613 1353q10 22 19.5 28.5t33.5 6.5h6q23 0 33 -6.5t20 -28.5l604 -1363q9 -18 9 -30q0 -25 -44 -25h-59q-38 0 -54 10.5t-31 44.5l-157 367h-694l-153 -357q-17 -41 -35.5 -53t-62.5 -12h-6q-52 0 -52 29zM377 530h599l-292 703zM671 1584q0 10 16 31 l133 162q25 31 41.5 39t56.5 8h94q34 0 34 -14q0 -10 -19 -26l-201 -175q-32 -28 -50 -35t-60 -7h-6q-39 0 -39 17z" />
<glyph unicode="&#xc2;" horiz-adv-x="1391" d="M21 29q0 16 10 36l612 1353q10 22 20 28.5t34 6.5h6q24 0 33.5 -6.5t19.5 -28.5l604 -1363q9 -18 9 -30q0 -25 -44 -25h-60q-38 0 -54 10.5t-31 44.5l-156 367h-695l-152 -357q-17 -41 -35.5 -53t-62.5 -12h-6q-52 0 -52 29zM377 530h599l-292 703zM437 1586q0 12 19 34 l129 153q28 34 47.5 42.5t63.5 8.5h6q44 0 63.5 -8.5t48.5 -42.5l131 -153q18 -22 18 -34q0 -19 -42 -19h-6q-46 0 -66 9.5t-49 45.5l-98 121l-100 -122q-29 -35 -49 -44.5t-66 -9.5h-6q-44 0 -44 19z" />
<glyph unicode="&#xc3;" horiz-adv-x="1389" d="M20 29q0 15 9 36l613 1353q10 22 20 28.5t34 6.5h6q23 0 33 -6.5t20 -28.5l604 -1363q8 -16 8 -30q0 -25 -44 -25h-59q-38 0 -53.5 10.5t-30.5 44.5l-158 367h-693l-153 -357q-17 -40 -36 -52.5t-63 -12.5h-6q-51 0 -51 29zM376 530h599l-292 703zM447 1611q0 4 2 18 q15 74 55 114.5t88 40.5q34 0 61 -10.5t43.5 -25t30.5 -29t29 -25t32 -10.5q38 0 55 49q9 28 20 37t38 9h6q42 0 42 -29q0 -11 -1 -18q-15 -74 -55.5 -114.5t-89.5 -40.5q-42 0 -73.5 16t-47 34.5t-35.5 34.5t-40 16q-38 0 -55 -50q-9 -28 -19.5 -37t-37.5 -9h-6 q-42 0 -42 29z" />
<glyph unicode="&#xc4;" horiz-adv-x="1391" d="M20 29q0 15 9 36l614 1353q10 22 19.5 28.5t33.5 6.5h6q23 0 33 -6.5t20 -28.5l604 -1363q9 -18 9 -30q0 -25 -44 -25h-60q-38 0 -53.5 10.5t-30.5 44.5l-157 367h-694l-153 -357q-17 -40 -36 -52.5t-63 -12.5h-6q-51 0 -51 29zM376 530h600l-293 703zM409 1672 q0 41 30 69.5t72 28.5t68 -28t26 -70q0 -43 -26 -71t-68 -28t-72 28.5t-30 70.5zM795 1672q0 41 28.5 69.5t71.5 28.5q41 0 68.5 -28.5t27.5 -69.5q0 -42 -27.5 -70.5t-68.5 -28.5q-43 0 -71.5 28.5t-28.5 70.5z" />
<glyph unicode="&#xc5;" horiz-adv-x="1389" d="M20 29q0 13 10 36l613 1353q10 22 19.5 28.5t33.5 6.5h6q23 0 33 -6.5t20 -28.5l604 -1363q9 -18 9 -30q0 -25 -44 -25h-60q-38 0 -53.5 10.5t-30.5 44.5l-158 367h-693l-153 -357q-17 -41 -35.5 -53t-62.5 -12h-6q-52 0 -52 29zM377 530h599l-292 703zM489 1758 q0 87 61.5 148.5t147.5 61.5q87 0 148.5 -61.5t61.5 -148.5q0 -86 -61.5 -148t-148.5 -62q-86 0 -147.5 62t-61.5 148zM575 1758q0 -51 36 -87.5t87 -36.5q52 0 88.5 36.5t36.5 87.5q0 52 -36.5 88.5t-88.5 36.5t-87.5 -36.5t-35.5 -88.5z" />
<glyph unicode="&#xc6;" horiz-adv-x="1963" d="M-6 23q0 13 15 36l915 1344q22 32 38.5 41t55.5 9h761q29 0 40 -11t11 -40v-7q0 -30 -11 -40.5t-40 -10.5h-723l68 -534h600q29 0 39 -10.5t10 -39.5v-6q0 -29 -10 -39.5t-39 -10.5h-587l75 -596h601q29 0 40 -11t11 -40v-6q0 -29 -11 -40t-40 -11h-686q-36 0 -49.5 12.5 t-18.5 47.5l-46 362h-611l-244 -363q-25 -38 -45 -48.5t-66 -10.5h-6q-47 0 -47 23zM475 530h525l-76 663z" />
<glyph unicode="&#xc7;" horiz-adv-x="1449" d="M110 723q0 157 49.5 295t139.5 240.5t226.5 161.5t300.5 59q173 0 301.5 -74t197.5 -206q10 -20 10 -30q0 -20 -32 -33l-6 -3q-19 -9 -31 -9q-16 0 -37 28q-70 97 -173.5 154t-225.5 57q-108 0 -198.5 -34.5t-154 -94.5t-108 -141t-65.5 -173.5t-21 -193.5 q0 -100 22 -193t67 -174t109 -141t154 -94.5t195 -34.5q132 0 241.5 61t185.5 168q17 25 36 25q10 0 28 -9l6 -3q29 -15 29 -33q0 -10 -10 -28q-71 -131 -191 -207.5t-283 -88.5l-52 -80q65 2 117 -38t52 -106q0 -89 -64 -131t-161 -42q-58 0 -115 21q-28 10 -28 28 q0 10 6 27l2 6q10 28 28 28q6 0 23 -5q42 -13 83 -13q42 0 71 16.5t29 52.5q0 68 -117 91q-40 7 -40 28q0 10 11 30l53 88q-152 8 -277.5 70t-208.5 162.5t-128.5 233t-45.5 282.5z" />
<glyph unicode="&#xc8;" horiz-adv-x="1202" d="M201 60v1332q0 35 12.5 48t47.5 13h768q29 0 40 -11t11 -40v-7q0 -30 -11 -40.5t-40 -10.5h-668v-534h601q29 0 39.5 -10.5t10.5 -39.5v-6q0 -29 -10.5 -39.5t-39.5 -10.5h-601v-596h680q29 0 39.5 -11t10.5 -40v-6q0 -29 -10.5 -40t-39.5 -11h-780q-35 0 -47.5 12.5 t-12.5 47.5zM353 1815q0 13 33 13h95q40 0 56.5 -8t41.5 -39l133 -161q16 -21 16 -31q0 -18 -39 -18h-6q-42 0 -60 7t-50 35l-201 176q-19 16 -19 26z" />
<glyph unicode="&#xc9;" horiz-adv-x="1203" d="M202 60v1332q0 35 12.5 48t47.5 13h768q29 0 40 -11t11 -40v-7q0 -30 -11 -40.5t-40 -10.5h-668v-534h600q29 0 39.5 -10.5t10.5 -39.5v-6q0 -29 -10.5 -39.5t-39.5 -10.5h-600v-596h680q29 0 39.5 -11t10.5 -40v-6q0 -29 -10.5 -40t-39.5 -11h-780q-35 0 -47.5 12.5 t-12.5 47.5zM555 1585q0 12 16 31l134 161q26 31 42.5 39t55.5 8h95q34 0 34 -13q0 -10 -20 -27l-200 -175q-33 -28 -51 -35t-60 -7h-6q-40 0 -40 18z" />
<glyph unicode="&#xca;" horiz-adv-x="1201" d="M201 60v1332q0 35 12.5 48t47.5 13h768q29 0 40 -11t11 -40v-7q0 -29 -11 -40t-40 -11h-668v-534h601q29 0 39 -10.5t10 -39.5v-6q0 -29 -10 -39.5t-39 -10.5h-601v-596h680q29 0 39.5 -11t10.5 -40v-6q0 -29 -10.5 -40t-39.5 -11h-780q-35 0 -47.5 12.5t-12.5 47.5z M382 1587q0 12 18 33l130 153q28 34 47.5 42.5t63.5 8.5h6q44 0 63 -8.5t48 -42.5l132 -153q19 -24 19 -34q0 -19 -43 -19h-6q-47 0 -67 9.5t-49 45.5l-98 121l-101 -123q-29 -35 -48.5 -44t-65.5 -9h-6q-43 0 -43 20z" />
<glyph unicode="&#xcb;" horiz-adv-x="1202" d="M201 60v1332q0 35 12.5 48t47.5 13h768q29 0 40 -11t11 -40v-7q0 -29 -11 -40t-40 -11h-668v-534h601q29 0 39.5 -10.5t10.5 -39.5v-6q0 -29 -10.5 -39.5t-39.5 -10.5h-601v-596h680q29 0 39.5 -11t10.5 -40v-6q0 -29 -10.5 -40t-39.5 -11h-780q-35 0 -47.5 12.5 t-12.5 47.5zM355 1674q0 41 30 69t72 28q41 0 67.5 -27.5t26.5 -69.5t-26.5 -70.5t-67.5 -28.5q-42 0 -72 28.5t-30 70.5zM741 1674q0 41 28.5 69t71.5 28q41 0 69 -28t28 -69q0 -42 -28 -70.5t-69 -28.5q-43 0 -71.5 28.5t-28.5 70.5z" />
<glyph unicode="&#xcc;" horiz-adv-x="562" d="M-29 1815q0 14 33 14h96q40 0 56.5 -8t41.5 -39l132 -162q15 -20 15 -31q0 -18 -38 -18h-6q-42 0 -60.5 7t-50.5 35l-200 176q-19 16 -19 26zM201 60v1332q0 35 12.5 48t47.5 13h41q35 0 47.5 -13t12.5 -48v-1332q0 -35 -12.5 -47.5t-47.5 -12.5h-41q-35 0 -47.5 12.5 t-12.5 47.5z" />
<glyph unicode="&#xcd;" horiz-adv-x="562" d="M201 60v1332q0 35 12.5 48t47.5 13h40q35 0 47.5 -13t12.5 -48v-1332q0 -35 -12.5 -47.5t-47.5 -12.5h-40q-35 0 -47.5 12.5t-12.5 47.5zM226 1585q0 11 17 31l133 161q26 31 42.5 39t55.5 8h94q34 0 34 -14q0 -10 -19 -26l-200 -175q-33 -28 -51 -35t-60 -7h-6 q-40 0 -40 18z" />
<glyph unicode="&#xce;" horiz-adv-x="561" d="M17 1586q0 13 18 34l129 153q28 34 47.5 42.5t63.5 8.5h6q44 0 63.5 -8.5t48.5 -42.5l131 -153q19 -22 19 -34q0 -19 -43 -19h-6q-46 0 -66 9.5t-49 45.5l-97 121l-101 -122q-29 -35 -49 -44.5t-66 -9.5h-6q-43 0 -43 19zM201 60v1332q0 35 12.5 48t47.5 13h39 q35 0 47.5 -13t12.5 -48v-1332q0 -35 -12.5 -47.5t-47.5 -12.5h-39q-35 0 -47.5 12.5t-12.5 47.5z" />
<glyph unicode="&#xcf;" horiz-adv-x="562" d="M-10 1674q0 41 30 69t72 28q41 0 67.5 -27.5t26.5 -69.5t-26.5 -70.5t-67.5 -28.5q-42 0 -72 28.5t-30 70.5zM202 60v1332q0 35 12.5 48t47.5 13h39q35 0 47.5 -13t12.5 -48v-1332q0 -35 -12.5 -47.5t-47.5 -12.5h-39q-35 0 -47.5 12.5t-12.5 47.5zM377 1674 q0 41 28.5 69t69.5 28q42 0 69.5 -28t27.5 -69q0 -42 -27.5 -70.5t-69.5 -28.5q-41 0 -69.5 28.5t-28.5 70.5z" />
<glyph unicode="&#xd1;" horiz-adv-x="1604" d="M201 63v1329q0 35 12.5 48t47.5 13h54q39 0 56 -8.5t40 -39.5l860 -1130v1114q0 37 13.5 50.5t50.5 13.5h6q37 0 50 -13.5t13 -50.5v-1336q0 -31 -11 -42t-42 -11h-6q-35 0 -50 7t-36 35l-925 1205v-1184q0 -37 -13.5 -50t-50.5 -13h-6q-37 0 -50 13t-13 50zM565 1628 q16 75 56 115.5t88 40.5q34 0 61 -10.5t43.5 -25t30.5 -29t29 -25t32 -10.5q38 0 55 49q9 28 19.5 37t38.5 9h6q22 0 31.5 -6.5t9.5 -22.5q0 -11 -1 -18q-15 -74 -55.5 -114.5t-89.5 -40.5q-42 0 -73.5 16t-47 34.5t-35.5 34.5t-40 16q-37 0 -54 -51q-9 -27 -20 -36t-38 -9 h-6q-27 0 -36 10t-4 36z" />
<glyph unicode="&#xd2;" horiz-adv-x="1653" d="M108 724q0 221 90 393t254.5 267t377.5 95q209 0 372.5 -96t254 -267t90.5 -387q0 -218 -87.5 -389t-251 -268.5t-378.5 -97.5t-380 96t-253.5 266.5t-88.5 387.5zM280 728q0 -132 36.5 -249t104.5 -206t174 -141t235 -52q105 0 194 34.5t153 95.5t108.5 143t66.5 177.5 t22 199.5q0 131 -37 246.5t-105 203.5t-172.5 139t-231.5 51q-165 0 -291 -86t-191.5 -231t-65.5 -325zM540 1822q0 14 34 14h94q40 0 56.5 -8t41.5 -39l133 -161q16 -21 16 -32q0 -17 -39 -17h-6q-42 0 -60.5 7t-50.5 35l-200 175q-19 16 -19 26z" />
<glyph unicode="&#xd3;" horiz-adv-x="1653" d="M108 724q0 221 90 393t254.5 267t377.5 95q209 0 372.5 -96t253.5 -267t90 -387q0 -218 -87 -389t-250.5 -268.5t-378.5 -97.5t-380 96t-253.5 266.5t-88.5 387.5zM280 728q0 -132 36.5 -249t104.5 -206t173.5 -141t234.5 -52q105 0 194 34.5t153 95.5t108.5 143 t66.5 177.5t22 199.5q0 176 -62.5 320t-188 232.5t-294.5 88.5q-165 0 -291 -86t-191.5 -231.5t-65.5 -325.5zM753 1594q0 12 16 31l134 161q24 30 41.5 38t57.5 8h93q34 0 34 -13q0 -11 -19 -27l-199 -174q-32 -29 -50.5 -36t-61.5 -7h-6q-40 0 -40 19z" />
<glyph unicode="&#xd4;" horiz-adv-x="1653" d="M108 724q0 221 90 393t254.5 267t377.5 95q209 0 372.5 -96t254 -267t90.5 -387q0 -218 -87.5 -389t-251 -268.5t-378.5 -97.5t-380 96t-253.5 266.5t-88.5 387.5zM280 728q0 -132 36.5 -249t104.5 -206t174 -141t235 -52q105 0 194 34.5t153 95.5t108.5 143t66.5 177.5 t22 199.5q0 131 -37 247t-105 204t-172.5 139t-231.5 51q-165 0 -291 -86.5t-191.5 -231.5t-65.5 -325zM563 1595q0 13 18 34l130 152q29 34 47.5 42.5t63.5 8.5h6q44 0 63.5 -8.5t48.5 -42.5l132 -151q18 -21 18 -35q0 -20 -43 -20h-6q-47 0 -67 9.5t-49 46.5l-96 120 l-102 -122q-29 -35 -49 -44.5t-66 -9.5h-6q-43 0 -43 20z" />
<glyph unicode="&#xd5;" horiz-adv-x="1654" d="M108 724q0 221 90 393t254.5 267t377.5 95q209 0 372.5 -96t254 -267t90.5 -387q0 -218 -87.5 -389t-251 -268.5t-378.5 -97.5t-380 96t-253.5 266.5t-88.5 387.5zM280 728q0 -132 36.5 -249t104.5 -206t174 -141t235 -52q105 0 194 34.5t153 95.5t108.5 143t66.5 177.5 t22 199.5q0 131 -37 247t-105 204t-172.5 139t-231.5 51q-165 0 -291 -86t-191.5 -231.5t-65.5 -325.5zM578 1635q16 75 56 115.5t89 40.5q42 0 73.5 -16t47 -35t35.5 -35t40 -16q37 0 54 51q9 28 19.5 37t38.5 9h6q27 0 36.5 -10.5t4.5 -36.5q-16 -75 -56.5 -115.5 t-89.5 -40.5q-41 0 -72.5 16t-47 34.5t-35.5 34.5t-40 16q-38 0 -55 -49q-9 -28 -19.5 -37.5t-37.5 -9.5h-6q-27 0 -36.5 10.5t-4.5 36.5z" />
<glyph unicode="&#xd6;" horiz-adv-x="1653" d="M108 724q0 221 90 393t254.5 267t377.5 95q156 0 290 -56t227 -155t146 -238t53 -301q0 -218 -87 -389t-250.5 -268.5t-378.5 -97.5t-380 96t-253.5 266.5t-88.5 387.5zM280 728q0 -132 36.5 -249t104.5 -206t174 -141t235 -52q105 0 194 34.5t153 95.5t108.5 143 t66.5 177.5t22 199.5q0 131 -37 247t-105 204t-172.5 139t-231.5 51q-165 0 -291 -86t-191.5 -231.5t-65.5 -325.5zM535 1680q0 42 30 70t73 28q41 0 67.5 -28t26.5 -70t-26.5 -70t-67.5 -28q-42 0 -72.5 28.5t-30.5 69.5zM922 1680q0 42 29 70t71 28q41 0 69 -28t28 -70 q0 -41 -28 -69.5t-69 -28.5t-70.5 28.5t-29.5 69.5z" />
<glyph unicode="&#xd7;" horiz-adv-x="1157" d="M127 258q0 11 17 28l324 324l-324 325q-17 17 -17 28t17 28l56 55q17 17 29 17q11 0 28 -17l324 -322l323 322q16 16 29 16q12 0 28 -16l52 -54q17 -17 17 -28t-17 -28l-322 -323l325 -324q17 -17 17 -29q0 -11 -17 -28l-56 -57q-18 -18 -28 -18q-11 0 -28 17l-325 325 l-325 -325q-17 -17 -27 -17q-11 0 -29 18l-54 55q-17 17 -17 28z" />
<glyph unicode="&#xd8;" horiz-adv-x="1652" d="M107 724q0 221 90 393t255 267t378 95q242 0 427 -131l113 139q21 25 37 25t35 -19l4 -4q24 -20 24 -38q0 -16 -17 -37l-113 -139q99 -101 152.5 -241t53.5 -305q0 -218 -87 -389t-250.5 -268.5t-378.5 -97.5q-253 0 -435 129l-111 -137q-21 -25 -36 -25t-36 18l-4 4 q-26 21 -26 38q0 13 19 37l112 138q-99 101 -152.5 241.5t-53.5 306.5zM280 728q0 -259 126 -439l766 956q-142 125 -344 125q-165 0 -291 -86t-191.5 -231t-65.5 -325zM482 207q141 -127 347 -127q105 0 194 34.5t153 95.5t108.5 143t66.5 177.5t22 199.5q0 257 -126 433z " />
<glyph unicode="&#xd9;" horiz-adv-x="1497" d="M185 490v902q0 35 12.5 48t47.5 13h39q35 0 48 -13t13 -48v-854q0 -217 100.5 -336.5t310.5 -119.5q207 0 313 118.5t106 329.5v857q0 38 13.5 52t52.5 14h6q38 0 52 -14t14 -52v-887q0 -262 -148 -394t-413 -132q-263 0 -415 133t-152 383zM473 1815q0 13 33 13h95 q39 0 55.5 -8t42.5 -39l134 -161q16 -21 16 -31q0 -18 -40 -18h-6q-42 0 -60.5 7t-50.5 35l-200 176q-19 16 -19 26z" />
<glyph unicode="&#xda;" horiz-adv-x="1498" d="M184 490v902q0 35 13 48t48 13h39q35 0 47.5 -13t12.5 -48v-854q0 -217 100.5 -336.5t311.5 -119.5q206 0 312 118.5t106 329.5v856q0 39 14 53t53 14h6q39 0 52.5 -14t13.5 -53v-886q0 -261 -148.5 -393.5t-412.5 -132.5q-263 0 -415.5 133t-152.5 383zM662 1585 q0 9 16 30l133 162q25 31 41.5 39t56.5 8h94q34 0 34 -14q0 -10 -19 -26l-201 -176q-31 -28 -49 -34.5t-61 -6.5h-6q-39 0 -39 18z" />
<glyph unicode="&#xdb;" horiz-adv-x="1498" d="M185 490v902q0 35 12.5 48t47.5 13h40q35 0 47.5 -13t12.5 -48v-854q0 -217 100 -336.5t311 -119.5q206 0 312.5 118.5t106.5 329.5v856q0 39 13.5 53t52.5 14h6q39 0 53 -14t14 -53v-886q0 -261 -148.5 -393.5t-412.5 -132.5q-263 0 -415.5 133t-152.5 383zM496 1587 q0 12 19 34l130 152q29 34 47.5 42.5t63.5 8.5h7q44 0 63 -8.5t48 -42.5l131 -152q19 -22 19 -34q0 -20 -43 -20h-6q-47 0 -67 9.5t-49 46.5l-96 120l-102 -121q-30 -36 -50 -45.5t-65 -9.5h-6q-44 0 -44 20z" />
<glyph unicode="&#xdc;" horiz-adv-x="1498" d="M184 490v902q0 35 13 48t48 13h39q35 0 47.5 -13t12.5 -48v-854q0 -217 100.5 -336.5t311.5 -119.5q206 0 312 118.5t106 329.5v856q0 39 14 53t53 14h6q39 0 52.5 -14t13.5 -53v-886q0 -261 -148.5 -393.5t-412.5 -132.5q-263 0 -415.5 133t-152.5 383zM457 1674 q0 41 30 69.5t72 28.5t68.5 -28t26.5 -70t-27 -70.5t-68 -28.5q-42 0 -72 29t-30 70zM844 1674q0 42 29 70t71 28q41 0 69 -28t28 -70q0 -41 -28 -70t-69 -29q-42 0 -71 29t-29 70z" />
<glyph unicode="&#xdd;" horiz-adv-x="1225" d="M12 1432q0 21 40 21h66q39 0 55.5 -9t36.5 -42l416 -675l432 665q25 39 45 50t66 11h6q47 0 47 -24q0 -15 -15 -37l-516 -801v-531q0 -35 -13 -47.5t-48 -12.5h-41q-35 0 -47.5 12.5t-12.5 47.5v530l-506 812q-11 18 -11 30zM543 1578q0 10 16 31l133 162q25 31 41.5 39 t56.5 8h95q34 0 34 -13q0 -11 -19 -27l-201 -175q-32 -28 -50.5 -35t-60.5 -7h-6q-39 0 -39 17z" />
<glyph unicode="&#xdf;" horiz-adv-x="1199" d="M165 54v1010q0 213 119 334.5t327 121.5q73 0 136 -16.5t114.5 -50t81 -90t29.5 -131.5q0 -68 -31 -122.5t-75 -89.5t-87.5 -66.5t-74.5 -69t-31 -81.5q0 -52 25.5 -90t65.5 -61t89 -43t98 -44t89 -55t65.5 -84.5t25.5 -125.5q0 -84 -27 -148t-72.5 -101t-100.5 -55.5 t-116 -18.5q-195 0 -300 171q-10 17 -10 26q0 16 28 30l5 2q18 9 28 9q15 0 34 -23q86 -104 222 -104q69 0 118 47t49 140q0 52 -25.5 88.5t-66 58.5t-89.5 40.5t-98 42t-89.5 56t-66 89.5t-25.5 135q0 43 16 80.5t42 64.5t57 52t62.5 49t57.5 49t42 57.5t16 69.5 q0 100 -64.5 152t-169.5 52q-74 0 -129 -29t-85.5 -79.5t-45 -111t-14.5 -131.5v-1006q0 -32 -11 -43t-43 -11h-41q-31 0 -42.5 11t-11.5 43z" />
<glyph unicode="&#xe0;" d="M88 279q0 76 29 135.5t76.5 97t113.5 61.5t133 33.5t142 9.5q94 0 193 -15v45q0 118 -65 190t-194 72q-76 0 -149 -35.5t-127 -95.5q-18 -21 -33 -21q-9 0 -26 9l-6 3q-25 15 -25 30q0 10 9 25q54 95 154.5 150.5t221.5 55.5q212 0 301 -105.5t89 -313.5v-556 q0 -32 -11.5 -43t-42.5 -11h-42q-31 0 -42.5 11t-11.5 43v115h-1q-127 -192 -329 -192q-155 0 -256 80.5t-101 221.5zM249 292q0 -98 67.5 -152t169.5 -54q45 0 94.5 20t93.5 55.5t72.5 93t28.5 125.5v118q-103 16 -205 16q-59 0 -112 -10.5t-102 -34.5t-78 -69.5 t-29 -107.5zM255 1440q0 14 33 14h93q34 0 49 -8.5t34 -37.5l138 -220q11 -19 11 -30q0 -20 -39 -20h-6q-39 0 -56 8t-43 37l-200 230q-14 15 -14 27z" />
<glyph unicode="&#xe1;" horiz-adv-x="1077" d="M87 279q0 76 29 135.5t76.5 97t113.5 61.5t133 33.5t142 9.5q93 0 194 -15v45q0 117 -65.5 189.5t-194.5 72.5q-76 0 -150 -36t-127 -96q-18 -21 -32 -21q-13 0 -27 10l-4 3q-26 15 -26 30q0 10 9 25q54 95 154 150.5t221 55.5q213 0 301.5 -105t88.5 -314v-556 q0 -32 -11.5 -43t-42.5 -11h-41q-32 0 -43 11t-11 43v115h-2q-127 -192 -328 -192q-154 0 -255.5 80.5t-101.5 221.5zM248 292q0 -98 67.5 -152t169.5 -54q45 0 94.5 20t93.5 55.5t72.5 93t28.5 125.5v118q-103 16 -204 16q-60 0 -113 -10.5t-102 -34.5t-78 -69t-29 -108z M461 1158q0 9 12 30l137 220q19 29 34 37.5t49 8.5h92q33 0 33 -14q0 -12 -14 -27l-200 -230q-26 -29 -42.5 -37t-55.5 -8h-6q-39 0 -39 20z" />
<glyph unicode="&#xe2;" horiz-adv-x="1077" d="M88 279q0 76 29 135.5t76.5 97t113.5 61.5t133 33.5t142 9.5q94 0 193 -15v45q0 118 -65 190t-194 72q-76 0 -149.5 -36t-126.5 -95q-18 -21 -33 -21q-9 0 -26 9l-6 3q-25 15 -25 30q0 10 9 25q54 95 154 150.5t221 55.5q212 0 301 -105t89 -314v-556q0 -32 -11 -43 t-43 -11h-41q-31 0 -42.5 11t-11.5 43v115h-1q-129 -192 -329 -192q-154 0 -255.5 80.5t-101.5 221.5zM249 292q0 -98 67.5 -152t169.5 -54q45 0 94.5 20t93.5 55.5t72.5 93t28.5 125.5v118q-103 16 -205 16q-59 0 -112 -10.5t-102 -34.5t-78 -69.5t-29 -107.5zM294 1159 q0 12 14 34l134 209q22 34 39 43t58 9h7q41 0 58 -9t39 -43l137 -209q13 -20 13 -34q0 -22 -43 -22h-6q-42 0 -60 10t-40 46l-98 161l-102 -161q-23 -36 -40.5 -46t-59.5 -10h-6q-44 0 -44 22z" />
<glyph unicode="&#xe3;" d="M88 279q0 76 29 135.5t76.5 97t113.5 61.5t133 33.5t142 9.5q94 0 193 -15v45q0 118 -65 190.5t-194 72.5q-76 0 -149.5 -36t-127.5 -96q-18 -21 -33 -21q-12 0 -26 10l-5 3q-26 15 -26 30q0 9 9 24q55 95 155.5 150.5t220.5 55.5q109 0 185.5 -28t121 -83.5t64.5 -130.5 t20 -177v-556q0 -32 -11.5 -43t-42.5 -11h-42q-31 0 -42.5 11t-11.5 43v115h-1q-129 -192 -329 -192q-154 0 -255.5 80.5t-101.5 221.5zM249 292q0 -98 67.5 -152t169.5 -54q45 0 94.5 20t93.5 55.5t72.5 93t28.5 125.5v118q-103 16 -205 16q-59 0 -112 -10.5t-102 -34.5 t-78 -69.5t-29 -107.5zM284 1215q15 79 56 121t90 42q34 0 61 -11t43.5 -26t30.5 -30.5t29 -26.5t32 -11q37 0 55 54q8 28 19 37t38 9h6q28 0 37 -10t4 -36q-14 -79 -55 -121.5t-90 -42.5q-42 0 -73.5 16.5t-47 35.5t-35.5 35.5t-40 16.5q-37 0 -54 -53q-9 -28 -20 -37.5 t-38 -9.5h-6q-28 0 -37.5 10.5t-4.5 37.5z" />
<glyph unicode="&#xe4;" d="M88 279q0 76 29 135.5t76.5 97t113.5 61.5t133 33.5t142 9.5q94 0 193 -15v45q0 118 -64.5 190t-194.5 72q-76 0 -149.5 -35.5t-126.5 -95.5q-18 -21 -33 -21q-9 0 -26 9l-6 3q-25 15 -25 30q0 10 9 25q54 95 154 150.5t221 55.5q212 0 301 -105t89 -314v-556 q0 -32 -11 -43t-43 -11h-42q-32 0 -43 11t-11 43v115h-1q-127 -192 -328 -192q-154 0 -255.5 80.5t-101.5 221.5zM249 292q0 -98 67.5 -152t169.5 -54q45 0 94 20t93 55.5t72.5 93t28.5 125.5v118q-103 16 -204 16q-59 0 -112 -10.5t-102 -34.5t-78 -69.5t-29 -107.5z M253 1255q0 41 30 69t72 28t68 -27t26 -70t-26 -71t-68 -28t-72 28.5t-30 70.5zM639 1255q0 42 29 69.5t71 27.5q41 0 69 -27.5t28 -69.5t-28 -70.5t-69 -28.5q-42 0 -71 28.5t-29 70.5z" />
<glyph unicode="&#xe5;" d="M88 279q0 76 29.5 135.5t77 97t113.5 61.5t133 33.5t142 9.5q93 0 192 -15v45q0 117 -65 189.5t-193 72.5q-76 0 -149.5 -36t-127.5 -96q-18 -21 -34 -21q-11 0 -25 10l-5 3q-26 15 -26 30q0 10 9 25q55 95 155 150.5t221 55.5q212 0 301 -105t89 -314v-556 q0 -32 -11.5 -43t-42.5 -11h-41q-32 0 -43.5 11.5t-11.5 42.5v115h-1q-129 -192 -329 -192q-154 0 -255.5 80.5t-101.5 221.5zM249 292q0 -98 67.5 -152t170.5 -54q45 0 94 20t93 55.5t72.5 93t28.5 125.5v118q-103 16 -204 16q-47 0 -89.5 -6t-86 -22t-75 -40t-51.5 -64 t-20 -90zM334 1336q0 87 61 148.5t148 61.5q88 0 149 -61.5t61 -148.5t-61 -147.5t-149 -60.5q-87 0 -148 60.5t-61 147.5zM418 1336q0 -51 37 -87t88 -36q52 0 88 36t36 87t-36.5 88t-87.5 37t-88 -37t-37 -88z" />
<glyph unicode="&#xe6;" horiz-adv-x="1810" d="M87 279q0 76 29 135.5t76.5 97t113.5 61.5t133 33.5t142 9.5q89 0 193 -14v44q0 118 -64.5 190.5t-193.5 72.5q-76 0 -150 -36t-128 -96q-18 -21 -33 -21q-12 0 -26 10l-4 3q-26 15 -26 30q0 11 8 24q54 94 155 150t220 56q262 0 347 -165q68 79 165 122t215 43 q33 0 65 -3.5t77.5 -15.5t85 -32t81 -57t71.5 -86.5t51.5 -123.5t26.5 -165q2 -31 -9.5 -42.5t-42.5 -11.5h-741q0 -46 11 -96.5t37.5 -104.5t66 -96t102.5 -69.5t140 -27.5q191 0 313 163q17 23 32 23q10 0 27 -9l5 -3q26 -14 26 -31q0 -13 -8 -26q-131 -238 -416 -238 q-135 0 -240 53.5t-170 150.5q-75 -108 -183 -156t-223 -48q-154 0 -255.5 80.5t-101.5 221.5zM248 292q0 -98 67.5 -152t169.5 -54q45 0 94.5 20t93.5 55.5t72.5 93t28.5 125.5v118q-103 16 -205 16q-60 0 -113 -10.5t-101.5 -34.5t-77.5 -69t-29 -108zM923 593h642 q0 39 -9 80t-31.5 85.5t-56.5 79t-89.5 57t-124.5 22.5q-77 0 -138.5 -29t-96.5 -69.5t-58 -89t-30.5 -82.5t-7.5 -54z" />
<glyph unicode="&#xe7;" d="M102 495q0 153 58.5 273t172.5 190.5t265 70.5q131 0 225 -57t147 -163q9 -17 9 -27q0 -16 -30 -34l-6 -3q-16 -9 -26 -9q-17 0 -34 27q-92 153 -272 153q-155 0 -251 -110t-96 -300q0 -82 22.5 -155.5t64.5 -130.5t108.5 -90.5t149.5 -33.5q91 0 164.5 40.5t121.5 113.5 q15 22 27 22q10 0 25 -9l5 -3q26 -15 26 -31q0 -10 -8 -26q-88 -188 -304 -221l-56 -88q65 2 116.5 -38t51.5 -106q0 -89 -63.5 -131t-160.5 -42q-59 0 -117 21q-27 9 -27 28q0 13 5 27l2 6q9 27 28 27q11 0 24 -4q44 -13 83 -13q41 0 70.5 16.5t29.5 52.5q0 38 -36 60.5 t-87 31.5q-36 6 -36 24q0 12 10 28l57 96q-212 9 -335 151.5t-123 365.5z" />
<glyph unicode="&#xe8;" horiz-adv-x="1148" d="M101 501q0 233 137.5 380.5t359.5 147.5q33 0 65 -3.5t77.5 -15.5t85 -32.5t81 -57.5t71.5 -86t51.5 -123t26.5 -165q1 -31 -10 -42.5t-43 -11.5h-742q0 -46 11 -96.5t38 -104.5t66.5 -96t103 -69.5t140.5 -27.5q191 0 313 163q17 23 32 23q11 0 27 -9l5 -3 q26 -14 26 -31q0 -11 -9 -26q-131 -238 -416 -238q-228 0 -362.5 147t-134.5 377zM262 593h642q0 39 -9 80t-31.5 85.5t-56.5 78.5t-89.5 56.5t-124.5 22.5q-77 0 -139 -29t-96.5 -69.5t-57.5 -88.5t-30.5 -82t-7.5 -54zM344 1440q0 14 33 14h93q34 0 49 -8.5t34 -37.5 l137 -220q12 -21 12 -30q0 -20 -40 -20h-6q-39 0 -55 7.5t-42 36.5l-201 231q-14 15 -14 27z" />
<glyph unicode="&#xe9;" horiz-adv-x="1149" d="M101 501q0 234 137.5 381t359.5 147q33 0 65 -3.5t77.5 -15.5t85 -32.5t81 -57.5t71.5 -86t51.5 -123t26.5 -165q1 -31 -10 -42.5t-43 -11.5h-742q0 -46 11 -96.5t38 -104.5t66 -96t102.5 -69.5t140.5 -27.5q191 0 313 163q17 23 33 23q11 0 27 -9l5 -3q26 -14 26 -31 q0 -10 -9 -25q-130 -239 -416 -239q-228 0 -362.5 147t-134.5 377zM261 593h642q0 50 -15.5 102t-48.5 103.5t-97 84.5t-149 33q-77 0 -139 -29t-96.5 -69.5t-58 -88.5t-31 -82t-7.5 -54zM524 1158q0 9 12 30l137 220q19 29 34 37.5t49 8.5h93q33 0 33 -14q0 -11 -14 -26 l-202 -232q-25 -29 -41.5 -36.5t-54.5 -7.5h-7q-39 0 -39 20z" />
<glyph unicode="&#xea;" horiz-adv-x="1149" d="M101 501q0 234 137.5 381t359.5 147q33 0 65 -3.5t77.5 -15.5t85 -32.5t81 -57.5t71.5 -86t51.5 -123t26.5 -165q1 -31 -10 -42.5t-43 -11.5h-742q0 -46 11 -96.5t38 -104.5t66 -96t102.5 -69.5t140.5 -27.5q191 0 313 163q17 23 33 23q11 0 27 -9l5 -3q26 -14 26 -31 q0 -10 -9 -25q-130 -239 -416 -239q-228 0 -362.5 147t-134.5 377zM261 593h642q0 50 -15.5 102t-48.5 103.5t-97 84.5t-149 33q-77 0 -139 -29t-96.5 -69.5t-58 -88.5t-31 -82t-7.5 -54zM348 1159q0 13 13 33l135 210q22 33 39.5 42.5t57.5 9.5h6q41 0 58 -9t39 -43 l138 -209q13 -20 13 -34q0 -22 -43 -22h-6q-43 0 -61 10.5t-40 46.5l-97 160l-103 -162q-22 -35 -40 -45t-59 -10h-7q-43 0 -43 22z" />
<glyph unicode="&#xeb;" horiz-adv-x="1149" d="M101 501q0 233 137.5 380.5t359.5 147.5q33 0 65 -3.5t77.5 -16t85 -32.5t81 -57t72 -86t52 -123t26.5 -165q1 -31 -10 -42.5t-43 -11.5h-742q0 -46 11 -96.5t38 -104.5t66 -96t102.5 -69.5t140.5 -27.5q189 0 313 163q17 23 32 23q11 0 27 -9l6 -3q26 -14 26 -31 q0 -10 -9 -25q-130 -239 -417 -239q-227 0 -362 147t-135 377zM262 593h642q0 39 -8.5 80t-31.5 85.5t-56.5 78.5t-89.5 56.5t-125 22.5q-77 0 -138.5 -29t-96.5 -69.5t-58 -88.5t-30.5 -82t-7.5 -54zM317 1255q0 42 29.5 69.5t72.5 27.5q41 0 68 -27.5t27 -69.5t-27 -70.5 t-68 -28.5q-42 0 -72 28.5t-30 70.5zM704 1255q0 42 28 69.5t71 27.5q42 0 69.5 -27.5t27.5 -69.5t-27.5 -70.5t-69.5 -28.5q-43 0 -71 28.5t-28 70.5z" />
<glyph unicode="&#xec;" horiz-adv-x="482" d="M-51 1440q0 15 33 15h94q35 0 50 -8.5t33 -37.5l136 -222q12 -21 12 -29q0 -21 -40 -21h-6q-39 0 -55.5 8t-41.5 37l-201 232q-14 15 -14 26zM165 54v898q0 32 11.5 43t42.5 11h45q32 0 43 -11t11 -43v-898q0 -32 -11 -43t-43 -11h-45q-31 0 -42.5 11t-11.5 43z" />
<glyph unicode="&#xed;" horiz-adv-x="481" d="M165 54v898q0 32 11.5 43t42.5 11h43q32 0 43 -11t11 -43v-898q0 -32 -11 -43t-43 -11h-43q-31 0 -42.5 11t-11.5 43zM179 1158q0 10 11 29l138 221q19 29 34 37.5t49 8.5h93q32 0 32 -14q0 -12 -14 -27l-201 -231q-25 -29 -42 -37t-55 -8h-6q-39 0 -39 21z" />
<glyph unicode="&#xee;" horiz-adv-x="481" d="M-10 1159q0 12 14 34l135 210q22 34 38.5 43t57.5 9h6q40 0 57.5 -9.5t39.5 -42.5l138 -210q14 -22 14 -33q0 -22 -44 -22h-6q-43 0 -61 10t-40 47l-98 161l-102 -163q-22 -35 -40 -45t-59 -10h-6q-44 0 -44 21zM165 54v898q0 32 11.5 43t42.5 11h43q32 0 43 -11t11 -43 v-898q0 -32 -11 -43t-43 -11h-43q-31 0 -42.5 11t-11.5 43z" />
<glyph unicode="&#xef;" horiz-adv-x="481" d="M-50 1253q0 41 30 69.5t72 28.5q41 0 68 -28t27 -70t-27 -70.5t-68 -28.5q-42 0 -72 28.5t-30 70.5zM166 54v898q0 32 11 43t43 11h42q32 0 43 -11t11 -43v-898q0 -32 -11 -43t-43 -11h-42q-32 0 -43 11t-11 43zM336 1253q0 41 29 69.5t71 28.5q41 0 69 -28.5t28 -69.5 q0 -42 -28 -70.5t-69 -28.5q-42 0 -71 28.5t-29 70.5z" />
<glyph unicode="&#xf1;" horiz-adv-x="1158" d="M165 54v898q0 32 11.5 43t42.5 11h42q31 0 42.5 -11t11.5 -43v-121l1 -1q60 93 153.5 146t203.5 53q70 0 123.5 -16t89.5 -48t60 -71.5t36.5 -93.5t17.5 -107t5 -120v-519q0 -32 -11.5 -43t-42.5 -11h-42q-31 0 -42.5 11t-11.5 43v572q0 141 -51 208.5t-181 67.5 q-119 0 -213.5 -88.5t-94.5 -205.5v-554q0 -32 -11.5 -43t-42.5 -11h-42q-31 0 -42.5 11t-11.5 43zM344 1215q15 80 55.5 122.5t89.5 42.5q41 0 73 -16.5t47.5 -36t35.5 -36t40 -16.5q38 0 55 53q9 28 19.5 37.5t37.5 9.5h6q27 0 36.5 -10t4.5 -37q-15 -79 -56 -121.5 t-90 -42.5q-41 0 -72.5 16.5t-47 36t-35.5 36t-40 16.5q-38 0 -56 -54q-9 -28 -19 -37t-37 -9h-6q-27 0 -36.5 10.5t-4.5 35.5z" />
<glyph unicode="&#xf2;" horiz-adv-x="1201" d="M102 495q0 238 133.5 386t370.5 148q226 0 359.5 -146t133.5 -371q0 -240 -133 -387.5t-370 -147.5q-230 0 -362 143t-132 375zM265 506q0 -87 19 -161t58 -134t105 -94.5t153 -34.5q151 0 243.5 107t92.5 315q0 84 -20 158t-59.5 133.5t-105.5 94t-150 34.5 q-86 0 -152 -34.5t-105.5 -94t-59 -132.5t-19.5 -157zM343 1440q0 14 32 14h94q34 0 49 -8.5t34 -37.5l137 -220q11 -19 11 -30q0 -20 -39 -20h-6q-39 0 -56 7.5t-42 36.5l-200 231q-14 15 -14 27z" />
<glyph unicode="&#xf3;" horiz-adv-x="1200" d="M102 495q0 238 133 386t371 148q226 0 359.5 -146t133.5 -371q0 -240 -133 -387.5t-370 -147.5q-231 0 -362.5 143t-131.5 375zM265 506q0 -87 19 -161t58 -134t105 -94.5t153 -34.5q151 0 243.5 107t92.5 315q0 84 -20 158t-59.5 133.5t-105 94t-150.5 34.5 q-86 0 -152 -34.5t-105.5 -94t-59 -132.5t-19.5 -157zM511 1158q0 11 11 30l138 220q19 29 34 37.5t49 8.5h93q32 0 32 -14q0 -12 -14 -27l-200 -230q-26 -30 -42 -37.5t-55 -7.5h-6q-40 0 -40 20z" />
<glyph unicode="&#xf4;" horiz-adv-x="1200" d="M102 495q0 238 133.5 386t371.5 148q226 0 359 -146t133 -371q0 -240 -133 -387.5t-370 -147.5q-230 0 -362 143t-132 375zM265 506q0 -87 19 -161t58 -134t105 -94.5t153 -34.5q151 0 243.5 107t92.5 315q0 84 -20 158t-59.5 133t-105.5 93.5t-150 34.5 q-86 0 -152 -34.5t-105.5 -93.5t-59 -132t-19.5 -157zM351 1159q0 13 13 33l135 210q22 34 39 43t57 9h7q41 0 58 -9t39 -43l137 -209q14 -22 14 -34q0 -22 -44 -22h-6q-43 0 -61 10.5t-40 46.5l-97 160l-102 -161q-22 -36 -39.5 -46t-59.5 -10h-7q-43 0 -43 22z" />
<glyph unicode="&#xf5;" horiz-adv-x="1199" d="M101 495q0 156 58 276t173.5 189t273.5 69q226 0 359 -146t133 -371q0 -240 -133 -387.5t-370 -147.5q-231 0 -362.5 143t-131.5 375zM264 506q0 -86 19.5 -160.5t58 -134.5t105 -94.5t153.5 -34.5q151 0 243.5 107t92.5 315q0 84 -20 158t-60 133.5t-106 94t-150 34.5 q-86 0 -152 -34.5t-105.5 -94t-59 -132.5t-19.5 -157zM350 1215q15 79 55.5 121t89.5 42q41 0 73 -16.5t47.5 -36t35.5 -36t40 -16.5q36 0 54 54q9 28 20 37t38 9h6q43 0 43 -30q0 -4 -2 -18q-16 -78 -56.5 -120t-88.5 -42q-42 0 -73.5 16.5t-47 35.5t-35.5 35.5t-40 16.5 q-39 0 -55 -53q-9 -28 -19.5 -37.5t-37.5 -9.5h-6q-27 0 -36.5 10.5t-4.5 37.5z" />
<glyph unicode="&#xf6;" horiz-adv-x="1200" d="M101 495q0 238 133.5 386t371.5 148q226 0 359.5 -146t133.5 -371q0 -240 -133.5 -387.5t-370.5 -147.5q-230 0 -362 143t-132 375zM265 506q0 -87 19 -161t58 -134t105 -94.5t153 -34.5q151 0 243.5 107t92.5 315q0 84 -20 158t-59.5 133.5t-105.5 94t-150 34.5 q-86 0 -152.5 -34.5t-105.5 -94t-58.5 -132.5t-19.5 -157zM309 1255q0 41 30 69t72 28q41 0 68 -27.5t27 -69.5t-27 -70.5t-68 -28.5q-42 0 -72 28.5t-30 70.5zM695 1255q0 42 28.5 69.5t70.5 27.5t70 -27.5t28 -69.5t-28 -70.5t-70 -28.5q-41 0 -70 28.5t-29 70.5z" />
<glyph unicode="&#xf7;" horiz-adv-x="1302" d="M136 575v69q0 23 8.5 31.5t31.5 8.5h952q23 0 31 -8.5t8 -31.5v-69q0 -23 -8 -31.5t-31 -8.5h-952q-23 0 -31.5 8.5t-8.5 31.5zM533 173q0 49 34.5 84t84.5 35t84.5 -35t34.5 -84t-34.5 -83.5t-84.5 -34.5t-84.5 34.5t-34.5 83.5zM533 1046q0 49 34.5 83.5t84.5 34.5 t84.5 -34.5t34.5 -83.5q0 -50 -34.5 -84.5t-84.5 -34.5t-84.5 34.5t-34.5 84.5z" />
<glyph unicode="&#xf8;" horiz-adv-x="1200" d="M101 495q0 156 57.5 275.5t173 189t274.5 69.5q160 0 278 -77l68 91q17 22 32 22q12 0 26 -14l4 -4q21 -15 21 -29q0 -12 -13 -28l-70 -94q146 -148 146 -384q0 -240 -133 -387.5t-370 -147.5q-162 0 -282 74l-66 -87q-15 -21 -28 -21q-9 0 -29 13l-6 4q-20 16 -20 29 q0 12 13 28l68 89q-144 141 -144 389zM264 506q0 -174 68 -287l474 632q-85 72 -206 72q-86 0 -152.5 -34.5t-105.5 -94t-58.5 -132.5t-19.5 -156zM391 153q85 -72 209 -72q150 0 242.5 107.5t92.5 315.5q0 170 -69 281z" />
<glyph unicode="&#xf9;" horiz-adv-x="1158" d="M154 434v518q0 32 11 43t43 11h42q32 0 43 -11t11 -43v-572q0 -141 50.5 -208t180.5 -67q120 0 213.5 88t93.5 205v554q0 32 11 43t43 11h43q31 0 42.5 -11t11.5 -43v-898q0 -32 -11.5 -43t-42.5 -11h-43q-32 0 -43 11t-11 43v122h-1q-59 -93 -152 -146t-203 -53 q-83 0 -143.5 24.5t-96.5 63.5t-57 101t-28 124t-7 144zM312 1440q0 14 33 14h92q34 0 49 -8.5t34 -37.5l137 -220q12 -18 12 -30q0 -20 -39 -20h-6q-39 0 -56 7.5t-42 36.5l-200 231q-14 15 -14 27z" />
<glyph unicode="&#xfa;" horiz-adv-x="1158" d="M154 434v518q0 32 11 43t43 11h42q32 0 43 -11t11 -43v-572q0 -141 50.5 -208t180.5 -67q120 0 213.5 88t93.5 205v554q0 32 11 43t43 11h44q32 0 43 -11t11 -43v-898q0 -32 -11 -43t-43 -11h-44q-32 0 -43 11t-11 43v122h-1q-58 -93 -151.5 -146t-203.5 -53 q-83 0 -143.5 24.5t-96.5 63.5t-57 100.5t-28 124t-7 144.5zM486 1158q0 9 12 30l137 220q19 29 34 37.5t49 8.5h93q33 0 33 -14q0 -12 -14 -27l-201 -231q-25 -29 -42 -36.5t-55 -7.5h-6q-40 0 -40 20z" />
<glyph unicode="&#xfb;" horiz-adv-x="1158" d="M154 434v518q0 32 11 43t43 11h42q32 0 43 -11t11 -43v-572q0 -141 50.5 -208t180.5 -67q120 0 213.5 88t93.5 205v554q0 32 11 43t43 11h43q31 0 42.5 -11t11.5 -43v-898q0 -32 -11.5 -43t-42.5 -11h-43q-32 0 -43 11t-11 43v122h-1q-59 -93 -152 -146t-203 -53 q-83 0 -143.5 24.5t-96.5 63.5t-57 101t-28 124t-7 144zM337 1159q0 13 13 33l135 210q22 33 39.5 42.5t57.5 9.5h6q41 0 58 -9t39 -43l137 -209q14 -22 14 -34q0 -22 -43 -22h-6q-43 0 -61 10t-40 47l-99 160l-102 -162q-22 -35 -40 -45t-59 -10h-6q-43 0 -43 22z" />
<glyph unicode="&#xfc;" horiz-adv-x="1157" d="M153 434v518q0 32 11.5 43t42.5 11h42q31 0 42.5 -11t11.5 -43v-572q0 -140 51 -207.5t181 -67.5q120 0 213.5 88t93.5 205v554q0 32 11 43t43 11h42q32 0 43 -11t11 -43v-898q0 -32 -11 -43t-43 -11h-42q-32 0 -43 11t-11 43v122h-1q-59 -93 -152.5 -146t-203.5 -53 q-83 0 -143.5 24.5t-96.5 63.5t-57 101t-28 124t-7 144zM281 1253q0 41 30 69.5t72 28.5q41 0 68 -28t27 -70t-27 -70t-68 -28q-42 0 -72 28.5t-30 69.5zM668 1253q0 42 28 70t71 28q41 0 69 -28t28 -70t-28 -70t-69 -28q-43 0 -71 28t-28 70z" />
<glyph unicode="&#xfd;" horiz-adv-x="988" d="M42 983q0 23 40 23h64q34 0 48 -9.5t27 -40.5l282 -711l293 711q13 31 27 40.5t48 9.5h35q40 0 40 -23q0 -11 -6 -26l-419 -1004q-22 -52 -34.5 -81.5t-33 -73t-35 -67.5t-36 -56.5t-41 -50.5t-46 -39t-55 -32.5t-63 -20t-74.5 -11.5q-25 -1 -34 8t-9 35v6q0 25 8.5 33.5 t34.5 13.5q78 13 147.5 87t133.5 245l38 101l-373 906q-7 19 -7 27zM426 1158q0 8 12 29l138 221q19 29 34 37.5t49 8.5h92q33 0 33 -14q0 -12 -14 -27l-200 -231q-26 -29 -42.5 -37t-55.5 -8h-6q-40 0 -40 21z" />
<glyph unicode="&#xff;" horiz-adv-x="986" d="M42 983q0 23 40 23h64q34 0 47.5 -9.5t26.5 -40.5l282 -711l293 711q13 31 27 40.5t48 9.5h36q40 0 40 -23q0 -9 -7 -26l-419 -1004q-20 -48 -31 -74t-29.5 -66t-31 -62.5t-31.5 -54t-35 -49t-38 -39.5t-45 -34.5t-50.5 -25t-58.5 -18.5t-67 -9q-25 -1 -34.5 8t-9.5 35v6 q0 25 9 33.5t35 13.5q77 13 146 87.5t134 244.5l39 101l-373 906q-7 19 -7 27zM221 1253q0 41 30 69.5t72 28.5q41 0 67.5 -28t26.5 -70q0 -43 -26 -71t-68 -28t-72 28.5t-30 70.5zM607 1253q0 41 29.5 69.5t70.5 28.5t69 -28.5t28 -69.5q0 -42 -28 -70.5t-69 -28.5 q-42 0 -71 28.5t-29 70.5z" />
<glyph unicode="&#x152;" horiz-adv-x="2036" d="M108 724q0 221 90 393t254.5 267t377.5 95q108 0 205 -27h828q29 0 40 -11t11 -40v-6q0 -29 -11 -40t-40 -11h-669v-534h600q29 0 40 -10.5t11 -39.5v-6q0 -29 -11 -39.5t-40 -10.5h-600v-596h681q29 0 39.5 -11t10.5 -40v-6q0 -29 -10.5 -40t-39.5 -11h-837 q-33 0 -101.5 -13t-106.5 -13q-215 0 -380 96t-253.5 266.5t-88.5 387.5zM280 728q0 -132 36.5 -249t104.5 -206t174 -141t235 -52q107 0 205 37v1217q-94 37 -207 37q-166 0 -292 -86.5t-191 -231.5t-65 -325z" />
<glyph unicode="&#x153;" horiz-adv-x="1982" d="M101 495q0 156 57.5 275.5t173 189t274.5 69.5q137 0 243 -55.5t170 -155.5q66 100 173 155.5t241 55.5q32 0 64.5 -3.5t77.5 -15.5t84.5 -32t81 -57.5t72 -86.5t52 -123t26.5 -165q1 -31 -10 -42.5t-43 -11.5h-741q0 -46 11 -96.5t38 -104.5t66 -96t102.5 -69.5 t140.5 -27.5q191 0 313 163q17 23 32 23q10 0 27 -9l5 -3q26 -14 26 -31q0 -13 -8 -26q-131 -238 -416 -238q-138 0 -244.5 55t-171.5 155q-64 -100 -171.5 -155t-250.5 -55q-231 0 -363 143t-132 375zM265 506q0 -87 19 -161t58 -134t105 -94.5t153 -34.5q151 0 243.5 107 t92.5 315q0 114 -34 206.5t-111.5 153t-189.5 60.5q-86 0 -152.5 -34.5t-105.5 -94t-58.5 -132.5t-19.5 -157zM1097 593h642q0 39 -9 80t-31.5 85.5t-56.5 79t-89.5 57t-124.5 22.5q-77 0 -138.5 -29t-96.5 -69.5t-58 -89t-30.5 -82.5t-7.5 -54z" />
<glyph unicode="&#x178;" horiz-adv-x="1225" d="M12 1432q0 21 40 21h67q39 0 55 -9t36 -42l416 -675l433 665q25 39 44.5 50t65.5 11h6q48 0 48 -24q0 -15 -15 -37l-517 -801v-531q0 -35 -12.5 -47.5t-47.5 -12.5h-41q-35 0 -47.5 12.5t-12.5 47.5v530l-507 812q-11 18 -11 30zM341 1668q0 41 30 69t72 28q41 0 68 -28 t27 -69q0 -42 -27 -70.5t-68 -28.5q-42 0 -72 28.5t-30 70.5zM727 1668q0 41 29 69t72 28q41 0 68.5 -28t27.5 -69q0 -42 -27.5 -70.5t-68.5 -28.5q-43 0 -72 28.5t-29 70.5z" />
<glyph unicode="&#x2c6;" horiz-adv-x="688" d="M87 1191q0 9 8 21l161 249q13 22 24.5 28t37.5 6h51q26 0 37.5 -6t24.5 -27l164 -251q9 -12 9 -20q0 -13 -26 -13h-59q-26 0 -37 6t-24 28l-111 183l-116 -183q-13 -22 -24 -28t-37 -6h-57q-26 0 -26 13z" />
<glyph unicode="&#x2dc;" horiz-adv-x="758" d="M127 1253q12 88 53.5 135.5t93.5 47.5q41 0 72.5 -16.5t47 -36t35.5 -36t40 -16.5q44 0 60 71q4 17 10.5 22.5t23.5 5.5h43q17 0 22.5 -6t3.5 -22q-12 -87 -54 -134.5t-94 -47.5q-41 0 -73 16.5t-47.5 36t-35.5 36t-40 16.5q-43 0 -59 -72q-4 -17 -10.5 -22.5t-23.5 -5.5 h-43q-16 0 -21.5 6t-3.5 22z" />
<glyph unicode="&#x2000;" horiz-adv-x="984" />
<glyph unicode="&#x2001;" horiz-adv-x="1968" />
<glyph unicode="&#x2002;" horiz-adv-x="984" />
<glyph unicode="&#x2003;" horiz-adv-x="1968" />
<glyph unicode="&#x2004;" horiz-adv-x="656" />
<glyph unicode="&#x2005;" horiz-adv-x="492" />
<glyph unicode="&#x2006;" horiz-adv-x="328" />
<glyph unicode="&#x2007;" horiz-adv-x="328" />
<glyph unicode="&#x2008;" horiz-adv-x="246" />
<glyph unicode="&#x2009;" horiz-adv-x="393" />
<glyph unicode="&#x200a;" horiz-adv-x="109" />
<glyph unicode="&#x2010;" horiz-adv-x="797" d="M144 516v72q0 19 7.5 26.5t27.5 7.5h440q19 0 26.5 -7t7.5 -27v-72q0 -20 -7.5 -27t-26.5 -7h-440q-20 0 -27.5 7.5t-7.5 26.5z" />
<glyph unicode="&#x2011;" horiz-adv-x="797" d="M144 516v72q0 19 7.5 26.5t27.5 7.5h440q19 0 26.5 -7t7.5 -27v-72q0 -20 -7.5 -27t-26.5 -7h-440q-20 0 -27.5 7.5t-7.5 26.5z" />
<glyph unicode="&#x2012;" horiz-adv-x="797" d="M144 516v72q0 19 7.5 26.5t27.5 7.5h440q19 0 26.5 -7t7.5 -27v-72q0 -20 -7.5 -27t-26.5 -7h-440q-20 0 -27.5 7.5t-7.5 26.5z" />
<glyph unicode="&#x2013;" horiz-adv-x="1290" d="M152 522v60q0 20 7 27t27 7h919q19 0 26.5 -7t7.5 -27v-60q0 -20 -7.5 -27t-26.5 -7h-919q-20 0 -27 7t-7 27z" />
<glyph unicode="&#x2014;" horiz-adv-x="2244" d="M152 522v60q0 20 7 27t27 7h1873q19 0 26.5 -7t7.5 -27v-60q0 -20 -7.5 -27t-26.5 -7h-1873q-20 0 -27 7t-7 27z" />
<glyph unicode="&#x2018;" horiz-adv-x="392" d="M94 1174q0 42 27.5 108.5t105.5 205.5q11 20 21.5 25t32.5 3l7 -1q25 -3 25 -18q0 -9 -5 -19q-60 -126 -79 -232q26 -11 42.5 -35.5t16.5 -54.5q0 -40 -29 -68t-69 -28q-42 0 -69 31t-27 83z" />
<glyph unicode="&#x2019;" horiz-adv-x="400" d="M108 1083q0 7 6 19q60 123 80 234q-27 11 -43.5 35t-16.5 53q0 41 28.5 68.5t69.5 27.5t68.5 -30.5t27.5 -82.5q0 -42 -27 -109t-106 -206q-11 -19 -21.5 -24.5t-33.5 -3.5l-6 1q-26 3 -26 18z" />
<glyph unicode="&#x201a;" horiz-adv-x="451" d="M103 -256q0 6 5 18q59 127 79 234q-27 11 -43 35t-16 54q0 40 29 68t70 28t68.5 -30.5t27.5 -82.5q0 -43 -27.5 -110t-106.5 -206q-11 -19 -21.5 -24t-32.5 -3l-6 1q-26 3 -26 18z" />
<glyph unicode="&#x201c;" horiz-adv-x="701" d="M95 1174q0 42 27 108t105 206q11 20 21 25t33 3l7 -1q25 -3 25 -18q0 -9 -5 -19q-60 -126 -79 -232q26 -11 42.5 -35.5t16.5 -54.5q0 -40 -29 -68t-69 -28q-41 0 -68 31t-27 83zM403 1174q0 42 27.5 108.5t105.5 205.5q11 20 21.5 25t33.5 3h6q25 -3 25 -18q0 -9 -5 -19 q-59 -125 -79 -233q26 -11 42.5 -35.5t16.5 -54.5q0 -40 -28.5 -68t-68.5 -28q-42 0 -69.5 31t-27.5 83z" />
<glyph unicode="&#x201d;" horiz-adv-x="709" d="M108 1083q0 7 6 19q58 122 78 234q-26 11 -42.5 35t-16.5 53q0 41 29 68.5t69 27.5q42 0 69.5 -30.5t27.5 -82.5q0 -42 -27 -107.5t-106 -206.5q-11 -20 -21.5 -25.5t-33.5 -3.5l-6 1q-26 3 -26 18zM417 1083q0 9 5 19q58 120 79 234q-26 11 -42.5 35t-16.5 53 q0 41 29 68.5t70 27.5t68 -30.5t27 -82.5q0 -42 -27 -107.5t-106 -206.5q-11 -20 -21.5 -25.5t-32.5 -3.5l-7 1q-25 3 -25 18z" />
<glyph unicode="&#x201e;" horiz-adv-x="757" d="M101 -257q0 9 6 19q59 124 79 234q-27 11 -43 35t-16 54q0 40 29 68t69 28q41 0 68.5 -30.5t27.5 -82.5q0 -42 -27.5 -108.5t-105.5 -206.5q-11 -19 -21.5 -24.5t-33.5 -3.5l-6 1q-26 3 -26 17zM410 -257q0 10 5 19q61 128 80 234q-26 12 -43 35.5t-17 53.5 q0 39 29.5 67.5t69.5 28.5q41 0 68.5 -30.5t27.5 -82.5q0 -41 -27.5 -107.5t-106.5 -207.5q-11 -20 -21.5 -25t-32.5 -3h-6q-26 3 -26 18z" />
<glyph unicode="&#x2022;" horiz-adv-x="792" d="M106 697q0 120 85 205t205 85t205 -85t85 -205t-85 -205t-205 -85t-205 85t-85 205z" />
<glyph unicode="&#x2026;" horiz-adv-x="1767" d="M126 91q0 42 30.5 71t73.5 29t72 -29t29 -71q0 -43 -29 -72.5t-72 -29.5t-73.5 29.5t-30.5 72.5zM782 91q0 42 30 71t73 29t72 -29t29 -71q0 -43 -29 -72.5t-72 -29.5t-73 29.5t-30 72.5zM1437 91q0 42 30 71t73 29t72 -29t29 -71q0 -43 -29 -72.5t-72 -29.5t-73 29.5 t-30 72.5z" />
<glyph unicode="&#x202f;" horiz-adv-x="393" />
<glyph unicode="&#x2039;" horiz-adv-x="609" d="M66 524q0 15 16 37l244 343q17 24 29.5 30.5t42.5 6.5h63q30 0 30 -15q0 -8 -9 -23l-245 -379l245 -380q9 -15 9 -24q0 -15 -30 -15h-63q-29 0 -42 6.5t-30 31.5l-244 343q-16 22 -16 38z" />
<glyph unicode="&#x203a;" horiz-adv-x="607" d="M117 120q0 7 10 24l245 380l-245 379q-10 17 -10 23q0 15 30 15h63q30 0 42 -6t29 -31l245 -343q16 -24 16 -37q0 -14 -16 -38l-245 -343q-17 -25 -29.5 -31.5t-41.5 -6.5h-63q-30 0 -30 15z" />
<glyph unicode="&#x205f;" horiz-adv-x="492" />
<glyph unicode="&#x20ac;" horiz-adv-x="1343" d="M85 547q0 7 5 24l2 7q11 32 24 41.5t46 9.5h78q-1 15 -1 46q0 66 7 128h-119q-42 0 -42 26q0 8 5 25l2 6q11 32 24 41.5t46 9.5h102q53 234 203.5 375.5t370.5 141.5q123 0 223 -51.5t165 -147.5q12 -18 12 -29q0 -16 -24 -34l-5 -3q-16 -13 -28 -13q-13 0 -31 22 q-112 140 -311 140q-172 0 -273.5 -108t-135.5 -293h570q42 0 42 -26q0 -8 -5 -25l-2 -6q-11 -32 -24 -41.5t-46 -9.5h-549q-4 -66 -4 -99q0 -23 2 -75h496q41 0 41 -27q0 -11 -4 -24l-2 -7q-11 -32 -24 -41.5t-46 -9.5h-450q33 -198 135.5 -314.5t278.5 -116.5 q163 0 284 128q20 21 35 21q11 0 31 -11l6 -3q24 -14 24 -30q0 -11 -12 -29q-138 -191 -376 -191t-391 147t-190 399h-123q-42 0 -42 27z" />
<glyph unicode="&#x2122;" horiz-adv-x="2033" d="M99 1385v33q0 20 7.5 27t26.5 7h614q19 0 26.5 -7t7.5 -27v-33q0 -19 -7.5 -26.5t-26.5 -7.5h-243v-736q0 -19 -7.5 -26.5t-27.5 -7.5h-58q-19 0 -26.5 7.5t-7.5 26.5v736h-244q-19 0 -26.5 7.5t-7.5 26.5zM915 615v803q0 20 7.5 27t26.5 7h142q22 0 31 -6t17 -26 l253 -630l249 630q7 19 17 25.5t31 6.5h139q20 0 27 -7t7 -27v-803q0 -19 -7 -26.5t-27 -7.5h-58q-20 0 -27.5 7.5t-7.5 26.5v723h-1l-290 -722q-9 -22 -19 -28.5t-33 -6.5h-6q-23 0 -33.5 6.5t-19.5 28.5l-289 722h-1v-723q0 -19 -7.5 -26.5t-27.5 -7.5h-59 q-19 0 -26.5 7.5t-7.5 26.5z" />
<glyph unicode="&#x25fc;" horiz-adv-x="1007" d="M0 0v1008h1008v-1008h-1008z" />
</font>
</defs>
</svg>
