<svg width="500px" height="525px" viewBox="0 0 500 500" xmlns="http://www.w3.org/2000/svg" preserveAspectRatio="xMidYMid meet">

    <defs>
        <clipPath id="formato"><path d="M454.05,128.223C335.565,115.063,249.995-0.117,249.995-0.117s-85.55,115.18-204.04,128.34 c0,0-62.53,263.285,204.04,371.896C516.565,391.508,454.05,128.223,454.05,128.223z"/></clipPath>
    </defs>

    <g id="fundo" fill="#000000" x="0"><path d="M454.05,128.223C335.565,115.063,249.995-0.117,249.995-0.117s-85.55,115.18-204.04,128.34 c0,0-62.53,263.285,204.04,371.896C516.565,391.508,454.05,128.223,454.05,128.223z"/></g>

    <g id="estampa1" fill="#ffffff" x="0" clip-path="url(#formato)"><rect x="300" width="50" height="100%"/><rect y="150" width="100%" height="50"/></g>

    <g id="borda" fill="none" stroke="#cccccc" stroke-width="10" x="0"><path d="M454.05,128.223C335.565,115.063,249.995-0.117,249.995-0.117s-85.55,115.18-204.04,128.34 c0,0-62.53,263.285,204.04,371.896C516.565,391.508,454.05,128.223,454.05,128.223z"/></g>

    
<g id="adorno"></g>

</svg>
